<svg xmlns="http://www.w3.org/2000/svg" width="181" height="149"><text transform="translate(10 141)" fill="#00ae74" font-family="Arial" font-size="32">Box Trucks</text><path fill="#04ae74" d="M3.73 0C1.707.193-.01 2.114 0 4.176v83.496c0 2.187 1.96 4.176 4.115 4.176h10.353c1.013 9.375 8.955 16.7 18.453 16.7s17.44-7.324 18.454-16.7h51.503c2.156 0 4.115-1.99 4.115-4.176V4.176c0-2.187-1.96-4.175-4.115-4.176H3.73zm4.5 8.35h90.533v45.924H55.168c-2.155.103-4.025 2.185-3.924 4.37s2.154 4.082 4.3 3.98h43.21v6.263H81.917c-2.155.103-4.024 2.184-3.923 4.37s2.154 4.082 4.31 3.98h16.46V83.5H8.23V8.35zm108.858 8.35c-2.07.1-3.893 2.01-3.923 4.11v57.665c0 1.834 1.336 3.584 3.086 4.042s3.754-.415 4.63-2.02c3.545-6.475 11.283-11.61 19.032-11.61 10.608 0 19.27 8.75 20.575 19.31.25 2.007 2.123 3.67 4.116 3.653h12.346c2.154 0 4.114-1.99 4.114-4.175V56.36c.008-.284-.016-.568-.063-.85-.722-3.79-4.023-6.724-7.266-7.437a4.05 4.05 0 0 0-.838-.064h-8.808l-3.665-27.724c-.275-1.962-2.097-3.577-4.05-3.588l-39.285.002zm4.307 8.35h6.173l-.063 22.896c-.033 2.207 1.938 4.24 4.116 4.24h24.754l.065.52c.246 1.985 2.077 3.637 4.05 3.653h11.64c.53.063.595.02.706.717v26.42h-5.207c-3.227-12.786-14.035-22.962-27.714-22.962-6.982 0-13.37 2.816-18.52 7.045V25.05zm14.404 0h16.975l2.507 18.786h-19.546l.064-18.786zm-72.4 43.836c-2.155.103-4.023 2.184-3.922 4.37s2.153 4.082 4.31 3.98H67.9c2.173.03 4.174-1.97 4.174-4.175s-2-4.206-4.174-4.175l-4.502.001zm76.516 6.262c-9.042 0-16.46 7.526-16.46 16.7s7.418 16.7 16.46 16.7 16.46-7.526 16.46-16.7-7.418-16.7-16.46-16.7zm0 8.35c4.594 0 8.23 3.688 8.23 8.35s-3.637 8.35-8.23 8.35-8.23-3.688-8.23-8.35 3.636-8.35 8.23-8.35zm-117.088 8.35h20.19c-.926 4.81-5.06 8.35-10.095 8.35s-9.167-3.54-10.094-8.35z"/></svg>