<svg xmlns="http://www.w3.org/2000/svg" width="181" height="149"><text transform="translate(23 141)" fill="#00ae74" font-family="Arial" font-size="32">Campers</text><path d="M50.317 49.605H75.12a2.48 2.48 0 0 0 2.48-2.477V32.246a2.48 2.48 0 0 0-2.477-2.481H55.28a2.49 2.49 0 0 0-2.354 1.697l-4.96 14.88a2.48 2.48 0 0 0 1.576 3.139 2.52 2.52 0 0 0 .776.123zm6.748-14.88H72.64v9.92H53.758l3.307-9.92zm97.425-9.922h-29.766a2.48 2.48 0 0 0-2.479 2.478v19.845c-.002 1.37 1.107 2.48 2.48 2.48h29.766c1.37 0 2.48-1.107 2.48-2.477V27.284c.002-1.37-1.107-2.48-2.477-2.48zm-27.285 19.843V29.764h9.922v14.882h-9.922zm24.802 0h-9.92V29.764h9.92v14.882zM152.004 0H32.933a2.48 2.48 0 0 0-2.407 1.88L27.1 15.586c-.996 3.973 1.418 8 5.4 8.995.6.147 1.196.222 1.805.222h9.858l-8.1 20.225-14.13 3.532a7.52 7.52 0 0 0-5.567 8.488l1.223 7.33c-1.158.205-2.006 1.2-2.016 2.385v5.166a2.48 2.48 0 0 0 2.478 2.482h1.2l1.307 7.847a2.48 2.48 0 0 0 2.447 2.072h4.96v-.104l.246.063a14.88 14.88 0 0 0 6.438 9.963h-6.68a2.48 2.48 0 0 0-2.48 2.479 2.48 2.48 0 0 0 2.48 2.48h114.093a2.48 2.48 0 0 0 2.48-2.48 2.48 2.48 0 0 0-2.48-2.479H130.42c3.424-2.275 5.754-5.867 6.436-9.922h25.05a2.48 2.48 0 0 0 2.48-2.477v-69.47A12.4 12.4 0 0 0 152.004 0zM70.137 4.96v4.96h-14.88V4.96h14.88zM23.133 53.373l15.36-3.84a2.47 2.47 0 0 0 1.702-1.485l9.296-23.243h30.567v34.723H63.724l.726-.727a2.48 2.48 0 0 0-1.753-4.236H21.584a2.49 2.49 0 0 1 1.55-1.19zm61.887-28.57h24.803v34.724H85.02V24.803zm42.164 57.047a4.96 4.96 0 0 1-4.959 4.961c-2.74 0-4.963-2.22-4.963-4.96v-2.48h9.922v2.48zM23.52 64.385a2.41 2.41 0 0 0-.509-.104h-.413l-.792-4.754h3.685v2.48a2.45 2.45 0 0 1-1.971 2.378zm.706 9.66a2.45 2.45 0 0 0 1.265-2.117v-2.928a7.43 7.43 0 0 0 4.961-6.984v-2.48H56.7l-.727.73a2.48 2.48 0 0 0 0 3.507 2.49 2.49 0 0 0 1.753.725H80.06v9.922H56.245c-1.82-2.645-4.326-4.744-7.246-6.076-.154-.07-.295-.158-.448-.223a15.08 15.08 0 0 0-1.834-.57c-.323-.088-.633-.213-.965-.28a14.46 14.46 0 0 0-5.795 0c-.33.064-.634.2-.953.273-.628.152-1.245.346-1.85.576-.147.063-.28.145-.43.213a17.74 17.74 0 0 0-7.266 6.084h-5.173l-.06-.362zm18.627 2.844a4.961 4.961 0 1 1-4.961 4.961c.003-2.74 2.222-4.96 4.96-4.96zm66.97-4.96v2.47H85.02v-9.922h24.803v7.44zM51.05 94.252a14.87 14.87 0 0 0 6.435-9.922h50.108c.682 4.055 3.012 7.646 6.436 9.922H51.05zm88.536-19.84h-1.453l-4.234-4.234c-.465-.467-1.096-.727-1.754-.727h-17.36v-4.96h44.646v9.92h-19.844v.002zm19.842-49.608v29.764h-4.96a2.48 2.48 0 0 0-2.479 2.479v2.482h-37.205V22.323a2.48 2.48 0 0 0-2.479-2.48H34.292c-1.355-.001-2.453-1.1-2.452-2.458a2.34 2.34 0 0 1 .074-.594L34.87 4.96h15.427v7.44a2.48 2.48 0 0 0 2.478 2.48H72.62a2.48 2.48 0 0 0 2.479-2.478v-7.442h76.906a7.44 7.44 0 0 1 7.426 7.425v2.498h-4.96a2.48 2.48 0 1 0 0 4.96h4.96l-.003 4.96zm-54.545 4.96H94.96a2.48 2.48 0 0 0-2.479 2.479v14.884c0 1.37 1.107 2.48 2.477 2.48h9.924c1.37 0 2.48-1.107 2.48-2.477V32.247a2.48 2.48 0 0 0-2.475-2.481zm-2.48 14.882h-4.96v-9.92h4.96v9.92z" fill="#02ae74"/></svg>