<svg xmlns="http://www.w3.org/2000/svg" width="181" height="149"><text transform="translate(6 141)" fill="#00ae74" font-family="Arial" font-size="32">Dealerships</text><path fill-rule="evenodd" fill="#08af77" d="M32.93 20.126h146.174c1.433.626 1.938 1.684 1.934 3.272l.01 49.56c-.405 3.14-2.934 2.246-5.008 2.472 1.686 2.8 2.546 5.663 2.375 8.84-.25 4.65-3.64 9.692-8.12 11.155-3.97 1.297-7.776.87-11.093-1.676-2.873-2.205-4.53-5.26-4.97-8.91-.04-.334.103-.744-.445-.88-.11 3.838-1.795 6.986-4.583 9.46-2.395 2.124-5.375 2.958-8.57 2.623-5.567-.583-8.887-3.893-10.554-9.047-.253-.78-.534-1.106-1.425-1.104l-32.563.007c-.81-.002-1.17.196-1.357 1.03-.64 2.832-2.334 5.058-4.53 6.822-4.28 3.438-11.6 3.073-15.47-1.18-3.095-3.393-4.138-7.21-3.555-11.64.26-1.98 1.282-3.656 2.086-5.452h-4.978l1.014 1.998c2.733 5.79 1.27 12.163-3.5 16.097-3.4 2.8-7.435 3.282-11.584 1.71-3.93-1.5-6.208-4.51-7.363-8.446-.195-.666-.438-.948-1.182-.94l-10.775.005c-.656-.005-.95.164-1.108.852-.644 2.78-2.21 5.06-4.362 6.83-4.523 3.723-11.83 3.15-15.57-.894C11.25 89.886 9.94 86.748 9.98 83c.01-.94-.282-1.104-1.122-1.074-1.774.062-3.552.02-5.328.018-2.033-.004-2.715-.576-3.108-2.6L.405 53.53c.17-2.627 1.018-5.07 2.284-7.33 1.837-3.28 4.56-5.796 7.697-7.77 3.234-2.036 6.95-3.03 10.606-3.982 3.04-.79 6.213-1.048 9.375-1.046.746 0 .923-.26.915-.96-.034-2.88.064-5.763-.045-8.638-.06-1.59.306-2.828 1.694-3.677zm3.19 25.727c-.017.302-.037.494-.037.686l-.026 22.624c-.006 1.012.3 1.217 1.257 1.217l137.755.004c1.017 0 1.208-.294 1.206-1.25l-.026-42.286c-.001-1.773.323-1.645-1.626-1.645L62.453 25.2c-8.4 0-16.82.01-25.23-.016-.875-.003-1.234.153-1.22 1.153l.064 15.277c-.001.702.174 1.003.917.966a28.65 28.65 0 0 1 2.96.001c.753.04 1.09-.294 1.397-.953 1.03-2.213 1.724-4.573 2.96-6.697 1.182-2.032 2.84-3.152 5.272-3.138l20.136-.006c2.46-.022 4.1 1.125 5.293 3.117 1.272 2.14 1.97 4.544 3.002 6.797.284.622.622.89 1.322.88a208.89 208.89 0 0 1 6.623-.001c.7.01 1.032-.257 1.322-.882 1.043-2.25 1.747-4.65 3.005-6.803 1.157-1.978 2.794-3.112 5.182-3.1l20.254-.007c2.41-.02 4.05 1.11 5.215 3.05 1.302 2.168 2.006 4.615 3.055 6.903.26.568.56.848 1.23.837a202.96 202.96 0 0 1 6.979.005c.73.014 1.016-.332 1.293-.927 1.047-2.248 1.742-4.655 3.007-6.8 1.16-1.965 2.817-3.08 5.2-3.065l20.136-.004c1.795-.015 3.224.574 4.41 1.86 1.373 1.486 2.063 3.352 2.683 5.205 1.232 3.68 1.205 3.72 5 3.717h.355c1.465-.001 2.14 1.222 1.438 2.55-.503.952-1.4 1.31-2.332 1.404-1.075.107-.994.49-.65 1.28.48 1.114 1.255 2.186 1.27 3.4l-.01 15.394c-.02 1.692-.777 2.31-2.454 2.3h-5.33c-1.56-.002-2.233-.637-2.27-2.2-.028-1.144-.022-2.29.013-3.435.02-.647-.17-.896-.873-.895H140.59c-.634-.002-.84.216-.827.817.023 1.105.036 2.212.001 3.316-.058 1.77-.727 2.395-2.486 2.395-1.54-.001-3.084-.076-4.618.018-1.952.12-2.957-.037-2.98-3.083l-.063-10.303c-.072-2.783-.068-5.52 1.43-8.007.02-.034.04-.068.056-.104.236-.514.133-.754-.487-.873-1.15-.218-2.22-.407-3.44-.074-1.042.284-.93.573-.6 1.327.474 1.118 1.248 2.186 1.262 3.413l-.005 15.276c-.015 1.763-.752 2.4-2.478 2.41h-5.33c-1.545-.002-2.22-.65-2.255-2.216-.024-1.144-.025-2.29.014-3.434.023-.67-.21-.878-.892-.876a3212.4 3212.4 0 0 1-22.386-.002c-.766-.003-.96.26-.933.955a50.98 50.98 0 0 1 .007 3.079c-.042 1.855-.698 2.496-2.507 2.496-1.58-.001-3.163-.08-4.736.02-1.79.113-2.795-.084-2.836-2.866l-.087-11.487c-.08-2.418.164-4.706 1.36-6.84.388-.69.41-1.052-.595-1.227-1.026-.18-1.953-.23-2.99-.006-.972.2-.922.49-.6 1.237.482 1.116 1.264 2.198 1.282 3.408l-.01 15.512c-.02 1.64-.788 2.247-2.392 2.25h-5.33c-1.68-.001-2.315-.648-2.326-2.378-.007-1.066-.032-2.133.012-3.198.03-.707-.184-.954-.937-.95a3152.07 3152.07 0 0 1-22.387-.001c-.694-.002-.907.223-.887.88.032 1.104.045 2.212.001 3.316-.07 1.71-.744 2.333-2.427 2.333-1.58 0-3.164-.076-4.737.02-1.86.112-2.87-.035-2.912-2.91l-.076-10.776c-.082-2.676.015-5.274 1.412-7.656.04-.068.08-.137.108-.2.178-.457.122-.778-.46-.795-.8-.026-1.512-.402-2.39-.743zm-4.977 28.714c.074-.217.12-.286.12-.355l.01-35.04c.001-.732-.3-.84-.91-.8-1.834.088-3.632.38-5.443.685-4.01.676-7.953 1.52-11.575 3.46-.303.162-.905.2-.76.715.115.407.617.213.942.215l8.05.014c2.004.015 2.866.89 2.87 2.896l.02 15.152c.022 2.047-1.01 3.367-3.25 3.307-4.968-.133-9.942-.04-14.914-.044-.62-.001-1.126-.07-1.1.88.057 3.472.04 6.944.008 10.417-.006.687.228.884.884.868a100.05 100.05 0 0 1 4.616 0c.586.013.862-.193 1.165-.72 1.075-1.873 2.696-3.306 4.495-4.38 2.697-1.608 5.682-1.834 8.76-1.112 2.44.573 4.2 2.162 6.022 3.852zm28.514-29.65l15.16.02c.966.007 1.052-.224.673-1.053-.817-1.787-1.557-3.61-2.306-5.427-1.023-2.48-2.06-3.183-4.763-3.182-5.962 0-11.924.064-17.884-.036-1.995-.033-3.247.792-4.02 2.477-.936 2.038-1.743 4.134-2.682 6.17-.386.836-.314 1.06.66 1.052l15.16-.02zm45.903 0l15.16.022c1.055.01 1.09-.265.706-1.112-.798-1.752-1.533-3.534-2.255-5.32-1.005-2.482-2.08-3.235-4.73-3.234-5.962.001-11.924.068-17.884-.037-2.042-.036-3.317.794-4.106 2.532-.91 2.006-1.712 4.062-2.636 6.06-.405.875-.32 1.117.704 1.108l15.042-.02zm46.168 0l15.28.016c.84.005 1.057-.13.675-.97-.83-1.824-1.582-3.685-2.353-5.536-1.033-2.48-2.047-3.155-4.78-3.154-5.922 0-11.846.073-17.766-.04-2.1-.04-3.378.83-4.176 2.612-.9 2.01-1.69 4.072-2.627 6.064-.443.94-.154 1.024.705 1.02l15.043-.013zm-19.88 30.54H92.91c.68 1.48 1.566 2.77 1.854 4.28.178.935.63 1.1 1.512 1.097l33.13-.032c.202-.01.373-.057.413-.312.283-1.804 1.26-3.34 2.03-5.034zm-48.728.048c-3.802-.318-7.378 3.798-7.352 7.743.025 3.85 3.053 7.84 7.33 7.798 4.232-.042 7.274-3.535 7.354-7.777.078-4.138-3.524-8.013-7.33-7.764zm83.16 15.505c4.17.146 7.293-3.567 7.365-7.727.072-4.14-3.58-7.807-7.315-7.84-3.778-.032-7.4 3.73-7.376 7.78.013 3.876 3.054 7.962 7.326 7.785zM58.584 75.51c-3.8-.354-7.378 3.644-7.434 7.542-.057 4.063 3.043 7.973 7.244 7.994 4.23.022 7.405-3.628 7.444-7.813.038-4.08-3.535-7.948-7.254-7.723zm83.13.001c-3.794-.32-7.398 3.615-7.383 7.7.016 4.07 3.133 7.824 7.304 7.832 4.2.007 7.316-3.696 7.385-7.747.07-4.1-3.573-8.043-7.306-7.786zM22.043 91.006c4.2.22 7.15-3.773 7.37-7.322.258-4.164-3.54-8.224-7.274-8.222-3.684.002-7.42 3.59-7.394 7.762.025 4.077 3.028 7.904 7.297 7.782zM12.45 59.478l6.155.017c.774.02 1.102-.117 1.085-1.003-.058-2.998-.046-5.998-.005-8.996.01-.76-.186-1.004-.975-.994-3.432.042-6.866.067-10.297-.01-1.088-.024-1.582.387-2.038 1.315-1.442 2.936-1.106 6.06-1.146 9.15-.008.646.463.514.83.516l6.392.004zm36.234 15.898c-4.046 0-7.913.01-11.78-.012-.66-.004-.88.2-.895.877-.033 1.37.227 2.756-.187 4.112-.166.546.288.453.568.454h9.592c.25-.001.598.093.655-.3.26-1.814 1.286-3.33 2.047-5.12zm11.07-21.27l-6.027-.005c-1.367.006-2.01.54-1.984 1.608.023 1 .7 1.56 1.945 1.563h12.055c1.22-.003 1.807-.505 1.835-1.51.03-1.108-.514-1.636-1.797-1.65l-6.027-.006zm45.846 0l-6.026-.002c-1.263.008-1.892.565-1.87 1.603.02 1 .698 1.563 1.942 1.566H111.7c1.222-.003 1.8-.503 1.84-1.506.032-1.11-.512-1.64-1.794-1.654l-6.146-.007zm46.256.001l-6.027-.006c-1.29.007-1.913.52-1.927 1.547-.013 1.012.667 1.62 1.885 1.622h12.173c1.188-.003 1.774-.547 1.777-1.566.002-1.068-.516-1.576-1.735-1.59l-6.146-.006zm-80.022.4c.026 1.86 1.403 3.3 3.142 3.285s3.104-1.488 3.083-3.337c-.017-1.48-1.75-3.313-3.138-3.32s-3.108 1.872-3.087 3.37zm45.96.006c.03 1.86 1.41 3.297 3.148 3.278 1.742-.02 3.103-1.496 3.077-3.344-.02-1.48-1.76-3.313-3.144-3.312-1.392.002-3.105 1.88-3.08 3.378zm52.424-.03c0-1.473-1.7-3.305-3.108-3.35-1.364-.044-3.12 1.842-3.118 3.345.005 1.854 1.368 3.305 3.113 3.313s3.112-1.45 3.113-3.308zm-122.785.108c.04-1.57-1.677-3.483-3.1-3.45-1.35.03-2.984 1.734-3.04 3.17-.076 1.976 1.225 3.46 3.055 3.485 1.7.023 3.037-1.364 3.085-3.205zm45.96-.028c.03-1.532-1.558-3.337-3.01-3.424-1.3-.078-3.084 1.736-3.13 3.2-.062 1.972 1.262 3.455 3.085 3.457 1.705.001 3.02-1.4 3.056-3.234zm46.197.018c.037-1.54-1.515-3.324-2.992-3.44-1.293-.1-3.095 1.72-3.146 3.18-.07 1.977 1.235 3.458 3.064 3.476 1.7.015 3.03-1.375 3.074-3.216zm14.324 28.13c.38-2.583 1.293-4.98 2.586-7.25h-5.027c1.234 2.333 2.347 4.586 2.44 7.25z"/></svg>