<svg xmlns="http://www.w3.org/2000/svg" width="181" height="149"><text transform="translate(48 141)" fill="#00ae74" font-family="Arial" font-size="32">Livery</text><path d="M101.083 33.172v11.675L90.46 45a18.34 18.34 0 0 0 3.288.366c3.386.077 6.08 2.76 5.998 5.98-.002.113-.016.222-.026.333h.262v-2.7h2.856v2.7h2.857v-2.7h2.855v2.7h2.855v-2.7h2.857v2.7h2.857v-2.7h2.856v2.7h2.856v-2.7h2.857v2.7h2.856v-2.7h2.854v2.7h2.857v-2.7h2.856v2.7h2.857v-2.7h2.856v2.7h2.854v-2.7h2.86v2.7h2.854v-2.7h2.856v2.7h2.857v-2.7h2.857v2.7h-2.857v2.7h-2.857v-2.7h-2.856v2.7h-2.854v-2.7h-2.86v2.7h-2.854v-2.7h-2.856v2.7h-2.857v-2.7h-2.856v2.7h-2.857v-2.7h-2.854v2.7h-2.856v-2.7h-2.857v2.7h-2.856v-2.7h-2.856v2.7h-2.857v-2.7h-2.857v2.7h-2.855v-2.7h-2.855v2.7h-2.857v-2.7h-2.856v2.7h-1.247c-1.105 1.595-3.007 2.66-5.14 2.66h-.098l-.047-.002c-4.116-.083-8.1-1-11.734-2.65h-1.73v-.855a29.13 29.13 0 0 1-2.855-1.753v2.6h-2.857v-2.7H71.42v2.7h-.44v11.727h69.455c.167-4.973 4.465-8.958 9.746-8.958s9.577 3.985 9.742 8.958h15.705c2.104 0 3.808-1.617 3.808-3.613s-1.704-3.613-3.808-3.613h-.4l1.604-3.506s1.247-4.285-.467-4.907c-12.934-4.697-28.127-5.954-32.415-6.227-6.904-7.57-13.012-14.222-16.613-15.387-.64-.207-3.308-.303-7.333-.312l-.818-4.564h-3.693l-.823 4.592c-11.007.122-27.357.62-41.942 1.233 1.275 1.25 2.363 2.595 3.5 4.014l24.867-.67zm36.82 8.345h-3.605c-1.605 0-2.906 1.234-2.906 2.758 0 .035.005.068.007.104l-27.912.43V33.14l11.246-.07c10.047 0 11.9.184 12.247.263 2.4.776 6.23 3.666 10.923 8.186zm-64.295 7.467l-2.632-2.6v5.32h.442v-2.7h2.2zm2.845 2.334l-2.18-1.742v2.12h2.713l-.533-.378zm-46.23 5.857c.544 0 1.077.044 1.597.126.01-4.2.252-7.917.73-11.23l-1.63.14c.63-.96 1.35-1.995 2.124-3.02.504-2.48 1.163-4.694 1.983-6.662a25.75 25.75 0 0 1 .437-.994c-3.298 3.625-6.146 8.86-7.205 10.915-7.08.66-17.297 1.818-19.477 3.145C6.7 50.87 5.355 55.74 4.636 59.3c-1.225.6-2.064 1.8-2.064 3.2 0 1.996 1.705 3.613 3.808 3.613h14.1c.166-4.972 4.463-8.957 9.743-8.957zM36.527 70.9c-1.515-.416-2.797-1.368-3.6-2.636-.607.802-1.595 1.325-2.714 1.325-1.843 0-3.34-1.418-3.34-3.168s1.496-3.17 3.34-3.17a3.45 3.45 0 0 1 1.757.478l-.148-4.632c-.52-.1-1.057-.156-1.608-.156-4.353 0-7.88 3.348-7.88 7.48s3.527 7.48 7.88 7.48c2.58 0 4.864-1.182 6.303-3zm113.648-11.95c-4.353 0-7.88 3.348-7.88 7.48s3.528 7.48 7.88 7.48 7.883-3.348 7.883-7.48-3.528-7.48-7.883-7.48zm3.34 7.48c0 1.75-1.496 3.17-3.34 3.17s-3.34-1.418-3.34-3.17 1.495-3.17 3.34-3.17 3.34 1.42 3.34 3.17zM41.917 75.262H1.486v1.88h40.43zm29.06 0v1.88h108.456v-1.88h-33.82zm-36.257-9.77c.1 1.774 1.66 3.142 3.5 3.142l.2-.005c1.938-.1 3.418-1.688 3.305-3.53l-.25-7.603c-.014-10.108 1.54-15.783 3.063-18.746v62.594c0 2.85 2.434 5.16 5.436 5.16s5.437-2.3 5.437-5.16V63.678h2.038v37.668c0 2.85 2.434 5.16 5.435 5.16s5.437-2.3 5.437-5.16V39.178l.853 1.074c2.2 2.776 4.98 6.227 8.882 9.088 3.883 2.865 9.025 5.083 15.435 5.213.03.001.057.001.087.001 1.902 0 3.468-1.442 3.515-3.258.046-1.843-1.5-3.373-3.433-3.417-3.927-.1-6.934-1.13-9.557-2.668-3.922-2.305-6.894-5.9-9.505-9.22-1.318-1.655-2.53-3.227-3.94-4.574-.712-.674-1.482-1.302-2.435-1.817-.747-.404-1.645-.73-2.63-.846a3.62 3.62 0 0 0-.672-.063h-3.887c.473 2.398 2.382 13.133-.903 15.146l-1.336.806-1.047-9.935c-.43.1-.873.17-1.316.17h-.004c-.444 0-.887-.06-1.318-.17l-1.047 9.935-1.336-.806c-3.285-2.013-1.376-12.748-.903-15.146h-3.888c-.057 0-.113.006-.168.008-.795.01-2.1.174-3.604.9-2.366 1.114-4.915 3.548-6.7 7.86-1.805 4.332-3.018 10.595-3.023 20.05-.004 2.443.08 5.102.258 7.995zm12.064-53.308c.036.252.177.498.413.73-.415 1.036-.644 2.158-.644 3.333 0 5.187 4.43 9.4 9.893 9.4s9.893-4.202 9.893-9.4a8.94 8.94 0 0 0-.644-3.333c.236-.233.377-.478.414-.73 1.15.038 2.035-.137 2.427-.723 1.312-1.963-2.05-10.154-12.1-10.154s-13.4 8.2-12.1 10.154c.4.585 1.275.76 2.427.723zm9.662-4.44c5.342 0 9.673 1.308 9.673 2.92 0 .24-.098.473-.278.696-1.034-1.278-4.847-2.225-9.395-2.225s-8.36.947-9.394 2.225c-.18-.224-.28-.457-.28-.696 0-1.612 4.33-2.92 9.673-2.92zm0 21.74h-1.23l-.615 3.13.348.708a3.9 3.9 0 0 0 1.498.302c.512 0 1.023-.104 1.5-.304l.348-.705-.616-3.13h-1.233z" fill="#04ae74"/></svg>