<svg xmlns="http://www.w3.org/2000/svg" width="181" height="149"><text transform="translate(24 141)" fill="#00ae74" font-family="Arial" font-size="32">Municipal</text><path fill="#04ae74" d="M143.593 29.03c-.23.003-.455.045-.67.125V15.6c.004-.646-.07-1.29-.216-1.92a2.33 2.33 0 0 0 0-.409C142.742 5.953 119.962 0 91.853 0s-50.89 5.953-50.89 13.28a2.54 2.54 0 0 0 0 .409c-.147.63-.22 1.274-.215 1.92v13.453a1.88 1.88 0 0 0-.352 0c-2.886 0-5.227 6.93-5.227 15.497s2.375 15.463 5.26 15.463c.118.012.235.012.352 0v31.154a8.82 8.82 0 0 0 8.794 8.794h1.534v5.385c.006 3.15 2.534 5.712 5.68 5.76h5.477c3.173-.012 5.742-2.586 5.75-5.76V99.97h47.718v5.385a5.76 5.76 0 0 0 5.75 5.761h5.407a5.76 5.76 0 0 0 5.749-5.761v-5.18a1.17 1.17 0 0 0 0-.205h1.51a8.82 8.82 0 0 0 8.783-8.794v-31.28a2.04 2.04 0 0 0 .671.125c2.886 0 5.226-6.942 5.226-15.497s-2.355-15.497-5.24-15.497zM72.413 6.816h38.914a3.24 3.24 0 0 1 3.425 3.041 3.24 3.24 0 0 1-3.041 3.424c-.128.008-.256.008-.384 0H72.413a3.24 3.24 0 0 1 0-6.465zM59.484 91.03a6.24 6.24 0 0 1-6.238-6.237 6.24 6.24 0 0 1 6.238-6.238 6.24 6.24 0 0 1 6.237 6.238 6.24 6.24 0 0 1-6.237 6.237zm29.8-71.828v51.57h-32.55a6.65 6.65 0 0 1-6.635-6.624V25.325a6.66 6.66 0 0 1 6.635-6.635h32.608c-.036.168-.054.34-.057.51zm34.96 71.828a6.24 6.24 0 0 1-6.237-6.237 6.24 6.24 0 0 1 6.237-6.238 6.24 6.24 0 0 1 6.237 6.238 6.24 6.24 0 0 1-6.237 6.237zm9.385-26.882c-.006 3.656-2.968 6.618-6.624 6.624H94.432V19.2c-.002-.177-.02-.35-.057-.522h32.62c3.658.012 6.618 2.977 6.624 6.635v38.833z"/></svg>