<svg xmlns="http://www.w3.org/2000/svg" width="181" height="149"><text transform="translate(36 141)" fill="#00ae74" font-family="Arial" font-size="32">Parking</text><path fill="#04ae74" d="M59.9 67.257v5.735l3.625 3.625a3.52 3.52 0 0 1 0 4.978L60.45 84.68l3.097 3.086a3.52 3.52 0 0 1 0 4.978l-3.636 3.67v2.673l5.735 5.734 5.735-5.734V67.257a2.87 2.87 0 0 1 1.79-2.661 19.54 19.54 0 0 0 3.143-1.629c.52-.496 1.21-.77 1.927-.77 1.276-.005 2.408.816 2.798 2.03.377 1.207-.09 2.517-1.147 3.212-.908.613-1.854 1.17-2.833 1.663V99.67c-.025 1.137-.5 2.218-1.32 3.006l-7.42 7.42a3.88 3.88 0 0 1-5.46 0l-7.4-7.42c-.8-.797-1.26-1.876-1.273-3.006v-3.728c-.001-1.217.48-2.385 1.342-3.246l2.397-2.397-1.95-1.96c-2-1.997-2-5.236-.003-7.235l1.965-1.964-2.397-2.397c-.865-.86-1.352-2.027-1.354-3.246v-4.394C41.536 62.81 36.392 47.46 42.687 34.82c1.64-3.292 3.97-6.19 6.83-8.5a2.87 2.87 0 0 1 4.024.503 2.87 2.87 0 0 1-.422 3.958c-8.523 6.88-9.855 19.366-2.976 27.89a19.83 19.83 0 0 0 7.988 5.926c1.08.443 1.782 1.495 1.778 2.66zm65.76 15.508a4.58 4.58 0 0 1-3.223-1.33l-3.03-3.028c-.907-.915-1.414-2.152-1.4-3.44v-4.313h-3.612c-3.012 0-5.454-2.438-5.46-5.45V61.58h-4.29c-1.29.002-2.526-.504-3.44-1.41l-3.785-3.774c-15.134 5.22-31.633-2.817-36.852-17.95S63.384 6.81 78.518 1.592s31.633 2.817 36.853 17.95c2.11 6.123 2.11 12.777 0 18.9l25.04 25.04a4.59 4.59 0 0 1 1.331 3.211v12.066c-.007 2.213-1.803 4.003-4.016 4.003H125.67zm-1.926-14.234v6.08l2.42 2.42h9.842V67.19L110 41.186a2.87 2.87 0 0 1-.619-3.143c5-11.82-.547-25.444-12.364-30.433s-25.443.547-30.433 12.365.547 25.443 12.365 30.432c5.776 2.44 12.292 2.44 18.068 0a2.87 2.87 0 0 1 3.143.619l4.817 4.818h6.08c2.002 0 3.625 1.623 3.625 3.625v5.448h5.448c1.994.006 3.607 1.62 3.614 3.614zM89.045 17.396A8.96 8.96 0 0 1 76.37 30.059a8.96 8.96 0 0 1 .005-12.669c1.682-1.68 3.96-2.623 6.338-2.62a8.97 8.97 0 0 1 6.332 2.627zm-4.06 4.06c-1.268-1.267-3.32-1.267-4.588 0s-1.267 3.32 0 4.588c1.28 1.235 3.307 1.235 4.588 0 1.273-1.253 1.29-3.3.036-4.574-.008-.008-.017-.017-.024-.025l-.012.01z"/></svg>