<svg xmlns="http://www.w3.org/2000/svg" width="181" height="149"><text transform="translate(38 141)" fill="#00ae74" font-family="Arial" font-size="32">Rentals</text><path fill="#04ae74" d="M60.122 0C53.46 0 49.4 2.406 43.838 10.178l-9.253 20.91H20.52c-2.22 0-6.29 11.473 8.513 11.843L24.038 54.96l.185 45.708a5.77 5.77 0 0 0 5.737 5.736h19.245c3.146 0 5.55-2.59 5.55-5.736V88.084h72.9v12.584a5.77 5.77 0 0 0 5.737 5.736h19.245c3.146 0 5.552-2.59 5.552-5.736l.186-45.708-4.998-12.028c14.99-.37 10.734-11.843 8.697-11.843h-14.063l-9.253-20.91C133.218 2.406 129.147 0 122.484 0H60.122zM42.358 37.565c2.96-6.477 5.736-13.14 9.438-20.54 2.036-3.517 4.256-6.662 8.327-7.032h62.362c4.072.37 6.29 3.516 8.327 7.032 3.7 7.402 6.478 14.064 9.438 20.54H42.358zm2.775 18.506c4.997 0 9.252 4.07 9.252 9.252 0 4.996-4.256 9.252-9.252 9.252-5.18 0-9.253-4.257-9.253-9.252a9.16 9.16 0 0 1 9.253-9.252zm26.463 8.142h39.23c2.406 0 4.256 2.036 4.256 4.44 0 2.22-1.85 4.256-4.256 4.256h-39.23c-2.22 0-4.256-2.036-4.256-4.256 0-2.405 2.035-4.44 4.256-4.44z"/><path fill="#fff" d="M137.473 56.07c-4.996 0-9.253 4.07-9.253 9.252 0 4.996 4.257 9.252 9.253 9.252 5.182 0 9.252-4.257 9.252-9.252 0-5.18-4.07-9.252-9.252-9.252z"/></svg>