<svg xmlns="http://www.w3.org/2000/svg" width="181" height="149"><text transform="translate(10 141)" fill="#00ae74" font-family="Arial" font-size="32">Ride Share</text><path d="M35.104 103.314c-.528-.24-1.1-.203-1.663-.3-6.85-1.295-12.028-6.447-13.343-13.302-1.492-7.778 3.025-15.818 10.505-18.46 6.543-2.3 12.427-.998 17.45 3.756 2.618 2.48 4.154 5.608 4.676 9.206 1.102 7.6-2.814 14.676-9.85 17.745-1.587.692-3.255 1.104-4.984 1.25-.1.008-.2-.02-.226.113l-2.565.001zm11.818-16.536c.092-5.753-4.614-10.585-10.48-10.604-5.98-.02-10.556 4.76-10.6 10.493s4.5 10.295 9.956 10.582c6.14.324 11.117-4.585 11.112-10.47zm96.992 16.536l-2.1-.334c-3.995-.734-7.275-2.705-9.83-5.837-2.464-3.02-3.7-6.52-3.7-10.414-.02-7.57 5.155-14.2 12.493-16.058 8.22-2.082 16.664 2.396 19.597 10.366 3.164 8.6-1.313 18.14-9.885 21.235-1.465.528-2.964.877-4.525.94-.108.005-.237-.03-.3.102h-1.75zM134.3 86.677c-.036 5.797 4.578 10.322 10.02 10.576 6.116.285 11.03-4.637 11.054-10.483.022-5.776-4.635-10.586-10.493-10.596-5.962-.01-10.558 4.74-10.582 10.503zM104.18 9.9l16.386-.015c1.305-.01 2.754.75 3.176 2.508l2.358 9.628c.107.448.358.564.734.67 5.763 1.595 11.22 3.88 16.25 7.148 5.194 3.376 9.544 7.625 13.146 12.653.848 1.184 1.666 2.387 2.4 3.645a1.25 1.25 0 0 0 .739.595l16.406 5.43c1.43.47 2.218 1.752 2.212 3.054l-.025 20.35c-.001.416.095.6.53.673 1.584.303 2.508 1.46 2.5 3.07v8.863c-.002 1.87-1.516 3.16-3.377 3.1-2.737-.088-5.482-.118-8.218-.01-2.172.087-3.478-1.518-3.484-3.166-.02-4.852-1.54-9.224-4.594-13.008-3.555-4.404-8.156-7.083-13.78-7.767-6.338-.77-11.98.952-16.777 5.232-3.73 3.328-5.95 7.494-6.77 12.407-.182 1.088-.257 2.195-.262 3.305-.01 1.798-1.534 3.15-3.332 3a9.21 9.21 0 0 0-.814-.03c-19.32-.001-38.64 0-57.96-.008-.5 0-.998.042-1.506.007-1.306-.092-2.65-1.436-2.657-3.083-.02-4.852-1.524-9.227-4.57-13.016-3.56-4.43-8.175-7.12-13.82-7.804-6.36-.77-12.017.97-16.816 5.282-3.702 3.324-5.905 7.48-6.72 12.372-.184 1.107-.25 2.234-.264 3.362-.023 1.73-1.545 3.006-3.283 2.936-2.815-.113-5.635-.115-8.45.001-1.794.073-3.308-1.252-3.3-3.05v-9.038c.002-1.447.975-2.668 2.402-2.922.54-.096.644-.3.64-.82l-.02-11.258c.01-3 1.334-5.4 3.38-7.483 2.628-2.664 5.865-4.362 9.284-5.744 4.16-1.68 8.486-2.756 12.9-3.525 4.733-.824 9.503-1.213 14.298-1.334.606-.016 1.012-.182 1.42-.664C51.248 37.513 59.537 31.8 69.172 28c3.838-1.515 7.775-2.715 11.802-3.605.576-.127.773-.4.9-.9l2.785-11.2c.384-1.528 1.498-2.375 3.074-2.375h16.447zM10.764 61.104l4.404.005c2.283.042 3.715 2.093 2.912 4.135-.465 1.183-1.568 1.895-2.995 1.904a312.8 312.8 0 0 1-5.306-.006c-.398-.004-.535.094-.528.512.025 1.4 0 2.8.012 4.198.02 2.4-.046 4.78.04 7.17a3.04 3.04 0 0 1-2.65 3.164c-.297.044-.393.112-.385.4.02.758.016 1.517.002 2.274-.005.277.088.372.368.366.816-.015 1.633-.017 2.45.002.274.006.367-.083.402-.35.094-.7.188-1.422.338-2.12 1.34-6.256 4.448-11.48 9.4-15.5 6.52-5.283 14-7.157 22.248-5.652 5.886 1.074 10.85 3.922 14.897 8.346a26.32 26.32 0 0 1 6.839 14.6c.066.497.2.688.775.688l52.538-.02c.443 0 .98.172 1.304-.08.274-.215.168-.76.227-1.16.014-.096.05-.188.067-.282 1.145-6.708 4.38-12.234 9.637-16.5 5.878-4.77 12.656-6.727 20.2-5.884 5.66.633 10.6 2.874 14.867 6.658a26.78 26.78 0 0 1 7.627 11.373c.594 1.702 1.038 3.444 1.224 5.242.05.477.214.695.75.65.694-.06 1.398-.03 2.098-.008.32.01.447-.076.437-.42-.023-.737-.017-1.477-.002-2.215.006-.283-.067-.372-.375-.42-1.276-.203-2.147-.93-2.526-2.18-.17-.562-.1-1.148-.098-1.73l.018-13.645c.001-.418-.128-.514-.525-.5h-5.48c-2.2-.036-3.645-2.16-2.808-4.153.563-1.344 1.673-1.87 3.07-1.877l5.248-.007c.186-.001.47.116.48-.24.01-.28.092-.605-.32-.703-.112-.027-.22-.073-.33-.1l-13.257-4.433c-1.08-.368-2.157-.53-3.3-.526L95 52.084c-16.016 0-32.032-.002-48.048.001-3.7.001-7.413.095-11.1.47-4.094.413-8.137 1.07-12.108 2.14-3.504.943-6.9 2.147-10.024 4.063-1.042.64-2.027 1.347-2.945 2.348zm106.1-15.05l15.853.008c.4.001.572-.055.62-.502.1-.825.277-1.64.414-2.46l1.698-10.2c.068-.392-.02-.55-.35-.7-2.37-1.15-4.8-2.145-7.312-2.94-1.62-.512-3.223-1.125-4.92-1.307-1.638-.176-3.3-.233-4.938-.308-4.096-.186-8.194-.157-12.293-.142-.42.001-.565.148-.658.52l-4.363 17.484c-.134.528.016.556.454.555l15.794-.008zm-64.736 0l41.66.013c.433 0 .55-.162.64-.526l4.238-17.052c.167-.672.164-.68-.52-.614-3.183.304-6.363.625-9.523 1.135-4.398.708-8.73 1.68-12.974 3.046-6.94 2.235-13.373 5.437-19.086 10.012a50.82 50.82 0 0 0-4.437 3.986zm36.06-23.114c.15 0 .265.016.375-.002 2.85-.467 5.722-.78 8.6-1.003a164.32 164.32 0 0 1 12.978-.489c3.05.004 6.097.14 9.144.243.396.013.557-.03.43-.496-.416-1.548-.808-3.104-1.165-4.667-.106-.468-.3-.604-.772-.602l-18.008.013c-3.108 0-6.216 0-9.324-.001-.272 0-.5-.036-.602.348l-1.656 6.656zm63.12 23.114c-.05-.115-.063-.17-.093-.213-2.73-3.794-5.96-7.1-9.757-9.825-.303-.217-.4-.25-.48.195l-1.555 9.38c-.06.345-.068.472.344.47l11.54-.01zM87.58 67.165c-2.853-.005-5.706 0-8.558-.025-.434-.004-.453.187-.452.52l.014 7.918c.003.44-.088.595-.566.6-2.66-.025-5.318-.024-7.977 0-.454.004-.537-.14-.534-.558l-.005-8.442-.01.01 8.452-.008c.5.003.666-.106.66-.637l-.023-7.872c-.004-.457.115-.584.577-.58l7.93.008c.3 0 .513-.025.5.402l-.026 8.686zm18.077.001c-2.853-.005-5.706 0-8.56-.026-.434-.004-.453.186-.452.52l.015 7.92c.003.44-.1.594-.567.6-2.658-.025-5.318-.024-7.977 0-.457.004-.535-.143-.533-.56l-.003-8.443 8.44.005c.505.003.663-.115.657-.64l-.023-7.87c-.004-.462.123-.58.58-.578l7.93.008c.288 0 .5-.025.508.403l-.027 8.685.01-.01zm-.01.01l8.4-.007c.545.004.728-.12.72-.696l-.024-7.8c-.003-.448.102-.6.572-.585h7.926c.404-.003.522.102.52.514l.004 8.042c.005.477-.173.522-.57.52-2.643-.015-5.284.004-7.926-.02-.446-.004-.544.125-.54.553l.02 7.925c.004.44-.116.55-.552.547-2.66-.02-5.322-.02-7.983.001-.442.004-.545-.12-.543-.55v-8.448zm-36.143-.01l-8.387-.004c-.476.003-.618-.106-.613-.6l.002-7.92c-.003-.417.078-.566.536-.562l7.98.008c.3 0 .503-.004.5.413l-.028 8.676.01-.01z" fill-rule="evenodd" fill="#06ae76"/></svg>