<?xml version="1.0" encoding="utf-8"?>
<!-- Generator: Adobe Illustrator 16.0.3, SVG Export Plug-In . SVG Version: 6.00 Build 0)  -->
<!DOCTYPE svg PUBLIC "-//W3C//DTD SVG 1.1//EN" "http://www.w3.org/Graphics/SVG/1.1/DTD/svg11.dtd">
<svg version="1.1" id="Layer_1" xmlns="http://www.w3.org/2000/svg" xmlns:xlink="http://www.w3.org/1999/xlink" x="0px" y="0px"
	 width="198.425px" height="66.308px" viewBox="25.194 8.419 198.425 66.308" enable-background="new 25.194 8.419 198.425 66.308"
	 xml:space="preserve">
<g>
		<path fill-rule="evenodd" clip-rule="evenodd" fill="#1F4A89" d="M160.066,33.227c0.076,3.291-0.104,6.586,0.168,9.873
			c0.059,0.711-0.098,0.869-0.807,0.865c-1.348-0.009-2.696-0.03-4.044,0c-0.52,0.011-0.744-0.167-0.722-0.704
			c0.008-0.199,0.085-0.469-0.181-0.562c-0.217-0.076-0.325,0.149-0.467,0.268c-1.91,1.589-4.856,1.775-6.906,0.438
			c-1.082-0.707-1.655-1.777-1.669-3.038c-0.045-4.509-0.012-9.019-0.001-13.528c0.002-0.867,0.05-0.898,0.916-0.902
			c1.2-0.003,2.401-0.01,3.601-0.008c0.777,0,0.923,0.156,0.926,0.951c0.015,4.097,0.015,8.194,0.056,12.292
			c0.013,1.229,0.638,1.838,1.735,1.859c1.284,0.027,1.968-0.627,1.975-1.967c0.02-4.053,0.019-8.107,0.025-12.162
			c0-0.906,0.062-0.971,0.921-0.971c1.243,0,2.485,0.01,3.728,0c0.54-0.004,0.815,0.189,0.797,0.803
			c-0.062,1.99-0.108,3.982-0.017,5.974C160.108,32.881,160.079,33.054,160.066,33.227z"/>
		<path fill-rule="evenodd" clip-rule="evenodd" fill="#8DA4C1" d="M111.246,53.08c1.297-0.019,2.317,0.998,2.318,2.31
			c0,1.132-1.037,2.18-2.173,2.195c-1.152,0.018-2.176-0.977-2.188-2.126C109.187,54.104,110.049,53.099,111.246,53.08z
			 M111.012,56.156c-0.053,0.285-0.007,0.525,0.337,0.493c0.33-0.033,0.188-0.297,0.167-0.488c0.196-0.057,0.494-0.008,0.347-0.396
			c-0.046-0.122-0.031-0.259,0.157-0.255c0.074,0.152,0.006,0.427,0.286,0.405c0.24-0.02,0.257-0.234,0.282-0.422
			c0.043-0.298-0.133-0.359-0.366-0.357c-0.088-0.154,0.049-0.43-0.213-0.479c-0.211-0.041-0.242,0.188-0.347,0.31
			c-0.224,0.267-0.418,0.224-0.579-0.08c-0.059-0.11,0.06-0.326-0.18-0.333c-0.108,0.155-0.213,0.307-0.318,0.458
			c-0.144,0.005-0.159-0.328-0.337-0.164c-0.2,0.188-0.216,0.463-0.158,0.723c0.056,0.247,0.167,0.447,0.474,0.328
			C110.726,55.963,110.807,56.175,111.012,56.156z M111.926,56.994c0.788-0.135,1.172-0.602,1.204-1.307
			c0.057-1.268-0.116-1.654-0.961-1.948C113.114,54.932,113.168,56.016,111.926,56.994z"/>
		<path fill-rule="evenodd" clip-rule="evenodd" fill="#8DA4C1" d="M223.164,42.525c0.003,0.737-0.676,1.61-1.267,1.628
			c-1.138,0.035-1.982-0.613-2.021-1.552c-0.032-0.796,0.887-1.626,1.797-1.619C222.395,40.988,223.16,41.78,223.164,42.525z"/>
		<path fill-rule="evenodd" clip-rule="evenodd" fill="#F09321" d="M192.863,46.213c0.689-0.112,1.384-0.067,2.077-0.067
			c5.897-0.003,11.794-0.004,17.69-0.007c0.085,0,0.171-0.01,0.254,0.003c0.136,0.018,0.337-0.066,0.379,0.128
			c0.05,0.237-0.174,0.251-0.325,0.305c-1.113,0.39-2.281,0.553-3.417,0.845c-1.195,0.309-2.408,0.559-3.612,0.843
			c-1.586,0.374-3.176,0.737-4.763,1.112c-1.567,0.371-3.137,0.739-4.701,1.129c-2.439,0.606-4.91,1.071-7.341,1.727
			c-2.992,0.807-6.031,1.433-9.054,2.105c-2.72,0.605-5.414,1.332-8.144,1.9c-0.994,0.207-1.987,0.565-2.979,0.749
			c-1.339,0.247-2.606,0.794-3.972,0.901c-0.731,0.06-1.416,0.378-2.136,0.534c-2.618,0.563-5.244,1.119-7.832,1.813
			c-2.004,0.537-4.03,0.975-6.044,1.454c-1.77,0.423-3.548,0.838-5.337,1.191c-1.289,0.257-2.568,0.616-3.854,0.925
			c-1.568,0.373-3.141,0.724-4.707,1.101c-1.814,0.436-3.624,0.892-5.438,1.333c-0.855,0.208-1.711,0.424-2.574,0.595
			c-0.66,0.13-0.807-0.03-0.807-0.749c-0.001-6.266-0.001-12.53-0.001-18.796c0-1.075,0.067-1.145,1.103-1.145
			c16.512-0.001,33.025-0.001,49.537-0.011c0.388,0,0.746,0.11,1.116,0.164c0.517,2.991,1.461,4.074,4.042,4.749
			c2.174,0.566,4.451,0.618,6.672-0.051c1.33-0.399,2.411-1.133,3.182-2.352C192.356,47.888,192.701,47.094,192.863,46.213z"/>
		<path fill-rule="evenodd" clip-rule="evenodd" fill="#1F4A89" d="M192.863,46.213c-0.162,0.881-0.507,1.675-0.983,2.43
			c-0.771,1.219-1.852,1.952-3.182,2.352c-2.221,0.669-4.498,0.617-6.672,0.051c-2.581-0.675-3.525-1.758-4.042-4.749
			c0.043-0.029,0.083-0.057,0.126-0.084c1.812-0.148,3.623-0.039,5.435-0.051c0.005,1.212,0.301,1.752,1.099,1.999
			c1.454,0.453,2.549-0.395,2.584-2.001c0.388-0.063,0.423-0.368,0.425-0.678c0.003-1.061-0.005-2.122-0.009-3.185
			c-0.001-0.195,0.015-0.411-0.199-0.504c-0.225-0.099-0.411,0.012-0.564,0.177c-1.756,1.908-3.891,1.771-6.015,1.001
			c-1.547-0.562-2.329-1.945-2.567-3.58c-0.45-3.101-0.472-6.227,0.04-9.304c0.433-2.597,1.878-4.084,4.569-4.249
			c1.189-0.073,2.357,0.005,3.369,0.782c0.356,0.274,0.68,0.577,0.92,0.967c0.089,0.144,0.179,0.335,0.378,0.283
			c0.194-0.052,0.296-0.228,0.313-0.442c0.002-0.021,0.002-0.043,0.005-0.064c0.136-1.159,0.136-1.157,1.262-1.151
			c0.904,0.004,1.811,0.015,2.715-0.004c0.52-0.011,0.752,0.151,0.75,0.745c-0.018,6.065-0.017,12.131,0.005,18.198
			c0.002,0.303-0.37,0.735,0.177,0.946C192.82,46.135,192.841,46.175,192.863,46.213z M183.027,35.009
			c0,0.478-0.01,0.954,0.003,1.43c0.026,0.952,0.046,1.906,0.403,2.81c0.398,1.009,1.576,1.541,2.561,1.147
			c0.831-0.331,1.117-1.063,1.264-1.875c0.331-1.846,0.256-3.711,0.203-5.572c-0.029-0.992-0.068-1.991-0.416-2.941
			c-0.347-0.946-0.873-1.29-1.954-1.262c-0.778,0.021-1.393,0.521-1.636,1.365C182.994,31.714,183.067,33.367,183.027,35.009z"/>
		<path fill-rule="evenodd" clip-rule="evenodd" fill="#CB0202" d="M58.849,41.836c0-4.336,0-8.672,0-13.009
			c0-0.82,0.002-0.815,0.818-0.806c1.58,0.018,3.159,0.052,4.738,0.036c0.598-0.007,0.832,0.206,0.83,0.828
			c-0.013,4.726-0.007,9.453-0.006,14.181c0,1.539,0.001,3.078,0.012,4.616c0.002,0.27-0.078,0.657,0.233,0.739
			c0.338,0.089,0.486-0.288,0.616-0.548c0.7-1.404,1.378-2.82,2.074-4.229c0.99-2.001,1.991-3.997,2.985-5.998
			c0.686-1.38,1.349-2.772,2.057-4.141c0.796-1.54,1.558-3.101,2.3-4.664c0.365-0.771,0.765-0.837,1.435-0.824
			c1.558,0.031,3.117-0.002,4.675-0.005c0.569,0,0.689,0.16,0.435,0.716c-0.393,0.861-0.828,1.703-1.262,2.544
			c-1.28,2.483-2.622,4.934-3.836,7.45c-1.123,2.325-2.371,4.581-3.542,6.879c-1.06,2.079-2.062,4.19-3.173,6.242
			c-0.633,1.169-1.257,2.344-1.871,3.521c-0.163,0.313-0.398,0.411-0.72,0.411c-2.738-0.004-5.477-0.01-8.214,0.006
			c-0.493,0.003-0.604-0.228-0.603-0.677c0.009-4.423,0.005-8.846,0.005-13.27C58.839,41.836,58.844,41.836,58.849,41.836z"/>
		<path fill-rule="evenodd" clip-rule="evenodd" fill="#CB0202" d="M100.331,57.029c-2.048-0.086-4.042-0.432-5.957-1.244
			c-0.699-0.299-1.39-0.601-2.058-0.965c-0.53-0.288-0.691-0.606-0.462-1.252c0.562-1.585,1.03-3.203,1.525-4.812
			c0.204-0.662,0.31-0.75,0.861-0.368c1.573,1.093,3.369,1.581,5.175,1.962c1.473,0.31,3.233-0.07,4.03-1.223
			c0.713-1.032,0.488-2.657-0.572-3.546c-1.221-1.022-2.493-1.976-3.613-3.127c-2.254-2.316-2.747-5.488-1.721-8.456
			c1.008-2.924,3.115-4.695,5.812-5.721c2.032-0.773,4.187-0.876,6.343-0.452c1.558,0.306,3.052,0.785,4.446,1.582
			c0.357,0.204,0.453,0.41,0.304,0.833c-0.529,1.504-1.013,3.025-1.516,4.539c-0.041,0.123-0.099,0.24-0.135,0.364
			c-0.162,0.561-0.432,0.573-0.883,0.271c-1.694-1.135-3.544-1.695-5.567-1.326c-1.101,0.2-1.956,0.785-2.224,2.01
			c-0.211,0.963,0.232,1.728,0.738,2.452c0.606,0.87,1.491,1.441,2.284,2.102c0.973,0.81,1.868,1.715,2.534,2.77
			c0.76,1.199,1.13,2.6,1.032,4.069c-0.087,1.297-0.245,2.56-0.839,3.76c-1.134,2.292-2.783,3.972-5.108,4.938
			C103.338,56.777,101.874,57.102,100.331,57.029z"/>
		<path fill-rule="evenodd" clip-rule="evenodd" fill="#CB0202" d="M53.22,41.903c0,4.271,0,8.541,0,12.812
			c0,0.974-0.06,1.003-1.005,0.989c-1.515-0.021-3.031,0.007-4.546,0.009c-0.785,0.001-0.934-0.132-0.921-0.945
			c0.03-1.881-0.107-3.762,0.022-5.642c0.03-0.445-0.319-0.512-0.578-0.532c-0.689-0.058-1.384-0.047-2.077-0.051
			c-1.411-0.008-2.822,0.009-4.232-0.019c-0.662-0.013-1.029,0.302-1.315,0.893c-0.833,1.721-1.711,3.419-2.569,5.128
			c-0.105,0.209-0.195,0.427-0.293,0.641c-0.139,0.302-0.355,0.453-0.698,0.442c-1.472-0.048-2.942-0.08-4.413,0.022
			c-0.416,0.028-0.956,0.101-1.199-0.193c-0.261-0.313,0.192-0.692,0.353-1.021c1.64-3.361,3.288-6.72,4.958-10.065
			c1.19-2.384,2.453-4.729,3.623-7.124c1.094-2.24,2.236-4.453,3.322-6.694c0.353-0.728,0.814-1.408,1.063-2.191
			c0.095-0.3,0.332-0.347,0.607-0.346c3.073,0.011,6.148,0.032,9.222,0.011c0.674-0.005,0.68,0.376,0.679,0.872
			C53.217,33.231,53.22,37.568,53.22,41.903z M46.721,39.094c0-0.649,0.001-1.3,0-1.949c-0.001-0.714,0.003-1.429-0.014-2.145
			c-0.006-0.301-0.031-0.675-0.362-0.756c-0.341-0.084-0.412,0.297-0.533,0.535c-0.263,0.514-0.495,1.044-0.773,1.547
			c-0.59,1.063-1.243,2.107-1.769,3.188c-0.561,1.156-1.193,2.281-1.707,3.464c-0.229,0.527-0.143,0.762,0.426,0.775
			c1.322,0.03,2.646,0.03,3.968,0.009c0.532-0.009,0.811-0.253,0.781-0.901C46.679,41.61,46.721,40.351,46.721,39.094z"/>
		<path fill-rule="evenodd" clip-rule="evenodd" fill="#1F4A89" d="M126.232,31.091c0-3.88,0-7.76,0.001-11.639
			c0-0.869,0.047-0.911,0.896-0.91c3.433,0.003,6.864-0.013,10.297,0.022c1.004,0.011,1.996,0.162,2.958,0.545
			c1.993,0.792,3.015,2.296,3.308,4.425c0.151,1.108,0.077,2.188-0.176,3.268c-0.369,1.586-1.433,2.52-2.781,3.191
			c-0.17,0.085-0.363,0.121-0.526,0.215c-0.2,0.115-0.577,0.071-0.526,0.442c0.044,0.328,0.383,0.318,0.611,0.357
			c1.31,0.227,2.375,0.848,3.098,2.012c0.486,0.781,0.653,1.684,0.779,2.578c0.237,1.677,0.12,3.328-0.67,4.853
			c-0.744,1.436-1.977,2.269-3.46,2.721c-1.648,0.502-3.349,0.531-5.052,0.529c-2.632-0.003-5.264,0-7.896,0
			c-0.77,0-0.859-0.094-0.86-0.905C126.232,38.893,126.232,34.992,126.232,31.091z M131.723,36.267c0,0.91,0.001,1.819,0,2.729
			c-0.001,0.774,0.143,0.956,0.917,0.954c1.071-0.001,2.146-0.009,3.214-0.093c1.132-0.09,2.071-0.586,2.562-1.709
			c0.42-0.961,0.423-1.99,0.229-2.995c-0.228-1.173-0.917-1.944-2.079-2.267c-1.411-0.393-2.845-0.168-4.267-0.222
			c-0.42-0.016-0.58,0.262-0.577,0.68C131.73,34.317,131.724,35.293,131.723,36.267z M131.721,25.513c0.004,0,0.007,0,0.01,0
			c0,0.866,0.016,1.732-0.006,2.598c-0.013,0.485,0.212,0.671,0.644,0.668c1.197-0.01,2.398,0.051,3.593-0.067
			c0.726-0.072,1.355-0.425,1.79-0.992c0.82-1.072,0.941-2.326,0.431-3.554c-0.503-1.207-1.459-1.87-2.778-1.881
			c-1.01-0.008-2.019-0.008-3.028-0.027c-0.451-0.009-0.658,0.194-0.655,0.657C131.726,23.781,131.721,24.648,131.721,25.513z"/>
		<path fill-rule="evenodd" clip-rule="evenodd" fill="#1F4A89" d="M204.442,35.521c-1.41,0-2.821,0.008-4.23-0.005
			c-0.442-0.004-0.77,0.133-0.78,0.625c-0.023,1.06-0.054,2.134,0.277,3.151c0.25,0.768,0.712,1.371,1.479,1.735
			c1.402,0.666,2.798-0.697,2.907-1.892c0.094-1.004,0.163-1.087,1.131-1.086c1.138,0.001,2.273-0.004,3.411,0.003
			c0.631,0.004,0.715,0.151,0.617,0.787c-0.501,3.235-2.96,4.834-5.845,5.098c-1.311,0.12-2.649,0.153-3.965-0.104
			c-2.502-0.489-4.247-2.086-4.729-4.782c-0.411-2.295-0.466-4.599-0.241-6.909c0.15-1.563,0.5-3.084,1.552-4.302
			c1.096-1.267,2.582-1.811,4.147-1.956c1.646-0.152,3.313-0.161,4.944,0.327c2.108,0.631,3.394,1.985,3.945,4.201
			c0.356,1.432,0.35,2.86,0.384,4.306c0.015,0.605-0.229,0.832-0.836,0.814C207.222,35.494,205.832,35.521,204.442,35.521z
			 M201.967,32.951c0-0.001,0-0.002,0-0.003c0.61,0,1.221-0.002,1.832,0.001c0.39,0.002,0.576-0.191,0.585-0.595
			c0.016-0.72-0.072-1.429-0.282-2.114c-0.279-0.916-1.045-1.496-1.979-1.538c-1.083-0.049-1.83,0.403-2.239,1.325
			c-0.335,0.755-0.327,1.559-0.355,2.356c-0.015,0.399,0.224,0.575,0.608,0.57C200.747,32.946,201.357,32.951,201.967,32.951z"/>
		<path fill-rule="evenodd" clip-rule="evenodd" fill="#1F4A89" d="M171.207,23.012c0-1.235,0.017-2.471-0.009-3.706
			c-0.011-0.539,0.134-0.797,0.709-0.782c1.22,0.033,2.441,0.024,3.662,0.01c0.41-0.005,0.596,0.193,0.59,0.578
			c-0.039,2.425,0.043,4.85-0.04,7.276c-0.04,1.139,0.039,2.291,0.04,3.437c0.003,3.941,0,7.88,0.019,11.821
			c0.002,0.517-0.124,1.021-0.055,1.549c0.038,0.299-0.174,0.511-0.521,0.509c-1.178-0.006-2.357-0.002-3.537-0.004
			c-0.417-0.001-0.612-0.223-0.61-0.648c0.002-0.217,0.009-0.436-0.019-0.648c-0.021-0.172-0.093-0.341-0.297-0.371
			c-0.166-0.023-0.274,0.071-0.365,0.204c-0.909,1.333-2.2,1.771-3.724,1.759c-1.021-0.008-2.013-0.039-2.913-0.625
			c-1.479-0.963-2.058-2.458-2.262-4.135c-0.307-2.522-0.188-5.064-0.112-7.593c0.057-1.861,0.484-3.637,1.972-4.95
			c0.563-0.498,1.235-0.69,1.896-0.793c1.211-0.188,2.434-0.133,3.588,0.401c0.496,0.229,0.771,0.729,1.219,1.019
			c0.179,0.117,0.343,0.281,0.57,0.164c0.227-0.117,0.215-0.352,0.215-0.57c0.001-1.3,0-2.6,0-3.9
			C171.217,23.012,171.212,23.012,171.207,23.012z M171.213,34.872c-0.021-1.691,0.032-3.003-0.241-4.312
			c-0.189-0.9-0.568-1.611-1.404-1.915c-0.9-0.328-1.863,0.061-2.436,0.883c-0.337,0.485-0.479,1.072-0.524,1.646
			c-0.179,2.243-0.226,4.491,0.002,6.734c0.08,0.789,0.133,1.6,0.561,2.306c0.282,0.469,0.602,0.893,1.186,0.97
			c1.496,0.198,2.417-0.551,2.588-2.102C171.111,37.559,171.315,36.037,171.213,34.872z"/>
		<path fill-rule="evenodd" clip-rule="evenodd" fill="#CB0202" d="M90.221,28.037c0.862-0.021,1.722,0.016,2.584-0.065
			c0.403-0.038,0.506,0.205,0.375,0.59c-0.777,2.273-1.56,4.544-2.312,6.824c-0.667,2.023-1.282,4.064-1.946,6.089
			c-0.917,2.801-1.871,5.59-2.785,8.392c-0.568,1.741-1.093,3.495-1.636,5.243c-0.124,0.399-0.363,0.584-0.792,0.588
			c-1.721,0.01-3.441,0.055-5.162,0.072c-0.477,0.005-0.559-0.273-0.413-0.697c0.8-2.322,1.6-4.645,2.388-6.97
			c0.593-1.755,1.158-3.521,1.753-5.274c1.035-3.059,2.133-6.096,3.105-9.174c0.499-1.579,1.15-3.102,1.567-4.71
			c0.147-0.567,0.496-0.975,1.192-0.919C88.829,28.08,89.527,28.037,90.221,28.037z"/>
		<path fill-rule="evenodd" clip-rule="evenodd" fill="#F09321" d="M204.325,67.115c-4.398,0-8.799,0-13.197-0.001
			c-0.168,0-0.337-0.001-0.505-0.003c-0.153-0.002-0.314-0.025-0.377-0.184c-0.08-0.204,0.074-0.345,0.218-0.415
			c0.748-0.363,1.353-0.946,2.048-1.386c0.839-0.532,1.638-1.117,2.436-1.709c1.204-0.895,2.417-1.778,3.628-2.664
			c1.684-1.232,3.423-2.381,5.089-3.641c1.336-1.01,2.728-1.938,4.09-2.908c1.464-1.043,2.89-2.149,4.395-3.125
			c0.94-0.608,1.813-1.313,2.721-1.961c1.071-0.766,2.182-1.496,3.173-2.382c0.127-0.112,0.269-0.238,0.451-0.13
			c0.151,0.09,0.239,0.226,0.215,0.43c-0.146,1.229-0.059,2.464-0.062,3.696c-0.014,5.155-0.004,10.313-0.004,15.47
			c0,0.8-0.1,0.906-0.867,0.906c-4.483,0.001-8.967,0.001-13.45,0.001C204.325,67.112,204.325,67.114,204.325,67.115z"/>
		<path fill-rule="evenodd" clip-rule="evenodd" fill="#1F4A89" d="M216.112,34.578c0,1.517-0.004,3.032,0,4.55
			c0.003,1.375,0.488,1.882,1.824,1.914c0.872,0.022,0.868,0.027,0.762,0.938c-0.041,0.363-0.054,0.729,0.032,1.097
			c0.07,0.306-0.01,0.598-0.36,0.634c-1.825,0.188-3.675,0.408-5.365-0.56c-1.099-0.629-1.779-1.575-1.768-2.989
			c0.016-1.882-0.062-3.768-0.039-5.646c0.031-2.728,0.012-5.455,0.045-8.182c0.01-0.861,0.016-1.722,0.005-2.583
			c-0.005-0.375,0.138-0.606,0.477-0.745c1.192-0.483,2.377-0.983,3.566-1.468c0.672-0.273,0.814-0.169,0.817,0.589
			c0.006,1.117-0.005,2.233,0.002,3.35c0.005,0.55,0.313,0.757,0.823,0.738c0.463-0.018,0.926,0.001,1.389-0.005
			c0.389-0.006,0.579,0.155,0.57,0.58c-0.051,2.311,0.296,2.107-1.947,2.078c-0.589-0.007-0.847,0.221-0.842,0.836
			c0.018,1.625,0.007,3.25,0.007,4.875C216.11,34.578,216.11,34.578,216.112,34.578z"/>
</g>
</svg>
