<?xml version="1.0" encoding="utf-8"?>
<!-- Generator: Adobe Illustrator 16.0.3, SVG Export Plug-In . SVG Version: 6.00 Build 0)  -->
<!DOCTYPE svg PUBLIC "-//W3C//DTD SVG 1.1//EN" "http://www.w3.org/Graphics/SVG/1.1/DTD/svg11.dtd">
<svg version="1.1" id="Layer_1" xmlns="http://www.w3.org/2000/svg" xmlns:xlink="http://www.w3.org/1999/xlink" x="0px" y="0px"
	 width="198.425px" height="66.308px" viewBox="25.194 8.419 198.425 66.308" enable-background="new 25.194 8.419 198.425 66.308"
	 xml:space="preserve">
<g>
	<path fill="#CE0909" d="M25.194,41.574v33.152h198.425V8.419H25.194v33.153"/>
</g>
<path fill="#FFFFFF" d="M111.731,15.819l-14.339,0.042l-0.007,50.241h19.836l29.495-50.272h-15.321l-20.681,37.882L111.731,15.819
	L111.731,15.819z M86.539,15.877H67.716L39.392,66.102h15.199l5.446-9.628c1.156-1.976,1.302-2.505,5.214-2.505
	c2.46,0,2.317,0.025,8.69,0.025l0.153,11.973h12.779L86.539,15.877z M74.739,43.155l-7.372,0.007l6.849-12.923L74.739,43.155z
	 M178.194,54.488c-7.791,0-14.601-4.241-14.591-4.27l-4.379,11.391c0.01,0.328,9.849,5.8,19.116,5.8
	c10.428,0,19.262-7.91,19.262-17.401c0-10.415-12.021-13.05-12.021-17.793c0-2.11,2.027-3.825,5.214-3.825
	c2.893,0,5.209,0.793,9.992,3.035l4.633-10.681c-0.144-0.5-7.818-5.006-14.92-5.006c-10.423,0-20.563,6.852-20.563,17.398
	c0,10.151,13.039,13.316,13.039,17.664C182.977,52.513,181.379,54.488,178.194,54.488L178.194,54.488z M148.5,66.23l18.543-50.366
	l-14.79,0.026l-18.428,50.333L148.5,66.23L148.5,66.23z"/>
</svg>
