<?xml version="1.0" encoding="utf-8"?>
<!-- Generator: Adobe Illustrator 16.0.3, SVG Export Plug-In . SVG Version: 6.00 Build 0)  -->
<!DOCTYPE svg PUBLIC "-//W3C//DTD SVG 1.1//EN" "http://www.w3.org/Graphics/SVG/1.1/DTD/svg11.dtd">
<svg version="1.1" id="Layer_1" xmlns="http://www.w3.org/2000/svg" xmlns:xlink="http://www.w3.org/1999/xlink" x="0px" y="0px"
	 width="198.425px" height="66.308px" viewBox="25.194 8.419 198.425 66.308" enable-background="new 25.194 8.419 198.425 66.308"
	 xml:space="preserve">
<g>
	<path fill="#194891" d="M25.194,41.574v33.152h198.425V8.419H25.194v33.153"/>
	<path fill="#FAFAFB" d="M86.994,26.707c-0.024,0.059-0.033,6.452-0.02,14.205l0.02,14.096h5.747
		c6.396-0.002,6.452-0.005,8.158-0.576c3.745-1.255,5.774-3.942,5.771-7.648c-0.004-3.128-1.211-5.29-3.631-6.51l-0.578-0.29
		l0.244-0.168c1.553-1.08,2.543-3.355,2.537-5.847c-0.008-3.678-2.22-6.201-6.251-7.128c-0.961-0.22-11.924-0.343-12.003-0.132
		 M147.357,26.663c-0.029,0.03-0.055,2.005-0.055,4.383l-0.043,4.327c-0.021,0-0.272-0.187-0.555-0.417
		c-3.061-2.465-8.25-2.355-11.699,0.245c-6.01,4.529-5.786,14.103,0.427,18.233c3.625,2.414,8.731,2.272,11.597-0.315
		c0.426-0.384,0.438-0.36,0.438,0.707v0.896l4.508-0.045V26.65l-2.278-0.021C148.441,26.615,147.389,26.631,147.357,26.663
		 M201.512,27.74c-0.132,0.131-0.062,20.554,0.071,21.327c0.773,4.449,4.465,6.872,9.112,5.988c0.015-0.004,0.015-0.937,0-2.075
		l-0.021-2.07l-1.116-0.023c-2.004-0.043-2.899-0.653-3.313-2.264c-0.148-0.587-0.156-0.948-0.156-5.737v-5.109l4.504-0.046
		l0.047-4.089l-4.51-0.045l-0.084-5.87l-2.238-0.021c-1.229-0.013-2.262,0.003-2.292,0.035 M97.967,31.14
		c2.16,0.719,3.109,3.229,2.06,5.443c-0.681,1.438-1.554,1.698-5.628,1.663l-2.687-0.022l-0.043-7.328l2.875,0.03
		C97.244,30.955,97.448,30.968,97.967,31.14 M163.843,33.222c-8.825,1.169-12.452,12.508-6.051,18.912
		c3.557,3.555,9.646,4.062,13.039,1.081c0.422-0.37,0.447-0.329,0.451,0.655c-0.001,3.063-1.228,5.5-3.246,6.453
		c-2.912,1.379-6.381,0.4-8.457-2.379c-0.646-0.86-0.551-0.81-0.934-0.516c-0.165,0.131-0.98,0.709-1.813,1.292
		c-0.83,0.581-1.508,1.077-1.508,1.102c0,0.187,1.086,1.607,1.692,2.214c4.31,4.313,12.163,4.357,16.135,0.097
		c1.271-1.362,2.046-2.892,2.522-4.983l0.188-0.818l0.053-22.694h-4.553v0.91c0,0.501-0.02,0.91-0.042,0.91s-0.237-0.16-0.479-0.356
		C169.027,33.618,166.322,32.893,163.843,33.222 M187.654,33.192c-6.865,0.866-11.04,8.264-8.549,15.148
		c2.628,7.261,11.77,9.154,17.375,3.604c0.466-0.463,0.848-0.879,0.848-0.928c0-0.048-0.801-0.646-1.781-1.332l-1.78-1.251
		l-0.421,0.461c-3.178,3.477-8.756,2.157-9.944-2.351l-0.112-0.422h7.765c7.489,0,7.764-0.004,7.843-0.152
		c0.154-0.293,0.273-1.697,0.227-2.699c-0.297-6.286-5.472-10.833-11.465-10.077 M108.878,40.023
		c0.037,7.56,0.049,7.655,1.192,9.942c3.778,7.55,14.878,6.716,17.591-1.323c0.594-1.763,0.58-1.545,0.606-8.619l0.024-6.387h-4.629
		l-0.031,6.182c-0.033,6.511-0.033,6.508-0.416,7.584c-1.76,4.944-8.168,4.58-9.438-0.536c-0.248-0.991-0.287-2.078-0.29-7.668
		l0.003-5.56h-4.639l0.031,6.387 M190.011,37.54c1.568,0.336,2.908,1.43,3.721,3.041c0.338,0.672,0.581,1.477,0.479,1.581
		c-0.041,0.044-2.31,0.064-5.443,0.053l-5.369-0.021l0.02-0.328c0.027-0.447,0.742-1.868,1.248-2.479
		c1.299-1.59,3.304-2.28,5.349-1.841 M142.182,37.564c4.681,0.849,6.729,6.932,3.683,10.934c-2.67,3.509-7.66,3.059-9.712-0.879
		C133.599,42.71,137.223,36.663,142.182,37.564 M166.348,37.578c4.446,0.997,6.368,6.791,3.565,10.748
		c-3.211,4.528-9.596,2.732-10.574-2.976C158.55,40.757,162.244,36.658,166.348,37.578 M97.083,42.403
		c3.9,0.245,5.854,2.963,4.377,6.082c-0.875,1.85-2.202,2.284-6.817,2.253l-2.935-0.022l-0.021-4.128
		c-0.017-3.247,0.001-4.146,0.083-4.195c0.144-0.09,3.795-0.082,5.309,0.012"/>
	<path fill="#D95E26" d="M37.723,26.686c-0.053,0.085-0.063,28.208-0.012,28.26c0.019,0.02,0.903-0.552,1.964-1.268l3.67-2.474
		l4.257-2.868l30.404-20.463c0.922-0.616,1.675-1.154,1.675-1.193c0-0.1-41.893-0.096-41.954,0.002"/>
	<path fill="#F5B51A" d="M79.576,27.497c-0.119,0.137-2.908,4.256-3.082,4.552c-0.047,0.077-0.185,0.277-0.311,0.447
		c-0.125,0.17-0.228,0.329-0.228,0.359c0,0.032-0.103,0.195-0.226,0.361c-0.126,0.166-0.266,0.362-0.312,0.439
		c-0.045,0.075-0.38,0.569-0.744,1.097l-0.744,1.104c-0.046,0.08-0.176,0.273-0.289,0.431c-0.102,0.139-0.199,0.281-0.291,0.429
		c-0.195,0.339-1.075,1.599-1.135,1.625c-0.034,0.015-0.063,0.058-0.063,0.099c0,0.04-0.374,0.621-0.833,1.295l-3.344,4.97
		c-0.045,0.08-0.176,0.271-0.288,0.428c-0.101,0.14-0.199,0.283-0.29,0.429c-0.045,0.079-0.381,0.574-0.746,1.104l-0.744,1.099
		c-0.091,0.146-0.187,0.289-0.289,0.429c-0.114,0.156-0.244,0.35-0.288,0.429c-0.197,0.339-1.077,1.6-1.135,1.626
		c-0.035,0.014-0.065,0.061-0.065,0.104c0,0.093-0.344,0.598-0.434,0.639c-0.035,0.015-0.062,0.063-0.062,0.11
		c0,0.049-0.102,0.222-0.228,0.387c-0.125,0.165-0.264,0.366-0.311,0.445c-0.149,0.259-1.558,2.328-1.8,2.646
		c-0.131,0.169-0.215,0.346-0.185,0.39c0.034,0.057,3.145,0.086,9.389,0.086h9.337V41.202L79.77,27.354
		C79.733,27.354,79.644,27.418,79.576,27.497"/>
</g>
</svg>
