<?xml version="1.0" encoding="utf-8"?>
<!-- Generator: Adobe Illustrator 16.0.3, SVG Export Plug-In . SVG Version: 6.00 Build 0)  -->
<!DOCTYPE svg PUBLIC "-//W3C//DTD SVG 1.1//EN" "http://www.w3.org/Graphics/SVG/1.1/DTD/svg11.dtd">
<svg version="1.1" id="Layer_1" xmlns="http://www.w3.org/2000/svg" xmlns:xlink="http://www.w3.org/1999/xlink" x="0px" y="0px"
	 width="198.425px" height="66.308px" viewBox="25.194 8.419 198.425 66.308" enable-background="new 25.194 8.419 198.425 66.308"
	 xml:space="preserve">
<g>
	<g>
		<path fill-rule="evenodd" clip-rule="evenodd" fill="#017E33" d="M125.078,102.37c-33.901,0-67.803-0.001-101.703,0.01
			c-0.399,0-0.489-0.089-0.489-0.489c0.011-37.999,0.011-75.998,0-113.997c0-0.398,0.09-0.488,0.488-0.488
			c67.803,0.011,135.604,0.011,203.407,0c0.398,0,0.488,0.09,0.488,0.488c-0.011,37.999-0.011,75.998,0,113.997
			c0,0.399-0.089,0.489-0.488,0.489C192.879,102.369,158.978,102.37,125.078,102.37z M54.887,49.116c0,0.001,0,0.002,0,0.003
			c3.14,0,6.279-0.003,9.419,0.003c0.321,0,0.597,0.006,0.668-0.413c0.235-1.381,0.481-2.759,0.742-4.135
			c0.069-0.366-0.061-0.486-0.409-0.481c-0.639,0.01-1.276,0.003-1.915,0.003c-3.477,0.001-6.953,0.004-10.43-0.001
			c-0.596-0.001-0.618-0.058-0.49-0.654c0.308-1.438,0.641-2.872,0.891-4.319c0.09-0.52,0.274-0.674,0.779-0.671
			c3.707,0.016,7.414,0.001,11.121,0.016c0.403,0.001,0.569-0.127,0.637-0.517c0.233-1.345,0.498-2.684,0.742-4.026
			c0.122-0.673,0.11-0.681-0.587-0.682c-3.53-0.005-7.06-0.007-10.59-0.01c-0.705-0.001-0.754-0.063-0.621-0.773
			c0.176-0.941,0.371-1.879,0.521-2.824c0.246-1.55,0.233-1.555,1.811-1.553c3.813,0.004,7.627,0.005,11.44,0.026
			c0.442,0.002,0.627-0.131,0.693-0.577c0.194-1.297,0.431-2.588,0.657-3.881c0.116-0.666,0.104-0.688-0.578-0.688
			c-5.073,0.002-10.146,0.002-15.219,0.002c-1.047,0-2.094,0.011-3.14-0.001c-0.369-0.004-0.562,0.083-0.64,0.505
			c-0.256,1.375-0.566,2.739-0.859,4.107c-0.918,4.279-1.839,8.559-2.755,12.838c-0.574,2.686-1.14,5.372-1.714,8.058
			c-0.12,0.565-0.067,0.646,0.514,0.646C48.679,49.116,51.784,49.116,54.887,49.116z M77.703,58.868c0-0.001,0-0.003,0-0.006
			c14.171,0,28.342,0,42.512,0c0.939,0,1.88-0.022,2.818,0.002c0.43,0.011,0.604-0.18,0.675-0.567
			c0.228-1.236,0.487-2.467,0.696-3.706c0.143-0.842,0.112-0.839-0.766-0.852c-4.298-0.066-8.595,0.074-12.892,0.085
			c-6.614,0.016-13.224,0.225-19.835,0.39c-5.866,0.147-11.73,0.358-17.594,0.592c-3.418,0.137-6.833,0.321-10.25,0.482
			c-2.195,0.104-4.393,0.188-6.587,0.315c-3.007,0.174-6.015,0.352-9.019,0.579c-2.561,0.193-5.123,0.372-7.684,0.577
			c-2.454,0.196-4.905,0.428-7.361,0.606c-0.561,0.04-0.664,0.304-0.647,0.784c0.017,0.485,0.143,0.742,0.708,0.73
			c1.56-0.033,3.121-0.013,4.681-0.013C50.673,58.868,64.188,58.868,77.703,58.868z M176.526,58.863L176.526,58.863
			c14.457-0.001,28.914-0.003,43.371,0.006c0.426,0,0.668-0.074,0.685-0.562c0.027-0.791-0.01-0.892-0.622-0.958
			c-1.92-0.207-3.841-0.417-5.762-0.623c-3.578-0.386-7.165-0.658-10.753-0.921c-3.924-0.288-7.852-0.526-11.782-0.73
			c-4.037-0.211-8.076-0.397-12.115-0.562c-4.393-0.18-8.789-0.275-13.185-0.397c-3.421-0.095-6.842-0.197-10.264-0.255
			c-4.024-0.066-8.051-0.085-12.076-0.127c-3.387-0.035-6.775,0.054-10.162-0.046c-0.328-0.01-0.525,0.119-0.586,0.469
			c-0.232,1.361-0.473,2.723-0.727,4.08c-0.08,0.431,0.033,0.644,0.499,0.633c0.656-0.014,1.313-0.007,1.969-0.007
			C148.853,58.863,162.689,58.863,176.526,58.863z M132.557,29.977c0,0.002,0,0.004,0,0.006c-0.798,0-1.596,0.014-2.394-0.006
			c-0.398-0.01-0.607,0.103-0.686,0.534c-0.307,1.708-0.653,3.409-0.977,5.115c-0.581,3.062-1.144,6.128-1.739,9.187
			c-0.216,1.105-0.478,2.211-0.653,3.314c-0.227,1.422-0.553,2.823-0.787,4.243c-0.355,2.148-0.804,4.28-1.219,6.419
			c-0.059,0.302,0.035,0.432,0.348,0.43c1.631-0.008,3.263-0.012,4.895-0.012c0.299,0,0.462-0.125,0.501-0.425
			c0.104-0.786,0.253-1.563,0.4-2.343c0.487-2.576,0.857-5.174,1.439-7.732c0.161-0.711,0.186-0.734,0.761-0.283
			c3.311,2.596,8.548,2.034,11.37-1.74c1.571-2.103,2.482-4.473,3.016-7.014c0.424-2.02,0.571-4.04,0.017-6.057
			c-0.416-1.513-1.223-2.731-2.684-3.451c-1.557-0.768-3.203-0.684-4.847-0.523c-1.229,0.119-2.381,0.521-3.409,1.236
			c-0.175,0.121-0.293,0.473-0.527,0.33c-0.217-0.131-0.034-0.433,0.012-0.643c0.097-0.441-0.019-0.614-0.496-0.595
			C134.119,30,133.337,29.977,132.557,29.977z M181.463,37.285c-1.563,0.005-3.125-0.005-4.633,0.489
			c-2.98,0.976-5.199,2.715-5.861,5.963c-0.435,2.133,0.782,4.622,2.683,5.692c1.98,1.118,4.039,1.013,6.134,0.483
			c1.169-0.296,2.166-0.946,3.128-1.646c0.35-0.254,0.605-0.263,0.9,0.089c0.434,0.517,1.027,0.75,1.692,0.763
			c0.975,0.017,1.95-0.007,2.925,0.012c0.327,0.006,0.487-0.12,0.564-0.425c0.267-1.046,0.54-2.09,0.818-3.133
			c0.051-0.194,0.081-0.335-0.182-0.392c-0.356-0.076-0.384-0.339-0.354-0.657c0.093-1.011,0.374-1.985,0.565-2.976
			c0.455-2.366,0.962-4.72,1.426-7.084c0.115-0.589,0.169-1.188-0.045-1.784c-0.471-1.308-1.563-1.865-2.75-2.298
			c-1.345-0.49-2.761-0.609-4.175-0.717c-2.098-0.161-4.183-0.131-6.204,0.536c-2.331,0.771-3.947,2.237-4.456,4.737
			c-0.128,0.626-0.074,0.709,0.577,0.711c1.365,0.003,2.73-0.01,4.096,0.005c0.357,0.004,0.528-0.11,0.644-0.466
			c0.239-0.738,0.755-1.239,1.449-1.607c0.928-0.492,1.926-0.54,2.898-0.406c1.818,0.25,2.66,1.413,1.935,3.272
			c-0.209,0.533-0.613,0.879-1.275,0.847C183.131,37.256,182.296,37.285,181.463,37.285z M125.453,36.72
			c0.042-1.113-0.109-2.203-0.487-3.243c-0.963-2.654-3.078-3.778-5.702-4.107c-2.142-0.269-4.279-0.191-6.379,0.401
			c-2.414,0.682-4.436,1.949-5.906,4.001c-2.085,2.908-2.757,6.186-2.313,9.689c0.354,2.805,1.795,4.87,4.52,5.844
			c2.407,0.86,4.867,0.809,7.33,0.185c2.44-0.618,4.431-1.938,5.972-3.909C124.515,42.985,125.378,39.98,125.453,36.72z
			 M82.685,49.115c0,0.005,0,0.009,0,0.014c0.816,0,1.633-0.018,2.447,0.007c0.382,0.013,0.54-0.131,0.597-0.498
			c0.135-0.857,0.295-1.71,0.452-2.563c0.565-3.085,1.129-6.169,1.702-9.252c0.386-2.071,0.778-4.142,1.184-6.209
			c0.088-0.444-0.024-0.607-0.498-0.599c-1.364,0.025-2.73,0.011-4.097,0.014c-1.174,0.003-0.944-0.08-1.101,0.922
			c-0.047,0.297-0.115,0.591-0.167,0.888c-0.528,3.057-1.019,6.12-1.773,9.131c-0.216,0.861-0.578,1.685-1.195,2.346
			c-1.02,1.092-2.346,1.269-3.728,1.072c-1.141-0.161-1.674-0.917-1.479-2.034c0.339-1.936,0.727-3.862,1.092-5.794
			c0.381-2.019,0.754-4.039,1.144-6.056c0.07-0.361-0.042-0.481-0.397-0.479c-1.632,0.007-3.264,0.006-4.896-0.008
			c-0.337-0.002-0.466,0.144-0.518,0.46c-0.342,2.08-0.692,4.16-1.049,6.239c-0.409,2.393-0.82,4.785-1.304,7.164
			c-0.587,2.893,0.497,4.917,3.486,5.496c2.295,0.444,4.59,0.406,6.723-0.78c0.208-0.116,0.433-0.177,0.459,0.162
			c0.026,0.322,0.211,0.362,0.469,0.361C81.053,49.114,81.87,49.115,82.685,49.115z M167.174,37.35v-0.002
			c0.815,0,1.632-0.008,2.446,0.003c0.285,0.004,0.421-0.101,0.445-0.39c0.142-1.688-0.12-3.287-1.043-4.736
			c-1.334-2.094-3.438-2.819-5.732-3.054c-2.104-0.215-4.199-0.063-6.251,0.578c-2.938,0.919-5.074,2.743-6.42,5.491
			c-1.219,2.49-1.532,5.148-1.307,7.876c0.307,3.703,2.825,6.271,6.512,6.717c1.565,0.189,3.109,0.071,4.649-0.239
			c2.708-0.547,5.035-1.743,6.803-3.914c0.705-0.866,1.163-1.854,1.395-2.945c0.081-0.38-0.002-0.581-0.479-0.569
			c-1.472,0.035-2.944,0.027-4.416,0.016c-0.413-0.004-0.678,0.092-0.868,0.512c-0.494,1.089-1.307,1.896-2.419,2.35
			c-1.193,0.487-2.436,0.752-3.647,0.126c-1.446-0.746-1.988-2.066-1.978-3.616c0.013-1.748,0.472-3.412,1.264-4.956
			c0.661-1.289,1.538-2.418,2.958-2.991c1.035-0.417,2.08-0.563,3.162-0.217c1.284,0.411,2.029,1.658,2.023,3.457
			c-0.002,0.398,0.108,0.527,0.51,0.514C165.578,37.33,166.376,37.35,167.174,37.35z M205.59,34.488c0-0.015,0-0.029,0-0.044
			c0.479,0,0.958-0.004,1.437,0.001c0.265,0.003,0.426-0.092,0.5-0.367c0.316-1.181,0.645-2.357,0.98-3.533
			c0.076-0.266,0.016-0.444-0.264-0.445c-1.822-0.002-3.664-0.118-5.337,0.838c-0.184,0.104-0.393,0.271-0.587,0.137
			c-0.206-0.145-0.077-0.395-0.032-0.594c0.083-0.366-0.068-0.46-0.417-0.458c-1.631,0.013-3.263,0.015-4.895-0.002
			c-0.404-0.004-0.544,0.15-0.613,0.542c-0.482,2.7-0.986,5.396-1.49,8.091c-0.619,3.308-1.244,6.615-1.868,9.922
			c-0.068,0.361-0.013,0.566,0.438,0.561c1.561-0.021,3.121-0.015,4.682-0.002c0.327,0.003,0.481-0.109,0.539-0.436
			c0.138-0.784,0.298-1.564,0.456-2.346c0.616-3.039,1.207-6.082,1.865-9.111c0.324-1.495,1.3-2.721,3.172-2.752
			C204.633,34.482,205.113,34.488,205.59,34.488z M96.343,30.023c0,0.001,0,0.001,0,0.002c-0.798,0-1.597,0.021-2.394-0.01
			c-0.406-0.016-0.57,0.14-0.639,0.522c-0.416,2.319-0.844,4.637-1.272,6.953c-0.376,2.037-0.76,4.071-1.136,6.107
			c-0.313,1.688-0.611,3.379-0.933,5.066c-0.063,0.33,0.02,0.461,0.359,0.46c1.596-0.003,3.191,0.005,4.786,0.007
			c0.287,0.001,0.455-0.124,0.509-0.426c0.119-0.662,0.264-1.319,0.396-1.979c0.623-3.126,1.225-6.256,1.877-9.377
			c0.402-1.924,1.602-2.863,3.567-2.896c0.815-0.014,1.631-0.013,2.447-0.007c0.307,0.002,0.495-0.102,0.579-0.418
			c0.31-1.164,0.632-2.324,0.956-3.484c0.08-0.289,0.011-0.447-0.311-0.451c-1.827-0.023-3.655-0.072-5.334,0.856
			c-0.468,0.259-0.634,0.146-0.558-0.375c0.064-0.442-0.094-0.568-0.509-0.558C97.939,30.036,97.14,30.023,96.343,30.023z"/>
		<path fill-rule="evenodd" clip-rule="evenodd" fill="#FBE305" d="M77.703,58.868c-13.515,0-27.029,0-40.544,0
			c-1.56,0-3.121-0.021-4.681,0.013c-0.565,0.012-0.691-0.245-0.708-0.73c-0.017-0.48,0.087-0.744,0.647-0.784
			c2.456-0.179,4.907-0.41,7.361-0.606c2.561-0.205,5.123-0.384,7.684-0.577c3.004-0.228,6.012-0.405,9.019-0.579
			c2.194-0.127,4.392-0.211,6.587-0.315c3.417-0.161,6.832-0.346,10.25-0.482c5.863-0.233,11.728-0.444,17.594-0.592
			c6.611-0.165,13.221-0.374,19.835-0.39c4.297-0.011,8.594-0.151,12.892-0.085c0.878,0.013,0.908,0.01,0.766,0.852
			c-0.209,1.239-0.469,2.47-0.696,3.706c-0.071,0.388-0.245,0.578-0.675,0.567c-0.938-0.024-1.879-0.002-2.818-0.002
			c-14.17,0-28.341,0-42.512,0C77.703,58.865,77.703,58.867,77.703,58.868z"/>
		<path fill-rule="evenodd" clip-rule="evenodd" fill="#FBE305" d="M176.526,58.863c-13.837,0-27.673,0-41.51,0
			c-0.656,0-1.313-0.007-1.969,0.007c-0.466,0.011-0.579-0.202-0.499-0.633c0.254-1.357,0.494-2.719,0.727-4.08
			c0.061-0.35,0.258-0.479,0.586-0.469c3.387,0.1,6.775,0.011,10.162,0.046c4.025,0.042,8.052,0.061,12.076,0.127
			c3.422,0.058,6.843,0.16,10.264,0.255c4.396,0.122,8.792,0.218,13.185,0.397c4.039,0.164,8.078,0.351,12.115,0.562
			c3.931,0.204,7.858,0.442,11.782,0.73c3.588,0.263,7.175,0.535,10.753,0.921c1.921,0.206,3.842,0.416,5.762,0.623
			c0.612,0.066,0.649,0.167,0.622,0.958c-0.017,0.487-0.259,0.562-0.685,0.562C205.44,58.86,190.983,58.862,176.526,58.863
			L176.526,58.863z"/>
		<path fill-rule="evenodd" clip-rule="evenodd" fill="#017E33" d="M141.679,37.59c-0.047,1.614-0.433,3.108-1.325,4.494
			c-0.636,0.986-1.359,1.841-2.36,2.448c-0.67,0.406-1.402,0.584-2.185,0.489c-1.229-0.15-2.027-1.01-2.358-2.455
			c-0.428-1.875,0.024-3.615,0.77-5.314c0.507-1.158,1.199-2.172,2.349-2.779c1.264-0.668,2.555-0.751,3.849-0.074
			c0.948,0.495,1.085,1.422,1.217,2.343C141.673,37.021,141.666,37.307,141.679,37.59z"/>
		<path fill-rule="evenodd" clip-rule="evenodd" fill="#017E33" d="M178.824,45.994c-0.863-0.001-1.563-0.182-1.96-0.895
			c-0.4-0.716-0.264-1.44,0.134-2.121c0.459-0.784,1.163-1.222,2.048-1.373c1.413-0.241,2.829-0.463,4.237-0.722
			c0.425-0.078,0.482,0.084,0.467,0.442c-0.084,1.939-1.771,3.942-3.773,4.458C179.566,45.891,179.16,46.028,178.824,45.994z"/>
		<path fill-rule="evenodd" clip-rule="evenodd" fill="#017E33" d="M110.174,40.905c0.254-2.396,1.007-4.729,2.993-6.497
			c1.107-0.985,2.447-1.312,3.871-1.019c1.437,0.295,2.185,1.364,2.411,2.732c0.521,3.15-0.365,5.9-2.638,8.144
			c-1.362,1.345-3.404,1.62-4.912,0.795c-1.093-0.599-1.456-1.636-1.632-2.771C110.207,41.888,110.21,41.477,110.174,40.905z"/>

	</g>
</g>
</svg>
