<?xml version="1.0" encoding="utf-8"?>
<!-- Generator: Adobe Illustrator 16.0.3, SVG Export Plug-In . SVG Version: 6.00 Build 0)  -->
<!DOCTYPE svg PUBLIC "-//W3C//DTD SVG 1.1//EN" "http://www.w3.org/Graphics/SVG/1.1/DTD/svg11.dtd">
<svg version="1.1" id="Layer_1" xmlns="http://www.w3.org/2000/svg" xmlns:xlink="http://www.w3.org/1999/xlink" x="0px" y="0px"
	 width="198.425px" height="66.308px" viewBox="25.194 8.419 198.425 66.308" enable-background="new 25.194 8.419 198.425 66.308"
	 xml:space="preserve">
<g>
		<path fill-rule="evenodd" clip-rule="evenodd" fill="#FA0111" d="M93.982,51.008c0-2.279,0-4.559,0-6.838
			c0-3.059,0.012-6.118-0.012-9.177c-0.004-0.535,0.083-0.798,0.696-0.792c0.74,0.008,1.481-0.105,2.223-0.146
			c0.403-0.022,0.559-0.171,0.55-0.607c-0.03-1.46-0.021-2.921-0.005-4.381c0.004-0.383-0.106-0.535-0.512-0.533
			c-3.583,0.012-7.165,0.01-10.748,0.001c-0.343-0.001-0.498,0.087-0.495,0.459c0.014,1.516,0.018,3.031-0.002,4.547
			c-0.005,0.415,0.177,0.513,0.541,0.525c0.715,0.026,1.429,0.118,2.143,0.118c0.622,0.001,0.753,0.265,0.751,0.853
			c-0.024,5.181-0.014,10.362-0.014,15.543c0,1.084,0,1.084,1.094,1.084c2.48,0,4.96-0.015,7.44,0.012
			c0.504,0.006,0.775-0.145,1.026-0.595c1.499-2.689,3.047-5.352,4.549-8.04c0.258-0.463,0.521-0.654,1.077-0.652
			c5.705,0.025,11.41,0.023,17.114,0.002c0.54-0.002,0.821,0.16,1.093,0.63c3.719,6.427,7.462,12.839,11.195,19.258
			c0.133,0.228,0.34,0.431,0.326,0.742c-0.291,0.151-0.595,0.074-0.884,0.074c-34.724,0.004-69.448,0.001-104.172,0.024
			c-0.809,0-0.973-0.203-0.971-0.986c0.027-14.221,0.027-28.44-0.001-42.661c-0.001-0.804,0.2-0.977,0.987-0.977
			c27.118,0.023,54.235,0.02,81.353,0.02c1.057,0,1.058,0.002,0.578,0.906c-5.525,10.418-11.051,20.835-16.577,31.253
			c-0.063,0.119-0.136,0.234-0.204,0.352C94.075,51.021,94.028,51.014,93.982,51.008z M71.687,38.038
			c0.35,0.113,0.369,0.392,0.473,0.593c2.148,4.147,4.298,8.295,6.423,12.454c0.231,0.452,0.484,0.643,1.003,0.62
			c0.99-0.045,1.986-0.055,2.975,0.002c0.633,0.036,0.778-0.171,0.773-0.782c-0.027-3.995-0.014-7.99-0.014-11.985
			c0-3.251-0.012-6.502,0.012-9.753c0.004-0.539-0.141-0.713-0.689-0.686c-0.935,0.046-1.875,0.051-2.809-0.001
			c-0.601-0.033-0.786,0.115-0.781,0.755c0.033,4.133,0.02,8.266,0.01,12.398c0,0.222,0.114,0.479-0.093,0.68
			c-0.225-0.085-0.255-0.296-0.339-0.458c-2.204-4.243-4.411-8.485-6.59-12.74c-0.231-0.453-0.472-0.654-0.995-0.634
			c-1.073,0.042-2.149,0.032-3.223,0.003c-0.455-0.012-0.614,0.105-0.613,0.589c0.015,7.329,0.017,14.658-0.002,21.987
			c-0.001,0.548,0.204,0.634,0.675,0.621c1.046-0.029,2.095-0.041,3.14,0.004c0.557,0.024,0.681-0.168,0.676-0.694
			c-0.025-2.645-0.011-5.29-0.011-7.935C71.687,41.409,71.687,39.742,71.687,38.038z M43.719,43.943
			c0.367,0.17,0.387,0.505,0.5,0.771c0.916,2.146,1.838,4.291,2.715,6.454c0.19,0.468,0.432,0.606,0.912,0.595
			c1.266-0.031,2.535-0.044,3.8,0.002c0.724,0.027,0.662-0.196,0.411-0.723c-1.203-2.528-2.357-5.08-3.563-7.607
			c-0.266-0.559-0.303-0.879,0.249-1.351c2.708-2.314,3.718-6.425,2.416-9.714c-0.746-1.884-1.954-3.348-4.11-3.624
			c-2.43-0.31-4.883-0.339-7.33-0.43c-0.35-0.013-0.517,0.088-0.474,0.458c0.019,0.163,0.003,0.33,0.003,0.496
			c0,7.16,0.016,14.321-0.022,21.481c-0.004,0.828,0.23,1.018,1,0.957c0.903-0.07,1.818-0.048,2.725-0.004
			c0.521,0.025,0.646-0.145,0.639-0.647c-0.027-2.093-0.015-4.187-0.006-6.279C43.583,44.516,43.489,44.231,43.719,43.943z
			 M54.102,40.098c0,3.637,0.001,7.274-0.003,10.912c0,0.371-0.052,0.673,0.522,0.668c3.058-0.029,6.117-0.021,9.176-0.006
			c0.402,0.002,0.521-0.129,0.515-0.52c-0.018-1.405-0.021-2.811,0-4.216c0.007-0.449-0.174-0.563-0.588-0.546
			c-0.688,0.027-1.378,0.022-2.066,0.004c-0.958-0.027-2.236,0.403-2.791-0.149c-0.595-0.593-0.103-1.878-0.193-2.854
			c-0.053-0.573,0.187-0.679,0.699-0.666c1.294,0.031,2.59-0.007,3.885,0.02c0.455,0.01,0.625-0.105,0.613-0.591
			c-0.031-1.321-0.039-2.646,0.003-3.967c0.018-0.559-0.218-0.625-0.681-0.616c-1.24,0.025-2.481-0.019-3.72,0.021
			c-0.556,0.018-0.791-0.105-0.752-0.715c0.053-0.823,0.047-1.654,0.002-2.479c-0.031-0.564,0.125-0.764,0.722-0.744
			c1.349,0.045,2.7-0.006,4.05,0.024c0.515,0.012,0.731-0.095,0.71-0.672c-0.045-1.266-0.043-2.535-0.001-3.801
			c0.019-0.569-0.19-0.681-0.711-0.677c-2.893,0.022-5.787,0.028-8.68-0.003c-0.592-0.006-0.728,0.177-0.724,0.742
			C54.114,32.878,54.102,36.488,54.102,40.098z"/>
		<path fill-rule="evenodd" clip-rule="evenodd" fill="#361795" d="M167.811,18.517c17.444,0,34.889,0.007,52.333-0.022
			c0.86-0.001,1.013,0.236,1.011,1.041c-0.025,14.192-0.024,28.386-0.001,42.578c0.001,0.752-0.112,1.008-0.953,1.007
			c-26.787-0.026-53.574-0.024-80.36-0.008c-0.626,0-0.965-0.163-1.28-0.735c-7.937-14.342-15.896-28.671-23.852-43.002
			c-0.476-0.856-0.477-0.857,0.521-0.857C132.756,18.517,150.284,18.517,167.811,18.517z M124.751,29.009
			c0.049,0.152,0.062,0.231,0.097,0.297c3.914,7.32,7.831,14.638,11.736,21.962c0.187,0.35,0.423,0.436,0.79,0.43
			c1.294-0.019,2.591-0.04,3.884,0.008c0.6,0.021,0.721-0.182,0.716-0.743c-0.027-3.003-0.013-6.006-0.013-9.009
			c0-0.192-0.002-0.386,0.004-0.578c0.003-0.104-0.014-0.227,0.129-0.264c0.147-0.038,0.265-0.002,0.344,0.141
			c0.094,0.168,0.196,0.331,0.291,0.499c1.77,3.137,3.546,6.271,5.296,9.419c0.218,0.391,0.445,0.544,0.892,0.531
			c1.102-0.032,2.206-0.048,3.305,0.004c0.622,0.029,0.786-0.152,0.78-0.776c-0.032-3.333-0.016-6.666-0.016-10
			c0-3.912-0.01-7.824,0.012-11.736c0.003-0.532-0.128-0.717-0.682-0.694c-1.045,0.044-2.096,0.049-3.14-0.001
			c-0.607-0.029-0.791,0.126-0.785,0.763c0.034,3.636,0.017,7.272,0.017,10.909c0,0.193,0.001,0.386-0.006,0.578
			c-0.004,0.142-0.028,0.3-0.203,0.294c-0.086-0.002-0.19-0.097-0.246-0.178c-0.093-0.135-0.152-0.291-0.228-0.438
			c-1.936-3.764-3.881-7.522-5.794-11.297c-0.237-0.469-0.513-0.62-1.017-0.602c-1.018,0.037-2.04,0.053-3.057-0.004
			c-0.659-0.037-0.83,0.176-0.824,0.824c0.03,3.664,0.015,7.328,0.013,10.992c0,0.282-0.024,0.564-0.049,1.091
			c-0.262-0.452-0.396-0.679-0.524-0.908c-2.038-3.617-4.075-7.234-6.113-10.852c-0.198-0.35-0.327-0.699-0.887-0.681
			C127.932,29.042,126.389,29.009,124.751,29.009z M161.028,43.857c0.275,0.236,0.327,0.512,0.43,0.755
			c0.922,2.174,1.841,4.349,2.768,6.521c0.101,0.236,0.112,0.559,0.5,0.558c1.63-0.005,3.261-0.002,4.964-0.002
			c-1.323-2.838-2.573-5.555-3.862-8.252c-0.249-0.523-0.288-0.865,0.231-1.24c0.395-0.285,0.716-0.685,1.03-1.065
			c2.759-3.341,2.652-8.308-0.226-11.148c-0.644-0.635-1.374-1.043-2.293-1.196c-2.509-0.416-5.044-0.362-7.567-0.524
			c-0.314-0.021-0.462,0.107-0.443,0.429c0.011,0.192,0.001,0.385,0.001,0.578c0,7.161,0.018,14.321-0.023,21.482
			c-0.005,0.873,0.251,1.081,1.059,1.017c0.876-0.069,1.763-0.044,2.642-0.005c0.523,0.022,0.651-0.174,0.646-0.667
			c-0.022-2.12-0.014-4.241-0.005-6.361C160.878,44.473,160.794,44.191,161.028,43.857z M214.578,51.692
			c-0.185-0.342-0.297-0.557-0.414-0.768c-1.937-3.486-3.866-6.977-5.821-10.452c-0.243-0.433-0.257-0.754-0.014-1.197
			c1.32-2.41,2.604-4.841,3.899-7.266c0.603-1.129,1.2-2.26,1.843-3.469c-1.647,0-3.161,0.024-4.673-0.013
			c-0.522-0.013-0.776,0.174-0.998,0.629c-1.325,2.719-2.675,5.426-4.036,8.126c-0.13,0.258-0.134,0.739-0.606,0.646
			c-0.496-0.099-0.271-0.541-0.273-0.823c-0.019-2.618-0.029-5.236,0.003-7.853c0.007-0.591-0.176-0.751-0.745-0.725
			c-0.962,0.045-1.93,0.043-2.892,0c-0.536-0.024-0.639,0.186-0.638,0.667c0.012,7.247,0.016,14.494-0.005,21.74
			c-0.002,0.607,0.21,0.737,0.761,0.714c0.935-0.04,1.876-0.056,2.809,0.004c0.674,0.043,0.892-0.141,0.879-0.846
			c-0.045-2.451-0.024-4.904-0.009-7.356c0.002-0.305-0.193-0.777,0.17-0.887c0.409-0.124,0.448,0.397,0.588,0.661
			c1.393,2.621,2.769,5.252,4.146,7.881c0.166,0.318,0.285,0.607,0.762,0.599C211.018,51.672,212.726,51.692,214.578,51.692z
			 M171.365,40.073c0,3.664,0.011,7.328-0.011,10.991c-0.004,0.526,0.117,0.707,0.675,0.702c2.947-0.027,5.896-0.027,8.843,0
			c0.566,0.005,0.694-0.192,0.682-0.716c-0.032-1.321-0.031-2.646-0.001-3.967c0.012-0.529-0.136-0.716-0.695-0.699
			c-1.376,0.042-2.754-0.005-4.131,0.023c-0.508,0.011-0.754-0.084-0.715-0.668c0.053-0.768,0.049-1.544,0.001-2.313
			c-0.035-0.575,0.2-0.687,0.717-0.675c1.321,0.031,2.644-0.002,3.966,0.018c0.415,0.006,0.584-0.104,0.576-0.553
			c-0.026-1.349-0.029-2.699,0.001-4.049c0.011-0.483-0.159-0.606-0.616-0.598c-1.322,0.026-2.645-0.008-3.967,0.019
			c-0.476,0.009-0.702-0.09-0.676-0.63c0.042-0.852,0.037-1.709,0.001-2.561c-0.02-0.475,0.136-0.611,0.604-0.603
			c1.459,0.027,2.92-0.007,4.379,0.021c0.469,0.008,0.616-0.129,0.605-0.603c-0.03-1.321-0.053-2.646,0.007-3.965
			c0.03-0.666-0.219-0.754-0.799-0.749c-2.893,0.028-5.785,0.039-8.677-0.007c-0.697-0.011-0.785,0.238-0.781,0.836
			C171.377,32.91,171.365,36.491,171.365,40.073z M196.421,44.417c-0.066-0.02-0.132-0.038-0.198-0.058
			c-0.418,0.434-0.808,0.9-1.26,1.296c-1.479,1.295-3.131,1.27-4.605-0.044c-0.654-0.584-1.086-1.311-1.312-2.154
			c-0.479-1.786-0.417-3.599-0.224-5.412c0.101-0.938,0.363-1.834,0.9-2.629c1.316-1.951,3.673-2.239,5.386-0.654
			c0.242,0.225,0.473,0.463,0.695,0.707c0.151,0.166,0.303,0.371,0.542,0.297c0.295-0.091,0.146-0.376,0.146-0.567
			c0.013-1.791,0.007-3.582,0.01-5.373c0-0.28-0.003-0.519-0.302-0.7c-1.601-0.972-3.298-1.532-5.186-1.182
			c-2.336,0.434-3.917,1.926-5.114,3.86c-2.001,3.231-2.453,6.796-2.046,10.494c0.327,2.96,1.32,5.671,3.372,7.912
			c2.375,2.594,5.825,3.046,8.659,1.132c0.243-0.164,0.538-0.289,0.537-0.669C196.418,48.588,196.421,46.502,196.421,44.417z
			 M215.958,43.427c1.517-0.005,2.719-1.22,2.699-2.729c-0.019-1.468-1.214-2.664-2.68-2.683c-1.482-0.019-2.744,1.222-2.751,2.705
			C213.219,42.212,214.45,43.431,215.958,43.427z"/>
		<path fill-rule="evenodd" clip-rule="evenodd" fill="#FA0111" d="M113.038,25.333c2.34,4.151,4.604,8.167,6.91,12.256
			c-4.616,0-9.14,0-13.784,0C108.458,33.5,110.72,29.465,113.038,25.333z"/>
		<path fill-rule="evenodd" clip-rule="evenodd" fill="#FA0111" d="M46.991,36.437c0.023,0.495-0.006,0.989-0.15,1.465
			c-0.298,0.979-2.033,1.747-2.945,1.32c-0.197-0.092-0.179-0.25-0.179-0.407c-0.002-1.592,0.013-3.184-0.012-4.775
			c-0.006-0.403,0.204-0.42,0.495-0.458c1.73-0.221,2.678,0.547,2.79,2.28C47.001,36.052,46.991,36.244,46.991,36.437z"/>
		<path fill-rule="evenodd" clip-rule="evenodd" fill="#361795" d="M160.951,39.478c0-1.824,0.004-3.572-0.004-5.32
			c-0.001-0.279,0.097-0.409,0.383-0.369c0.054,0.007,0.109,0.006,0.164,0.014c0.818,0.11,1.845-0.108,2.278,0.786
			c0.582,1.199,0.536,2.498-0.007,3.736c-0.077,0.176-0.302,0.336-0.493,0.404C162.531,38.992,161.776,39.215,160.951,39.478z"/>
		<path fill-rule="evenodd" clip-rule="evenodd" fill="#361795" d="M215.912,42.925c-1.232-0.015-2.193-0.985-2.187-2.21
			c0.008-1.252,1.03-2.225,2.302-2.189c1.224,0.034,2.162,1.029,2.133,2.264C218.131,42.031,217.174,42.94,215.912,42.925z
			 M217.262,42.308c-0.056-0.143-0.079-0.252-0.135-0.341c-0.304-0.485-0.699-0.896-0.17-1.546c0.253-0.311,0.128-0.879-0.34-1.138
			c-0.53-0.292-1.111-0.216-1.678-0.123c-0.044,0.007-0.081,0.19-0.082,0.292c-0.007,0.852,0.002,1.703-0.007,2.556
			c-0.003,0.285,0.117,0.382,0.394,0.374c0.262-0.008,0.409-0.078,0.415-0.374c0.005-0.248-0.082-0.524,0.095-0.775
			C216.307,41.572,216.207,42.663,217.262,42.308z"/>
</g>
</svg>
