<?xml version="1.0" encoding="utf-8"?>
<!-- Generator: Adobe Illustrator 16.0.3, SVG Export Plug-In . SVG Version: 6.00 Build 0)  -->
<!DOCTYPE svg PUBLIC "-//W3C//DTD SVG 1.1//EN" "http://www.w3.org/Graphics/SVG/1.1/DTD/svg11.dtd">
<svg version="1.1" id="Layer_1" xmlns="http://www.w3.org/2000/svg" xmlns:xlink="http://www.w3.org/1999/xlink" x="0px" y="0px"
	 width="183.369px" height="65.738px" viewBox="32.804 9.419 183.369 65.738" enable-background="new 32.804 9.419 183.369 65.738"
	 xml:space="preserve">
<g>
	<polygon fill="#006FB9" points="165.408,74.49 179.356,53.775 178.38,37.826 205.867,37.826 181.203,74.49 	"/>
	<polygon fill="#006FB9" points="155.973,58.082 162.947,37.826 178.33,37.826 171.356,58.082 	"/>
	<polygon fill="#006FB9" points="129.975,58.082 136.898,37.826 152.281,37.826 145.308,58.082 	"/>
	<polygon fill="#006FB9" points="89.619,58.082 96.593,37.826 111.925,37.826 104.951,58.082 	"/>
	<polygon fill="#006FB9" points="72.954,58.082 79.928,37.826 95.26,37.826 88.286,58.082 	"/>
	<polygon fill="#006FB9" points="56.238,58.082 63.16,37.826 78.543,37.826 71.57,58.082 	"/>
	<polygon fill="#006FB9" points="32.804,58.082 39.778,37.826 55.11,37.826 48.136,58.082 	"/>
	<polygon fill="#006FB9" points="113.259,58.031 120.232,37.826 135.565,37.826 128.642,58.031 	"/>
	<polygon fill="#006FB9" points="191.507,35.878 200.378,22.546 216.173,22.546 207.302,35.878 	"/>
	<polygon fill="#006FB9" points="159.255,35.878 163.869,22.495 168.229,22.495 172.791,9.419 188.175,9.419 183.561,22.495 
		190.125,22.495 191.457,35.878 	"/>
	<path fill="#006FB9" d="M137.615,35.878l7.281-21.075c1.076-3.128,4-5.384,7.486-5.384h16.308l-4.257,12.307h-10.359l-0.102,0.771
		h8.82l-4.614,13.383L137.615,35.878L137.615,35.878z"/>
	<polygon fill="#006FB9" points="120.899,35.878 125.514,22.495 140.898,22.495 136.281,35.878 	"/>
	<path fill="#006FB9" d="M97.26,35.878l4.615-13.383h12.769l-1.231,3.589c2-3.127,5.539-5.23,9.59-5.23h1.742l-5.127,14.974H97.26
		V35.878z"/>
	<path fill="#006FB9" d="M63.878,35.878l9.179-26.459h16.665l-5.23,14.974c1.436-2.153,3.949-3.59,6.769-3.59
		c2.974,0,5.794,1.487,6.974,3.949c0.307,0.563,0.513,1.384,0.513,2.102c0,0.514-0.103,1.077-0.257,1.487l-2.564,7.435H63.878
		V35.878z"/>
	<polygon fill="#006FB9" points="40.444,35.878 44.085,25.212 33.47,25.212 38.957,9.419 71.672,9.419 66.186,25.212 59.468,25.212 
		55.827,35.878 	"/>
	<polygon fill="#006FB9" points="125.821,21.725 130.078,9.419 145.46,9.419 141.205,21.725 	"/>
	<path fill="#006FB9" d="M188.33,71.209c0,1.744,1.436,3.128,3.127,3.128c1.742,0,3.129-1.384,3.129-3.128
		c0-1.743-1.438-3.181-3.129-3.181C189.712,68.029,188.33,69.466,188.33,71.209 M187.509,71.209c0-2.205,1.742-3.948,3.947-3.948
		c2.153,0,3.948,1.743,3.948,3.948c0,2.153-1.743,3.948-3.948,3.948C189.303,75.157,187.509,73.363,187.509,71.209"/>
	<path fill="#006FB9" d="M190.688,70.9h0.924c0.409,0,0.614-0.151,0.614-0.614c0-0.205-0.104-0.564-0.563-0.564h-0.976V70.9
		L190.688,70.9z M192.175,73.363c-0.053-0.205-0.104-0.462-0.104-0.871c0-0.616-0.052-0.821-0.615-0.821h-0.819v1.692h-0.771v-4.358
		h1.897c1.024,0,1.179,0.871,1.179,1.229c0,0.515-0.205,0.925-0.563,1.077c0.308,0.153,0.461,0.309,0.461,1.077
		c0,0.615,0,0.77,0.154,0.871v0.104L192.175,73.363L192.175,73.363z"/>
	<path fill="#006FB9" d="M161.203,65.671h-1.742l-2.104,8.666h4.256l0.358-1.487h-2.461L161.203,65.671z M154.537,71.106h-2.152
		l1.742-3.128l0,0L154.537,71.106z M154.691,72.491l0.257,1.846h1.896l-1.229-8.923h-1.385l-5.691,8.923h1.846l1.18-1.846H154.691
		L154.691,72.491z M149.512,67.107h1.795l0.358-1.487h-5.385l-0.357,1.487h1.795l-1.745,7.229h1.745L149.512,67.107z M135.77,74.286
		h1.742l1.437-5.897l0,0l3.282,6.103h1.282l2.152-8.871h-1.742l-1.438,5.846l0,0l-3.281-6.102h-1.281L135.77,74.286z
		 M136.333,67.055l0.358-1.487h-4.666l-2.103,8.666h4.666l0.358-1.486h-2.923l0.564-2.358h2.818l0.359-1.487h-2.82l0.463-1.896
		L136.333,67.055z M126.796,66.902h0.257c0.922,0,1.589,0.205,1.333,1.281c-0.258,1.077-1.026,1.333-2,1.333h-0.258L126.796,66.902z
		 M127.667,70.542c1.229-0.204,2.152-1.281,2.41-2.41c0.461-1.846-0.615-2.615-2.358-2.615h-2.358l-2.104,8.667H125l0.873-3.486l0,0
		l1.334,3.537h2.103L127.667,70.542z M115.412,69.158L115.412,69.158l0.871-3.643h-1.742l-2.103,8.667h1.743l0.975-3.897l0,0
		l1.949,3.897h2.256l-2.461-4.718l4.409-4h-2.153L115.412,69.158z M113.259,65.773c-0.514-0.308-1.18-0.513-1.898-0.513
		c-2.667,0-4.974,2.153-5.589,4.614c-0.563,2.41,0.771,4.514,3.333,4.514c0.719,0,1.436-0.205,2.154-0.515l0.512-1.999
		c-0.615,0.563-1.486,0.923-2.204,0.923c-1.642,0-2.308-1.486-1.948-2.923c0.357-1.486,1.691-2.974,3.385-2.974
		c0.768,0,1.383,0.358,1.742,0.923L113.259,65.773z M98.132,70.644c-0.512,2.104,0,3.744,2.461,3.744
		c2.41,0,3.742-1.591,4.256-3.692l1.281-5.18h-1.742l-1.18,4.872c-0.256,1.076-0.717,2.564-2.205,2.564s-1.23-1.539-0.976-2.564
		l1.181-4.872h-1.745L98.132,70.644z M94.184,66.799h0.255c0.923,0,1.59,0.205,1.334,1.282c-0.257,1.077-1.026,1.333-1.949,1.333
		h-0.205L94.184,66.799z M95.107,70.439c1.23-0.205,2.153-1.28,2.409-2.41c0.462-1.845-0.615-2.614-2.359-2.614h-2.358l-2.102,8.666
		h1.744l0.871-3.487l0,0l1.333,3.538h2.103L95.107,70.439z M89.927,66.849h1.794l0.359-1.486h-5.385l-0.359,1.486h1.795l-1.744,7.23
		h1.744L89.927,66.849z M79.108,74.029h2.153l-1.077-2l1.282-1.229l-0.872-1.025L79.415,70.9l-0.872-1.537
		c0.872-0.462,1.744-1.128,2-2.103c0.308-1.333-0.461-2.153-1.795-2.153c-1.282,0-2.512,0.871-2.82,2.153
		c-0.153,0.718,0,1.282,0.257,1.846l-0.615,0.359c-0.923,0.514-1.641,1.282-1.846,2.255c-0.359,1.489,0.513,2.565,2,2.565
		c1.026,0,1.949-0.462,2.872-1.076L79.108,74.029z M77.672,67.773c-0.103-0.206-0.103-0.41-0.051-0.666
		c0.103-0.411,0.461-0.82,0.923-0.82s0.615,0.462,0.513,0.872c-0.103,0.408-0.359,0.718-0.718,0.974l-0.359,0.257L77.672,67.773z
		 M77.825,71.977c-0.461,0.359-0.974,0.718-1.538,0.718c-0.615,0-0.923-0.614-0.77-1.179c0.154-0.616,0.77-1.024,1.333-1.385
		L77.825,71.977z M66.853,66.696h0.256c0.923,0,1.589,0.206,1.333,1.282c-0.256,1.077-1.025,1.333-2,1.333h-0.206L66.853,66.696z
		 M67.724,70.338c1.282-0.206,2.154-1.282,2.41-2.411c0.461-1.845-0.615-2.615-2.359-2.615h-2.358l-2.103,8.666h1.744l0.872-3.485
		h0.052l1.333,3.538h2.103L67.724,70.338z M60.494,70.748H58.34l1.743-3.182l0,0L60.494,70.748z M60.648,72.133l0.256,1.845h1.897
		l-1.282-8.923h-1.384l-5.692,8.923h1.846l1.18-1.845H60.648z M56.084,65.516c-0.513-0.307-1.179-0.513-1.897-0.513
		c-2.667,0-4.974,2.154-5.59,4.615c-0.563,2.409,0.77,4.512,3.333,4.512c0.718,0,1.436-0.204,2.154-0.512l0.513-2
		c-0.616,0.563-1.487,0.923-2.205,0.923c-1.641,0-2.308-1.486-1.948-2.923c0.359-1.487,1.692-2.976,3.384-2.976
		c0.77,0,1.436,0.359,1.744,0.923L56.084,65.516z"/>
</g>
</svg>
