<?xml version="1.0" encoding="utf-8"?>
<!-- Generator: Adobe Illustrator 16.0.3, SVG Export Plug-In . SVG Version: 6.00 Build 0)  -->
<!DOCTYPE svg PUBLIC "-//W3C//DTD SVG 1.1//EN" "http://www.w3.org/Graphics/SVG/1.1/DTD/svg11.dtd">
<svg version="1.1" id="Layer_1" xmlns="http://www.w3.org/2000/svg" xmlns:xlink="http://www.w3.org/1999/xlink" x="0px" y="0px"
	 width="198.425px" height="66.308px" viewBox="25.194 8.419 198.425 66.308" enable-background="new 25.194 8.419 198.425 66.308"
	 xml:space="preserve">
<path fill="#0C74B3" d="M23.194,43.071v34.656h203.554V8.419H23.194V43.071 M84.162,13.719c0.292,0.229-1.599,3.799-2.119,3.799
	c-0.011,0-0.38,0.584-0.431,0.629c-0.319,0.285-0.662,0.404-1.06,0.536c-0.727,0.241-1.306,0.57-1.682,1.256
	c-0.863,1.603-1.553,3.156-1.963,4.948c-0.446,1.95-1.023,3.836-1.509,5.766c-0.21,0.835-0.443,1.656-0.619,2.504
	c-0.232,1.112-0.654,2.111-0.987,3.196c-0.518,1.484-0.766,3.236-1.583,4.574c-0.875,1.434-1.765,2.681-2.955,3.878
	c-1.386,1.394-2.998,2.281-4.717,3.152c-3.744,1.896-8.066,2.038-12.182,1.627c-0.941-0.094-1.875-0.075-2.755-0.479
	c-0.378-0.171-0.749-0.184-1.113-0.415c-0.453-0.289-0.843-0.674-1.268-1.005c-0.775-0.603-1.081-0.922-1.516-1.813
	c-0.193-0.397-0.441-0.77-0.587-1.188c-0.159-0.45-0.165-0.994-0.386-1.417c-0.325-0.61-0.091-1.698-0.022-2.343
	c0.114-1.064,0.283-2.146,0.595-3.173c0.557-1.828,0.818-3.734,1.458-5.537c0.584-1.646,0.935-3.289,1.392-4.965
	c0.265-0.971,0.595-1.913,0.915-2.864c0.312-0.924,0.858-2.081,0.726-3.065c-0.149-1.206-0.528-1.934-1.188-2.264
	c-0.953-0.474-0.989-1.21-0.108-2.208c0.932-1.042,1.566-2.287,2.593-3.249c2.623,0,5.246,0,7.87,0c2.112,0,4.24-0.069,6.351,0.043
	c0.368,0.02,0.797-0.024,0.924,0.373c0.217,0.689-1.02,1.874-1.342,2.381c-0.481,0.756-0.782,1.914-1.73,2.182
	c-0.786,0.23-1.688,0.302-2.375,0.756c-0.679,0.449-1.951,1.438-1.966,2.356c-0.014,0.592-0.433,1.12-0.576,1.671
	c-0.204,0.788-0.492,1.875-0.884,2.594c-0.408,0.749-0.521,1.675-0.807,2.471c-0.322,0.894-0.288,2.015-0.711,2.86
	c-0.65,1.084-0.801,2.783-1.145,3.99c-0.407,1.436-0.886,3.212-0.545,4.715c0.348,1.487,1.043,2.259,2.747,3.046
	c0.752,0.349,2.085,0.1,2.87,0.094c0.812-0.006,1.623-0.012,2.434-0.018c1.249-0.613,3.989-1.762,4.36-3.343
	c0.146-0.604,0.676-1.148,0.944-1.709c0.275-0.574,0.496-1.204,0.713-1.802c0.416-1.066,0.533-2.161,0.895-3.234
	c0.388-1.063,0.728-2.154,1.047-3.241c0.318-1.085,0.474-2.159,0.763-3.253c0.279-1.055,0.606-2.142,0.726-3.234
	c0.055-0.503,0.11-1.098-0.046-1.589c-0.188-0.587-0.483-0.992-0.714-1.536c-0.428-1.026-3.706-1.331-3.561-2.061
	c0.168-0.875,1.1-1.423,1.452-2.192c0.441-0.961,0.992-1.639,1.869-2.276c2.112-0.015,4.225-0.027,6.337-0.045
	c1.894-0.015,3.79-0.043,5.685-0.014c0.348,0.005,1.184-0.118,1.491,0.127 M120.82,13.732c0.117,0.068,0.375,0.122,0.568,0.122
	c0.605,0.009,0.84,0.442,0.623,1.147c-0.348,1.116-1.105,2.475-1.105,3.66c0,1.086-0.574,2.663-1.586,3.194
	c-1.047,0.523-2.129,0.841-3.18,1.34c-0.711,0.338-2.273,1.608-3.082,1.004c-0.33-0.24,0.102-1.235,0.176-1.496
	c0.227-0.816,0.326-1.28-0.063-2.042c-0.684-1.314-1.293-1.622-3.354-1.681c-1.807-0.05-2.85,0.267-3.334,1.008
	c-0.463,0.741-1.031,0.92-1.219,1.834c-0.123,0.596-0.131,0.822-0.059,1.089c0.084,0.325,0.152,0.443,0.59,1.075
	c0.561,0.785,1.686,1.382,2.461,1.958c0.932,0.692,1.986,1.167,2.973,1.791c2.283,1.445,4.729,2.623,5.902,5.21
	c0.596,1.291,0.576,3.09,0.234,4.44c-0.264,1.051-0.438,2.539-1.127,3.395c-0.949,1.174-1.666,2.392-2.738,3.47
	c-0.531,0.533-1.068,1.087-1.666,1.546c-0.59,0.451-1.361,1.181-2.066,1.435c-1.285,0.463-2.453,1.098-3.793,1.449
	c-1.381,0.363-2.818,0.507-4.244,0.535c-4.018,0.08-8.055-0.012-12.068-0.209c-1.563-0.072-1.739-0.41-1.08-2.073
	c0.963-2.444,1.146-5.141,2.267-7.538c0.516-1.104,1.084-1.415,2.179-1.891c1.165-0.521,2.913-0.696,3.912-1.496
	c0.588-0.446,1.061,0.01,0.858,0.827c-0.239,1.035-0.944,3.092-0.492,4.074l0.379,0.837c0.46,1.021,0.955,1.328,2.345,1.464
	c2.264,0.217,3.918,0.05,4.707-0.475c1.887-1.245,2.314-3.09,1.621-5.181c-0.59-1.784-3.223-2.532-4.617-3.54
	c-1.297-0.937-3.146-1.371-4.15-2.696c-0.431-0.583-1.073-0.972-1.513-1.612c-0.532-0.773-0.904-1.573-1.293-2.417
	c-0.411-0.922-0.348-3.371,0.108-4.423c0.845-1.948,1.66-3.749,3.215-5.228c0.707-0.672,1.57-1.16,2.385-1.687
	c0.813-0.524,1.537-1.086,2.494-1.297c1.287-0.283,2.857-0.448,4.041-1.055c2.211,0,4.424,0,6.635,0
	c1.795,0,3.592-0.005,5.387,0.019c0.461,0.006,1.33-0.135,1.762,0.103 M168.314,14.031c0.117,0.185,0.096,0.293-0.1,0.469
	c-0.863,0.769-1.688,2.345-2.223,3.357c-0.488,0.944-1.471,1.355-2.498,1.355c-1.059,0-1.801,0.461-2.426,1.296
	c-0.48,0.652-0.23,2.386-0.236,3.131c-0.014,1.766,0.029,3.536,0.133,5.299c0.08,1.33,0.174,2.746,0.447,4.049
	c0.205,0.977,0.264,1.967,0.434,2.951c0.094,0.545,0.209,1.087,0.26,1.64c0.031,0.341,0.15,1.196,0.514,0.454
	c0.49-1.022,1.432-1.726,1.9-2.776c0.176-0.396,0.99-1.149,0.99-1.547c0-0.312,0.73-0.876,0.912-1.139
	c0.262-0.378,0.43-0.813,0.682-1.202c0.736-1.133,1.559-2.211,2.336-3.312c1.041-1.471,1.773-3.187,2.662-4.762
	c0.961-1.667-0.365-3.832-2.463-4.008c-1.518-0.126-1.379-1.007,0.467-2.918c0.619-0.641,0.807-1.918,1.617-2.358
	c0.283-0.154,40.52-0.126,40.619,0.027c0.266,0.423-0.359,1.487-0.506,1.896c-0.193,0.546-0.426,1.072-0.604,1.627
	c-0.43,1.364-0.729,2.856-1.33,4.161c-0.48,1.027-2.141,1.038-3.072,1.149c-0.959,0.114-1.863,0.469-2.814,0.572
	c-0.787,0.064-0.801,0.037-0.684-1.242c0.051-0.561,0.068-1.085,0.037-1.171c-0.248-0.695-0.844-1.143-1.252-1.716
	c-0.67-0.973-2.643-0.604-3.611-0.593c-0.541,0.006-4.412-0.321-4.412,0.769c0,0.477-1.064,1.469-1.283,1.945
	c-0.344,0.744-0.709,1.542-0.93,2.333c-0.219,0.778-0.373,1.562-0.629,2.338c-0.225,0.682-0.85,1.691-0.502,2.411
	c0.182,0.384,0.227,0.389,2.012,0.393c0.822,0,2.16,0.088,2.85-0.484c0.201-0.167,0.197-0.468,0.316-0.69
	c0.178-0.331,0.527-0.479,0.822-0.696c0.781-0.571,1.641-0.751,2.553-1.016c0.438-0.123,2.551-0.755,2.756-0.217
	c0.385,0.985-0.393,2.433-0.703,3.35c-0.303,0.898-0.561,1.811-0.828,2.721c-0.129,0.442-0.234,0.892-0.33,1.342
	c-0.07,0.316-0.227,1.365-0.488,1.595c-0.553,0.554-0.234,1.745-0.939,2.228c-0.641,0.459-1.605,0.551-2.348,0.752
	c-0.793,0.214-1.602,0.644-2.436,0.644c-0.887,0.008-0.559-0.777-0.475-1.372c0.125-0.902-0.18-1.706-0.994-2.16
	c-0.867-0.488-0.84-0.483-1.844-0.452c-1.039,0.037-1.752,0.365-1.865,0.862c-0.215,0.929-0.646,1.825-0.918,2.737
	c-0.35,1.174-0.447,2.438-0.773,3.629c-0.076,0.271-0.049,0.357,0.146,0.683c0.4,0.646,0.523,0.735,1.219,0.886
	c1.225,0.263,2.299,0.381,3.568,0.385c1.287,0.005,2.385-0.232,3.629-0.458c0.713-0.138,1.365-0.785,1.824-1.306
	c0.572-0.646,0.568-1.339,0.998-2.008c0.545-0.844,1.391-0.838,2.299-1.044c0.934-0.213,2.037-0.385,2.916-0.766
	c1.328-0.574,2.141-0.429,1.834,0.325c-0.686,1.739-0.979,3.598-1.521,5.373c-0.297,0.968-0.617,1.928-0.916,2.901
	c-0.184,0.601-0.502,2.089-1.068,2.379c-0.324,0.172-29.248,0.208-29.451,0.036c-0.162-0.136-0.162-0.542-0.01-0.841
	c0.539-0.97,0.852-2.175,1.678-2.954c0.385-0.362,0.852-0.66,1.338-0.868c0.391-0.166,0.734-0.128,1.043-0.434
	c0.785-0.776,1.205-1.76,1.584-2.788c0.762-2.052,1.008-4.255,1.814-6.279c0.367-0.92,0.684-1.807,0.92-2.773
	c0.242-0.979,0.164-2.217,0.609-3.131c0.477-0.953,0.605-2.209,0.893-3.232c0.152-0.551,0.375-1.075,0.512-1.633
	c0.143-0.577,0.123-1.297,0.389-1.83c0.494-0.943-0.426-3.914-1.852-3.164c-1.453,0.766-2.143,2.519-3.086,3.778
	c-1.85,2.452-3.387,5.122-5.141,7.625c-2.152,3.07-4.338,6.185-6.289,9.381c-0.678,1.112-1.414,2.187-2.074,3.322
	c-0.783,1.35-1.709,2.678-2.354,4.091c-0.523,1.192-1.604,1.897-2.9,1.902c-1.74,0-3.633,0.308-5.322,0.718
	c-1.598,0.398-1.48,0.573-1.73-2.566c-0.363-4.513-0.861-9.018-1.236-13.522c-0.25-3.014-0.541-6.058-0.996-9.047
	c-0.211-1.387-0.174-2.798-0.701-4.124c-0.189-0.475-0.451-0.934-0.84-1.274c-0.441-0.386-0.852-0.372-0.807-1.058
	c0.041-0.643,0.877-1.452,1.277-1.893c0.693-0.76,1.021-1.862,1.908-2.439c0.283-0.189,16.977-0.186,17.1,0.004 M145.292,14.464
	c0.506,0.569,0.205,2.375,0.225,3.034c0.039,1.268,0.078,2.536,0.117,3.804c0.057,1.856,0.129,3.712,0.199,5.568
	c0.16,4.376,0.586,8.781,1.035,13.138c0.143,1.371,0.229,2.75,0.355,4.124c0.107,1.155,0.15,2.318,0.25,3.476
	c0.098,1.103,0.459,2.137,0.623,3.225c0.068,0.397,0.99,1.251,1.438,1.328c0.814,0.122,1.727,0.018,2.549,0.021
	c2.197,0.011,4.396,0.015,6.596,0.02c5.619,0.01,11.236,0.013,16.855,0.013c6.098,0,12.195,0,18.293,0c2.314,0,4.629,0,6.943,0
	l0.225,0.177c0.561,0.443-0.516,3.884-0.984,4.306c-0.199,0.181-61.586,0.284-62.26,0.104c-0.533-0.144-0.555-0.842-0.6-1.295
	c-0.197-2.054-0.107-4.139-0.146-6.198c-0.043-2.496-0.158-5.008-0.27-7.503c-0.031-0.74,0.139-3.016-0.77-3.427
	c-0.396-0.182-1.082-0.08-1.5-0.088c-1.031-0.021-2.061-0.027-3.09-0.031c-1.295-0.006-2.59-0.012-3.885-0.017
	c-1.25,1.385-2.025,3.015-3.184,4.45c-0.711,0.882-1.229,1.843-1.902,2.742c-0.582,0.759-1.285,1.714-1.73,2.563
	c-0.891,1.704-2.24,3.219-3.289,4.847c-0.91,1.411-1.66,2.873-2.945,4.011l-73.777,0.036c-2.647,0.009-2.864-0.234-1.902-2.15
	c0.293-0.567,0.343-1.987,0.858-2.326c0.181-0.118,0.547-0.073,0.745-0.081c1.127-0.04,2.255-0.04,3.382-0.049
	c7.79-0.056,15.582-0.045,23.372-0.056c13.081-0.017,26.161-0.03,39.242-0.046c1.377-0.001,2.752-0.004,4.127-0.005
	c0.516-0.624,1.34-0.94,1.787-1.611c0.527-0.79,1.023-1.522,1.641-2.271c0.268-0.321,0.555-0.64,0.754-1.01
	c0.188-0.336,0.887-0.956,0.887-1.337c0-0.34,0.814-0.953,0.992-1.251c0.293-0.492,0.496-0.928,0.902-1.358
	c0.66-0.7,1-1.805,1.746-2.43c0.5-0.43,0.879-1.091,1.273-1.613c0.725-0.964,1.434-2.01,2.123-3.004
	c0.23-0.331,0.344-0.722,0.594-1.045c0.34-0.44,0.77-0.818,1.029-1.317c0.537-1.035,1.4-2.132,2.148-3.031
	c0.598-0.72,1-1.543,1.615-2.247c0.59-0.673,1.049-1.524,1.557-2.271c0.629-0.928,1.281-1.885,1.797-2.871
	c0.381-0.728,1.08-1.314,1.398-2.054c0.293-0.676,0.738-1.438,1.154-2.044c0.361-0.524,0.85-0.943,1.152-1.5
	c0.152-0.284,0.213-0.546,0.314-0.841c0.188-0.537,0.748-0.973,1.115-1.388c0.805-0.926,2.287-0.893,3.434-1.003
	c1.65-0.159,3.309-0.296,4.965-0.379c0.172-0.005,0.322,0.054,0.426,0.167 M135.763,25.234c-0.162,0.07-0.348,0.739-0.434,0.888
	c-0.209,0.368-0.453,0.684-0.721,1.009c-0.516,0.628-0.99,1.398-1.373,2.112c-0.256,0.478-3.029,4.222-2.736,4.408
	c0.566,0.335,2.002,0.09,2.635,0.089c0.953-0.002,2.549,0.23,3.371-0.166c0-1.433-0.053-2.856-0.131-4.287
	c-0.063-1.165-0.066-2.333-0.141-3.496C136.208,25.394,136.214,25.051,135.763,25.234 M92.086,32.147
	c0.267,0.009,0.244,0.438-0.054,0.881c-0.877,1.352-1.82,2.646-2.719,3.989c-0.509,0.759-1.341,2.174-2.214,2.544
	c-0.701,0.27-1.809,0.096-2.538,0.108c-1.947,0.031-3.896,0.057-5.844,0.05c-0.587-0.003-1.757,0.171-2.275-0.221
	c-0.282-0.215,0.158-0.735,0.274-0.928c0.73-1.21,1.551-2.369,2.376-3.515c0.566-0.783,1.483-2.61,2.548-2.859
	c0.326-0.073,8.39-0.113,10.45-0.05 M80.99,61.4c1.649,0.384,1.324,3.465-0.443,4.197l-0.818,0.334
	c-0.56,0.23-0.745,0.65-0.434,0.989c0.452,0.542,0.346,1.533,0.809,2.119c0.501,0.597,1.324-0.764,0.936-1.559
	c-0.482-1.008,0.677-0.779,1.415-0.754c1.047,0.039,1.229,0.399,0.352,1.033c-0.371,0.268-0.845,0.85-1.568,1.925
	c-0.348,0.511-0.352,0.448,0.082,1.08c0.511,0.75,0.687,0.858,1.387,0.877l0.583,0.009l-0.014,0.244
	c-0.077,1.079-3.149,1.631-3.664,0.654c-0.244-0.456-0.877-0.618-1.36-0.356c-0.325,0.181-0.75,0.389-1.396,0.683
	c-0.522,0.241-1.225,0.188-1.78,0.14c-0.292-0.027-0.587-0.065-0.868-0.152c-0.149-0.046-0.37-0.319-0.474-0.326
	c-0.764-0.024-1.015-1.36-1.024-1.915c-0.014-0.807,0.35-1.663,0.839-2.294c0.609-0.784,2.053-1.247,2.905-1.693
	c0.416-0.218,0.231-1.441,0.243-1.787c0.026-0.79,0.145-1.581,0.562-2.271c0.625-1.031,2.66-1.426,3.735-1.181 M184.542,61.598
	c0.186,0.294-0.121,2.485-0.379,2.715c-0.684,0.61-0.621-0.741-0.719-1.058c-0.207-0.671-1.006-0.746-1.6-0.749
	c-1.506,0-0.637,2.508-1.387,3.258c-0.199,0.199-0.098,0.75-0.213,1.012c-0.145,0.345-0.23,0.719-0.316,1.081
	c-0.217,0.915-0.41,1.863-0.455,2.804c-0.021,0.4-0.082,1.033,0.398,1.193c0.262,0.086,1.422,0.312,0.902,0.841
	c-0.236,0.229-1.277,0.093-1.572,0.099c-0.949,0.018-1.9,0.017-2.85-0.014c-0.42-0.015-1.865-0.248-0.639-0.783
	c0.344-0.15,0.82-0.076,1.113-0.339c0.355-0.32,0.346-1.072,0.406-1.498c0.277-1.956,0.684-3.901,1.133-5.813
	c0.416-1.781,0.381-1.885-0.641-1.816c-0.842,0.053-0.918,0.099-1.781,1.021c-1.049,1.111-1.223,0.858-0.799-1.161
	c0.162-0.781,0.307-0.936,0.809-0.858c1.412,0.219,2.939,0.104,4.363,0.102c0.855-0.002,1.713-0.007,2.57-0.035
	c0.326-0.012,1.494-0.257,1.65,0.001 M47.26,61.634c0.913,0.096,0.903,0.077,0.835,1.545c-0.018,0.39,0.059,1.251-0.266,1.563
	c-0.42,0.401-0.802-0.941-0.899-1.133c-0.696-1.392-2.219-1.775-3.506-0.891c-0.53,0.368-0.958,0.538-1.375,1.068
	c-0.446,0.569-0.563,1.209-0.942,1.801c-0.989,1.581-0.632,4.952,0.637,6c0.875,0.723,2.167,0.602,3.096,0.056
	c0.514-0.304,1.848-2.488,2.434-1.895c0.552,0.54-0.86,2.014-1.079,2.439c-0.33,0.65-0.922,0.813-2.978,0.805
	c-1.749-0.005-2.322-0.162-3.461-0.944c-0.82-0.568-1.215-1.274-1.694-2.123c-0.28-0.479-0.262-3.249,0.022-3.764
	c0.404-0.729,0.721-1.601,1.276-2.229c0.659-0.743,1.461-1.199,2.248-1.774C42.999,61.149,45.675,61.477,47.26,61.634
	 M55.018,61.987c0.527,1.825,0.687,3.824,0.985,5.701c0.175,1.098,0.115,2.309,0.45,3.367c0.109,0.343,0.3,0.683,0.656,0.81
	c0.317,0.116,1.018,0.339,0.56,0.798c-0.315,0.327-1.471,0.129-1.843,0.127c-0.391-0.003-2.453,0.307-2.656-0.213
	c-0.196-0.53,0.562-0.539,0.784-0.771c0.278-0.29,0.168-0.929,0.151-1.28c-0.072-1.363,0.059-1.26-1.536-1.251
	c-1.703,0.014-2.01,0.154-2.417,1.147c-0.161,0.391-0.352,0.891-0.075,1.276c0.101,0.142,1.086,0.901,0.414,1.05
	c-0.533,0.109-3.375,0.101-3.542-0.013c-0.608-0.43,0.48-0.765,0.693-0.884c0.473-0.26,0.923-0.761,1.172-1.235
	c0.238-0.453,1.021-1.022,1.021-1.554c0.01-0.722,1.017-1.264,1.017-1.839c0-0.471,0.764-0.89,0.764-1.355
	c0-0.232,0.526-1.169,0.677-1.431c0.478-0.824,1.104-2.202,1.929-2.753c0.366-0.248,0.651-0.136,0.781,0.303 M93.803,61.598
	c2.051,0,3.872-0.031,4.039-0.067c0.451-0.09,0.664,0.226,0.502,0.75c-0.059,0.194-0.137,0.687-0.168,1.099
	c-0.072,0.921-0.262,1.21-0.636,0.967c-0.167-0.114-0.217-0.218-0.222-0.461c0-1.004-1.014-1.428-1.882-1.374
	c-0.86,0.054-0.893,1.122-1,1.78c-0.15,0.856-0.495,1.773-0.506,2.634c0,0.9-0.144,2.083-0.416,2.937
	c-0.174,0.494-0.47,1.319-0.072,1.789c0.203,0.238,1.532,0.503,0.885,1.044c-0.167,0.139-4.852,0.153-5.019,0.018
	c-0.72-0.605,1.356-0.922,1.45-1.351c0.275-1.24,0.613-2.433,0.795-3.696c0.203-1.308,0.244-2.77,0.714-4.007
	c0.334-0.895,0.167-1.147-0.754-1.147h-0.719c-0.359,0.317-0.97,0.636-1.152,1.08c-0.578,1.391-1.342,1.065-0.912-0.394
	c0.348-1.206,0.731-1.762,1.134-1.649c0.117,0.032,1.889,0.06,3.944,0.055 M126.972,61.608c0.494,0.057,1.016,0.108,1.42,0.425
	c-0.037,0.499,0.014,2.941-0.633,2.941c-0.488,0-0.611-1.245-0.793-1.568c-0.338-0.602-0.648-0.724-1.195-1.026
	c-1.945-1.013-4.309,1.793-4.811,3.432c-0.463,1.504-0.746,5.056,0.984,5.921c1.938,0.965,3.127-0.268,4.475-1.559
	c0.193-0.187,0.742-0.725,0.91-0.197c0.266,0.835-0.449,1.351-0.688,2.026c-0.344,1.071-2.564,1.07-3.404,1.049
	c-1.576-0.039-2.516-0.663-3.9-1.266c-1.098-0.487-1.713-4.301-0.926-5.792c0.063-0.117,0.193-0.496,0.297-0.845
	c0.268-0.891,1.637-2.521,2.504-2.878c1.811-0.75,3.818-0.895,5.764-0.668 M189.187,61.657c0.529,0,0.48,2.199,0.506,2.502
	c0.074,0.847,0.313,1.636,0.424,2.472c0.162,1.21,0.629,2.567,0.68,3.768c0,0.383,0.148,0.789,0.354,1.109
	c0.221,0.346,0.723,0.388,0.885,0.757c0.168,0.374-0.203,0.464-0.486,0.492c-1.221,0.124-2.49,0.04-3.717,0.04l-0.141-0.212
	c-0.322-0.494,0.32-0.553,0.512-0.796c0.271-0.346,0.475-1.099,0.217-1.499c-0.027-0.045-0.123-0.267-0.203-0.492
	c-0.338-0.911-1.836-0.567-2.635-0.565c-0.557,0.48-2.258,2.372-0.916,2.666c0.506,0.113,0.723,0.719,0.303,0.849
	c-0.357,0.109-3.488,0.083-3.625-0.026c-0.365-0.308-0.063-0.714,0.684-0.903c0.369-0.095,0.559-0.199,0.73-0.402
	c0.521-0.629,0.92-1.557,1.275-2.285c0.459-0.94,1.166-1.695,1.518-2.687c0.314-0.893,1.102-1.736,1.592-2.552
	c0.326-0.538,0.84-2.621,1.859-2.275c0.064,0.022,0.154,0.041,0.189,0.041 M66.886,61.973c1.321,0.652,1.972,2.011,1.36,3.402
	c-0.372,0.846-1.043,1.428-1.747,1.993c-0.622,0.499-0.417,0.896-0.115,1.559c0.43,0.968,0.781,2.116,1.553,2.87
	c0.22,0.216,0.959,0.413,0.68,0.88c-0.295,0.493-1.242,0.476-1.682,0.247c-0.13-0.072-0.284-0.131-0.339-0.131
	c-0.677-0.027-1.785-1.237-2.091-2.29c-0.168-0.571-0.473-1.094-0.633-1.662c-0.097-0.409-0.511-0.976-1.004-0.775
	c-0.345,0.14-0.331,0.879-0.362,1.161c-0.085,0.781-0.153,1.564-0.229,2.347l0.434,0.316c0.461,0.33,0.606,0.736,0.298,0.854
	c-0.267,0.104-4.491,0.058-4.595-0.05c-0.374-0.374,0.326-0.745,0.605-0.796c0.461-0.086,0.754-0.408,0.872-0.854
	c0.246-0.921,0.401-1.81,0.472-2.756c0.061-0.82,0.07-2.07,0.445-2.802c0.296-0.568,0.419-1.312,0.522-1.939
	c0.155-0.944-1.033-0.934-0.981-1.559c0.055-0.663,5.184-0.298,5.975-0.291l0.551,0.274 M105.341,61.852
	c0.375,0.221,0.533,0.307,0.701,0.389c0.207,0.099,0.699,0.867,0.93,1.459c0.354,0.892-0.055,1.936-0.607,2.651
	c-0.529,0.687-1.994,1.056-1.457,2.033c0.393,0.714,0.646,1.528,1.02,2.264c0.262,0.52,1.572,1.662,1.158,2.168
	c-0.398,0.488-2.508-0.045-2.91-0.736c-0.584-0.948-1.066-1.702-1.469-2.765c-0.523-1.373-1.133-1.739-1.346-0.81
	c-0.229,1.009-0.412,2.023-0.592,3.041c0.182,0.165,0.416,0.313,0.66,0.361c0.461,0.091,0.66,0.556,0.352,0.813
	c-0.152,0.127-4.31,0.127-4.549-0.005c-0.497-0.264,0.126-0.724,0.391-0.774c0.487-0.094,0.752-0.59,0.913-1.013
	c0.488-1.297,0.752-2.91,0.941-4.281c0.129-0.939,0.484-1.759,0.447-2.721c-0.016-0.405-0.02-0.963-0.254-1.316
	c-0.08-0.121-1.16-0.572-0.459-0.859c0.379-0.153,5.836-0.063,6.131,0.109 M112.593,61.837c0.244,0.39-0.371,0.581-0.615,0.743
	c-0.396,0.259-0.586,0.578-0.695,1.033c-0.412,1.58-0.834,3.163-0.936,4.803c-0.053,0.861-0.18,2.979,1.002,3.252
	c1.043,0.244,2.422-0.018,2.896-0.547c1.035-1.143,1.252-2.538,1.568-3.966c0.221-1,0.996-2.845,0.719-3.81
	c-0.152-0.501-1.959-1.236-1.303-1.571c0.381-0.194,3.492-0.145,3.742,0.059c0.457,0.377-0.795,0.956-1.01,1.245
	c-0.543,0.737-0.629,1.726-0.889,2.581c-0.297,0.891-0.174,1.942-0.357,2.864c-0.154,0.766-0.512,1.34-0.854,2.029
	c-0.668,1.346-1.924,2.322-3.08,2.39c-1.059,0.061-1.904,0.024-2.947-0.177c-1.281-0.267-2.01-2.028-1.734-4.215
	c0.121-0.979,0.24-1.958,0.352-2.938c0.078-0.706,0.299-1.407,0.301-2.119c0-0.2,0.008-0.979-0.346-0.979
	c-0.305,0-0.541-0.591-0.242-0.754c0.262-0.148,4.336-0.081,4.432,0.072 M133.835,61.775c0.383,0.279-0.799,1.003-0.975,1.331
	c-0.432,0.803-0.334,1.749-0.68,2.577c-0.293,0.718,0.24,1.057,0.777,0.496c0.512-0.545,1.176-0.947,1.711-1.475
	c0.426-0.422,0.764-1.059,1.227-1.421c1.039-0.825-0.652-0.911-0.047-1.518c0.168-0.172,3.578-0.146,3.75,0.031
	c0.258,0.258,0.006,0.582-0.52,0.682c-0.34,0.062-0.705,0.543-1.002,0.543c-0.365,0-0.6,0.768-0.98,0.768
	c-0.801,0-1.9,1.735-2.504,2.178c-0.389,0.294-0.342,0.723,0.158,1.45c0.582,0.84,0.799,1.851,1.479,2.646
	c0.303,0.354,0.451,0.672,0.686,1.075c0.236,0.411,1.625,0.887,1.252,1.455c-0.145,0.227-2.633,0.33-3.014,0.127
	c-0.973-0.543-1.668-2.612-2.041-3.573c-0.867-2.223-1.523-1.776-1.768,1.206c-0.027,0.328-0.238,1.239,0.133,1.479
	c0.236,0.15,1.26,0.341,0.727,0.826c-0.203,0.185-4.428,0.234-4.645,0.058c-0.66-0.551,1.08-0.866,1.301-1.276
	c0.58-1.071,0.189-2.443,0.51-3.575c0.17-0.604,0.283-1.084,0.373-1.732c0.088-0.65,0.443-1.206,0.527-1.862
	c0.063-0.481,0.117-1.246-0.244-1.64c-0.162-0.178-1.156-0.434-0.668-0.91c0.117-0.117,4.309-0.067,4.471,0.055 M150.275,61.783
	c0.148,0.068,0.506,0.361,0.795,0.66c1.248,1.288,1.197,2.83-0.021,4.116c-0.516,0.545-1.607,0.926-1.313,1.817
	c0.178,0.536,0.52,1.094,0.721,1.665c0.5,1.495,1.139,2.046,2.254,1.951c1.266-0.104,1.215-0.036,1.563-2.164
	c0.17-1.043,0.293-2.172,0.525-3.194c0.24-1.054,0.633-2.063,0.75-3.153c0.092-0.913-0.471-0.741-0.998-1.136
	c-0.131-0.099-0.348-0.344-0.158-0.5c0.443-0.365,1.648-0.173,2.156-0.176c1.857-0.009,3.719,0.005,5.576,0.01l0.123,0.186
	c0.266,0.416-0.039,1.299-0.096,1.757c-0.232,2.194-1.326-0.724-1.748-0.949c-0.561-0.3-2.217-0.375-2.365,0.44
	c-0.182,0.995-0.48,2.018-0.738,3.002l0.186,0.154c0.289,0.239,1.947,0.23,2.16-0.009c0.695-0.805,0.781-0.854,1.039-0.597
	c0.324,0.333-0.045,3.359-0.842,3.108c-0.154-0.05-0.242-0.199-0.438-0.71c-0.162-0.438-0.361-0.527-1.184-0.527
	c-1.051,0.004-1.18,0.22-1.395,1.134c-0.184,0.781-0.646,1.844-0.385,2.655c0.393,1.198,3.83,0.615,4.092-0.699
	c0.07-0.34,0.818-1.15,1.08-0.541c0.221,0.512-0.359,1.422-0.564,1.847c-0.732,1.498-3.133,0.892-4.535,0.911
	c-1.914,0.026-3.826-0.012-5.725,0.244c-1.076-0.514-2.34-1.011-2.625-2.304c-0.119-0.558-0.367-1.055-0.529-1.6
	c-0.473-1.576-1.418-1.554-1.662,0.05c-0.107,0.712-0.363,1.798,0.002,2.48c0.137,0.257,1.27,0.561,0.59,1.034
	c-0.135,0.096-4.359,0.078-4.535-0.018c-0.834-0.443,0.582-0.765,0.771-0.852c0.68-0.313,0.826-1.264,0.873-1.917
	c0.135-1.922,0.709-3.747,1.039-5.633c0.078-0.456,0.275-1.257-0.035-1.676c-0.117-0.156-1.318-0.492-0.639-0.892
	c0.254-0.145,5.9-0.117,6.234,0.031 M166.648,61.892c0.311,0.289,0.428,0.824,0.662,1.186c0.391,0.601,0.836,1.159,1.16,1.802
	c0.598,1.183,1.352,2.287,1.977,3.464c0.336,0.631,0.631-0.138,0.73-0.483c0.301-1.053,0.285-2.17,0.584-3.221
	c0.156-0.539,0.393-1.543-0.107-1.991c-0.119-0.106-1.453-0.493-0.713-0.887c0.342-0.185,3.545-0.113,3.74,0.081
	c0.244,0.248,0.213,0.321-0.236,0.52c-1.002,0.442-0.975,0.421-1.139,0.967c-0.508,1.711-0.816,3.55-1.164,5.296
	c-0.217,1.08-0.629,2.179-0.756,3.267c-0.049,0.396-0.029,0.787-0.422,1.019c-0.383,0.227-0.809,0.029-0.914-0.396
	c-0.123-0.487-1.049-1.013-1.049-1.522c-0.027-0.487-0.51-1.124-0.732-1.539c-0.287-0.536-0.572-1.089-0.93-1.582
	c-0.57-0.783-0.719-1.823-1.385-2.526c-0.646-0.684-0.494,0.244-0.707,0.605c-0.326,0.625-0.445,1.559-0.521,2.263
	c-0.123,1.119-0.119,2.261-0.156,3.385c0.211,0.169,0.453,0.295,0.713,0.37c0.326,0.086,0.457,0.304,0.389,0.646
	c-0.041,0.221-3.768,0.244-3.908,0.022c-0.303-0.493,0.713-0.782,0.943-1.05c0.564-0.656,0.803-1.613,0.957-2.442
	c0.285-1.521,0.656-3.014,0.969-4.522c0.127-0.593,0.217-1.479-0.271-1.949c-0.121-0.117-1.59-0.764-0.604-0.951
	c0.807-0.148,2.664-0.05,2.891,0.158 M199.312,61.742c0.666,0.252-0.289,0.717-0.506,0.81c-0.416,0.182-0.615,0.539-0.734,0.962
	c-0.277,0.994-0.455,2.069-0.662,3.086c-0.244,1.193-0.453,2.389-0.697,3.581c-0.236,1.148,0.203,1.862,1.447,1.727
	c0.674-0.071,1.422-0.168,1.801-0.801c0.217-0.36,0.883-1.718,1.502-1.092c0.117,0.118,0.135,0.461,0.031,0.524
	c-0.572,0.382-0.496,2.774-1.682,2.313c-0.756-0.303-7.236,0.394-7.236-0.334c0.004-0.33,0.262-0.542,0.715-0.587
	c0.531-0.057,0.754-0.509,0.883-0.978c0.271-0.973,0.4-2.042,0.57-3.039c0.207-1.24,0.654-2.454,0.863-3.7
	c0.061-0.362,0.305-1.457-0.182-1.676c-0.164-0.074-1.252-0.585-0.469-0.8c0.33-0.091,4.115-0.086,4.359,0.004 M79.125,62.244
	c-0.217,0.384-0.33,1.563-0.221,2.269c0.189,1.175,1.178-0.368,1.292-0.777c0.131-0.466,0.145-1.015-0.125-1.438
	C79.83,61.918,79.374,61.806,79.125,62.244 M102.582,62.754c-0.479,0.438-0.551,1.572-0.605,2.187
	c-0.02,0.204-0.402,2.046-0.145,2.215c0.547,0.334,2.01-0.289,2.348-1.003c0.381-0.805,0.408-0.895,0.408-1.51
	c-0.006-1.59-1.139-2.651-2.002-1.889 M147.578,62.895c-0.258,0.28-0.721,1.27-0.615,1.626c0.176,0.753-1.021,1.87-0.383,2.599
	c0.34,0.375,1.682-0.045,2.219-0.691c1.102-1.333,1.094-2.814-0.033-3.588c-0.59-0.406-0.75-0.401-1.182,0.055 M63.904,62.881
	c-0.419,0.437-0.422,1.419-0.592,2.007c-0.655,1.97-0.488,2.724,0.511,2.268c0.294-0.135,1.518-0.501,1.518-0.931
	c0-0.391,0.481-0.921,0.571-1.337c0.064-0.303-0.139-0.966-0.024-1.193c0.077-0.127-0.61-0.886-0.89-0.989
	c-0.529-0.186-0.787-0.145-1.098,0.176 M52.831,65.578c-0.622,0.548-0.82,1.23-1.093,1.979c-0.278,0.761,0.626,0.561,1.157,0.556
	c0.809-0.009,0.879-0.229,0.764-0.993c-0.059-0.412-0.136-0.985-0.163-1.274C53.427,65.186,53.323,65.141,52.831,65.578
	 M187.232,65.506c-0.477,0.52-0.658,1.25-1.035,1.834c-0.342,0.53-0.467,0.764,0.262,0.772c0.504,0.005,1.611,0.185,1.5-0.61
	C187.611,65.149,187.597,65.113,187.232,65.506 M76.278,67.72c-0.944,0.438-1.481,1.794-1.021,2.58
	c0.306,0.522,0.289,0.898,0.922,1.173c0.538,0.234,1.443,0.412,1.925-0.039c0.275-0.258,0.267-0.42-0.037-0.917
	c-0.297-0.475-0.52-0.997-0.75-1.507C77.07,68.461,77.163,67.294,76.278,67.72 M204.773,68.004c0,0.082-0.148,0.303-0.33,0.493
	c-0.764,0.79-0.686,3.104,0.109,3.112c0.176,0,0.176-0.018,0.131-1.211c-0.063-1.681,0.018-1.82,1.043-1.748
	c0.656,0.055,1.162,0.551,0.859,0.858c-0.063,0.063-0.041,1.378,0.027,1.555c0.027,0.071-0.01,0.121-0.096,0.121
	c-0.08-0.009-0.158-0.059-0.189-0.14c-0.559-1.448-1.504,0.46-1.029,0.962c0.572,0.608,1.115-0.297,1.652-0.394
	c0.867-0.141,0.912-1.277,0.744-1.939c-0.119-0.468-0.359-0.912-0.709-1.25c-0.289-0.279-0.504-0.659,0.092-0.537
	c1.449,0.297,1.607,3.129,0.57,3.912c-1.293,0.972-2.613,1.107-3.322,0.335c-0.156-0.163-0.324-0.316-0.506-0.457
	c-0.729-0.561-0.582-1.548-0.578-2.367c0.268-0.392,0.605-1.127,1.012-1.354c0.23-0.136,0.52-0.104,0.52,0.058 M205.519,69.36
	c-0.158,0.349,0.176,0.646,0.5,0.448c0.621-0.37-0.283-0.923-0.496-0.448"/>
</svg>
