<?xml version="1.0" encoding="utf-8"?>
<!-- Generator: Adobe Illustrator 16.0.3, SVG Export Plug-In . SVG Version: 6.00 Build 0)  -->
<!DOCTYPE svg PUBLIC "-//W3C//DTD SVG 1.1//EN" "http://www.w3.org/Graphics/SVG/1.1/DTD/svg11.dtd">
<svg version="1.1" id="Layer_1" xmlns="http://www.w3.org/2000/svg" xmlns:xlink="http://www.w3.org/1999/xlink" x="0px" y="0px"
	 width="198.425px" height="66.308px" viewBox="25.194 8.419 198.425 66.308" enable-background="new 25.194 8.419 198.425 66.308"
	 xml:space="preserve">
<g>
		<path fill-rule="evenodd" clip-rule="evenodd" fill="#CA0202" d="M211.789,74.847c-58.009,0-116.018,0-174.027,0
			c0.058-0.106,0.033-0.229-0.072-0.241c-0.595-0.076-1.113-0.359-1.657-0.575c-1.741-0.692-3.181-1.795-4.401-3.207
			c-0.901-1.044-1.559-2.234-1.997-3.522c-0.296-0.872-0.608-1.762-0.608-2.715c0.003-14.461,0.004-28.922,0-43.384
			c0-1.61-0.071-3.22,0.548-4.763c0.389-0.968,0.792-1.92,1.374-2.794c0.976-1.467,2.264-2.602,3.774-3.467
			c0.861-0.494,1.753-0.945,2.77-1.126c0.363-0.064,0.895-0.02,1.107-0.514c57.451,0,114.901,0,172.352,0
			c-0.055,0.236,0.111,0.238,0.272,0.286c0.487,0.144,1.01,0.194,1.474,0.371c1.212,0.461,2.359,1.049,3.419,1.832
			c1.111,0.821,1.954,1.858,2.72,2.971c0.627,0.911,1.034,1.944,1.341,2.997c0.176,0.605,0.366,1.208,0.365,1.883
			c-0.026,15.116-0.018,30.231-0.027,45.346c0,0.635-0.006,1.25-0.215,1.906c-0.341,1.07-0.676,2.146-1.257,3.089
			c-1.657,2.687-3.979,4.551-7.082,5.354C211.82,74.609,211.673,74.648,211.789,74.847z M124.593,72.368
			c27.925,0,55.85-0.003,83.774,0.01c0.991,0.001,1.903-0.167,2.826-0.536c1.012-0.404,1.912-0.978,2.767-1.606
			c1.151-0.848,1.887-2.113,2.878-3.128c0.052-0.053,0.076-0.137,0.103-0.209c0.28-0.753,0.496-1.538,0.859-2.247
			c0.225-0.44,0.247-0.857,0.247-1.307c0.001-14.441,0.001-28.883-0.003-43.324c0-0.405-0.051-0.784-0.199-1.195
			c-0.178-0.493-0.485-0.944-0.589-1.433c-0.203-0.969-0.789-1.674-1.401-2.364c-0.62-0.699-1.318-1.329-1.972-1.998
			c-0.359-0.367-0.813-0.654-1.238-0.858c-0.701-0.335-1.354-0.775-2.159-0.95c-0.819-0.178-1.601-0.49-2.466-0.49
			C152.689,10.74,97.357,10.739,42.026,10.75c-0.748,0-1.484-0.069-2.262,0.213c-0.625,0.226-1.334,0.321-1.955,0.611
			c-1.056,0.494-2.09,1.039-2.883,1.929c-0.651,0.732-1.432,1.33-1.968,2.192c-0.356,0.572-0.803,1.043-0.979,1.75
			c-0.079,0.313-0.054,0.771-0.369,1.009c-0.395,0.299-0.39,0.69-0.39,1.118c0.005,14.541,0.016,29.082-0.023,43.623
			c-0.002,0.966,0.456,1.712,0.724,2.545c0.274,0.853,0.603,1.734,1.417,2.281c0.03,0.02,0.046,0.063,0.063,0.099
			c0.459,0.962,1.289,1.627,2.082,2.237c0.72,0.554,1.498,1.117,2.414,1.398c0.656,0.201,1.255,0.608,1.966,0.608
			C68.105,72.369,96.349,72.368,124.593,72.368z"/>
		<path fill-rule="evenodd" clip-rule="evenodd" fill="#CA0202" d="M42.222,64.436c-0.059-0.012-0.117-0.031-0.176-0.036
			c-1.189-0.085-1.048-0.106-1.226-1.261c-0.204-1.319-0.036-2.665-0.3-3.933c-0.204-0.976-0.013-1.947-0.248-2.862
			c-0.272-1.061-0.03-2.158-0.293-3.156c-0.278-1.056,0.004-2.114-0.258-3.103c-0.288-1.085-0.021-2.199-0.295-3.217
			c-0.269-0.997-0.008-1.996-0.257-2.927c-0.284-1.063-0.016-2.162-0.291-3.157c-0.287-1.036,0.026-2.091-0.269-3.04
			c-0.362-1.17,0.006-2.379-0.416-3.511c-0.041-0.11-0.077-0.235-0.067-0.351c0.129-1.501-0.204-2.976-0.346-4.452
			c-0.142-1.479-0.099-2.982-0.427-4.444c-0.022-0.097-0.059-0.198-0.051-0.294c0.12-1.502-0.375-2.959-0.309-4.461
			c0.038-0.873-0.358-1.704-0.289-2.602c0.037-0.477,0.162-0.598,0.626-0.599c2.134-0.003,4.271-0.137,6.399-0.047
			c1.918,0.081,3.822-0.011,5.73-0.099c0.326-0.015,0.466,0.102,0.587,0.367c0.216,0.474,0.108,0.986,0.206,1.472
			c-0.08,0.416-0.125,0.855,0.003,1.246c0.418,1.268,0.231,2.596,0.41,3.891c0.195,1.421,0.555,2.858,0.385,4.322
			c-0.004,0.039,0.006,0.08,0.016,0.118c0.362,1.37,0.283,2.79,0.478,4.181c0.17,1.216,0.222,2.46,0.42,3.662
			c0.221,1.339,0.128,2.687,0.36,4.028c0.165,0.953,0.307,1.955,0.324,2.948c0.002,0.14,0.014,0.293,0.184,0.338
			c0.165,0.043,0.278-0.063,0.327-0.196c0.199-0.542,0.576-1.002,0.716-1.57c0.509-0.995,1.022-1.989,1.528-2.987
			c0.773-1.526,1.574-3.04,2.302-4.589c1.141-2.423,2.46-4.757,3.555-7.205c0.577-1.292,1.292-2.521,1.934-3.785
			c0.972-1.917,1.867-3.873,2.922-5.749c0.159-0.282,0.32-0.356,0.6-0.356c6.102-0.002,12.203,0.021,18.304-0.038
			c1.29-0.012,2.588-0.14,3.875-0.062c2.708,0.164,5.417,0.105,8.125,0.124c3.029,0.021,6.061,0.06,9.09-0.002
			c2.731-0.057,5.462,0.033,8.192-0.011c1.771-0.028,3.543-0.098,5.313-0.156c0.454-0.015,0.636,0.287,0.41,0.817
			c-0.146,0.342-0.268,0.663-0.153,1.032c-0.212,0.62-0.306,1.259-0.415,1.904c-0.133,0.783-0.334,1.557-0.483,2.343
			c-0.127,0.673-0.255,1.348-0.373,2.025c-0.127,0.729-0.34,1.447-0.41,2.181c-0.075,0.787-0.113,0.883-0.922,0.883
			c-7.192,0-14.386-0.006-21.579,0c-4.522,0.003-9.044,0.022-13.566,0.034c-0.417-0.009-0.835-0.029-1.252-0.024
			c-0.276,0.003-0.415-0.102-0.396-0.384c0.025-0.369-0.047-0.73,0.18-1.095c0.237-0.382,0.096-0.854,0.079-1.289
			c0.104-0.192,0.228-0.372,0.259-0.599c0.222-1.597,0.427-3.196,0.814-4.767c0.067-0.273,0.204-0.733-0.158-0.851
			c-0.354-0.116-0.304,0.381-0.472,0.577c-0.013,0.015-0.021,0.034-0.03,0.052c-1.876,3.482-3.755,6.963-5.626,10.448
			c-1.233,2.297-2.434,4.613-3.688,6.898c-1.76,3.205-3.531,6.401-5.213,9.648c-1.606,3.1-3.33,6.139-4.995,9.207
			c-1.407,2.592-2.823,5.179-4.19,7.791c-0.274,0.523-0.584,0.715-1.154,0.712c-3.012-0.021-6.024-0.013-9.036-0.009
			C45.572,64.411,43.897,64.427,42.222,64.436z"/>
		<path fill-rule="evenodd" clip-rule="evenodd" fill="#CA0202" d="M179.731,52.011c0.541,0.837,1.337,1.32,2.253,1.653
			c0.937,0.341,1.903,0.564,2.892,0.488c0.829-0.064,1.649-0.218,2.471-0.419c1.217-0.299,2.109-1.057,3.001-1.813
			c0.542-0.46,0.945-1.088,1.361-1.692c0.744-1.081,1.425-2.196,1.962-3.384c0.333-0.736,0.772-0.931,1.551-0.908
			c2.171,0.062,4.347-0.048,6.515,0.046c2.093,0.091,4.18-0.033,6.269,0.001c0.431,0.007,0.653,0.097,0.477,0.6
			c-0.146,0.416-0.081,0.866-0.076,1.304c-0.071,0.093-0.188,0.178-0.206,0.28c-0.173,0.952-0.471,1.861-0.865,2.744
			c-0.813,1.816-1.84,3.503-3.204,4.949c-1.292,1.369-2.626,2.688-4.234,3.728c-1.278,0.825-2.559,1.634-3.908,2.336
			c-1.682,0.876-3.46,1.508-5.255,2.092c-0.784,0.256-1.583,0.507-2.395,0.627c-0.66,0.099-1.323,0.229-1.969,0.357
			c-1.315,0.263-2.651,0.306-3.97,0.452c-1.235,0.138-2.504-0.016-3.773-0.189c-1.535-0.21-3.043-0.452-4.548-0.823
			c-1.201-0.295-2.291-0.831-3.383-1.348c-0.971-0.459-1.883-1.051-2.703-1.792c-0.434-0.392-0.945-0.7-1.306-1.184
			c-0.084-0.112-0.232-0.15-0.382-0.115l0.007,0.008c0.019-0.153-0.076-0.221-0.2-0.267c-0.378-0.769-1.013-1.355-1.458-2.08
			c-0.325-0.531-0.549-1.103-0.831-1.648c-0.34-0.656-0.554-1.361-0.87-2.017c-0.272-0.565-0.173-1.189-0.465-1.747
			c-0.431-0.821-0.095-1.828-0.552-2.667c-0.06-0.109-0.017-0.274-0.017-0.414c-0.001-1.236,0.018-2.473-0.006-3.708
			c-0.026-1.364,0.28-2.677,0.509-4.008c0.387-2.253,1.181-4.37,2-6.48c0.677-1.744,1.592-3.37,2.563-4.97
			c0.675-1.111,1.375-2.217,2.192-3.206c0.895-1.082,1.792-2.174,2.797-3.174c0.976-0.972,2.033-1.846,3.086-2.713
			c1.467-1.208,3.112-2.174,4.807-3.061c0.822-0.43,1.637-0.869,2.501-1.198c0.697-0.265,1.429-0.435,2.135-0.678
			c0.549-0.189,1.12-0.322,1.675-0.452c0.58-0.136,1.164-0.363,1.766-0.371c1.688-0.021,3.375-0.122,5.069-0.036
			c1.445,0.073,2.803,0.449,4.192,0.791c1.38,0.34,2.676,0.846,3.937,1.453c1.935,0.932,3.73,2.085,5.118,3.764
			c0.514,0.62,0.979,1.284,1.375,1.991c-0.016,0.167,0.062,0.253,0.228,0.262l-0.016-0.016c0.107,0.741,0.61,1.317,0.839,2.009
			c0.356,1.077,0.729,2.137,0.89,3.28c0.162,1.163,0.521,2.298,0.515,3.49c-0.004,0.796-0.019,1.594,0.037,2.387
			c0.04,0.575-0.185,0.716-0.719,0.711c-2.329-0.021-4.658-0.013-6.987-0.008c-1.393,0.003-2.785,0.018-4.178,0.027
			c-0.059-0.011-0.117-0.028-0.176-0.033c-1.18-0.097-1.192-0.097-1.181-1.318c0.009-0.953-0.059-1.883-0.544-2.734
			c-0.217-0.771-0.653-1.403-1.275-1.89c-1.101-0.862-2.332-1.459-3.679-1.863c-1.368-0.411-2.76-0.463-4.104-0.139
			c-1.761,0.424-3.235,1.471-4.54,2.698c-1.202,1.131-2.12,2.5-2.863,3.973c-0.566,1.122-1.162,2.229-1.521,3.449
			c-0.32,1.087-0.632,2.166-0.83,3.29c-0.213,1.209-0.35,2.418-0.454,3.637c-0.054,0.63,0.209,1.223,0.215,1.823
			c0.015,1.319,0.399,2.534,0.901,3.711c0.308,0.723,0.57,1.534,1.385,1.915c0,0-0.01-0.015-0.009-0.015
			C179.557,51.885,179.621,51.963,179.731,52.011z"/>
		<path fill-rule="evenodd" clip-rule="evenodd" fill="#CA0202" d="M144.016,64.416c-0.378-0.008-0.758-0.041-1.134-0.016
			c-0.441,0.03-0.54-0.16-0.519-0.566c0.028-0.543,0.208-1.068,0.379-1.543c0.231-0.645,0.147-1.321,0.414-1.962
			c0.184-0.439,0.207-0.997,0.277-1.497c0.282-2.007,0.514-4.024,0.353-6.062c-0.035-0.437-0.039-0.876-0.04-1.314
			c0-0.275-0.081-0.502-0.299-0.675c0.033-0.185-0.018-0.341-0.108-0.509c-0.854-1.57-2.271-2.288-3.954-2.347
			c-3.823-0.134-7.65,0.06-11.476-0.243c-2.82-0.223-5.658-0.096-8.488-0.097c-0.236,0-0.474,0.036-0.71,0.056
			c-0.397-0.012-0.796-0.043-1.191-0.027c-0.343,0.014-0.43-0.128-0.458-0.453c-0.063-0.708,0.26-1.337,0.384-2.002
			c0.123-0.66,0.25-1.339,0.472-1.973c0.232-0.661,0.204-1.359,0.45-2.023c0.182-0.491,0.251-1.063,0.319-1.593
			c0.077-0.601,0.407-1.133,0.349-1.775c-0.041-0.447,0.434-0.365,0.737-0.366c3.01-0.003,6.02,0,9.03,0.001
			c1.275,0,2.554,0.06,3.824-0.021c1.17-0.073,2.28,0.32,3.442,0.274c1.789-0.071,3.578-0.102,5.373-0.012
			c0.899,0.046,1.814-0.242,2.715-0.464c1.084-0.268,1.927-0.834,2.673-1.612c0.451-0.471,0.652-1.046,0.799-1.671
			c0.111-0.474,0.376-0.916,0.248-1.427c-0.095-0.382-0.209-0.76-0.315-1.14c-0.043-0.138-0.103-0.253-0.28-0.211
			c0,0,0.011,0.005,0.011,0.005c0.079-0.258-0.036-0.455-0.183-0.658c-1.011-1.399-2.381-2.04-4.099-2.144
			c-1.373-0.083-2.737-0.039-4.104,0.01c-0.821,0.029-1.6-0.238-2.424-0.241c-2.48-0.008-4.96,0.053-7.441,0.01
			c-1.97-0.034-3.943-0.085-5.915,0.03c-0.312-0.096-0.633-0.059-0.95-0.058c-0.745,0.002-0.93-0.276-0.652-0.972
			c0.251-0.629,0.344-1.305,0.53-1.947c0.15-0.516,0.188-1.06,0.411-1.564c0.22-0.496,0.188-1.063,0.349-1.596
			c0.202-0.675,0.391-1.376,0.514-2.064c0.099-0.556,0.404-1.073,0.346-1.655c-0.041-0.419,0.297-0.719,0.338-1.123
			c0.02-0.188,0.289-0.143,0.468-0.154c4.111-0.275,8.234-0.142,12.348-0.309c3.642-0.147,7.283-0.278,10.921-0.145
			c1.006,0.037,2.075,0.106,3.091,0.422c0.592,0.184,1.242,0.178,1.866,0.314c0.815,0.178,1.624,0.396,2.404,0.657
			c0.803,0.268,1.604,0.579,2.353,1.017c1.446,0.846,2.642,1.917,3.426,3.415c0.049,0.059,0.096,0.118,0.144,0.177
			c0.028,0.032,0.056,0.063,0.084,0.095c0.017,0.296,0.002,0.585,0.09,0.883c0.177,0.6,0.351,1.211,0.419,1.83
			c0.085,0.769,0.107,1.551,0.073,2.324c-0.055,1.257,0.028,2.512-0.268,3.773c-0.151,0.649-0.204,1.377-0.393,2.013
			c-0.321,1.084-0.788,2.135-1.333,3.143c-0.979,1.812-2.299,3.285-4.161,4.201c-0.774,0.381-1.603,0.654-2.5,0.885
			c0.916,0.419,1.836,0.797,2.526,1.534c0.514,0.545,0.82,1.218,1.167,1.867c0.53,1.932,0.871,3.91,0.715,5.9
			c-0.126,1.608-0.236,3.21-0.234,4.822c0,0.059-0.009,0.119-0.022,0.178c-0.399,1.658-0.133,3.317,0.077,4.961
			c0.051,0.404,0.199,0.86,0.415,1.271c0.313,0.598,0.564,1.218,1.117,1.647c0.093,0.072,0.179,0.177,0.103,0.309
			c-0.057,0.097-0.168,0.112-0.265,0.086c-0.855-0.23-1.701,0.04-2.553,0.04c-3.848,0-7.696,0.011-11.545,0.021
			C144.369,64.359,144.193,64.396,144.016,64.416z"/>
		<path fill-rule="evenodd" clip-rule="evenodd" fill="#CA0202" d="M73.317,64.437c-0.377-0.015-0.754-0.031-1.132-0.042
			c-0.49-0.013-0.634-0.264-0.464-0.734c0.263-0.732,0.415-1.488,0.519-2.265c0.104-0.78,0.189-1.572,0.479-2.326
			c0.179-0.467,0.186-1.005,0.257-1.484c0.1-0.673,0.293-1.339,0.396-2.012c0.107-0.705,0.133-1.454,0.434-2.138
			c0.125-0.283,0.264-0.379,0.573-0.377c6.357,0.029,12.715,0.057,19.072,0.065c5.34,0.007,10.681-0.008,16.021-0.016
			c0.737-0.001,1.475-0.021,2.211-0.026c0.317-0.002,0.541,0.055,0.277,0.443c-0.266,0.391-0.006,0.866-0.173,1.279
			c-0.132,0.079-0.204,0.21-0.188,0.352c0.091,0.788-0.35,1.481-0.387,2.269c-0.023,0.487-0.079,1.066-0.276,1.544
			c-0.268,0.647-0.317,1.346-0.44,2c-0.136,0.72-0.301,1.457-0.385,2.201c-0.098,0.878-0.324,1.125-0.853,1.084
			c-2.482-0.191-4.966,0.04-7.449-0.05c-2.099-0.076-4.199,0.034-6.297,0.123c-1.486,0.063-2.963-0.217-4.461-0.027
			c-0.953,0.12-1.933-0.016-2.907,0.006c-4.343,0.097-8.688,0.077-13.033,0.103C74.512,64.411,73.915,64.427,73.317,64.437z"/>
		<path fill-rule="evenodd" clip-rule="evenodd" fill="#CA0202" d="M77.712,45.994c-0.398-0.012-0.796-0.045-1.193-0.028
			c-0.397,0.017-0.52-0.175-0.421-0.511c0.242-0.825,0.307-1.702,0.573-2.5c0.292-0.878,0.471-1.787,0.71-2.67
			c0.251-0.924,0.479-1.879,0.655-2.836c0.095-0.516,0.149-1.084,0.427-1.568c0.039-0.067,0.063-0.147,0.078-0.224
			c0.198-0.985,0.198-0.98,1.199-0.98c3.528,0.002,7.056-0.001,10.584-0.001c3.565,0,7.131-0.007,10.697,0.005
			c1.969,0.007,3.939,0.101,5.906,0.05c1.614-0.042,3.227-0.036,4.839-0.055c0.768-0.009,0.757-0.005,0.646,0.744
			c-0.055,0.372-0.059,0.752-0.086,1.129c-0.267,0.144-0.203,0.4-0.226,0.634c-0.061,0.644-0.144,1.324-0.34,1.901
			c-0.384,1.128-0.424,2.307-0.71,3.445c-0.227,0.902-0.36,1.843-0.541,2.767c-0.111,0.567-0.357,0.626-0.831,0.626
			c-10.42-0.007-20.841-0.003-31.261,0.002C78.182,45.924,77.938,45.875,77.712,45.994z"/>
		<path fill-rule="evenodd" clip-rule="evenodd" fill="#3A3535" d="M42.222,64.436c1.675-0.009,3.35-0.024,5.024-0.027
			c3.012-0.004,6.024-0.012,9.036,0.009c0.57,0.003,0.88-0.188,1.154-0.712c1.367-2.612,2.784-5.199,4.19-7.791
			c1.666-3.068,3.389-6.107,4.995-9.207c1.683-3.247,3.454-6.443,5.213-9.648c1.255-2.285,2.455-4.601,3.688-6.898
			c1.871-3.485,3.75-6.965,5.626-10.448c0.009-0.018,0.017-0.037,0.03-0.052c0.168-0.195,0.118-0.692,0.472-0.577
			c0.362,0.118,0.226,0.578,0.158,0.851c-0.387,1.571-0.592,3.17-0.814,4.767c-0.031,0.227-0.156,0.407-0.259,0.599
			c-0.473,0.454-0.744,1.053-1.045,1.607c-0.811,1.491-1.567,3.01-2.368,4.507c-0.79,1.476-1.674,2.903-2.365,4.435
			c-0.408,0.903-0.957,1.742-1.433,2.615c-0.895,1.643-1.777,3.293-2.676,4.934c-0.882,1.609-1.836,3.183-2.649,4.826
			c-0.714,1.443-1.477,2.858-2.239,4.274c-1.191,2.211-2.394,4.416-3.581,6.629c-1.144,2.132-2.281,4.267-3.402,6.411
			c-0.283,0.541-0.609,0.806-1.288,0.801c-4.946-0.036-9.894-0.026-14.84-0.008c-0.504,0.002-0.68-0.14-0.633-0.641
			C42.257,65.277,42.223,64.855,42.222,64.436z"/>
		<path fill-rule="evenodd" clip-rule="evenodd" fill="#3A3535" d="M166.304,60.001c0.149-0.035,0.298,0.003,0.382,0.115
			c0.36,0.483,0.872,0.792,1.306,1.184c0.82,0.741,1.732,1.333,2.703,1.792c1.092,0.517,2.182,1.053,3.383,1.348
			c1.505,0.371,3.013,0.613,4.548,0.823c1.27,0.174,2.538,0.327,3.773,0.189c1.318-0.146,2.654-0.189,3.97-0.452
			c0.646-0.128,1.309-0.259,1.969-0.357c0.812-0.12,1.61-0.371,2.395-0.627c1.795-0.584,3.573-1.216,5.255-2.092
			c1.35-0.702,2.63-1.511,3.908-2.336c1.608-1.039,2.942-2.358,4.234-3.728c1.364-1.446,2.392-3.133,3.204-4.949
			c0.395-0.883,0.692-1.792,0.865-2.744c0.019-0.103,0.135-0.188,0.206-0.28c0.397-0.002,0.797,0.008,1.194-0.007
			c0.482-0.019,0.598,0.281,0.405,0.605c-0.323,0.549-0.2,1.178-0.448,1.751c-0.333,0.771-0.417,1.626-0.755,2.431
			c-0.359,0.854-0.786,1.657-1.235,2.453c-0.206,0.366-0.467,0.714-0.714,1.06c-1.062,1.489-2.376,2.757-3.718,3.979
			c-0.999,0.909-2.168,1.618-3.313,2.355c-1.084,0.698-2.261,1.195-3.367,1.835c-0.891,0.515-1.882,0.846-2.873,1.153
			c-0.665,0.207-1.312,0.474-1.989,0.646c-0.602,0.153-1.181,0.392-1.808,0.447c-0.527,0.047-1.086,0.167-1.542,0.332
			c-0.78,0.282-1.578,0.225-2.342,0.303c-0.583,0.061-1.165,0.237-1.774,0.205c-1.014-0.055-2.036,0.045-3.047-0.032
			c-0.979-0.074-1.99-0.129-2.923-0.328c-0.884-0.189-1.809-0.453-2.693-0.678c-1.114-0.282-2.141-0.722-3.155-1.185
			c-1.029-0.469-2.021-1.055-2.816-1.906c-0.333-0.356-0.811-0.515-1.171-0.868C167.561,61.692,166.958,60.827,166.304,60.001z"/>
		<path fill-rule="evenodd" clip-rule="evenodd" fill="#3A3535" d="M73.317,64.437c0.597-0.01,1.195-0.025,1.792-0.028
			c4.344-0.025,8.69-0.006,13.033-0.103c0.974-0.021,1.955,0.114,2.907-0.006c1.498-0.189,2.975,0.09,4.461,0.027
			c2.098-0.089,4.199-0.199,6.297-0.123c2.483,0.09,4.967-0.142,7.449,0.05c0.528,0.041,0.755-0.206,0.853-1.084
			c0.084-0.744,0.249-1.481,0.385-2.201c0.123-0.654,0.173-1.353,0.44-2c0.197-0.478,0.253-1.057,0.276-1.544
			c0.037-0.787,0.478-1.48,0.387-2.269c-0.017-0.142,0.056-0.272,0.188-0.352c0.377,0.016,0.755,0.019,1.131,0.051
			c0.499,0.042,0.64,0.307,0.415,0.733c-0.045,0.086-0.104,0.182-0.102,0.271c0.038,1.216-0.369,2.371-0.608,3.53
			c-0.228,1.103-0.415,2.231-0.697,3.333c-0.186,0.728-0.354,1.53-0.354,2.323c-0.001,0.825-0.458,1.24-1.279,1.268
			c-1.571,0.053-3.127-0.355-4.692-0.2c-3.43,0.339-6.867,0.167-10.3,0.188c-7.193,0.042-14.386,0.017-21.58,0.019
			c-0.661,0.001-0.919-0.342-0.599-0.919C73.303,65.074,73.306,64.769,73.317,64.437z"/>
		<path fill-rule="evenodd" clip-rule="evenodd" fill="#3A3535" d="M82.127,28.094c4.522-0.012,9.044-0.031,13.566-0.034
			c7.193-0.005,14.386,0,21.579,0c0.809,0,0.847-0.097,0.922-0.883c0.07-0.733,0.283-1.452,0.41-2.181
			c0.118-0.677,0.246-1.352,0.373-2.025c0.149-0.786,0.351-1.561,0.483-2.343c0.109-0.645,0.203-1.284,0.415-1.904
			c0.26,0,0.519,0.002,0.778,0.001c0.803-0.004,1.114,0.441,0.742,1.18c-0.165,0.329-0.11,0.661-0.212,0.962
			c-0.231,0.679-0.155,1.413-0.464,2.079c-0.202,0.435-0.184,0.958-0.271,1.424c-0.126,0.666-0.25,1.35-0.356,2.028
			c-0.117,0.747-0.198,1.506-0.479,2.217c-0.093,0.235-0.083,0.475-0.059,0.707c0.055,0.522-0.143,0.692-0.674,0.687
			c-2.813-0.023-5.624-0.011-8.437-0.011c-9.214,0-18.428,0.001-27.642-0.007c-0.302,0-0.747,0.188-0.883-0.133
			c-0.171-0.404-0.154-0.9,0.024-1.335C82.001,28.382,82.101,28.254,82.127,28.094z"/>
		<path fill-rule="evenodd" clip-rule="evenodd" fill="#3A3535" d="M77.712,45.994c0.225-0.119,0.469-0.07,0.705-0.07
			c10.42-0.005,20.84-0.009,31.261-0.002c0.474,0,0.72-0.059,0.831-0.626c0.181-0.924,0.314-1.864,0.541-2.767
			c0.286-1.139,0.326-2.317,0.71-3.445c0.196-0.577,0.279-1.258,0.34-1.901c0.022-0.233-0.041-0.49,0.226-0.634
			c0.418,0.017,0.835,0.044,1.252,0.045c0.42,0,0.538,0.189,0.406,0.569c-0.263,0.759-0.279,1.577-0.512,2.331
			c-0.196,0.632-0.101,1.331-0.479,1.91c-0.031,0.047-0.052,0.118-0.041,0.17c0.175,0.79-0.172,1.534-0.328,2.258
			c-0.262,1.211-0.34,2.46-0.733,3.65c-0.137,0.412-0.332,0.406-0.641,0.406c-4.786-0.003-9.571-0.002-14.357-0.002
			c-6.262,0-12.523,0-18.785,0c-0.65,0-0.909-0.347-0.592-0.929C77.695,46.631,77.717,46.329,77.712,45.994z"/>
		<path fill-rule="evenodd" clip-rule="evenodd" fill="#3A3535" d="M179.576,51.774c-0.814-0.381-1.077-1.192-1.385-1.915
			c-0.502-1.177-0.887-2.392-0.901-3.711c-0.006-0.601-0.269-1.193-0.215-1.823c0.104-1.219,0.241-2.428,0.454-3.637
			c0.198-1.124,0.51-2.203,0.83-3.29c0.359-1.22,0.955-2.327,1.521-3.449c0.743-1.473,1.661-2.842,2.863-3.973
			c1.305-1.227,2.779-2.274,4.54-2.698c1.345-0.324,2.736-0.272,4.104,0.139c1.347,0.404,2.578,1.001,3.679,1.863
			c0.622,0.487,1.059,1.119,1.275,1.89c-0.935-0.768-2.03-1.247-3.145-1.657c-1.009-0.372-2.088-0.348-3.159-0.376
			c-1.444-0.037-2.667,0.536-3.857,1.233c-1.406,0.824-2.556,1.953-3.509,3.253c-0.894,1.22-1.685,2.534-2.239,3.934
			c-0.488,1.232-0.899,2.502-1.23,3.806c-0.467,1.848-0.585,3.696-0.569,5.566c0.01,1.183,0.194,2.354,0.537,3.505
			C179.302,50.878,179.541,51.298,179.576,51.774z"/>
		<path fill-rule="evenodd" clip-rule="evenodd" fill="#3A3535" d="M144.016,64.416c0.177-0.021,0.353-0.058,0.528-0.058
			c3.849-0.011,7.697-0.021,11.545-0.021c0.852,0,1.697-0.271,2.553-0.04c0.097,0.026,0.208,0.011,0.265-0.086
			c0.076-0.132-0.01-0.236-0.103-0.309c-0.553-0.43-0.805-1.05-1.117-1.647c-0.216-0.411-0.364-0.867-0.415-1.271
			c-0.21-1.644-0.477-3.303-0.077-4.961c0.014-0.059,0.022-0.119,0.022-0.178c-0.002-1.612,0.108-3.214,0.234-4.822
			c0.156-1.99-0.185-3.969-0.715-5.9c0.985,0.66,1.337,1.669,1.628,2.76c0.531,1.995,0.752,4.045,0.465,6.049
			c-0.278,1.945-0.073,3.887-0.307,5.822c-0.12,0.992-0.071,2.05,0.142,3.026c0.25,1.152,0.649,2.306,1.614,3.128
			c0.094,0.079,0.263,0.163,0.172,0.335c-0.068,0.128-0.209,0.08-0.324,0.08c-5.339,0-10.678,0-16.018-0.003
			c-0.404,0-0.723,0.002-0.443-0.611C143.841,65.323,143.909,64.852,144.016,64.416z"/>
		<path fill-rule="evenodd" clip-rule="evenodd" fill="#3A3535" d="M118.711,47.642c0.236-0.02,0.474-0.056,0.71-0.056
			c2.83,0.001,5.668-0.126,8.488,0.097c3.825,0.303,7.652,0.109,11.476,0.243c1.683,0.059,3.101,0.776,3.954,2.347
			c0.091,0.168,0.142,0.324,0.108,0.509c-1.484-0.841-3.105-0.99-4.771-0.975c-2.409,0.021-4.818,0.044-7.227-0.012
			c-1.111-0.025-2.238,0.082-3.327-0.071c-0.868-0.123-1.725-0.184-2.592-0.186c-2.201-0.006-4.401-0.004-6.603,0.003
			c-0.378,0.001-0.614,0.023-0.523-0.539C118.481,48.537,118.548,48.082,118.711,47.642z"/>
		<path fill-rule="evenodd" clip-rule="evenodd" fill="#3A3535" d="M123.127,28.159c1.972-0.116,3.945-0.064,5.915-0.03
			c2.481,0.043,4.961-0.018,7.441-0.01c0.824,0.002,1.603,0.27,2.424,0.241c1.366-0.048,2.73-0.093,4.104-0.01
			c1.718,0.104,3.088,0.745,4.099,2.144c0.146,0.203,0.262,0.399,0.183,0.658c-0.604-0.173-1.077-0.638-1.717-0.749
			c-0.187-0.032-0.37-0.12-0.571-0.125c-0.712-0.019-1.424,0.048-2.134-0.135c-0.609-0.157-1.211,0.153-1.83,0.141
			c-2.188-0.045-4.383,0.006-6.563-0.146c-0.857-0.06-1.653,0.202-2.504,0.134c-0.748-0.059-1.468-0.454-2.22-0.261
			c-0.968,0.249-1.938,0.12-2.902,0.086c-0.611-0.021-1.261-0.232-1.829-0.058c-0.559,0.171-1.089,0.126-1.633,0.151
			c-0.641,0.03-0.611-0.051-0.583-0.664C122.83,29.031,123.196,28.651,123.127,28.159z"/>
		<path fill-rule="evenodd" clip-rule="evenodd" fill="#3A3535" d="M155.57,43.255c-0.69-0.737-1.61-1.115-2.526-1.534
			c0.897-0.23,1.726-0.504,2.5-0.885c1.862-0.916,3.183-2.39,4.161-4.201c0.545-1.008,1.012-2.059,1.333-3.143
			c0.188-0.636,0.241-1.364,0.393-2.013c0.296-1.261,0.213-2.516,0.268-3.773c0.034-0.773,0.012-1.555-0.073-2.324
			c-0.068-0.618-0.242-1.229-0.419-1.83c-0.088-0.298-0.073-0.587-0.09-0.883c0.69,0.68,1.104,1.49,1.392,2.428
			c0.357,1.163,0.508,2.319,0.552,3.526c0.021,0.542,0.194,1.111,0.102,1.648c-0.179,1.04-0.055,2.098-0.343,3.146
			c-0.162,0.589-0.324,1.24-0.34,1.882c-0.01,0.407-0.21,0.772-0.354,1.104c-0.846,1.95-1.77,3.866-3.474,5.259
			C157.735,42.412,156.75,43.023,155.57,43.255z"/>
		<path fill-rule="evenodd" clip-rule="evenodd" fill="#3A3535" d="M198.243,35.255c1.393-0.01,2.785-0.024,4.178-0.027
			c2.329-0.005,4.658-0.013,6.987,0.008c0.534,0.005,0.759-0.136,0.719-0.711c-0.056-0.793-0.041-1.591-0.037-2.387
			c0.006-1.192-0.353-2.327-0.515-3.49c-0.16-1.143-0.533-2.203-0.89-3.28c-0.229-0.691-0.731-1.268-0.839-2.009
			c0.556,0.545,0.949,1.216,1.312,1.883c0.648,1.196,1.173,2.445,1.502,3.784c0.222,0.897,0.358,1.808,0.565,2.697
			c0.204,0.875,0.081,1.747,0.256,2.584c0.147,0.713-0.069,1.421,0.155,2.119c0.197,0.613-0.169,0.741-0.711,0.736
			c-2.013-0.018-4.026-0.008-6.039-0.008c-2.033,0-4.066-0.009-6.1,0.008c-0.405,0.004-0.589-0.095-0.556-0.533
			C198.265,36.174,198.241,35.713,198.243,35.255z"/>
		<path fill-rule="evenodd" clip-rule="evenodd" fill="#3A3535" d="M53.878,41.692c-0.141,0.568-0.518,1.028-0.716,1.57
			c-0.049,0.133-0.162,0.239-0.327,0.196c-0.169-0.045-0.181-0.198-0.184-0.338c-0.017-0.993-0.16-1.995-0.324-2.948
			c-0.231-1.342-0.139-2.689-0.36-4.028c-0.198-1.202-0.25-2.446-0.42-3.662c-0.194-1.391-0.115-2.811-0.478-4.181
			c-0.01-0.038-0.021-0.08-0.016-0.118c0.17-1.464-0.189-2.901-0.385-4.322c-0.178-1.294,0.008-2.623-0.41-3.891
			c-0.129-0.391-0.083-0.83-0.003-1.246c0.199,0,0.399,0.01,0.597-0.003c0.449-0.031,0.749,0.244,0.712,0.615
			c-0.139,1.422,0.232,2.801,0.354,4.193c0.11,1.261,0.024,2.568,0.45,3.799c0.02,0.056,0.036,0.119,0.03,0.176
			c-0.155,1.458,0.298,2.873,0.316,4.324c0.012,0.935,0.236,1.871,0.406,2.798c0.069,0.377,0.072,0.75,0.087,1.126
			c0.061,1.545,0.422,3.065,0.331,4.627C53.513,40.81,53.757,41.254,53.878,41.692z"/>
</g>
</svg>
