<svg version="1.1" id="Layer_2" xmlns="http://www.w3.org/2000/svg" xmlns:xlink="http://www.w3.org/1999/xlink" x="0px" y="0px" viewBox="0 0 41 49" style="enable-background:new 0 0 41 49;" xml:space="preserve">
<style type="text/css">
	.st0{fill:#FFFFFF;}
</style>
<g>
	<path class="st0" d="M33.8,27.5c-1.3-6.8,5.1-10.8,5.1-10.8s-2.5-3.6-6.7-4.6c-4.2-0.9-6.3,0.2-8.4,1.1c-2.1,0.9-3.1,0.9-3.1,0.9   c-3.1,0-5.3-3.2-11.1-1.8c-4,1-8.2,5.6-9,11.1c-0.8,5.6,0.9,12.6,4,18c3.2,5.4,6.4,7.5,8.7,7.5c2.3,0.1,4.6-1.6,7.3-2   s4.4,1,7.1,1.8s3.6,0.1,6.7-2.6c3.1-2.6,5.9-10.2,5.9-10.2S35.1,34.2,33.8,27.5L33.8,27.5z"/>
	<path class="st0" d="M27.8,7.7c3-3,2-7.7,2-7.7s-4.2,0.7-7,3.7c-2.8,2.9-2.3,7.5-2.3,7.5S24.8,10.8,27.8,7.7L27.8,7.7z"/>
</g>
</svg>