<svg version="1.1" id="Layer_2" xmlns="http://www.w3.org/2000/svg" xmlns:xlink="http://www.w3.org/1999/xlink" x="0px" y="0px" viewBox="0 0 41 44" style="enable-background:new 0 0 41 44;" xml:space="preserve">
<style type="text/css">
	.st0{fill:#FFFFFF;}
</style>
<g>
	<path class="st0" d="M30,28.7c5-2.8,8.9-4.9,9.2-5.1c1-0.6,2.1-2,0-3.2c-0.7-0.4-4.4-2.4-9.3-5.1L23.4,22L30,28.7z"/>
	<path class="st0" d="M23.4,22L2.2,43.6c0.5,0.1,1.1-0.1,1.7-0.4C5.3,42.4,20,34.3,30,28.7L23.4,22z"/>
	<path class="st0" d="M23.4,22l6.6-6.7c0,0-24.6-13.6-26.1-14.4C3.4,0.6,2.6,0.6,2.1,0.7L23.4,22z"/>
	<path class="st0" d="M23.4,22L2.1,0.7c-0.9,0.2-1.6,1-1.6,2.5c0,2.5,0.2,35.8,0.2,37.9c0,1.4,0.6,2.5,1.6,2.6L23.4,22z"/>
</g>
</svg>