<svg xmlns="http://www.w3.org/2000/svg" width="302" height="60" viewBox="0 0 302 59.667"><path d="M250.074 5.35h9.324l-1.688 7.97h-9.322zm-2.632 12.43h9.32l-7.497 36.34h-9.32l7.497-36.34m46.95-4.864c-.404-1.485-1.104-2.758-2.1-3.816-.993-1.06-2.3-1.857-3.887-2.397s-3.57-.8-5.9-.8h-15.94l-1.54 7.426.2-.264 13.7-.003c.016 0 .03.003.047.003h.836l-.04.05c1.877.126 3.25.64 4.052 1.602.925 1.104 1.385 2.734 1.385 4.896 0 1.308-.135 2.794-.404 4.46L283.8 29.6l-2.027 8.24c-.675 2.207-1.44 3.985-2.296 5.335s-1.88 2.32-3.073 2.905-2.625.88-4.3.88h-4.323l6.044-29.177-9.74.07-7.517 36.266H271.9c3.24 0 6.023-.494 8.34-1.486s4.323-2.498 6.012-4.526 3.107-4.593 4.256-7.7 2.172-6.8 3.072-11.078l1.048-6.08S295 19.6 295 17.98c0-1.892-.2-3.58-.6-5.067" fill="#26356f"/><g fill="#d32225"><path d="M38.14 12.887c.118-.144-.02-.003-.24.235l.284-.267c-.008.005-.02.01-.045.032"/><path d="M37.87 13.15l.008-.006c.005-.007.01-.013.02-.022l-.03.028M27.614 49.965l.008.004.026.01-.034-.013"/><path d="M13.164 29.1l.078.4v-.164l-.05-.254-.03.028m14.76 20.976c.16.04-.005-.016-.276-.098l.318.123c-.005-.004-.016-.014-.042-.025m6.346-2.082c-.667-.194.098.3.5.592l.26-.274-.75-.318m-5.57 2.8l-.314.28.367.135 1.745.557.664-.358-2.375-1c.216.267.276.382-.03.353l.234.165-.3-.134m10.564-38.347l.128.463.32-.3 2.772-2.9-.315-.43-3.25 2.896c.38-.1.524-.093.34.208l.285-.16-.282.233"/><path d="M40.284 33.87l-.272.1h-.1l-.1-.1-.453.453v-.1l-.1-.1v-.364l.1-.453-.272-.092v-.1h.1l.27.1.635-.1v.18l-.1.1.272.1zm-.884 3.083v-.183l.694-.072.035.145zm-.474-.55l-.292.037.292-1.277.146-.038zm-.44 1.133h-.147l-.037-.147.075-.62-1.572-.1-.035-.147.44-.073.583.1.146-.036.1-.182c.026.22.182.305.474.256h.147zm-.548 1.607l-.037-.292.146-.038.037.3zm-.86-.3l-.146-.032.177-.44.1.048zm.64-3.024l-.177.44-.13-.064.16-.4zm-.035-.342l-.146-.033.305-.866.148.032zm.592-2.517l-.095.278-.133-.066.096-.278zm-.168-1.276v.18l-.1.453h.1l.1.092c-.242.272-.364.483-.364.634-.483-.195-.723-.346-.723-.453l.27-.272-.18-.634h.1l.182-.182v-.724l-.092-.453c.092 0 .152-.333.183-.997h.18v.182h.18l.272-.182-.1.453v.364l.182.272v.1h-.182v.726l-.1.453zM36.57 29.6c0-.243-.062-.362-.182-.362h-.18v.18h-.092l-.1-.363c.135-.045.255-.44.362-1.18l-.1-.1.1-.635-.1-.1h.1l.1-.1h.1v.997h.1c.18-.046.272-.227.272-.544v-.272l.272.1h.1v-.18l.273.1v.363l.18.544.27-.272.273.272v.1h-.273l.1.362-.362.544h-.1c0-.302-.06-.454-.18-.454l-.272.272v.18l.1.1-.27-.1c-.182 0-.273.182-.273.544zm-1.364-15.933c.353-.492 1.405-1.5 1.805-1.886-.008-.005-.008-.013-.01-.02.25-.218.2-.158.01.02.013.025.03.05.037.074l.06-.057-.02.263a.72.72 0 0 0-.038-.206zm-.276-2.585c-.767.178 1.534-1.853 2.273-2.036-1.297.88-1.643 1.348-2.273 2.036m.788-.256l.563-.365c-.954.766-.866.652-.563.365l-1.194.764c.766-.548 1.735-1.34.746-.5 2.022-1.677.956-.745.448-.264m2.8 3.043l.936-.713-2.932 2.62zm.04.736l-1.122.954 1.703-1.68zm.786.26c-.28.358-.7.83-.503.783l-.635.382c.2-.16.735-.747 1.138-1.165m.687 1.026c-.65.74 1.904-1.984 1.53-1.493 1.444-.98-3.728 3.702-1.53 1.493M35.4 30.154l-.544.1v-.363c.182-.227.272-.44.272-.634v-.544h.18v.27l-.1.454.1.1-.1.453h.18zm-1.086 8.388l-.182-.376.557.193.18.373zm.372 8.062l-.148-.032.18-.44.097.048zm.5-3.056l.147.033-.177.44-.13-.067zm.27-1.2l.147.033-.306.866-.147-.03zm.304-1.682l.13.064-.096.28-.13-.066zM36.387 42l.147.033-.145.457-.13-.065zm-.004-.816l.28.096-.177.442-.133-.4zm-2.53-2.633l-.276-.096c.117-.296-.14-.544-.773-.748l.033-.148.425.13.768.42zm-1.948 7.73l-.18-.374.556.193.182.375zM33 49.347l.028.07-2.677-1.512zm-1.466.368l-.517-.01.656.36-.846-.362.2.002-1.44-.8c.577.292 1.398.586 1.957.8m-2.438-2.06c-.966-.464-.844-.437-.503-.308l-1.06-.654c.725.398 1.718.863.68.4 2.092.96.952.472.38.253zm-.324.93l-1.26-.712-2.974-1.14c1.115.445 1.6.513 2.135.66l.84.48c.83.33 1.44.6 1.26.712m-.403.248l-.214.087a.64.64 0 0 0 .146-.111l-2.13-.766c.52.092 1.716.538 2.174.706.28.098.208.074 0 0l-.044.06zm-1.08 1.922l.92.47-3.182-1.32zm-.563.32l-1.178-.526 1.972.707zm.1.728c-.387-.083-.917-.228-.807-.097l-.544-.36c-.032-.016-.057-.03-.063-.04l.063.04c.203.1.87.298 1.35.457m-1.557.2l.128-.013-.057.07.013.13-.055.07-.776-.626-.057.07c-.08.17.005.353.25.554l.213.17-.242.155-.057.07.14.114-.242.155-.07-.058-.086.18-.224-.298.055-.07-.492-.183.04.383-.38.04-.07-.057.17-.2-.34-.16-.194-.623.058-.072c.234.192.4.24.467.146l-.042-.383-.14-.115-.128.013.24-.152c.116-.142.03-.327-.252-.555l.115-.14c.187.152.32.18.396.087l.115-.142-.14-.113.057-.07.34.157c-.052.134.177.476.687 1.023l.126-.013zm-2.545-.3l-.142-.114-.115.14-.03.326-.297-.356-.28-.23-.324-.03-.072-.056.115-.142-.563-.456-.296-.355-.057.07-.142-.115-.294-.357-.057.07-.128.014c-.06-.358-.146-.586-.265-.68.457-.253.726-.344.8-.278l.04.383.6.256-.057.07.026.256.4.316c.116-.137.337-.222.67-.26l.18.498-.215.266c.1.13.284.33.607.618zm-3.244-4.7l-.255.026-.026-.254.115-.142.28.228zm-.047.778l-.128.012-.028-.255.115-.14.155.24zm-.594-.132l-.268-.1-.028-.257.3-.096.156.242zm.023 5.734l-.128.013-.156-.24.115-.14.28.228zm-.72-2.35l-.016-.128-.24.155-.28-.228.1-.268.056-.07.128-.014-.067-.636.07.056.128-.013.28.23.297.354.242-.154.07.056-.057.072-.242.155-.33.55zm-.037 1.27l-.028-.254.142.113zm-.232.863l-.056.07-.24-.427.427-.24c.117.096.073.293-.132.595m2.608-5.238l.34.16.225.3-.172.2-.48-.272-.027-.255zm.885 1.07l.07.056.013.128-.255.026-.07-.057-.013-.127zm.12-1.304l.07.057-.115.142-.07-.058zm3.384 2.375l-.113.142-.213-.173-.294-.354-.128.013-.296-.356-.114.14-.14-.115.27-.48.28.228c.062.284.17.5.322.6zm-1.122-1.852l1.6.786-1.6-.786m.565-.736l.875.436-2.6-1.238zm6.245.384c-1.187-.693-1.688-.787-2.47-1.022-.434-.543 2.043.504 2.47 1.022m-.138-2.522l.424.128.77.422-.177.44-.278-.096c.118-.294-.138-.544-.772-.748zm-13.58 7.36l-.2-.172.115-.14.2.17zm-.258.607l.115-.14.14.113zM16.1 50.43l-.14-.115.115-.14.14.114zm-.52-3.104l-.128.013-.04-.382.255-.027.027.255zm-.432 3.847l-.07-.056.115-.14.2.17zm.096-4.584l.142.113-.114.14-.14-.115zm-.443 3.14l-.057.072-.396-.1-.2-.17.172-.212.313-.098c.187.25.247.416.18.497m-.284.353l-.142-.115.114-.14.282.228zm-.082 1.684l-.2-.17.115-.142.153.243zm-2.605-2.1l-.34-.158c-.054-.22-.01-.417.132-.595l.353.286.028.255zm-.3.934l-.14-.115-.028-.255.115-.14.2.17.098.3zm-.253-.555l-.2-.17.057-.072.2.172zm-.573-1.165l-.747-.372.115-.14c.227-.1.462-.092.708-.01l.294.356-.23.283zm-.74-1.534l.07.058.115-.14-.017.454-.114.14a.49.49 0 0 1-.055-.51m-.38.04l-.14-.114.057-.07.14.114zm22.866-34.54c.035-.125.005-.154-.042-.154-1.008 1-.216-.014 0 0l.302-.3c1-.402.995-.684-.26.454m-.08-4.547c.532-.416-1.728 1.43-2.3 1.687l2.3-1.687m-4.606 1.23l-.18.182h-.272v-.36h.453zm-.634 1.542h-.18l.18-.182zm-2.267-1.1l-.362-.1v-.1c.167 0 .347-.1.544-.272zm-.453.363l-.182.18h-.27v-.363h.453zm-.544-.1h-.18v-.1h.18zm-.1 1.632h-.18l.18-.182zm-.362 1.813h-.1v-.18h.1zm-.272-2.63H22.8l.273-.272h.1zm0 4h-.272l.182-.18h.1zm-.18.996c-.483 0-.727.152-.727.453l-.18-.18h-.1c-.244.305-.455.532-.64.696.05.016.087.04.156.04v.182l-.542.544h-.182c-.135 0-.227-.152-.272-.453h-.18l-.362.272h-.1v-.18c-.302 0-.453-.152-.453-.453v-.363l.453-.453.27.1h.1l.1-.1c.06.332.18.603.362.816l.307-.122a.64.64 0 0 0-.28-.25l.272-.544.1.1.453-.18c0-.423.12-.634.364-.634l-.1-.272.1-.453h.18l-.1.1.27.453-.18.724v.1h.18l.364-.272c0-.36.1-.543.272-.543h.1l.18.543c-.106 0-.166.12-.18.363m-.272.816l-.1.1h-.18l-.182-.182v-.18h.454l.1.27zm-.905 3.082l-.182.182v-.272h.182zm-2.086.363l.272-.27h.1v.18zm.272.544h-.1v-.1l.18-.182h.182zm-.364-.907c0 .12-.18.182-.544.182-.12.363-.24.544-.362.544l-.1-.1v-.1c0-.167.242-.408.727-.725h.27zm-.4 5.54l-.362.1c0-.242-.1-.363-.272-.363v-.1l.1-.1v-.36l-.1-.1h.1l.1-.1h.362l.1.272-.1.1v.18zm-.906 12.78v-.453l.182-.18h.27l.1.362a.65.65 0 0 1-.544.272m-.272-8.8l-.1-.272c.362.06.544.15.544.272zm-.1 2.628h-.182v-.272h.182zm-.1 2.085h-.182v-.272l.182.18zm-.725-3.174c0-.15.18-.24.543-.27h.1l-.18.452zm.272 4.442h-.182v-.362l.182.18zm-.182.455h-.27l-.273-.182c.077-.302.167-.453.273-.453h.1l.18.363zm-.724-2.086h.18v.18h-.18zM16.36 15.97h.18v.1h-.18zm-.03 4.1h-.18v-.1h.18zm-.272 1.18h-.1l-.182-.726-.12.08h.06v.182h-.1v-.16l-.12.08h-.1l-.1-.272c.03-.242.12-.363.27-.363h.274c0 .167.15.38.452.635-.18.197-.272.377-.272.544m.02 11.18l-.272.1h-.1l-.1-.1-.453.453v-.1l-.1-.1v-.364l.1-.453-.272-.092v-.1h.1l.273.1.634-.1v.18l-.1.1.272.1zm-.168 8.566l-.184.18v-.272h.184zm-.726.272h-.182v-.092h.182zm-.272-4.08l-.18.183h-.272v-.1l.363-.272h.1zm-.634-.45h.18v.182h-.18zm-.273 1.812v-.272h.1l.1.1zm-.375-6.935c-.482-.195-.724-.346-.724-.453l.272-.27-.18-.634h.1l.18-.182v-.503c-.18-.005-.385-.122-.622-.358l.272-.454h.342c.044-.15.078-.428.097-.86h.184v.182h.18l.27-.182-.1.454v.363l.18.27v.1h-.18v.725l-.1.454h.1v.18l-.1.453h.1l.1.1c-.24.272-.362.483-.362.634m-.893 2.312l-.272-.182.1-.272h.273l.1.272zm0 3.625h-.1l-.1-.1.1-.362h.1l.1.1zm-.362-1.903h.27v.1l-.27.1zm0-2.72h.18l.1.1-.18.182h-.18zm-.1 2.448l-.1.1-.18-.18v-.272l.18-.18h.1zm-.544 1.088v-.18l.18-.272h.1l.1.092c-.044.18-.167.3-.362.362m.18 1.72h-.18v-.1h.18zm-.364-1.27l-.1.1-.272-.1v-.18l.272-.1v.1l.1.1zm-.543-1.54v-.1h.272l.18.18-.18.182h-.182zm.18-4.08h.182v.1h-.182zm.544 5.7h.1v.18h-.1zm0-3.625h.18l.18.18-.18.18h-.18zm.635-1.542l-.182.18H12l-.1-.36.1-.363h.272zm-.1-1.177v-.1l.1-.1.18.18v.1l-.1.1zm-.194-4.307l.1-.635-.1-.1h.1l.1-.1h.1v.997h.1c.18-.045.27-.227.27-.544V25.7l.273.1h.1v-.18l.27.1v.095l.194-.05-.1.363h-.087l.167.5.27-.272.272.272v.1h-.272l.1.362-.36.544h-.094c0-.302-.06-.454-.18-.454l-.27.272v.18l.1.1-.272-.1c-.18 0-.27.18-.27.544h-.182c0-.242-.06-.363-.18-.363h-.18v.182h-.1l-.1-.363c.137-.045.256-.44.363-1.18zm1-2.13h.182v.1l-.182.182zm.3-5.177l.272.1v.1l-.1.1-.18-.182zm.605 3.545h.1v.18h-.1zm.1-1.813h.182v.1h-.182zm.2-1.46h.1v.363h-.1l-.18-.18zm.063-.444h.27l.1.092-.1.542h-.18l-.1-.363.1-.1v-.1zm.362 17.405l-.272.272-.18-.18.18-.182h.18zm-.063-16.417v-.1l.1-.1.18.18zm-.1-2.8l.453-.1h.362v.362l-.1-.1-.725.182zm0-.725l.182-.182.1.272v.1l-.1.092-.182-.182zm.453-1.087v.27h-.1l-.1-.1zm-.03 3.092h.182v.1h-.182zm.573-.102c0 .242-.12.394-.362.454h-.1v-.182l.27-.272zm.06 1.188h-.18v-.272h.18zm.03-4.27l.27.18-.18.36h-.1l-.1-.272zm.544 3.444v.182H15.9l-.18-.182zm.513 12.518h.182l-.182.18zm.635-1.177l-.1.272h-.18v-.363h.18zm-.272-2.267v-.272h.18l.182.182v.1zm-.364-5.9l.1-.1.272.1.454-.182.18.182v-.182h.1v.1c-.135.257-.286.407-.453.453l-.635-.272zm0-.453h.182v.1h-.182zm1.452 3.626v.18h-.363v-.27zm-.063-4.815l-.18-.182.27-.18h.1v.18zm-.3-3.435l.182.182v.443h.208l.1.1-.1.453h-.1c-.294 0-.472-.12-.537-.35h-.034l-.182-.182c0-.303.153-.513.453-.635m-.334-.373h.18v.18h-.18zm.634-.907v.363h-.1l-.1-.363zm-.1-.634h.18v.092h-.18zm.18-.18l.182-.182v.1l-.182.18zm.516 11.974h-.1v-.18h.1zm0 7.705h.1v.272h-.18zm-.362-4.17v-.272h.1l.1.1zm.1 1.36l.18.18h-.18zm.12-16.054h.18v.1h-.18zm.272-1.268h.27v.1h-.27zm.1.544v-.362l.27.18-.1.363zm.362 4.804v.272h-.272v-.1l.18-.18zm-.1-1.723l-.27-.272v-.1h.453l.1.272h-.1l-.1.1zm-.27-4.08h.18l.273.18-.182.18h-.1l-.18-.18zm.543-2.085h-.18v-.1h.18zm.1-1.45v.18h-.18l-.182-.18zm-.363-3.08h.182v.18h-.182zm.544 2.537h.1v.182l-.1.1h-.1l-.1-.1zm0 2.267h-.18l.18-.363.182.18zm.1 2.72H20v.1h-.18zm.27-4.443l-.1.272-.272-.1v-.1l.272-.1zm.1-3.444h.272v.18h-.272zm.635-.182v.182h-.1l-.182-.182zm.18.363v.272l-.272-.1.18-.182zm0-.634l.18.18h-.18zm.1 8.884l.182.18v.1c-.182 0-.272.1-.272.272h-.18c.06-.36.15-.543.27-.543m-.18-5.7h.18l-.18.18h-.272v-.1zm-.1-1.632h-.182v-.1h.182zm0-.272v-.18h.18l.1.363h-.1zm.1 1.088l.18.182v.1h-.27l-.1-.272zm.634 6.527h-.18v-.1h.18zm-.18-.906h.1v.272l-.18.18h-.182l-.1-.272zm0-.272h.18v.1h-.18zM21.527 9h.18v.1l-.18.18zm.455 5.075h.18c.304 0 .484.1.544.272v.1h-.815zm-.1-5.7h.1l.1.27h-.18zm.27 4.985h.272v.1h-.272zm.18-.454l.363.18v.1l-.1.1-.454-.1zm0-2.085l.182.18v.1l-.1.1-.272-.182zm-.18-2.084h.18v.1h-.18zm.454 1.994h.18v.1h-.18zm.454 2.9v.18h-.182v-.363zm-.182-1.904h-.1v-.18h.1zm-.362-2.356h.27v.1l-.27.1zm17.057-.355l-.268.527.693-.496-.792.692.1-.196-1.532 1.086c.584-.45 1.295-1.147 1.8-1.613m4.17 9.434c-1.63 1.785.07-.747-.617-.24l1.2-1.467-.013-.528c-.195.12-.448.315-.685.494l-.34.492c-1.292 1.282-.96.698-.33-.2.007-.142.198-.515.76-1.336l.503-.527-.017-.2c-.562.303-1.433.962-1.5.724l.446-.498-1.5.993c1.523-1.486-1.056 1.023-.78.522-.9.754-.7.186.198-1.004l-.16-.24c.995-.724 1.763-1.717 2.833-2.976l-.07-.216-.27.246.258-.28-.135-.405c-.4.294-.888.712-1.628 1.426l-1.185 1.392c.13-.115.104-.088-.03.038l-.1.1-.43.626c-.086.16-.128.28-.052.28a.73.73 0 0 0-.213.029c-.2.2-.2.07 0 0 .065-.06.16-.17.266-.308a6.19 6.19 0 0 1 .43-.626l.05-.073-.784.745-.102.228c-.388.28-.2.08.102-.228.22-.55-.478.3-1.314 1.17 2.707-3.168.6-1.202 3.895-4.842-3.68 4.12-.518-.27-4.1 3.594 2.842-3.135.03-.215 2.5-2.868-.422.688.958-.45 2.318-1.606a8.81 8.81 0 0 0-.508-.917l-.316.365c-1.175.885-1.864 1.56-2.612 2.3l-.32.34v-.08a24.17 24.17 0 0 1-2.193 1.9l2.062-2.436-1.38.764-.1.12-.883 1.084c-.5.46.333-.485.883-1.084l.677-.958c-.228.054-.38.057-1.28.776-.18-.018.927-1 1.532-1.538-.08-.033-.265.038-.513.175L36.94 12.73c-.28.28-.478.47-.096.07l.096-.07.5-.5-.127.1c.318-.3.276-.247.127-.1.316-.233.563-.392.76-.497.63-.516 1.135-.92.846-.52.117-.07-.06.096-.333.344.104.07.01.334-.253.762.138-.033.297-.084.685-.34.823-1.205 2.764-2.347 1.968-2.14.275-.205.6-.473.902-.75l-.33-.4c-.34-.363-.728-.683-1.138-.986L38.61 9.17l1.854-1.533-.446-.316-2.845 1.985 2.8-2 .023.003c-.555-.344-1.175-.632-1.84-.88l-.978.43.7-.542c-.023-.008-.044-.018-.065-.027-1.6-.54-3.57-.8-5.9-.8H30.14l-.052.105-.258.085 1.117 1.208a10.79 10.79 0 0 1 1.464.52l-.172.344-3.8-1.04-.084-.258-.172-.087-.518.172-.43-.862-.557-.187H22.18l-.018.005-.01-.005h-.906l.055.435-.086.173c-1.107-.087-1.7-.032-1.8.17-.128-.337-.28-.6-.453-.777h-.236a1.14 1.14 0 0 0-.238.358c.156.478.38.8.667.935l-.086.17-.344-.173-.346 1.12-.518.603c.287.144.287.574-.003 1.292l-.432.86-.516-.7.518-.6-.026-.772c-.253.27-.57.497-.965.672l.473.27-.517.172c-.246.488-.274 1.262-.1 2.325l-.345-.172-.603 1.205.602.087c.602.805.773 1.467.513 1.982l-.033.068c.07.04.14.134.2.32h-.1l-.262-.26-.083-.042-.086-.26c-.345-.17-.632-.03-.862.43-.23-.115-.23-.402 0-.86l-.8-1.823-1.492 7.2.15.15-.195.065-1.75 8.435v.167l-.035.005-2.696 13.006 9.543-.006v-.27a.82.82 0 0 0 .253-.05l.1-.528v-.055h.01l.1-.523a.49.49 0 0 1-.3.25v-.1h-.18l.362-.272h.143l.123-.6a1.1 1.1 0 0 1-.175-.307l.1-.454h.242l5.175-24.98c-.04.02-.074.044-.134.044l-.1-.1.1-.544-.1-.1.398-.167.075-.355h2.953l.02-.114-.1-.1.725-.454.363.182-.16.476h.3c1.693 0 3 .293 3.96.87l.164-.16 1.307-.877-1.234 1.193c.263.187.5.392.698.628.047.056.078.128.12.185.806-.77 1.108-1.206 1.483-1.632l.906-.625c.75-.7 1.338-1.178 1.35-.94l-1.35.94L33.3 14.5c.173.23.342.464.48.735l.762-.593-.754.608c.078.16.13.35.2.523l.413-.362-.372.465.138.363L35.735 15l-1.55 1.22c.255.845.393 1.827.393 2.967 0 1.305-.135 2.792-.406 4.457l-1 5.537-2.028 8.24c-.675 2.206-1.44 3.984-2.297 5.336-.1.173-.23.322-.345.482l.814.473c.28.138-.24-.103-.855-.415-.705.966-1.5 1.704-2.418 2.205l.2.07c.674.612.893.53-.346.017-.042.02-.08.05-.12.07-.087.043-.187.073-.278.113l1.07.63-1.373-.505c-1.07.42-2.3.64-3.708.64H17.24l-.003.004h-2.383l-.016.418-.057.07-.14-.114-.028-.255.098-.12H9.28l.1.1a.87.87 0 0 0-.187.665l-.115.142-.4-.216.1-.268-.678-.317.01-.094h-.686L5.943 53.7h15.33c2.045 0 3.885-.22 5.563-.614-.984-.386-1.896-.796-.544-.327-.417-.116.156.072.767.274l.735-.173-.22-.05c.14.06.107.047-.044-.01l-.12-.027-.654-.1c-.16-.006-.268.007-.24.067-.033-.072-.074-.12-.104-.16-.24-.1-.134-.132 0 0a1.93 1.93 0 0 0 .344.092 5.09 5.09 0 0 1 .654.101l.077.01-.886-.335-.217.007c-.37-.2-.143-.135.217-.007.517-.04-.413-.27-1.423-.594 2.786.733 1.9.318 3.453.7l.094-.033c-1.476-.556.936-.226-2.654-1.332 3.552 1.046.18-.062 3.2.877-.287-.03-.2.068.07.233l.26-.094.74-.355-1.604-.626-.388-.12.022-.014a21.8 21.8 0 0 1-2.335-1.01l2.703.697-1.13-.804-.135-.04-1.2-.283c-.552-.22.508.077 1.2.283l1 .168c-.13-.16-.193-.28-1.1-.72-.055-.15 1.133.354 1.797.624-.005-.077-.133-.195-.336-.34l-1.273-.614c-.328-.114-.552-.196-.092-.05l.092.05.6.2-.117-.068c.357.14.3.126.117.068a5.62 5.62 0 0 1 .682.413c.647.3 1.16.547.734.474.1.065-.1-.013-.4-.134-.013.1-.258.14-.695.095.08.096.18.206.53.412.84.127 1.833.647 2.276.826a15.8 15.8 0 0 0 1.848-1.262L31 48.998l2.216 1 .792-.67-.086-.247.03-.147.28.096-.065.163c.155-.146.297-.312.445-.468l-1.145-.452c1.008.28-.808-.883-1.208-1.34l2.748 1.378.174-.18-2.677-1.46.032-.147.28.098 1.26.745.522-.15c-.1.312.114.593.647.846l.366-.392c.692-.832 1.328-1.78 1.93-2.792-.66-1.192-1.083-2.8.398-4.306l-.305-.166c0 .05-.008.095-.003.152h-.1l-.03-.23-2.583-1.407.03-.147.28.096 1.26.745.523-.148c-.1.276.07.526.476.757l-.03-.248c.17-.025.243-.195.22-.5h.146l.33.255c-.316.04-.48.24-.507.587a4.72 4.72 0 0 0 .399.165l.424-.374c.48-.377 1.198-1.163 1.995-1.843l.4-1.24v-.108l.04-.012 2.055-8L44 22.825l.295-3.18-1.042 1.24c.427-.995-3.34 2.36.5-2.464m-1.233-3.99l-.1.1c-.276.453-.53.808.1-.1"/><path d="M38.908 12.184l-.724.672c.254-.2.437-.225.724-.672M27.966 50.1c.247.127.346.26.806.318l-.806-.318M19.7 17.236l.182-.18v-.1H19.7v.272m-4.443-5.314l-.086-.26.26-.085.085-.172.175-1.206-.555-.626c-.02.001-.032.007-.05.01l-.08.4v.182h-.037l-.2.963.055-.056h.363v.272l-.272.1-.185-.125-.026.128.125.063-.234.467-.012.057.503.252.173-.344m6.386 38.526l.126.103.23.12-.004-.04-.352-.185M29.3 5.467h-.267l.02.017c.078.04.16.025.246-.017"/></g><path d="M38.3 40.273l-.228.214-.42-.173c.013-.153.05-.277.12-.37zm-3.102 7.864l-.784.84-.056-1.298zm1.277-6.406l-.13-.392.03-.147.28.096zm-.092.767l-.13-.065.13-.424.146.03zm-.607-1.502l-.13-.064.096-.278.13.065zm-.495 2.24l-.147-.033.306-.866.146.032zm-.143.785l-.133-.065.16-.4.148.032zm-.833-5.482l-.18-.375.556.194.18.375zm.372 8.062l-.147-.03.178-.44.098.048zm3.29-6.015l-.317-.173c0 .05-.008.096-.003.155h-.11l-.03-.23-2.583-1.408.032-.146.278.095 1.26.746.522-.15c-.097.274.072.528.478.757l-.03-.25c.076-.01.13-.056.168-.125l-3.715-2.32.023.536.082.046-.072.18.388 9.006.273-.078c-.112.31.115.59.646.845l.366-.392c.694-.83 1.333-1.77 1.93-2.79-.656-1.19-1.068-2.784.4-4.3" fill="#f03745"/><path d="M40.284 33.87l-.272.09h-.09l-.1-.09-.453.453v-.09l-.1-.1v-.364l.1-.453-.272-.092v-.1h.09l.27.1.635-.1v.18l-.09.09.272.1zm-.884 3.083v-.183l.694-.072.035.145zm-.474-.55l-.292.037.292-1.277.146-.038zm-.44 1.133h-.147l-.037-.147.075-.62-1.572-.11-.035-.147.44-.073.583.11.146-.036.11-.182c.026.22.182.305.474.256h.147zm-.548 1.607l-.037-.292.146-.038.037.29zm-.86-.29l-.146-.032.177-.44.1.048zm.492-3.056l.147.03-.177.44-.13-.064zm.27-1.2l.148.032-.307.867-.146-.033zm-3.924 2.95l3.713 2.32c.047-.086.065-.21.052-.385h.146l.33.255c-.177.023-.303.1-.39.216l.53.33.177-.167c.48-.377 1.2-1.164 1.997-1.843l.388-1.236v-.11l.04-.012 1.906-7.35-8.888 7.985" fill="#731b18"/><g fill="#d32225"><path d="M67.884 53.176l.182.183v.1l-.272.09v-.09l-.092-.1zm-.362-2.63l.272.09h.1v-.18l-.1-.092c.24 0 .363-.18.363-.543l.27.09v.452h-.18c-.045.18-.167.303-.363.362l.09.272-.09.272h-.1L67.522 51zm-.182-6.073l-.1-.364v-.09l.453.18-.272.272zm.09 2.8l-.362.272-.182-.362.273-.18h.1l.18.18zm0 4.17h-.09v-.18h.09zm0 1.36l-.362.18h-.182v-.1l.273-.272h.27zm-.725-6.71l-.364.364v-.09l.182-.725.18.18zm-.726 6.255l-.18-.635v-.1l.1-.09c.424.18.635.333.635.453zm-.362-8.068h-.182v-.182h.182zm-.09 1.632l-.182-.18h.182zm.815-2.99h.273v.272h-.273zm.635 2.99h.272v.272h-.272zm.635-5.71l.18-.362h.1v.272l-.27.27zm.362 2.358h.09c.24.1.362.3.362.634v.09l-.18.18h-.363l-.18-.18v-.455zm.09-1.722h.27v.27h-.27zm.634 7.704h.18v.183h-.362zm-.1-2.992h.1c0 .182.09.272.272.272v.182l-.09.1-.27-.272zm.1-2.446h.09l.1.09-.18.18zm.18 4.17h.09v.182h-.09zm.364 1.995v.453l-.18.182h-.272l-.09-.453.18-.182zm-.1-3.082h.18v.272h-.18zm.18-3.807h.363v.363l-.1.09-.273-.09zm.453-.363h.182v.1h-.182zm.273 5.982h.18v.092h-.18zm.27 1.994v.09h-.18v-.27zm.09.544v.18h-.272l.18-.18zm-.726-4.35l-.1-.272.1-.272h.18l.09.544zm-.18 2.8l-.182-.18h.273l.18.18zm-.272-1.18v-.1l.1-.454h.273l-.09.09.09.272zm0 4.35l-.1.1-.182-.18.182-.18h.1zm-.817-7.344l-.362.182v-.272h.362zm.363 7.887l-.272.09-.182-.18-.1-.09.18-.18h.182l.18.18zm2.265-6.164h.273l.09.272-.09.272v.09l-.544-.18c.076-.304.167-.455.27-.455m-.18-5.982l.09-.09h.18v.363h-.27l-.09-.272zm.453 1.632l.182.18v.182l-.273.27h-.182v-.18l.09-.453zm.182-1.178l.18.18v.09h-.18l-.09-.272zm.36 2.175h-.18v-.09h.18zm.544 1.45v.092l-.18.272c.12.302.242.453.362.453v.18h-.18v-.18c-.364 0-.604-.15-.726-.453h.09c.21-.242.423-.364.634-.364m-.18 2.358h-.182c0-.182-.06-.272-.18-.272l.18-.364h.182l.27.18c-.044.304-.135.455-.27.455m-.272.725h-.18l-.09-.454h.362l.09.272zm0 3.444H71.6l.09-.455-.27-.1.09-.452c-.302 0-.456-.243-.456-.725l.182-.454c.424 0 .634.182.634.544l-.272.635.453.724zm-.816.906v-.18l.273-.092.18.18zm-.09-1.09v-.18l.182-.18h.09l.09.634h-.09zm.09.635h-.18v-.09h.18zm.09 1.45h-.09l-.18-.18v-.09h.27zm3.354-4.26c.182 0 .272-.06.272-.18h.1l.09.092-.724.725h-.09zm.635 2.9v.09l.1.092v.1l-.1.09-.273-.09v-.18zm-.453.908v-.182l.18.182zm-6.8 1.45l.07.053h.656l.1-.053c0 .02-.01.034-.01.053h.438l.117-.234h.182l.094.234h5.858l-.423-7.355v.05l-.18-.18v-.09l.18.18-1.2-20.897-.078-.186-.09.023c.094.382.007.652-.264.814l-.418-.177-.263.066-.068.11c-.02-.088-.16-.146-.417-.176v.373l-.463.022-.417.197-.11-.066-.023-.088.068-.11c-.03-.117-.228-.16-.594-.133-.102.027-.133.16-.09.396l-.264.066-.043-.175.065-.11-.768-.088c-.333.16-.5.293-.463.395l-.22-.132-.044-.176 1.672-.79.11.065.09-.022.133-.22.417.177 1.187-.483.396.09.087-.02.066-.1.09-.022.044.176.22-.24.266-.067.16.125-.048-.848-.706.218-.022-.087.13-.22.44-.11-.022-.088-.24-.22-.023-.088c.17-.123.292-.225.39-.315l-.094-1.632c-.082-.07-.158-.198-.23-.406l-.11-.44.293.066-.037-.652-.276-.25.177-.044-.154-.615-.242.153c-.463-.103-.725-.287-.792-.55l-.02-.088.088-.022.11.066c.175-.044.235-.183.175-.417.12-.03.206.073.265.308l.603.28-.5-8.707-.048-.032.04-.137-.012-.192-.24.047-.2.275.03.157-.156.03c-.745-.76-.987-1.33-.724-1.715l.773.257c-.074.108.037.274.333.5l.065-.092-.117-.622.15-.148-.017-.304-.563-.11-.093-.063.125-.185c-.422-.537-.604-.932-.544-1.183l-.3.058-.128.184c.437.683.62 1.078.547 1.185l-.68-.195c-.206.696-.242 1.212-.112 1.55l.646.443c-.168.246-.068.495.302.747l-.81.394-.462-.316-.02-.96-1.02-.29-.15-.373-.37-.253c-.122-.084-.247-.033-.375.15l-.276-.19c.22-.323.268-.787.14-1.394.245-.193.483-.21.714-.055 1.018-.297 1.586-.405 1.7-.32l.063-.092-.03-.156-.156.03c-.3-.386-.41-.687-.33-.903l-.37-.448h-.4l-.15.22-.03-.154-.65-.04.118.622-.28.213c-.493-.335-.823-.38-.992-.134l-.463-.316.094-.41h-6.867L41.033 47.528l.047.047.32-.32c.085-.085.063-.193-.065-.32l.13-.13c.128.13.257.13.384 0l.064.064v.13l.065.064h.384l.063-.064-.19-.193.512-.257v-.384l-.13-.128c-.085-.087-.192-.065-.32.064l-.19-.322.128-.128.383.257.065-.066-.128-.128.192-.19h.256l.256-.384.13.128.128-.128-.32-.322.063-.064.192.192.193-.192-.255-.256.577-.19.128.255-.063.065H43.9l-.258.255.065.064.513.13c.406-.726.64-1.347.704-1.86h.13l.255.386.32-.45h.128l.064.063c-.192.406-.255.642-.192.706l.128.128h.13c.385-.384.492-.66.32-.833l.13-.128.13.128-.385.897-.32.194v.384l.064.063.384-.384.13.128v.13l-.063.064h-.13l-.063.063v.255l.063.066.578.065v.255l-.065.065c-.17-.172-.298-.213-.383-.13l-.323.32c-.128-.128-.234-.15-.32-.064l-.194.192v.13l-.703.193-.258.384-.448.32-.45.704c-.192-.148-.342-.17-.45-.064l-.063.064c-.258.257-.3.472-.128.642l-.13.128-.512.384c.14.14.14.354 0 .642l-.385.385-.13-.13-.063.065.128.128-.513.512h-.255v.258l-.258.128-.383.64-.065-.065-.385.642-.383.128c-.396.46-.525.76-.385.897l.065.065.448-.45.063.066-.13.255.32.064.194-.32.832-.578.065-.576.32-.32c.117.117.3.18.577.193l.064.065-.32.448c-.257.255.042.81.896 1.667l-.063.064-.32-.193-.065.066v.128l-.128.128-.32-.32c.172-.17.128-.384-.13-.64l-.063-.064H41.4l-.065-.32c-.128-.13-.234-.15-.32-.064l-.384.384v.128l-.32.064-.577 1.1-.29.217h8.6l4.322-10.2h7.69l2.372-3.8-2.325-4.17H55.68l9.185-21.68H65l.135 21.68.075 8.613.023 1.798h.294v.18l-.29.06.098 7.52h2.587l.053-.053"/><path d="M41.144 48.408v-.257c.384-.47.535-.747.45-.833-.263.262-.47.37-.622.34l-.466 1 .64-.24m85.567-21.852l-.232.492.057.728-.198.207-.08-.038-.044-.12-.082-.04-.502 1.065.044.122-.12.043-.232.492.487.03.208.198-.077.165c-.163-.078-.272-.063-.324.047l-.04.082.13.362-.037.082-.12.044-.385.82-.376 1.227-.24.086.086.24-.826 2.818-.12.043c-.293.73-.38 1.125-.257 1.182-.307.656-.6.92-.872.8l-.332-.356.24-.1.377-1.226.12-.04.08.037.044.12.082.04.077-.164c.052-.1-.06-.296-.337-.56l.274-.37-.164-.077c-.1-.052-.203.004-.28.168l-.082-.037-.043-.12.037-.08.122-.044.154-.328-.043-.12.12-.043.038-.082-.08-.04-.13-.362.792-.828.08.037c-.102.22-.1.354.01.405l.164.078.04-.083-.087-.24.274-.37.034-.285.04-.08.12-.044.035-.284.12-.044.037-.082-.086-.24-.083-.037-.4.617-.032.284-.082-.04-.078.164-.08-.04.85-1.804c-.273-.128-.333-.358-.18-.685.108.05.267-.142.473-.58l.034-.284c.263.007.464-.133.6-.42l.617-1.3-.164-.078-.078.164-.08-.04.188-.613.117-.245.206.197.083.038.655-1.394.083.038.01.406-.077.164zm-4.65-14.2h.18v.1h-.18zm-.272-2.72l.18-.363.182.182-.182.18zm-.1-.272h-.182v-.1h.182zm-.273 2.447h-.1l-.18-.182v-.18h.18l.272.18zm-.1.816l-.18-.18v-.363l.27.182zm-.272-.725h.272v.1h-.272zm-.1 1.36h-.18v-.1h.18zm.816-5.348v.182h-.18l-.182-.182zm.18-.543h.1v.18l-.1.1h-.1l-.1-.1zm.363.543l-.1.272-.272-.1v-.1l.272-.1zm.543-.634l.273-.1h.18l-.18.182h-.273zm.273-.907l.18.18v.1h-.27l-.093-.272zm.542 5.62v.272l-.18.182h-.18l-.1-.272.362-.182zm-.1-.272h.182v.1h-.182zm.182-4.985h.18v.1l-.18.182zM123.6 12.8h.182v.1h-.182zm-.542.634c.06-.363.15-.544.27-.544l.18.18v.1c-.18 0-.272.1-.272.272zm1.994 1.18h-.092l-.1.1h-.182l-.18-.18v-.18h.453zm-.998-1.813l.1-.454h.182l-.1.1.272.453-.18.725v.1h.18l.363-.272c0-.363.1-.544.27-.544h.1l.182.544c-.107 0-.167.12-.182.363-.482 0-.725.15-.725.454l-.18-.182h-.1c-.53.666-.922.997-1.177.997h-.093c0-.12.093-.18.272-.18h.1c0-.242-.12-.423-.364-.544l.272-.544.1.1.453-.182c0-.422.12-.635.362-.635zm.18-.997h.182c.302 0 .483.1.543.27v.1h-.816zm-.1-5.7h.1l.1.272h-.182zm.273 4.986h.27v.1h-.27zm.18-.453l.363.18v.1l-.1.1-.453-.1zm0-2.085l.182.182v.1l-.1.1-.27-.18zm-.18-2.085h.18v.1h-.18zm.362.635h.272v.1l-.272.1zm.544 5.53h.1v.182h-.273zm0-1.27v.18h-.182v-.363zm-.453-2.9h.18v.1h-.18zm.18.816h.1v.182h-.1zm.363-.725v.272h-.363l.272-.272zm.18 2.72h.1v.182h-.1zm.544 2.538h.1v.1l-.362.363h-.1zm-.1-4.35v.18h-.18zm-.1-1.542h.18V8h-.18zm.634 2.63l.363.1.092.272-.092.1.092.544-.272.1c-.122 0-.182-.12-.182-.362h-.18l-.1.1c0 .18-.1.272-.273.272l-.1-.1.1-.544-.1-.1c.423-.152.634-.272.634-.363m-6.846 38.7c-.05.1-.186.113-.405.012l-.154.328.043.12.083.038.12-.042-.187.612c-.437-.206-.72-.172-.85.1l-.082-.038.038-.082.2-.207.018-.892.122-.044.037-.083-.048-.323.115-.246.223.806.082.04.193-.4-.047-.323c.177.082.406.092.687.023zm-2.417-1.036l-.164-.078.04-.08.164.077zm1.43-1.33l.206.196c.273.13.346.33.217.603l.165.078.308-.656.082.038-.502 1.068.08.038.122-.043.164.077-.04.082-.444.092-.082-.04c.112-.415.093-.657-.057-.728l-.082-.037-.12.043.04-.082-.284-.034c-.164-.077-.22-.17-.17-.28zm1.85-34.6l-.182.182v-.1l.182-.18zm-.182.363h-.18v-.1h.18zm-.1.907h-.1l-.1-.363h.18zm-.453.725h-.18v-.182h.18zm-1.1-.997l-.272-.272v-.1h.1c.1 0 .18.12.272.363zm0 .544h-.18v-.1h.18zm-.817-.363h-.1l-.092-.272.092-.272.272.18zm-.1-.997h.1v.18h-.1zm-.452-3.354l-.273.1-.27-.18.18-.182h.365zm-.182 4.17h-.1l-.1-.1.182-.182zm-.182.997l-.1.1-.18-.18v-.1l.18-.18.1.272zm-.724-4.804v-.1l.1-.1.18.182zm.182 1.18h-.1l-.1-.272h.272zm.724-2.72h-.1v-.18h.1zm0-.453v.182h-.182zm-1.812 6.436h-.272v-.182h.272zm-.817.725l-.272.1-.18-.635.453.362zM87.5 42.08l-1.537.255-.256-.77 1.024-1.28v-2.05h.512L87 40.03l.255.767-.512.513c0 .34.257.512.77.512zm-5.62 9.4l-.18-.182h.18zm0 1.904l-.27.1h-.1v-.1l.1-.1h.27zm-.724-2.72h-.18v-.272h.18zm-.27.906h-.1v-.362c-.362 0-.544-.12-.544-.363h.1l.1-.1h.18c.1 0 .24.2.453.634zm.18.997h-.1l-.1-.1.18-.183zm-.453.635v-.182h-.18l-.1.1v.1l.1.1h-.182l-.1-.272-.453.1v-.453l.1-.1.725.18v-.18h.18l.1.453zm-.908.453v-.182l.273-.1h.18c0 .105-.15.195-.453.272m.273-1.542v.272h-.182l-.1-.272zm-.273-.364l.182-.543h.362l-.18.18.1.36c.242 0 .363.122.363.364h-.1v.18c-.122 0-.213-.18-.273-.544l-.362.183h-.1zm.182-.906l.18.18v.1L79.76 51zm.18-.634h.1v.18h-.1zm.544-.724v.27l-.272.1-.1-.36zm.997 2.355h.1V52h-.1zM117.48 5.9l-.675 1.634.1.1v.1l-.2.063-.94 2.277.133.198v.1c-.102 0-.185.006-.258.015l-12.2 29.585h-.134L103.5 5.92H89.044L80.26 48.3h.133l.1.272c0 .183-.062.272-.182.272h-.154l-.128.6c.003.01.005.014.01.026l-.02.017-.196.947.125.122v.1h-.17l-.714 3.445h.066v.053h5.134c-.352-.54-.547-.987-.547-1.315v-.255h.768c0 .426.34.682 1.025.767v-.255l-.77-1.537h-.256l-.255.256v-.5l.255-.257-.768-.768v-.77l1.793-1.537V46.93l-.257-.255.77-1.794h.257l-.257 1.794.257 1.023-.513.77v.255l.256.256c.684 0 1.025.17 1.025.512v.256l-.513.513.513 1.536c-.3 0-.47.513-.513 1.536h-.255v-.512h-.513c.246.656.473 1.08.684 1.315h1.52l2.893-13.98c-.056-.43-.213-.655-.484-.655l-.77.514L89.346 39c.47 0 .813-1.793 1.026-5.38l-.256-.256.256-.256.5.512v2.307h.258l.75-.75.018-.087v-1.5h.305l3.72-17.973h.136l.608 38.5h7.565l16.55-38.5h.135l-7.97 38.5h8.916L131.858 5.9H117.48m122.034 2.64l.1-.1.18.18v.1h-.27zm-.183-.997v.453l-.27-.18.27-.363v-.1l-.088-.092h.088l.1-.27.092-.1c.104 0 .227.213.36.635l-.18.182-.273-.182zm-.27 1.45l-.273-.18-.27.1c0-.18-.06-.272-.183-.272l.183-.272.27.1h.1l.1-.1h.183c.092.242.18.363.27.363zm-.092 3.444h-.27v-.1l.18-.18h.1zm-.544-.543v-.1l.183-.18.18.18-.27.1zm0 .453h-.18l.18-.18zm-.27-1.268h.18l-.18.182zm.27-1.45h.092c0 .182.06.272.18.272l-.1.272h-.363l-.273-.272zm-.453 3.897l-.27.1-.18-.18v-.1h.452zm-.544-1.088l-.18.182h-.1l-.183-.182v-.1l.453-.1zm-.36.998h-.27c.06-.256.2-.408.452-.454l.1.1c-.1.243-.18.363-.27.363m-.727-1.27l-.1-.363.545-.18v.1c.24 0 .36.122.36.363l-.273-.1-.27.182zm.273.726h-.183v-.1h.183zm-.633-5.258v-.18h.18zm.724 3.355h.18v.1c0 .105-.15.196-.453.272l-.18-.272zm.453.182h.1v.18h-.1zm.544-1.542h.1V9.8h-.27zm.18-1.45h.1v.272h-.18l-.1-.1zm.183.816l.27.272h-.27zm0-2.448l.18-.363c.303.076.453.167.453.272v.1l-.1.1h-.1l-.092-.1h-.1v.182h-.27zm.815.907l-.1.363h-.363l-.1-.272h.1v-.18h.363zm1.088 1.723l-.36-.1.18-.182.18.182zm0-.907h.092v.18h-.092zm.092-1.904h.183l.088.272c0 .18-.06.272-.18.272h-.183zm-.183 3.808v.272h-.18l-.1-.272zm-4.713-.1l-.088.1-.275-.1V9.9l.275-.1v.1l.088.1zm-.544.634v-.18l.18.18zm-.54-3.173l.36-.635c.18 0 .27-.06.27-.18h.1l.092.1-.727.725zm-2.27 1.722h-.36l.1-.453-.273-.1.092-.454c-.303 0-.453-.24-.453-.726l.18-.453c.423 0 .633.18.633.544l-.27.635.453.725zm-.815.907V10l.27-.1.183.182zm.1.997h-.1l-.183-.182v-.1h.273zm-.905 1.993v-.27c0-.1.12-.182.36-.272l.27.363c0 .12-.2.18-.632.18m0-4.532h.088v.18h-.27zm0-.544v.1h-.183v-.272zm-.27-1.995h.18v.1h-.18zm-.545.997l-.18-.182h.27l.18.182zm0 5.62h-.18l-.27-.18.27-.544h.18l.18.453c0 .182-.06.272-.18.272M229 10h.1v.272l-.1.1-.18-.18zm-.453-2.448l.183-.18h.36v.453l-.18.18h-.275zm.1 3.264l-.27.1-.18-.182-.092-.1.183-.18h.18l.18.18zm-.724 1.812h-.1l.1-.1-.18-.18v-.1l.1-.1.363.27.452-.27c0 .302-.24.453-.724.453m.724.363l-.27.272v-.544h.1l.18.182zm-1.088-1.54l.183-.18.18.18v.1l-.273.1v-.1zm-.18-2.8l.27.1h.092V8.54l-.092-.1c.243 0 .363-.18.363-.544l.273.1v.454h-.183c-.044.18-.167.303-.36.363l.1.272-.1.27h-.092l-.27-.27zm-.1.907h-.1v-.15h.1zm0 1.36l-.363.18h-.18v-.1l.27-.272h.273zm-1.45-.453l-.183-.634v-.1l.092-.1c.424.182.635.332.635.454zm-.183 2.174l-.18.18h-.183v-.1l.1-.453.27.1zm2.9-5.983h.183v.18h-.363zm2.265 2.992h.183v.1h-.183zm.092-.725l.18-.18h.1l.1.634h-.1l-.27-.27zm-9 5.167l-.18.182h-.273v-.363h.455zm-.544-.1h-.18v-.1h.18zm-.1 1.632h-.183l.183-.18zm-.363 1.814h-.1v-.182h.1zm-.273-2.63h-.36l.27-.272h.1zm0 3.988h-.27l.18-.18h.1zm-.18.997c-.483 0-.724.15-.724.453l-.183-.18h-.088c-.532.665-.923.997-1.18.997h-.092c0-.12.092-.18.273-.18h.1c0-.242-.12-.422-.363-.544l.273-.544.1.1.453-.182c0-.422.123-.634.364-.634l-.1-.272.1-.454h.18l-.088.1.27.453-.183.725v.1h.183l.36-.27c0-.363.092-.544.273-.544h.1l.18.544c-.107 0-.167.12-.18.363m-.27.816l-.092.1h-.18l-.18-.18v-.182h.453l.1.272zm-2.087-7.342l.273-.1h.18l-.18.182h-.273zm.183-3v.182h-.092l-.18-.182zm.18.363v.272l-.273-.1.183-.18zm0-.635l.18.182h-.18zm-.18 1.27v-.182h.18l.1.363h-.1zm-.183.18h.183v.1h-.183zm.273.906l.18.18v.1h-.27l-.092-.272zm.363 6.708v.1a.24.24 0 0 0-.272.272h-.18c.06-.363.15-.544.27-.544zm.27-.182h-.18v-.1h.18zm-.1-.907v.272l-.18.182h-.183l-.1-.272.363-.182zm-.1-.272h.18v.1h-.18zm.18-4.985h.18v.1l-.18.18zm.456 5.076h.18c.303 0 .485.1.545.272v.1h-.816zm-.092-5.7h.092l.088.272h-.18zm.27 4.987h.273v.1h-.273zm.183-.454l.363.182v.1l-.092.1-.453-.1zm0-2.085l.18.182v.1l-.1.1-.273-.18zm-.183-2.085h.183v.1h-.183zm.453 1.995h.183v.1h-.183zm.453 2.902v.18h-.18v-.36zm-.18-1.904h-.1v-.18h.1zm-.364-2.358h.273v.1l-.273.1zm-2.084-2.446h-.273v-.18h.273zm-.453 3.534l-.27-.1v-.1l.27-.1h.1zm0 4.26h-.18v-.1h.18zm-.455-2.8l.184-.363.18.18-.18.18zm-.1-.272h-.18v-.1h.18zm-.27 2.446h-.1l-.183-.182v-.18h.183l.27.18zm-.1.816l-.183-.18v-.363l.273.18zm-.273-.726h.273v.1h-.273zm-.1 1.36h-.18v-.1h.18zm-.364-.997l-.18.182v-.1l.18-.18zm-.18.363h-.183v-.1h.183zm-.1.907h-.092l-.1-.363h.183zm1.448-5.62v.18h-.18l-.18-.18zm-.36-3.082h.18v.18h-.18zm.633 2.537v.18l-.1.1h-.093l-.1-.1.184-.18zm-.273-4.26h.184l.18.18v.1l-.18.182h-.184l-.1-.1zm3.148 43.544l.32.32-.065.065-.64-.004-.065-.064zm.5.898h-.26l-.06-.065.127-.128.256.13zm1.16-2.045l.128.128c-.14.14-.076.373.2.707-.385.127-.62.147-.705.06l-.2-.32c-.216.212-.385.255-.512.126zm.516-.5l.06.064-.192.2-.063-.065zm.575.323l.063.064-.45.446-.063-.064zm.516-.767l.255.13.065.064-.323.32-.257-.002zm.26-1.025c.117.118.655-.243 1.607-1.082v-.128h.13l-.003.256-.58.576.063.064.385.001.385-.382.128.128v.13h.128l.128.13-.453.832.323.065.125.13-.128.256-.065-.065h-.128l-.06-.065-.13.255-.256.128c-.13-.13-.257-.13-.385-.002l-.06-.065c.2-.212.28-.36.192-.447-.128-.128-.32-.065-.58.2l-.064-.067v-.128l-.063-.064c-.084-.086-.256-.002-.513.255l-.128-.13c.172-.17.216-.297.13-.384l-.32-.065zm2.756.077l.065.064-.193.192-.065-.064zm-.013 3.204l-.128-.256.13-.13.192.194zm1.1-4.418l.063-.064.192.192-.323.448h-.12c-.085-.085-.02-.277.196-.576m1.73-.057l.385-.255.065.065v.13c-.248.18-.42.222-.513.124zm.573 1.094l-.256-.003.063-.064H229.87zm1.164-2.304l.06.064c.065.064.043.214-.064.448l-.065.064-.2-.193zm.252.77l.063.064v.258l-.063-.064zm-5.857 5.552l-.06-.064.255.002.065.064zm-1.145-1.67v.128l-.513.126-.388.64c-.192.192-.512.2-.96.06l-.065-.064.257-.384c.13-.128.257-.126.385.002l.516-.5.257-.383c.063.064.3-.086.707-.447l.064-.064.128.257.255.13.065.064zm-2.123 1.85l-.065-.064c-.148-.45-.2-.707-.124-.77l.32-.062c.16.35.115.652-.13.895m-.513-.001c-.13.127-.236.148-.32.062l.32-.2.065.065zm-6.52-33.363h-.183v-.18h.183zm-1.1-.997l-.27-.272v-.1h.1c.1 0 .18.12.273.363zm0 .544h-.18v-.1h.18zm-.815-.363h-.1l-.092-.272.092-.272.27.182zm-.1-.997h.1v.18h-.1zm-.636.816h-.1l-.1-.1.18-.18zm-.18.997l-.1.1-.183-.18v-.1l.183-.18.1.272zm-1.12 29.562l-.063-.186.184-.064.065.186zm28.42-38.082v-.18l.096-.032.08-.366-.175.037v-.454l.1-.1.18.045.183-.857V9.8l-.363.18h-.1V9.8l.18-.545h.364l-.183.182.092.363.153-.716c-.04-.054-.063-.113-.063-.2h.092l.015-.016.224-1.06-.24.08-.092-.363h.363v.136l.375-1.77H213.86l-.697 3.375a1.77 1.77 0 0 1 .233-.003l.532.1-.303.5-.403-.205-.155.068-.257 1.24.08.013c.213.036.38-.303.503-1.016l.167.303c.3.052.728-.105 1.283-.47l-.044.268.745.126-.04-.42c.353-.583.7-.847 1-.794l.107.02-.023.133-.13.117c-.044.268.076.425.36.473-.032.178-.188.243-.472.196-.924 1.036-1.448 1.544-1.572 1.524l-.105-.02.1-.534.32.053.068-.402-.213-.036-.13.116-.08-.152-.107-.02-.684.16-.325.633-.13.116.167.304.367-.215-.047.268c-.353.054-.727.313-1.117.774l-.044.268.084.152c.16.027.304-.178.432-.616.405-.023.755-.147 1.05-.372l-.265.92.04.418-.107-.017-.024.133.084.153c.484-.378.877-.54 1.18-.5l.317.055.04.42c-.088-.014-.205.242-.35.768l-.023.133.085.152-.965.525-.084-.152-.107-.018-.4.48-.023.134.083.152a1.33 1.33 0 0 1 1.027-.24l.213.036.084.152-1.6.97-.424-.072.1-.536-.533-.1-.128.115-.083-.15-.108-.02c-.107.624-.265.92-.48.883l-.107-.017-.1-.184-.02.07h-.04l-7.78 37.528H231.5l1.572-7.734-.127.126-.128-.128.117-.236h-.476l.1.106-.063.064-.128-.002-.065.32-.195.193-.448-.323-.235-.358H215.3l2.7-12.968h16.213l1.62-7.97h-16.2l1.6-7.7-.023-.024.1-.543-.1-.1.173-.068.612-2.932h13.273l.2-.445c.3.076.453.167.453.272v.1h-.183l-.1-.1c-.016.07-.055.12-.093.173h3.673l.464-2.184-.055.016M233.14 46.4l.048-.233h-.045z"/><path d="M232.46 46.166h-.455l.036.04c.12.12.26.106.42-.04m-71.638-18.2h.183v-.096l-.183.1v.008M129.22 46.58v.13h.13l.132-.13c-.063-.206-.145-.36-.245-.47l-.258.548.24-.08m.526-.92c0-.108-.05-.228-.124-.356l-.138.3.262.066"/><path d="M161.823 39.67h-.18v-.1h.18zm0 1.722l-.1.1-.18-.182.27-.1zm-.633-12.327v-.1l.18-.18.092.272v.1l-.092.1zm0 5.347v-.18h.18zm.18 6.8h-.27v-.18l.18-.183h.1zm-.544-.725c-.044.18-.167.3-.36.36h-.092l.273-.634c.3.075.453.167.453.272v.1h-.183zm-.815-3.627v-.18l.27-.1v.1l.1.1v.1l-.1.1zm-.183.635v-.18l.183.18zm-.544-3.173l.364-.634c.18 0 .27-.06.27-.18H160l.1.1-.727.724zm-1.63-3.807h-.183v-.18c-.36 0-.604-.15-.724-.453h.1c.213-.242.424-.363.635-.363v.1l-.18.272c.12.302.244.453.364.453zm-.364 1.36h-.18c0-.182-.06-.272-.183-.272l.183-.363h.18l.273.182c-.047.3-.136.453-.273.453m-.27.726h-.183l-.1-.453h.363l.1.272zm0 3.444h-.363l.1-.453-.27-.1.1-.453c-.303 0-.453-.242-.453-.726l.183-.453c.42 0 .632.18.632.543l-.27.635.453.725zm-.816.906v-.18l.273-.1.18.18zm.092.997h-.092l-.18-.18v-.092h.272zm-.907 1.994v-.272c0-.1.12-.18.36-.27l.273.362c0 .12-.213.18-.635.18m-.1 2.356h-.092v-.18h.092zm-.183-9.425h.183v.1h-.183zm0 9.425l-.27.092c-.453 0-.696-.12-.727-.364l.544-.18c.12.18.273.272.453.272zm-1.54-.906c.18 0 .273-.12.273-.36l.452.1v.1l-.18.18.18.364-.635.1zm-.272 0h-.1v-.272h.1zm.545-1.722v.1l-.273.272V39.5h.1zm-.816-.27l.1-.1-.18-.182v-.1l.1-.1.363.272.453-.272c0 .3-.243.453-.727.453zm-.18-.997v-.1l-.092-.092.183-.18.18.18v.092zm.635-1.178h.18l.183.18v.182l-.273.1-.18-.18-.092-.1zm-.364-7.342v-.272h.364v.1zm-.18-1.542l-.183-.18v-.453l.273-.27h.1c.24.1.364.3.364.632v.092l-.183.18zm-.273-3.08v-.18l.183-.362h.1v.27zm.453.454h.273v.27h-.273zm.635 7.704h.183v.182h-.364zm-.1-3h.1c0 .18.092.272.273.272v.18l-.1.1-.273-.27zm.1-2.448h.092l.1.1-.183.182zm.453 3.082h.183v.272h-.183zm.183-3.806h.36v.362l-.1.1-.27-.1zm.36 3.806l-.1-.272.1-.272h.183l.1.544zm-.18 2.8l-.18-.18h.27l.183.18zm.1-1.36l-.363.18v-.1l.092-.453h.27l-.1.1zm-.27 6.255h.18l.18.454c0 .18-.06.272-.18.272h-.18l-.273-.18zm-.183-1.995h.1v.272l-.1.1-.18-.18zm-.27-4.622h.1v.18h-.1zm.36 1.993v.453l-.18.18h-.27l-.092-.454.183-.18zm.545-7.25h.18v.1h-.18zm.544 8.066h-.183v-.272l.183.182zm.1.453v.182h-.273l.183-.182zm.724 1.1h-.18v-.1h.18zm-.1-.634v-.183l.183-.18h.1l.1.634h-.1zm0-4.442h.273l.1.27-.1.272v.092l-.544-.18c.075-.304.164-.453.27-.453m-.18-5.983l.1-.1h.18v.363h-.27l-.1-.272zm.633 1.814v.182l-.27.27h-.183v-.18l.1-.453h.183zm.36.814h-.18v-.1h.18zm-.36-2.174l.18.182v.1h-.18l-.1-.272zm3.353 5.53l.183.18v.1l-.183-.18zm1.36.27v.1l-.18.18h-.183l-.1-.272zm-17.946 6.074h.1v.18l-.18.18h-.092l-.1-.1zm.18 3.988l.18-.364c.3.076.453.167.453.272v.1l-.1.1h-.092l-.1-.1h-.1v.18h-.272zm.816.906l-.092.362h-.36l-.1-.27h.1v-.182h.36zm-.908.997h-.18l-.092-.1.18-.18h.1zm-.453-3.898v-.27h.183l.092.1-.183.18zm-.1-1.18h.18v.092h-.18zm-.18-.362h-.18l-.1.092v-.272h.453v.272h-.1zm-.18 2.083h-.1v-.1l.18-.18h.183zm-.1-.995v.18h-.18zm-.18.542h-.273v-.1h.273zm-.363-1.8h.1v.18h-.27zm-.453-.544v-.1l.18-.18.1.272v.1l-.1.1zm0 5.347v-.18h.18zm-.272-2.447l-.1-.272h.453v.1l-.18.18zm-.816-.272l-.18-.18v-.1l.18.182zm-.725 2.63h-.092l.364-.635c.18 0 .272-.06.272-.18h.1l.1.1zm-1.723-3.807h-.18v-.18c-.363 0-.605-.152-.725-.453h.1c.212-.244.423-.364.635-.364v.1l-.18.272c.12.3.24.453.36.453zm-.36 1.358h-.18c0-.18-.06-.27-.18-.27l.18-.363h.18l.27.18c-.044.303-.135.453-.27.453m-.272.727h-.18l-.1-.455h.363l.1.272zm0 3.445h-.363l.1-.454-.272-.1.1-.453c-.3 0-.452-.242-.452-.725l.18-.455c.423 0 .635.183.635.544l-.272.635.453.725zm-.816.906v-.18l.272-.1.18.18zm.1.996h-.1l-.18-.18v-.092h.272zm-.905 1.995V48.1c0-.092.12-.18.36-.272l.272.362c0 .122-.212.182-.633.182m-.183-4.35l.183-.18h.1v.18zm.1 6.708h-.1v-.18h.1zm.092-7.433v.1h-.183v-.272zm-.273-1.995h.18v.1h-.18zm0 9.428l-.272.1c-.452 0-.695-.12-.727-.363l.545-.18c.12.18.272.272.453.272zm-1.54-.906c.18 0 .272-.12.272-.364l.453.092v.1l-.183.18.183.362-.635.1zm-.272 0h-.1v-.272h.1zm.544-1.722v.1l-.272.272v-.543h.1zm-.816-.272l.1-.1-.18-.18v-.092l.1-.1.363.272.453-.272c0 .302-.24.453-.727.453zM133 46.65l.182-.182.18.182v.1l-.27.1v-.1zm-.18-2.8l.272.1h.1v-.182l-.1-.1c.242 0 .362-.18.362-.544l.272.1v.453h-.18a.49.49 0 0 1-.362.362l.1.272-.1.272h-.1l-.272-.272zm-.1.906h-.1v-.18h.1zm0 1.36l-.36.18h-.182v-.1l.273-.272h.27zm-1.404-.183h-.13l.06-.36-.155-.544v-.1l.1-.092c.256.1.424.207.526.294h.27zm-.227 1.906l-.18.18h-.182v-.1l.092-.455.272.092zm.754-5.592c.306.264.7.44 1.182.527l-.524.8-.657-.132c0 .44-.133.658-.396.658zm.607-1.933h.1l.18.183v.1l-.36.272-.182-.36zm1.367 1.538v-.92l-.133-.8.215-1.176v-.1h.017l.032-.172.396.263h.263l.132-.13v.394l-.132.658.132.13-.395.66.263 1.183c0 .395-.308.7-.923.922l-.263-.527c0-.262.132-.395.396-.395m1.08-1.266l-.092.1.092.272-.363.18v-.1l.092-.455zm-.27-4.53v-.364h.36v.364l-.1.1zm.36 3.445l-.1-.272.1-.272h.18l.1.544zm-.198 2.82l-.18-.18h.27l.18.18zm-.18 4.895h.18l.183.455c0 .18-.06.272-.183.272h-.18l-.275-.182zm-.183-1.992h.1v.27l-.1.1-.18-.18zm-.363.633v.18l-.272.1-.27-.27.18-.18h.18zm-.1-3.08l.183-.182h.36v.453l-.183.182h-.27zm1.088-7.433h.18v.1h-.18zm1.36 9.6h-.18v-.092h.18zm-.1-.636v-.18l.18-.18h.092l.1.634h-.1zm0-4.442h.273l.1.272-.1.272v.1l-.545-.183c.076-.3.164-.453.272-.453m-.18-5.982l.1-.092h.18v.364h-.272l-.1-.272zm.633 1.812v.183l-.27.27h-.18v-.18l.1-.453h.183zm.364.817h-.18v-.1h.18zm-.364-2.176l.183.18v.1h-.183l-.1-.272zm4.26 1.904h.18v.18h-.18zm.905.1v.1h.183v.363l-.453-.1-.1.1-.1-.272zm.092-3h.18v.272h-.18zm.363 2.083l-.1.272h-.18v-.1l.18-.182zm.453 1.995v.272h-.1l-.092-.272zm-.1-1.54h.18l-.18.18zm1.992 6.798v-.1l-.092-.1h.092l.1-.272.092-.1c.107 0 .225.213.36.635l-.183.18-.27-.18h-.1v.453l-.27-.182zm.183-1.814h-.272v-.1h.272zm-.364-1.45c.18-.152.272-.302.272-.453h.27v.272h-.27c0 .3-.06.452-.183.452h-.1zm.635.905l.453-.1v.18l-.18.18h-.1l-.18-.18zm.363 1.814h-.18l.1-.544h.18l.1.272c0 .18-.06.272-.18.272m.364.906l-.273.1-.1-.362h.364zm.36.635h.18v.272h-.18zm-.816 0h-.1v-.18h.1zm-.272.272h-.27v-.182l.1-.1.18.18zm16.77-3.717a.57.57 0 0 1 .18-.316l-.065-1.125-.024-.008-.273.18h-.27l-.1-.364.544-.18v.1c.044 0 .063.025.1.033l-.036-.603c-.05.078-.2.147-.428.207l-.18-.272.452-.1h.15l-.425-7.397c-.05.003-.083-.01-.143.005l-.07-.276a.57.57 0 0 0 .193-.092l-.013-.218h-.143l.135-.135-.08-1.394-.055-.012-.092.1-.1-.272.22-.087-.005-.106-.197.052c-.183.05-.24.2-.167.486l-.587.005-.073-.276.355-.172v-.173H161v.085l.117-.057-.037-.137-.276.072-.107-.414.204-.346-.32-.654.276-.072-.072-.275-.688.178-.036-.137.413-.108-.107-.413-.552.144.197-.934.448.03.037.137-.1.175.143.55.14-.036.58-.593c-.66-1.127-1.315-1.938-1.96-2.43l.104-.173.724-.043-.353-.8.1-.173.137-.037c.4.583.665.856.803.82l.276-.07.055-.096-.013-.263c-.2-.682-.48-.998-.815-.9l-.07-.275.276-.072.58.8-.883-15.357H148.2l-14.246 30.186.06.3h.06l.092.1-.112.1.02.1h.264l.263-.263.263.263v.263h-.263l.132.527c-.352.264-.527.525-.527.8h-.132l-.132-.658h-.13c-.188 0-.307.14-.36.4h.26v.1l-.285.143-.01.148h-.13l-.133-.133h-.235l-.16.335v.454h-.215l-.065.14h.056v.272h-.183l-1.857 3.93.025.397-.262.262.133.66-.133.8h-.13l-.133-.132v.264l.396.395c-.243 1.25-.55 1.996-.922 2.238h-.13l.13-.66v-.656l-.13-.133-.397.133h-.123l-3.382 7.16h10.133l4.324-10.198h4.023c-.028-.06-.072-.097-.14-.097l.18-.272.272.1h.092l.1-.1h.18c.1.242.18.363.272.363l-.008.007h2.3l2.4-3.802-2.352-4.17h-4l.5-1.175-.016-.016v-.18h.1l.007.007 8.606-20.317h.135l.092 14.726.132.054-.132.134.04 6.24.185.06h.1v-.18l-.1-.1c.24 0 .36-.18.36-.544l.273.1v.453h-.183a.49.49 0 0 1-.361.363l.1.272-.1.27h-.1l-.183-.18v.013l.096 8.503h-.02l.127 9.665h10.133l-.8-13.92h-.197m7.173 2.1l-.005.32.052-.153c.024-.065 0-.12-.047-.168m.8-1.455l-.17-.06c-.115-.04-.204.025-.264.195l-.285-.2-.065 1.187c.115.008.205-.034.252-.168l.087.03.055.116.085.03.347-.166.03-.088-.257-.1.352-.453-.167-.346m-.588 2.507c.144-.6.156-.905.04-.945-.077.23-.167.385-.26.482l-.008.466.013.563.323-.335-.1-.23M204.035 19.6l-.18-.18h-.092c-.307.4-.565.65-.78.8h1.156l.037-.217-.14-.14v-.18h.193l.077-.465c-.175.073-.27.193-.27.374M181.1 13.707l.092-.453.27.1v.272l-.183.18h-.18zm.363-3l.1-.1c.423.18.633.332.633.453l-.54.363-.183-.635zm1.088 1.267l.27-.272h.273v.182l-.364.18h-.18zm.453-1.63h.1v.182h-.1zm.18-.725l.273.1h.1v-.182l-.1-.1c.243 0 .36-.182.36-.544l.275.1v.453h-.185c-.044.18-.164.3-.36.363l.092.272-.092.27h-.1l-.273-.27zm1.18-1.994h.18v.18h-.36zm.54.725v.453l-.18.182h-.273l-.088-.454.18-.18zm0-1.542l.1-.453h.273l-.1.1.1.272-.364.18zm.273 1.27l-.183-.182h.273l.18.182zm.544-.997h.18v.1h-.18zm.27 2.085h-.18v-.272l.18.182zm.092.635h-.27l.18-.182h.092zm.544 4.17c0 .12-.2.182-.636.182v-.272c0-.1.123-.182.365-.272zm0-2.085h.27v.272h-.088l-.183-.182zm0-1.268h.183v.1h-.183zm.1-.726l.18-.18h.1l.092.634h-.092l-.27-.27zm.544 1.178l-.452.1v-.182l.27-.1zm-.364-3c.424 0 .636.18.636.544l-.272.634.453.726-.1.272h-.363l.1-.453-.27-.1.1-.454c-.3 0-.453-.242-.453-.725zm.817-1.723l.092.272-.183.18h-.183l-.1-.453zm0-.907h.18l.273.182c-.047.303-.135.453-.273.453h-.18c0-.18-.06-.272-.18-.272zm2.54 2.448c.18 0 .27-.06.27-.18h.088l.1.1-.724.725h-.1zm.27-2.266l.18.18v.1l-.18-.182zm.453 5.347v.092l-.092.1-.273-.1v-.182l.273-.1v.1zm-.545.725v-.18l.18.18zm-5.8-.544l.18-.182h.1v.272l-.1.1zm.54 2.538h-.183l-.27-.18.27-.545h.183l.183.454c0 .18-.06.272-.183.272m-.273 1.723l-.18.18.18.363-.633.1-.1-.453c.183 0 .27-.122.27-.363l.453.1zm-.997.18h-.1v-.272h.1zm.544-1.722v.1l-.27.272v-.544h.1zm-.544-2.267l.185-.18h.18l.18.18v.182l-.27.1-.18-.182zm-.268 1.995l.088-.1-.18-.182v-.1l.092-.1.36.272.45-.272c0 .303-.24.453-.724.453zm-.273-1.178l.18-.182.18.182v.1l-.27.1v-.1zm8.52-6.526v.1l-.18.18h-.18l-.092-.27zm-.1 2.72v-.18h.183zm.544-3.083h.27v.1h-.27zm.453-.453v.182h-.183zm.36.726l-.27.272h-.1v-.1l.183-.18zm-.1 6.345v.18h-.088v-.18h.017v-.182h.183l-.183.182zm.453-1.54h.1v.18h-.27zm-.18-5.35h.18l.1.1-.18.18h-.1zm.453 3.898v.272h-.183l-.1-.1.183-.18zm.1.816l.27.272h-.27zm0-2.448l.18-.362c.303.076.453.167.453.272v.1l-.088.1h-.092l-.1-.1h-.092v.182h-.27zm.816.907l-.092.363h-.36l-.092-.272h.092v-.18h.36zm.273.907c.088.24.18.363.27.363l-.363.27-.273-.18-.27.1c0-.18-.063-.272-.183-.272l.183-.272.27.1h.092l.1-.1zm.18-.907v-.1l-.1-.1h.1l.092-.272.1-.1c.104 0 .227.213.363.635l-.183.182-.27-.182h-.092v.454l-.27-.182zm-.1-1.904h.273v.1h-.273zm.544-.453l.453-.1v.18l-.183.18h-.1l-.18-.18zm.365 1.813h-.185l.1-.543h.183l.092.272c0 .18-.06.27-.18.27m.36.907l-.27.1-.088-.363h.36zm.453 1.632l-.18.18h-.1v-.363c-.36 0-.54-.12-.54-.363h.088l.092-.1h.18c.092 0 .243.2.453.634m-.088-.997h.18V9.7h-.18zm.088 2.174h-.088l-.092-.1.18-.18zm.02 1.632h-.092v-.182h.092zm-.183-.272l.183-.18v.18zm.364 1.45l-.273.1-.27-.18.18-.18h.364zm.25-1.994l.1-.1h.273v.1l-.273.1h-.1zm.1-1.542h.092v.182h-.092zm.273-.543v.18l-.18-.18zm.18 5.983v.1l-.27.27-.1-.1v-.1l.27-.18zm.092-1.088l.18-.454-.1-.1v-.1c.1-.242.183-.363.27-.363h.1l.183.18-.183.182v.272c.243 0 .363.06.363.18v.1c0 .302-.27.664-.815 1.1l-.092-.272.544-.544v-.1zm1.38 4.17h.18v.18h-.18zm.635-.907v.363h-.1l-.1-.363zm-.1-.635h.183v.1h-.183zm.18-.18l.18-.18v.1l-.18.18zm.36.816h.183v.1h-.183zm.273-1.27h.27v.1h-.27zm.092-.453h.18l.273.182-.18.18h-.092l-.18-.18zm.632-3.534v.18h-.18l-.18-.18zm-.36-3.08h.18v.18h-.18zm.36-1.723h.183l.183.18v.1l-.183.18h-.183l-.1-.1zm.544 4.804l-.1.272-.27-.1v-.1l.27-.1zm.092-3.444h.27v.18h-.27zm.635-.182v.19h-.1l-.183-.182zm.18.363v.272l-.27-.1.183-.182zm0-.634l.183.18h-.183zm.453 7.976v.272l-.18.18h-.183l-.1-.272.365-.18zm-.088-.272h.18v.1h-.18zm.18-4.986h.183v.1l-.183.18zm0 6.164h-.18v-.1h.18zm-.27.272c-.183 0-.273.1-.273.272h-.18c.06-.362.152-.544.27-.544l.183.182zm-.453-7.614h-.18v-.1h.18zm0-.27v-.18h.18l.1.36h-.1zm.092 1.086l.18.182v.1h-.27l-.1-.272zm-.273.997v-.1l.273-.1h.18l-.18.18zm-.636 5.076h-.18v-.1h.18zm-.453-4.894l.183-.182h.1v.182l-.1.1h-.1zm0 2.085l.183-.362.183.18-.183.18zm-.1-.272h-.18v-.1h.18zm-.363 3.263l-.18-.182v-.363l.27.182zm-2.536.634l-.273-.272v-.1h.1c.092 0 .183.122.273.363zm0 .544h-.183v-.1h.183zm-.907-1.36h.092v.182h-.092zm.092.997h-.092l-.1-.272.1-.272.27.182zm-.727-.18h-.092l-.1-.1.183-.18zm-.292-3h.183v.1h-.183zm.1 3.987l-.088.1-.183-.18v-.1l.183-.182.088.272zm-.453-6.707l.092-.1.18.18v.1l-.273.1zm-.27 1.904v-.1l.1-.1.18.18zm.18 1.18h-.1l-.1-.272h.27zm-.453-2.72h.453v.18h-.27zm-.197-.544v-.18l.27-.1h.18c0 .078-.083.15-.252.2v.06h-.088v-.033l-.1.033m.18-3h-.27v-.182l.092-.1.18.18zm.18.453l-.36-.1.18-.182.18.182zm-.36.996h.27v.272h-.183zm.924.18v-.18h.183zm.07.272l.1.453-.183.182v-.182h-.18l-.092.1v.1l.092.1h-.18l-.095-.272-.45.1v-.454l.088-.1.724.182v-.182zm-.636-2.356h.1v.182h-.1zm.185.997l-.185.182.1.36c.243 0 .363.12.363.363h-.088v.18c-.12 0-.212-.18-.275-.544l-.36.18h-.088v-.18l.18-.543zm-1.07 2.9h-.1v-.182h.1zm-.1.272h-.273v-.1l.183-.18h.1zm-.544-.544v-.1l.183-.182.18.182-.27.1zm0 .453h-.183l.183-.18zm-.27-1.27h.18l-.18.182zm.38.544h-.183v-.18zm.27-.907v.272h-.27v-.18zm-.197-.544h-.365l-.27-.272.453-.27h.1c0 .18.06.27.18.27zm9.353 5.982h.183c.3 0 .48.1.544.272v.1h-.815zm-.088-5.7h.088l.092.27h-.18zm.27 4.986h.27v.1h-.27zm.183-.453l.36.18v.1l-.1.1-.453-.1zm0-2.085l.18.18v.1l-.1.1-.27-.182zm-.183-2.085h.183v.1h-.183zm.453 1.994h.18v.1h-.18zm-9.368 36.966l.123.06-.276.408-.093-.28zm.013-2.078l.093-.032-.213.6-.093.032-.032-.1zm.308 3.315l.184-.063.06-.125c-.063-.185-.003-.3.183-.374l.128.06.096.6.125.06c-.38.304-.555.5-.524.594l-.404.034-.187-.246.063-.125-.284-.525.247-.188c.123-.043.227.06.313.306m.495-4.005l.06-.124.184-.064.25.122.065.185-.467.16-.188-.246zm.84.335l.093-.032c.307-.866.593-1.344.856-1.433l.095-.033c.04.126-.032.218-.216.282l-.095.032c.087.246.273.4.563.43l-.085.65-.128-.06-.4.345c.15.432.1.692-.148.777l.188.246.064.496-.184.062.063-.123-.44-.37-.07-.805-.032-.094-.184.064-.276.405c.127.372.1.6-.1.652l-.093.033-.375-.494c.1-.037.127-.18.06-.435.495-.17.687-.407.58-.717zm1.52.206c.065.392.037.6-.085.652l-.25-.122-.03-.092a.26.26 0 0 0 .183-.376zm.26 1.363l-.307.3-.093.033-.095-.28.12-.25.188-.063zm-.397.654l-.032-.093.185-.064.033.092zm-.38-1.115l-.032-.1.185-.065.03.094zm-.073 2.514l-.435-.06-.032-.1.06-.126.497-.066zm-.08 1.582l-.063-.185.095-.033.063.185zm.076-2.203l.03.094-.28.095-.03-.094zm-.875-.737l-.032-.094.836-.285.035.404-.188.064c-.308.105-.527.076-.65-.1m-.117.87l-.063-.186.185-.064.127.372zm-.076 2.202l-.063-.184.185-.064zm-.367-3.5l-.095.033-.06-.186.276-.095zm.104 1.52l-.065-.186.093-.03.065.185zm1.15 2.452l-.016-.043.27-.092 5.375-25.87H187.33l-1.487 7.16h6.416l-1.08 4.93c-.27 1.307-.708 2.443-1.317 3.4S188.59 45.37 187.868 46s-1.463 1.103-2.228 1.417-1.44.474-2.027.474c-1.62 0-2.78-.585-3.476-1.757s-1.05-2.837-1.05-4.998c0-1.575.17-3.376.508-5.403l1.248-6.754c1.197-5.728 2.54-9.896 4.02-12.54-.08-.057-.136-.13-.147-.224l.33-.1.05-.094c1.576-2.612 3.537-3.92 5.877-3.92.46 0 .86.075 1.24.183l-.156-.23.453-.1h.183v.1c0 .1-.14.186-.407.258.776.242 1.4.697 1.828 1.412.255.42.443.87.6 1.338.03-.004.052-.016.084-.016h.1l.1.272.092.1h.088l.092-.1.18.272v.1c-.292 0-.46.042-.517.12a7.76 7.76 0 0 1 .179 1.638c0 1.08-.1 2.005-.268 2.77h8.038c-.001-.24-.12-.42-.36-.54l.27-.544.1.1.453-.18c0-.423.123-.635.365-.635l-.092-.272.092-.454h.18l-.092.1.273.453-.18.726v.1h.18l.34-.258c.2-1.338.303-2.528.303-3.567 0-.15-.013-.3-.016-.436h-.084v-.18h.076l-.016-.453h-.06l.057-.06c-.04-.532-.112-1.037-.205-1.523l-.125.04v-.18h.097c-.4-1.995-1.276-3.614-2.63-4.84-1.476-1.338-3.667-2.164-6.557-2.482-.013.224-.07.342-.175.342h-.088v-.272c.033-.028.047-.057.075-.085-.845-.086-1.744-.137-2.7-.137-2.013 0-3.84.242-5.513.677h.17l.092.272-.092.27v.1l-.544-.182c.052-.208.112-.34.18-.404a16.3 16.3 0 0 0-1.995.676h.005v.18h-.095v-.148c-.1.043-.213.073-.315.12-2.295 1.037-4.3 2.58-5.976 4.627s-3.107 4.605-4.256 7.666-2.15 6.62-3.005 10.673c-.585 2.747-1.036 5.28-1.35 7.6-.177 1.293-.297 2.5-.376 3.672l.03-.084.46.065.03-.085-.172-.06.092-.256.228-.1.065-.458.172.06.06-.17-.427-.15.028-.085.26.092.088-.258-.34-.12.437-.423.227.175-.03.087-.115.056-.12.34.085.03.516-.107c.052-.83-.003-1.5-.17-1.982l.117-.055.396.234.096-.543.115-.056.087.03c.003.45.047.7.132.72l.17.06.117-.055c.18-.513.156-.8-.073-.9l.06-.17.172.06.04.974-.205.314.167.346.087.03.18-.514.172.06.055.116-.03.084-.115.056-.03.086.1.23.087.032.547-.193.112.23-.028.086c-.23-.08-.365-.062-.404.05l-.15.427c-.17-.06-.276-.032-.316.082l-.1.257.055.116-.552.478-.065.457-.263.483-.1.83c-.237-.053-.38-.007-.433.136l-.028.084c-.123.343-.068.554.16.633l-.06.172-.297.57c.185.065.28.257.28.577l-.18.513-.172-.06-.032.087.172.06-.24.684-.23.112.112.23-.177.228-.07.744-.083-.03-.07.745-.292.28c-.025.1-.04.182-.057.268.055.247.107.498.175.733l.01.004.2-.6.085.03-.004.286.315-.082.036-.37.5-.88-.2-.548.148-.43c.156.055.36.03.604-.076l.087.03-.097.544c-.12.34.4.714 1.532 1.114l-.03.085-.375-.035-.028.086.056.116-.06.17-.43-.15c.08-.228-.05-.403-.393-.522l-.085-.03-.115.055-.195-.26c-.172-.06-.28-.034-.32.08l-.18.512.055.115-.26.198-.05 1.23-.295.568c-.06.172.024.298.25.378l-.156.076c.328.714.72 1.36 1.18 1.918 1.62 1.958 4.436 2.938 8.442 2.938 2.297 0 4.357-.428 6.183-1.284s3.5-2.228 5.032-4.12h.135l-.877 4.458h6.934"/></g></svg>