<svg xmlns="http://www.w3.org/2000/svg" width="199" height="67" viewBox="25.194 8.419 198.425 66.308"><path fill="#ce0909" d="M25.194 41.574v33.152H223.62V8.42H25.194v33.153"/><path fill="#fff" d="M111.73 15.82l-14.34.042-.007 50.24h19.836l29.495-50.272h-15.32l-20.68 37.882 1.017-37.893zm-25.192.058H67.716L39.392 66.102h15.2l5.446-9.628c1.156-1.976 1.302-2.505 5.214-2.505l8.7.025.153 11.973h12.78l-.334-50.1zm-11.8 27.278l-7.372.007 6.85-12.923.523 12.916zm103.455 11.333c-7.79 0-14.6-4.24-14.59-4.27l-4.38 11.39c.01.328 9.85 5.8 19.116 5.8 10.428 0 19.262-7.9 19.262-17.4 0-10.415-12.02-13.05-12.02-17.793 0-2.1 2.027-3.825 5.214-3.825 2.893 0 5.21.793 9.992 3.035l4.633-10.68c-.144-.5-7.818-5.006-14.92-5.006-10.423 0-20.563 6.852-20.563 17.398 0 10.15 13.04 13.316 13.04 17.664.001 1.713-1.597 3.688-4.782 3.688zM148.5 66.23l18.543-50.366-14.8.026-18.428 50.333 14.675.007z"/></svg>