<svg xmlns="http://www.w3.org/2000/svg" width="199" height="67" viewBox="25.194 8.419 198.425 66.308" fill-rule="evenodd"><path fill="#1f4a89" d="M160.066 33.227l.168 9.873c.06.71-.098.87-.807.865-1.348-.01-2.696-.03-4.044 0-.52.01-.744-.167-.722-.704.008-.2.085-.47-.18-.562-.217-.076-.325.15-.467.268-1.9 1.59-4.856 1.775-6.906.438-1.082-.707-1.655-1.777-1.67-3.038l-.001-13.528c.002-.867.05-.898.916-.902l3.6-.008c.777 0 .923.156.926.95l.056 12.292c.013 1.23.638 1.838 1.735 1.86 1.284.027 1.968-.627 1.975-1.967l.025-12.162c0-.906.062-.97.92-.97h3.728c.54-.004.815.19.797.803l-.017 5.974c.008.173-.02.346-.034.52z"/><path d="M111.246 53.08c1.297-.02 2.317.998 2.318 2.3 0 1.132-1.037 2.18-2.173 2.195-1.152.018-2.176-.977-2.188-2.126-.016-1.355.846-2.36 2.043-2.38zm-.234 3.076c-.053.285-.007.525.337.493.33-.033.188-.297.167-.488.196-.057.494-.008.347-.396-.046-.122-.03-.26.157-.255.074.152.006.427.286.405.24-.02.257-.234.282-.422.043-.298-.133-.36-.366-.357-.088-.154.05-.43-.213-.48-.2-.04-.242.188-.347.3-.224.267-.418.224-.58-.08-.06-.1.06-.326-.18-.333l-.318.458c-.144.005-.16-.328-.337-.164-.2.188-.216.463-.158.723.056.247.167.447.474.328.162.064.243.276.448.257zm.914.838c.788-.135 1.172-.602 1.204-1.307.057-1.268-.116-1.654-.96-1.948.945 1.193 1 2.277-.243 3.255zm111.238-14.47c.003.737-.676 1.6-1.267 1.628-1.138.035-1.982-.613-2.02-1.552-.032-.796.887-1.626 1.797-1.62.722.006 1.487.798 1.5 1.543z" fill="#8da4c1"/><path fill="#f09321" d="M192.863 46.213c.69-.112 1.384-.067 2.077-.067l17.7-.007c.085 0 .17-.01.254.003.136.018.337-.066.38.128.05.237-.174.25-.325.305-1.113.4-2.28.553-3.417.845l-8.375 1.955-4.7 1.13-7.34 1.727-17.198 4.005-2.98.75c-1.34.247-2.606.794-3.972.9-.73.06-1.416.378-2.136.534l-7.832 1.813-6.044 1.454-5.337 1.19-3.854.925-4.707 1.1-5.438 1.333-2.574.595c-.66.13-.807-.03-.807-.75l-.001-18.796c0-1.075.067-1.145 1.103-1.145l49.537-.01c.388 0 .746.1 1.116.164.517 2.99 1.46 4.074 4.042 4.75 2.174.566 4.45.618 6.672-.05 1.33-.4 2.41-1.133 3.182-2.352.48-.753.824-1.547.986-2.428z"/><path fill="#1f4a89" d="M192.863 46.213c-.162.88-.507 1.675-.983 2.43-.77 1.22-1.852 1.952-3.182 2.352-2.22.67-4.498.617-6.672.05-2.58-.675-3.525-1.758-4.042-4.75l.126-.084c1.812-.148 3.623-.04 5.435-.05.005 1.212.3 1.752 1.1 2 1.454.453 2.55-.395 2.584-2 .388-.063.423-.368.425-.678l-.01-3.185c-.001-.195.015-.41-.2-.504-.225-.1-.41.012-.564.177-1.756 1.908-3.89 1.77-6.015 1-1.547-.562-2.33-1.945-2.567-3.58-.45-3.1-.472-6.227.04-9.304.433-2.597 1.878-4.084 4.57-4.25 1.19-.073 2.357.005 3.37.782.356.274.68.577.92.967.09.144.18.335.378.283s.296-.228.313-.442l.005-.064c.136-1.16.136-1.157 1.262-1.15l2.715-.004c.52-.01.752.15.75.745l.005 18.198c.002.303-.37.735.177.946l.06.115zm-9.836-11.204l.003 1.43c.026.952.046 1.906.403 2.8.398 1.01 1.576 1.54 2.56 1.147.83-.33 1.117-1.063 1.264-1.875.33-1.846.256-3.71.203-5.572-.03-.992-.068-1.99-.416-2.94s-.873-1.3-1.954-1.262c-.778.02-1.393.52-1.636 1.365-.46 1.603-.388 3.256-.428 4.898z"/><path d="M58.85 41.836v-13c0-.82.002-.815.818-.806l4.738.036c.598-.007.832.206.83.828l-.006 14.18.012 4.616c.002.27-.078.657.233.74.338.1.486-.288.616-.548l2.074-4.23 5.042-10.14a153.83 153.83 0 0 0 2.3-4.664c.365-.77.765-.837 1.435-.824l4.675-.005c.57 0 .7.16.435.716L80.8 31.27 73.4 45.6l-3.173 6.242-1.87 3.52c-.163.313-.398.4-.72.4-2.738-.004-5.477-.01-8.214.006-.493.003-.604-.228-.603-.677l.005-13.27zm41.48 15.194c-2.048-.086-4.042-.432-5.957-1.244l-2.058-.965c-.53-.288-.7-.606-.462-1.252l1.525-4.812c.204-.662.3-.75.86-.368 1.573 1.093 3.37 1.58 5.175 1.962 1.473.3 3.233-.07 4.03-1.223.713-1.032.488-2.657-.572-3.546l-3.613-3.127c-2.254-2.316-2.747-5.488-1.72-8.456 1.008-2.924 3.115-4.695 5.812-5.72 2.032-.773 4.187-.876 6.343-.452 1.558.306 3.052.785 4.446 1.582.357.204.453.4.304.833l-1.516 4.54-.135.364c-.162.56-.432.573-.883.27-1.694-1.135-3.544-1.695-5.567-1.326-1.1.2-1.956.785-2.224 2-.2.963.232 1.728.738 2.452.606.87 1.5 1.44 2.284 2.102.973.8 1.868 1.715 2.534 2.77a6.71 6.71 0 0 1 1.032 4.069c-.087 1.297-.245 2.56-.84 3.76-1.134 2.292-2.783 3.972-5.108 4.938-1.422.588-2.886.913-4.43.84zm-47.1-15.127v12.812c0 .974-.06 1.003-1.005 1-1.515-.02-3.03.007-4.546.01-.785.001-.934-.132-.92-.945l.022-5.642c.03-.445-.32-.512-.578-.532-.7-.058-1.384-.047-2.077-.05-1.4-.008-2.822.01-4.232-.02-.662-.013-1.03.302-1.315.893L36 54.545l-.293.64c-.14.302-.355.453-.698.442-1.472-.048-2.942-.08-4.413.022-.416.028-.956.1-1.2-.193-.26-.313.192-.692.353-1.02l4.958-10.065 3.623-7.124 3.322-6.694c.353-.728.814-1.408 1.063-2.2.095-.3.332-.347.607-.346l9.222.01c.674-.005.68.376.68.872l-.003 13.004zm-6.5-2.8v-1.95L46.707 35c-.006-.3-.03-.675-.362-.756-.34-.084-.412.297-.533.535l-.773 1.547-1.77 3.188-1.707 3.464c-.23.527-.143.762.426.775a102.92 102.92 0 0 0 3.968.009c.532-.01.8-.253.78-.9l-.017-3.767z" fill="#cb0202"/><path d="M126.232 31.1l.001-11.64c0-.87.047-.9.896-.9l10.297.022c1.004.01 1.996.162 2.958.545 1.993.792 3.015 2.296 3.308 4.425.15 1.108.077 2.188-.176 3.268-.37 1.586-1.433 2.52-2.78 3.2-.17.085-.363.12-.526.215-.2.115-.577.07-.526.442.044.328.383.318.6.357 1.3.227 2.375.848 3.098 2.012.486.78.653 1.684.78 2.578.237 1.677.12 3.328-.67 4.853-.744 1.436-1.977 2.27-3.46 2.72-1.648.502-3.35.53-5.052.53-2.632-.003-5.264 0-7.896 0-.77 0-.86-.094-.86-.905l-.001-11.704zm5.5 5.176v2.73c-.001.774.143.956.917.954l3.214-.093c1.132-.1 2.07-.586 2.562-1.7.42-.96.423-2 .23-2.995-.228-1.173-.917-1.944-2.08-2.267-1.4-.393-2.845-.168-4.267-.222-.42-.016-.58.262-.577.68l.001 2.923zm-.002-10.754l.004 2.598c-.013.485.212.67.644.668l3.593-.067a2.54 2.54 0 0 0 1.79-.992c.82-1.072.94-2.326.43-3.554-.503-1.207-1.46-1.87-2.778-1.88l-3.028-.027c-.45-.01-.658.194-.655.657v2.588zm72.722 10.008c-1.4 0-2.82.008-4.23-.005-.442-.004-.77.133-.78.625-.023 1.06-.054 2.134.277 3.15.25.768.712 1.37 1.48 1.735 1.402.666 2.798-.697 2.907-1.892.094-1.004.163-1.087 1.13-1.086l3.4.003c.63.004.715.15.617.787-.5 3.235-2.96 4.834-5.845 5.098-1.3.12-2.65.153-3.965-.104-2.502-.5-4.247-2.086-4.73-4.782-.4-2.295-.466-4.6-.24-6.9.15-1.563.5-3.084 1.552-4.302 1.096-1.267 2.582-1.8 4.147-1.956 1.646-.152 3.313-.16 4.944.327 2.108.63 3.394 1.985 3.945 4.2.356 1.432.35 2.86.384 4.306.015.605-.23.832-.836.814l-4.168-.01zm-2.475-2.57h1.833c.4.002.576-.2.585-.595a6.67 6.67 0 0 0-.282-2.114 2.12 2.12 0 0 0-1.979-1.538c-1.083-.05-1.83.403-2.24 1.325-.335.755-.327 1.56-.355 2.356-.015.4.224.575.608.57l1.83-.002zm-30.77-9.948l-.01-3.706c-.01-.54.134-.797.7-.782l3.662.01c.4-.005.596.193.6.578l-.04 7.276.04 3.437.02 11.82c.002.517-.124 1.02-.055 1.55.038.3-.174.5-.52.5l-3.537-.004c-.417-.001-.612-.223-.6-.648.002-.217.01-.436-.02-.648-.02-.172-.093-.34-.297-.37-.166-.023-.274.07-.365.204-.9 1.333-2.2 1.77-3.724 1.76-1.02-.008-2.013-.04-2.913-.625-1.48-.963-2.058-2.458-2.262-4.135-.307-2.522-.188-5.064-.112-7.593.057-1.86.484-3.637 1.972-4.95.563-.498 1.235-.7 1.896-.793 1.2-.188 2.434-.133 3.588.4.496.23.77.73 1.22 1.02.18.117.343.28.57.164s.215-.352.215-.57v-3.9zm.006 11.86c-.02-1.7.032-3.003-.24-4.312-.2-.9-.568-1.6-1.404-1.915-.9-.328-1.863.06-2.436.883-.337.485-.48 1.072-.524 1.646-.18 2.243-.226 4.5.002 6.734.08.8.133 1.6.56 2.306.282.47.602.893 1.186.97 1.496.198 2.417-.55 2.588-2.102.166-1.523.37-3.045.268-4.2z" fill="#1f4a89"/><path fill="#cb0202" d="M90.22 28.037l2.584-.065c.403-.038.506.205.375.6l-2.312 6.824-1.946 6.09-2.785 8.392L84.5 55.1a.74.74 0 0 1-.792.588l-5.162.072c-.477.005-.56-.273-.413-.697l2.388-6.97 1.753-5.274 3.105-9.174 1.567-4.7c.147-.567.496-.975 1.192-.92.7.054 1.388.01 2.082.01z"/><path fill="#f09321" d="M204.325 67.115c-4.398 0-8.8 0-13.197-.001-.168 0-.337-.001-.505-.003-.153-.002-.314-.025-.377-.184-.08-.204.074-.345.218-.415.748-.363 1.353-.946 2.048-1.386.84-.532 1.638-1.117 2.436-1.71l3.628-2.664 5.09-3.64c1.336-1 2.728-1.938 4.1-2.908 1.464-1.043 2.9-2.15 4.395-3.125.94-.608 1.813-1.313 2.72-1.96 1.07-.766 2.182-1.496 3.173-2.382.127-.112.27-.238.45-.13a.41.41 0 0 1 .215.43c-.146 1.23-.06 2.464-.062 3.696l-.004 15.47c0 .8-.1.906-.867.906l-13.45.001z"/><path fill="#1f4a89" d="M216.112 34.578v4.55c.003 1.375.488 1.882 1.824 1.914.872.022.868.027.762.938-.04.363-.054.73.032 1.097.07.306-.01.598-.36.634-1.825.188-3.675.408-5.365-.56-1.1-.63-1.78-1.575-1.768-2.99l-.04-5.646.045-8.182.005-2.583a.7.7 0 0 1 .477-.745l3.566-1.468c.672-.273.814-.17.817.59l.002 3.35c.005.55.313.757.823.738l1.39-.005c.39-.006.58.155.57.58-.05 2.31.296 2.107-1.947 2.078-.59-.007-.847.22-.842.836l.007 4.875z"/></svg>