<svg xmlns="http://www.w3.org/2000/svg" width="199" height="67" viewBox="25.194 8.419 198.425 66.308"><path fill="#194891" d="M25.194 41.574v33.152H223.62V8.42H25.194v33.153"/><path fill="#fafafb" d="M86.994 26.707c-.024.06-.033 6.452-.02 14.205l.02 14.096h5.747c6.396-.002 6.452-.005 8.158-.576 3.745-1.255 5.774-3.942 5.77-7.648-.004-3.128-1.21-5.3-3.63-6.5l-.578-.3.244-.168c1.553-1.08 2.543-3.355 2.537-5.847-.008-3.678-2.22-6.2-6.25-7.128-.96-.22-11.924-.343-12.003-.132m60.37-.046c-.03.03-.055 2.005-.055 4.383l-.043 4.327c-.02 0-.272-.187-.555-.417-3.06-2.465-8.25-2.355-11.7.245-6 4.53-5.786 14.103.427 18.233 3.625 2.414 8.73 2.272 11.597-.315.426-.384.438-.36.438.707v.896l4.508-.045V26.65l-2.278-.02c-1.256-.014-2.308.002-2.34.034m54.155 1.077c-.132.13-.062 20.554.07 21.327.773 4.45 4.465 6.872 9.112 5.988.015-.004.015-.937 0-2.075l-.02-2.07-1.116-.023c-2.004-.043-2.9-.653-3.313-2.264-.148-.587-.156-.948-.156-5.737v-5.11l4.504-.046.047-4.09-4.5-.045-.084-5.87-2.238-.02c-1.23-.013-2.262.003-2.292.035m-103.55 3.4c2.16.72 3.11 3.23 2.06 5.443-.68 1.438-1.554 1.698-5.628 1.663l-2.687-.022-.043-7.328 2.875.03c2.7.03 2.904.042 3.423.214m65.876 2.082c-8.825 1.17-12.452 12.508-6.05 18.912 3.557 3.555 9.646 4.062 13.04 1.08.422-.37.447-.33.45.655-.001 3.063-1.228 5.5-3.246 6.453-2.912 1.38-6.38.4-8.457-2.38-.646-.86-.55-.8-.934-.516-.165.13-.98.71-1.813 1.292s-1.508 1.077-1.508 1.102c0 .187 1.086 1.607 1.692 2.214 4.3 4.313 12.163 4.357 16.135.097 1.27-1.362 2.046-2.892 2.522-4.983l.188-.818.053-22.694h-4.553v.9c0 .5-.02.9-.042.9s-.237-.16-.48-.356c-1.813-1.484-4.518-2.21-6.997-1.88m23.81-.03c-6.865.866-11.04 8.264-8.55 15.148 2.628 7.26 11.77 9.154 17.375 3.604.466-.463.848-.88.848-.928s-.8-.646-1.78-1.332l-1.78-1.25-.42.46c-3.178 3.477-8.756 2.157-9.944-2.35l-.112-.422h7.765c7.49 0 7.764-.004 7.843-.152.154-.293.273-1.697.227-2.7-.297-6.286-5.472-10.833-11.465-10.077m-78.782 6.83c.037 7.56.05 7.655 1.192 9.942 3.778 7.55 14.878 6.716 17.59-1.323.594-1.763.58-1.545.606-8.62l.024-6.387h-4.63l-.03 6.182c-.033 6.51-.033 6.508-.416 7.584-1.76 4.944-8.168 4.58-9.438-.536-.248-.99-.287-2.078-.3-7.668l.003-5.56h-4.64l.03 6.387m81.13-2.485c1.568.336 2.908 1.43 3.72 3.04.338.672.58 1.477.48 1.58-.04.044-2.3.064-5.443.053l-5.37-.02.02-.328c.027-.447.742-1.868 1.248-2.48 1.3-1.6 3.304-2.28 5.35-1.84m-47.834.018c4.68.85 6.73 6.932 3.683 10.934-2.67 3.51-7.66 3.06-9.712-.88-2.554-4.91 1.07-10.956 6.03-10.055m24.166.014c4.446.997 6.368 6.79 3.565 10.748-3.21 4.528-9.596 2.732-10.574-2.976-.79-4.593 2.905-8.692 7.01-7.772m-69.265 4.825c3.9.245 5.854 2.963 4.377 6.082-.875 1.85-2.202 2.284-6.817 2.253l-2.935-.022-.02-4.128c-.017-3.247.001-4.146.083-4.195.144-.1 3.795-.082 5.31.012"/><path fill="#d95e26" d="M37.723 26.686c-.053.085-.063 28.208-.012 28.26.02.02.903-.552 1.964-1.268l38.33-25.805c.922-.616 1.675-1.154 1.675-1.193 0-.1-41.893-.096-41.954.002"/><path fill="#f5b51a" d="M79.576 27.497c-.12.137-2.908 4.256-3.082 4.552a8.19 8.19 0 0 1-.311.447c-.125.17-.228.33-.228.36s-.103.195-.226.36l-.312.44a54.22 54.22 0 0 1-.744 1.097l-.744 1.104c-.046.08-.176.273-.29.43l-.29.43c-.195.34-1.075 1.6-1.135 1.625-.034.015-.063.058-.063.1s-.374.62-.833 1.295l-3.344 4.97a6.89 6.89 0 0 1-.288.428l-.3.43c-.045.08-.38.574-.746 1.104l-.744 1.1-.29.43-.288.43c-.197.34-1.077 1.6-1.135 1.626a.12.12 0 0 0-.065.104c0 .093-.344.598-.434.64-.035.015-.062.063-.062.1s-.102.222-.228.387l-.31.445a78.07 78.07 0 0 1-1.8 2.646c-.13.17-.215.346-.185.4.034.057 3.145.086 9.39.086h9.337V41.202l-.065-13.848c-.037 0-.126.064-.194.143"/></svg>