<svg xmlns="http://www.w3.org/2000/svg" width="199" height="67" viewBox="25.194 8.419 198.425 66.308" fill-rule="evenodd"><path fill="#017e33" d="M125.078 102.37c-33.9 0-67.803-.001-101.703.01-.4 0-.49-.09-.49-.49V-12.106c0-.398.1-.488.488-.488H226.78c.398 0 .488.1.488.488V101.89c0 .4-.09.49-.488.49l-101.703-.01zm-70.19-53.254l9.42.006c.32 0 .597.006.668-.413l.742-4.135c.07-.366-.06-.486-.41-.48l-1.915.003c-3.477.001-6.953.004-10.43-.001-.596-.001-.618-.058-.5-.654.308-1.438.64-2.872.89-4.32.1-.52.274-.674.78-.67l11.12.016c.403.001.57-.127.637-.517l.742-4.026c.122-.673.1-.68-.587-.682l-10.6-.01c-.705-.001-.754-.063-.62-.773l.52-2.824c.246-1.55.233-1.555 1.81-1.553l11.44.026c.442.002.627-.13.693-.577.194-1.297.43-2.588.657-3.88.116-.666.104-.688-.578-.688l-15.22.002c-1.047 0-2.094.01-3.14-.001-.37-.004-.562.083-.64.505-.256 1.375-.566 2.74-.86 4.107l-2.755 12.838-1.714 8.058c-.12.565-.067.646.514.646l9.312-.001zm22.816 9.752l45.33-.004c.43.01.604-.18.675-.567l.696-3.706c.143-.842.112-.84-.766-.852-4.298-.066-8.595.074-12.892.085-6.614.016-13.224.225-19.835.4l-17.594.592-10.25.482-6.587.315-9.02.58-7.684.577-7.36.606c-.56.04-.664.304-.647.784s.143.742.708.73c1.56-.033 3.12-.013 4.68-.013l40.545.002zm98.823-.005l43.37.006c.426 0 .668-.074.685-.562.027-.79-.01-.892-.622-.958l-5.762-.623c-3.578-.386-7.165-.658-10.753-.92l-11.782-.73-12.115-.562-13.185-.397-10.264-.255-12.076-.127c-3.387-.035-6.775.054-10.162-.046-.328-.01-.525.12-.586.47l-.727 4.08c-.08.43.033.644.5.633.656-.014 1.313-.007 1.97-.007h41.5zm-43.97-28.886h-2.394c-.398-.01-.607.103-.686.534l-.977 5.115-1.74 9.187c-.216 1.105-.478 2.21-.653 3.314-.227 1.422-.553 2.823-.787 4.243-.355 2.148-.804 4.28-1.22 6.42-.06.302.035.432.348.43l4.895-.012c.3 0 .462-.125.5-.425.104-.786.253-1.563.4-2.343.487-2.576.857-5.174 1.44-7.732.16-.71.186-.734.76-.283 3.31 2.596 8.548 2.034 11.37-1.74 1.57-2.103 2.482-4.473 3.016-7.014.424-2.02.57-4.04.017-6.057-.416-1.513-1.223-2.73-2.684-3.45-1.557-.768-3.203-.684-4.847-.523-1.23.12-2.38.52-3.41 1.236-.175.12-.293.473-.527.33-.217-.13-.034-.433.012-.643.097-.44-.02-.614-.496-.595-.78.033-1.56.01-2.34.01zm48.906 7.308c-1.563.005-3.125-.005-4.633.49-2.98.976-5.2 2.715-5.86 5.963-.435 2.133.782 4.622 2.683 5.692 1.98 1.118 4.04 1.013 6.134.483 1.17-.296 2.166-.946 3.128-1.646.35-.254.605-.263.9.09.434.517 1.027.75 1.692.763l2.925.012c.327.006.487-.12.564-.425l.818-3.133c.05-.194.08-.335-.182-.392-.356-.076-.384-.34-.354-.657.093-1.01.374-1.985.565-2.976l1.426-7.084c.115-.59.17-1.188-.045-1.784-.47-1.308-1.563-1.865-2.75-2.298-1.345-.5-2.76-.61-4.175-.717-2.098-.16-4.183-.13-6.204.536-2.33.77-3.947 2.237-4.456 4.737-.128.626-.074.71.577.71l4.096.005c.357.004.528-.1.644-.466.24-.738.755-1.24 1.45-1.607.928-.492 1.926-.54 2.898-.406 1.818.25 2.66 1.413 1.935 3.272-.21.533-.613.88-1.275.847-.83-.037-1.666-.008-2.5-.008zm-56-.565c.042-1.113-.11-2.203-.487-3.243-.963-2.654-3.078-3.778-5.702-4.107-2.142-.27-4.28-.19-6.38.4-2.414.682-4.436 1.95-5.906 4-2.085 2.908-2.757 6.186-2.313 9.69.354 2.805 1.795 4.87 4.52 5.844 2.407.86 4.867.81 7.33.185 2.44-.618 4.43-1.938 5.972-3.91 2.027-2.596 2.9-5.6 2.965-8.86zM82.685 49.115l2.447.02c.382.013.54-.13.597-.498.135-.857.295-1.7.452-2.563l1.702-9.252 1.184-6.21c.088-.444-.024-.607-.498-.6l-4.097.014c-1.174.003-.944-.08-1.1.922-.047.297-.115.59-.167.888-.528 3.057-1.02 6.12-1.773 9.13-.216.86-.578 1.685-1.195 2.346-1.02 1.092-2.346 1.27-3.728 1.072-1.14-.16-1.674-.917-1.48-2.034l1.092-5.794 1.144-6.056c.07-.36-.042-.48-.397-.48-1.632.007-3.264.006-4.896-.008-.337-.002-.466.144-.518.46l-1.05 6.24L69.1 43.88c-.587 2.893.497 4.917 3.486 5.496 2.295.444 4.6.406 6.723-.78.208-.116.433-.177.46.162.026.322.21.362.47.36l2.447-.004zm84.49-11.765v-.002l2.446.003c.285.004.42-.1.445-.4.142-1.688-.12-3.287-1.043-4.736-1.334-2.094-3.438-2.82-5.732-3.054-2.104-.215-4.2-.063-6.25.578-2.938.92-5.074 2.743-6.42 5.49-1.22 2.5-1.532 5.148-1.307 7.876.307 3.703 2.825 6.27 6.512 6.717 1.565.19 3.11.07 4.65-.24 2.708-.547 5.035-1.743 6.803-3.914.705-.866 1.163-1.854 1.395-2.945.08-.38-.002-.58-.48-.57-1.472.035-2.944.027-4.416.016-.413-.004-.678.092-.868.512-.494 1.09-1.307 1.896-2.42 2.35-1.193.487-2.436.752-3.647.126-1.446-.746-1.988-2.066-1.978-3.616.013-1.748.472-3.412 1.264-4.956.66-1.29 1.538-2.418 2.958-2.99 1.035-.417 2.08-.563 3.162-.217 1.284.41 2.03 1.658 2.023 3.457-.002.398.108.527.5.514.797-.03 1.595-.01 2.393-.01zm38.416-2.862v-.044l1.437.001c.265.003.426-.092.5-.367l.98-3.533c.076-.266.016-.444-.264-.445-1.822-.002-3.664-.118-5.337.838-.184.104-.393.27-.587.137-.206-.145-.077-.395-.032-.594.083-.366-.068-.46-.417-.458-1.63.013-3.263.015-4.895-.002-.404-.004-.544.15-.613.542l-1.5 8.09-1.868 9.922c-.068.36-.013.566.438.56l4.682-.002c.327.003.48-.11.54-.436.138-.784.298-1.564.456-2.346l1.865-9.11c.324-1.495 1.3-2.72 3.172-2.752.477-.008.957-.002 1.434-.002zM96.343 30.023c-.798.002-1.597.023-2.394-.008-.406-.016-.57.14-.64.522L92.038 37.5l-1.136 6.107-.933 5.066c-.063.33.02.46.36.46l4.786.007c.287.001.455-.124.51-.426.12-.662.264-1.32.396-1.98l1.877-9.377c.402-1.924 1.602-2.863 3.567-2.896l2.447-.007c.307.002.495-.102.58-.418l.956-3.484c.08-.29.01-.447-.31-.45-1.827-.023-3.655-.072-5.334.856-.468.26-.634.146-.558-.375.064-.442-.094-.568-.51-.558-.794.02-1.593.008-2.4.008z"/><path d="M77.703 58.868H37.16c-1.56 0-3.12-.02-4.68.013-.565.012-.7-.245-.708-.73s.087-.744.647-.784l7.36-.606 7.684-.577 9.02-.58 6.587-.315 10.25-.482 17.594-.592 19.835-.4 12.892-.085c.878.013.908.01.766.852l-.696 3.706c-.07.388-.245.578-.675.567l-2.818-.002H77.704zm98.823-.005h-41.5c-.656 0-1.313-.007-1.97.007-.466.01-.58-.202-.5-.633l.727-4.08c.06-.35.258-.48.586-.47 3.387.1 6.775.01 10.162.046l12.076.127 10.264.255 13.185.397 12.115.562 11.782.73 10.753.92 5.762.623c.612.066.65.167.622.958-.017.487-.26.562-.685.562l-43.37-.006z" fill="#fbe305"/><path d="M141.68 37.6c-.047 1.614-.433 3.108-1.325 4.494-.636.986-1.36 1.84-2.36 2.448-.67.406-1.402.584-2.185.5-1.23-.15-2.027-1-2.358-2.455-.428-1.875.024-3.615.77-5.314.507-1.158 1.2-2.172 2.35-2.78 1.264-.668 2.555-.75 3.85-.074.948.495 1.085 1.422 1.217 2.343.037.28.03.565.043.848zm37.144 8.394c-.863-.001-1.563-.182-1.96-.895s-.264-1.44.134-2.12c.46-.784 1.163-1.222 2.048-1.373l4.237-.722c.425-.078.482.084.467.442-.084 1.94-1.77 3.942-3.773 4.458-.4.108-.817.245-1.153.2zm-68.65-5.09c.254-2.396 1.007-4.73 2.993-6.497 1.107-.985 2.447-1.312 3.87-1.02 1.437.295 2.185 1.364 2.4 2.732.52 3.15-.365 5.9-2.638 8.144-1.362 1.345-3.404 1.62-4.912.795-1.093-.6-1.456-1.636-1.632-2.77-.06-.4-.057-.812-.093-1.384z" fill="#017e33"/></svg>