<svg xmlns="http://www.w3.org/2000/svg" width="199" height="67" viewBox="25.194 8.419 198.425 66.308" fill-rule="evenodd"><path fill="#fa0111" d="M93.982 51.008V44.17l-.012-9.177c-.004-.535.083-.798.696-.792.74.008 1.48-.105 2.223-.146.403-.022.56-.17.55-.607l-.005-4.38c.004-.383-.106-.535-.512-.533l-10.748.001c-.343-.001-.498.087-.495.46l-.002 4.547c-.005.415.177.513.54.525l2.143.118c.622.001.753.265.75.853l-.014 15.543c0 1.084 0 1.084 1.094 1.084l7.44.012c.504.006.775-.145 1.026-.595l4.55-8.04c.258-.463.52-.654 1.077-.652H121.398c.54-.002.82.16 1.093.63l11.195 19.258c.133.228.34.43.326.742-.29.15-.595.074-.884.074l-104.172.024c-.81 0-.973-.203-.97-.986l-.001-42.66c-.001-.804.2-.977.987-.977l81.353.02c1.057 0 1.058.002.578.906L94.325 50.674l-.204.352-.14-.018zm-22.295-12.97c.35.113.37.392.473.593l6.423 12.454c.23.452.484.643 1.003.62l2.975.002c.633.036.778-.17.773-.782L83.32 38.94l.012-9.753c.004-.54-.14-.713-.69-.686-.935.046-1.875.05-2.81-.001-.6-.033-.786.115-.78.755l.01 12.398c0 .222.114.48-.093.68-.225-.085-.255-.296-.34-.458l-6.6-12.74c-.23-.453-.472-.654-.995-.634l-3.223.003c-.455-.012-.614.105-.613.59l-.002 21.987c-.001.548.204.634.675.62l3.14.004c.557.024.68-.168.676-.694l-.012-12.973zM43.72 43.943c.367.17.387.505.5.77l2.715 6.454c.2.468.432.606.912.595l3.8.002c.724.027.662-.196.41-.723l-3.563-7.607c-.266-.56-.303-.88.25-1.35 2.708-2.314 3.718-6.425 2.416-9.714-.746-1.884-1.954-3.348-4.1-3.624-2.43-.3-4.883-.34-7.33-.43-.35-.013-.517.088-.474.458.02.163.003.33.003.496l-.022 21.48c-.004.828.23 1.018 1 .957.903-.07 1.818-.048 2.725-.004.52.025.646-.145.64-.647l-.006-6.28c-.001-.262-.095-.547.135-.835zm10.383-3.845L54.1 51c0 .37-.052.673.522.668l9.176-.006c.402.002.52-.13.515-.52v-4.216c.007-.45-.174-.563-.588-.546-.688.027-1.378.022-2.066.004-.958-.027-2.236.403-2.79-.15-.595-.593-.103-1.878-.193-2.854-.053-.573.187-.68.7-.666 1.294.03 2.6-.007 3.885.02.455.01.625-.105.613-.59-.03-1.32-.04-2.646.003-3.967.018-.56-.218-.625-.68-.616-1.24.025-2.48-.02-3.72.02-.556.018-.79-.105-.752-.715a20.92 20.92 0 0 0 .002-2.479c-.03-.564.125-.764.722-.744 1.35.045 2.7-.006 4.05.024.515.012.73-.095.7-.672a55.37 55.37 0 0 1-.001-3.801c.02-.57-.2-.68-.71-.677-2.893.022-5.787.028-8.68-.003-.592-.006-.728.177-.724.742l.013 10.83z"/><path fill="#361795" d="M167.81 18.517l52.333-.022c.86-.001 1.013.236 1.01 1.04l-.001 42.578c.001.752-.112 1.008-.953 1.007l-80.36-.008c-.626 0-.965-.163-1.28-.735L114.71 19.376c-.476-.856-.477-.857.52-.857l52.58-.002zM124.75 29.01c.05.152.062.23.097.297l11.736 21.962c.187.35.423.436.8.43l3.884.008c.6.02.72-.182.716-.743l-.01-9.587c.003-.104-.014-.227.13-.264s.265-.002.344.14l.29.5 5.296 9.42c.218.39.445.544.892.53l3.305.004c.622.03.786-.152.78-.776l-.016-10 .012-11.736c.003-.532-.128-.717-.682-.694a34.98 34.98 0 0 1-3.14-.001c-.607-.03-.79.126-.785.763l.017 10.91-.006.578c-.004.142-.028.3-.203.294-.086-.002-.2-.097-.246-.178-.093-.135-.152-.29-.228-.438L141.93 29.13c-.237-.47-.513-.62-1.017-.602-1.018.037-2.04.053-3.057-.004-.66-.037-.83.176-.824.824l.013 10.992-.05 1.09-.524-.908-6.113-10.852c-.198-.35-.327-.7-.887-.68l-4.722.02zm36.277 14.848c.275.236.327.512.43.755l2.768 6.52c.1.236.112.56.5.558H169.7l-3.862-8.252c-.25-.523-.288-.865.23-1.24.395-.285.716-.685 1.03-1.065 2.76-3.34 2.652-8.308-.226-11.148-.644-.635-1.374-1.043-2.293-1.196-2.51-.416-5.044-.362-7.567-.524-.314-.02-.462.107-.443.43.01.192.001.385.001.578l-.023 21.482c-.005.873.25 1.08 1.06 1.017.876-.07 1.763-.044 2.642-.005.523.022.65-.174.646-.667l-.005-6.36c-.002-.264-.086-.546.148-.88zm53.55 7.835l-.414-.768-5.82-10.452c-.243-.433-.257-.754-.014-1.197l3.9-7.266 1.843-3.47c-1.647 0-3.16.024-4.673-.013-.522-.013-.776.174-.998.63l-4.036 8.126c-.13.258-.134.74-.606.646-.496-.1-.27-.54-.273-.823l.003-7.853c.007-.59-.176-.75-.745-.725-.962.045-1.93.043-2.892 0-.536-.024-.64.186-.638.667l-.005 21.74c-.002.607.2.737.76.714.935-.04 1.876-.056 2.81.004.674.043.892-.14.88-.846-.045-2.45-.024-4.904-.01-7.356.002-.305-.193-.777.17-.887.41-.124.448.397.588.66l4.146 7.88c.166.318.285.607.762.6 1.704-.032 3.412-.012 5.264-.012zm-43.213-11.62l-.01 10.99c-.004.526.117.707.675.702h8.843c.566.005.694-.192.682-.716a84.62 84.62 0 0 1-.001-3.967c.012-.53-.136-.716-.695-.7-1.376.042-2.754-.005-4.13.023-.508.01-.754-.084-.715-.668.053-.768.05-1.544.001-2.313-.035-.575.2-.687.717-.675 1.32.03 2.644-.002 3.966.018.415.006.584-.104.576-.553-.026-1.35-.03-2.7.001-4.05.01-.483-.16-.606-.616-.598-1.322.026-2.645-.008-3.967.02-.476.01-.702-.1-.676-.63.042-.852.037-1.71.001-2.56-.02-.475.136-.61.604-.603l4.38.02c.47.008.616-.13.605-.603-.03-1.32-.053-2.646.007-3.965.03-.666-.22-.754-.8-.75-2.893.028-5.785.04-8.677-.007-.697-.01-.785.238-.78.836l.012 10.746zm25.056 4.344l-.198-.058c-.418.434-.808.9-1.26 1.296-1.48 1.295-3.13 1.27-4.605-.044-.654-.584-1.086-1.31-1.312-2.154-.48-1.786-.417-3.6-.224-5.412.1-.938.363-1.834.9-2.63 1.316-1.95 3.673-2.24 5.386-.654.242.225.473.463.695.707.15.166.303.37.542.297.295-.09.146-.376.146-.567l.01-5.373c0-.28-.003-.52-.302-.7-1.6-.972-3.298-1.532-5.186-1.182-2.336.434-3.917 1.926-5.114 3.86-2 3.23-2.453 6.796-2.046 10.494.327 2.96 1.32 5.67 3.372 7.912 2.375 2.594 5.825 3.046 8.66 1.132.243-.164.538-.29.537-.67v-6.256zm19.537-1c1.517-.005 2.72-1.22 2.7-2.73-.02-1.468-1.214-2.664-2.68-2.683-1.482-.02-2.744 1.222-2.75 2.705-.007 1.492 1.224 2.71 2.732 2.707z"/><path d="M113.038 25.333l6.9 12.256h-13.784l6.874-12.256zM47 36.437c.023.495-.006 1-.15 1.465-.298.98-2.033 1.747-2.945 1.32-.197-.092-.18-.25-.18-.407l-.012-4.775c-.006-.403.204-.42.495-.458 1.73-.22 2.678.547 2.8 2.28l.001.575z" fill="#fa0111"/><path d="M160.95 39.478l-.004-5.32c-.001-.28.097-.4.383-.37l.164.014c.818.1 1.845-.108 2.278.786.582 1.2.536 2.498-.007 3.736-.077.176-.302.336-.493.404l-2.32.75zm54.962 3.447c-1.232-.015-2.193-.985-2.187-2.2.008-1.252 1.03-2.225 2.302-2.2 1.224.034 2.162 1.03 2.133 2.264-.03 1.24-.986 2.15-2.248 2.135zm1.35-.617c-.056-.143-.08-.252-.135-.34-.304-.485-.7-.896-.17-1.546.253-.3.128-.88-.34-1.138-.53-.292-1.1-.216-1.678-.123-.044.007-.08.2-.082.292l-.007 2.556c-.003.285.117.382.394.374.262-.008.4-.078.415-.374.005-.248-.082-.524.095-.775.553.34.453 1.43 1.508 1.075z" fill="#361795"/></svg>