<svg xmlns="http://www.w3.org/2000/svg" width="184" height="66" viewBox="32.804 9.419 183.369 65.738" fill="#006fb9"><path d="M165.408 74.5l13.948-20.715-.976-15.95h27.487L181.203 74.5zm-9.435-16.418l6.974-20.256h15.383l-6.974 20.256zm-25.998 0l6.923-20.256h15.383l-6.973 20.256zm-40.355 0l6.974-20.256h15.332l-6.974 20.256zm-16.666 0l6.974-20.256H95.26l-6.974 20.256zm-16.716 0l6.922-20.256h15.383L71.57 58.082zm-23.434 0l6.974-20.256H55.1l-6.974 20.256zm80.456-.052l6.973-20.205h15.333l-6.923 20.205zm78.247-22.152l8.87-13.332h15.795l-8.87 13.332zm-32.252 0l4.614-13.383h4.36L172.8 9.42h15.384l-4.614 13.076h6.564l1.332 13.383zm-21.64 0l7.28-21.075c1.076-3.128 4-5.384 7.486-5.384h16.32l-4.257 12.307h-10.36l-.102.77h8.82l-4.614 13.383-20.563-.002zm-16.715 0l4.615-13.383H140.9l-4.617 13.383zm-23.64 0l4.615-13.383h12.77l-1.23 3.6a11.37 11.37 0 0 1 9.6-5.23h1.742L119.63 35.83H97.26v.05zm-33.382 0l9.18-26.46h16.665l-5.23 14.974a8.16 8.16 0 0 1 6.77-3.6c2.974 0 5.794 1.487 6.974 3.95a4.72 4.72 0 0 1 .513 2.102c0 .514-.103 1.077-.257 1.487l-2.564 7.435H63.88v.102zm-23.434 0l3.64-10.666H33.47L38.957 9.42h32.715l-5.486 15.793h-6.718l-3.64 10.666zm85.376-14.153l4.257-12.306h15.382l-4.255 12.306zm62.5 49.475c0 1.744 1.436 3.128 3.127 3.128a3.11 3.11 0 0 0 3.129-3.128c0-1.743-1.438-3.18-3.13-3.18-1.745.001-3.127 1.438-3.127 3.18m-.82 0c0-2.205 1.742-3.948 3.947-3.948a3.95 3.95 0 0 1 3.948 3.948 3.95 3.95 0 0 1-3.948 3.948c-2.153 0-3.947-1.794-3.947-3.948m3.18-.3h.924c.4 0 .614-.15.614-.614 0-.205-.104-.564-.563-.564h-.976V70.9zm1.487 2.463a3.26 3.26 0 0 1-.104-.871c0-.616-.052-.82-.615-.82h-.82v1.692h-.77v-4.358h1.897c1.024 0 1.18.87 1.18 1.23 0 .515-.205.925-.563 1.077.308.153.46.3.46 1.077 0 .615 0 .77.154.87v.104h-.82zm-30.973-7.693h-1.742l-2.104 8.666h4.256l.358-1.487h-2.46l1.693-7.18zm-6.666 5.435h-2.152l1.742-3.128.4 3.128zm.154 1.385l.257 1.846h1.896l-1.23-8.923h-1.385l-5.7 8.923h1.846l1.18-1.846h3.126zm-5.18-5.384h1.795l.358-1.487h-5.385l-.357 1.487h1.795l-1.745 7.23h1.745l1.794-7.23zm-13.742 7.18h1.742l1.437-5.897 3.282 6.103h1.282l2.152-8.87h-1.742l-1.438 5.846-3.28-6.102h-1.28l-2.153 8.92zm.563-7.23l.358-1.487h-4.666l-2.103 8.666h4.666l.358-1.486h-2.923l.564-2.358h2.818l.36-1.487h-2.82l.463-1.896 2.926.048zm-9.537-.153h.257c.922 0 1.6.205 1.333 1.28s-1.026 1.333-2 1.333h-.258l.668-2.614zm.87 3.64c1.23-.204 2.152-1.28 2.4-2.4.46-1.846-.615-2.615-2.358-2.615h-2.358l-2.104 8.667H125l.873-3.486 1.334 3.537h2.103l-1.643-3.693zM115.4 69.16l.87-3.643h-1.742l-2.103 8.667h1.743l.975-3.897 1.95 3.897h2.256l-2.46-4.718 4.4-4h-2.153l-3.744 3.694zm-2.153-3.385c-.514-.308-1.18-.513-1.898-.513-2.667 0-4.974 2.153-5.6 4.614-.563 2.4.77 4.514 3.333 4.514.72 0 1.436-.205 2.154-.515l.512-2c-.615.563-1.486.923-2.204.923-1.642 0-2.308-1.486-1.948-2.923.357-1.486 1.7-2.974 3.385-2.974.768 0 1.383.358 1.742.923l.513-2.05zm-15.127 4.87c-.512 2.104 0 3.744 2.46 3.744 2.4 0 3.742-1.6 4.256-3.692l1.28-5.18h-1.742l-1.18 4.872c-.256 1.076-.717 2.564-2.205 2.564s-1.23-1.54-.976-2.564l1.18-4.872h-1.745l-1.33 5.128zM94.184 66.8h.255c.923 0 1.6.205 1.334 1.282s-1.026 1.333-1.95 1.333h-.205l.565-2.615zm.923 3.64c1.23-.205 2.153-1.28 2.4-2.4.462-1.845-.615-2.614-2.36-2.614H92.8l-2.102 8.666h1.744l.87-3.487 1.333 3.538h2.103l-1.64-3.693zm-5.18-3.6h1.794l.36-1.486h-5.385l-.36 1.486h1.795l-1.744 7.23h1.744l1.796-7.23zm-10.82 7.18h2.153l-1.077-2 1.282-1.23-.872-1.025-1.18 1.125-.872-1.537c.872-.462 1.744-1.128 2-2.103.308-1.333-.46-2.153-1.795-2.153-1.282 0-2.512.87-2.82 2.153-.153.718 0 1.282.257 1.846l-.615.36c-.923.514-1.64 1.282-1.846 2.255-.36 1.5.513 2.565 2 2.565 1.026 0 1.95-.462 2.872-1.076l.512.82zm-1.436-6.256c-.103-.206-.103-.4-.05-.666.103-.4.46-.82.923-.82s.615.462.513.872-.36.718-.718.974l-.36.257-.308-.617zm.153 4.204c-.46.36-.974.718-1.538.718-.615 0-.923-.614-.77-1.18.154-.616.77-1.024 1.333-1.385l.975 1.846zm-10.972-5.28h.256c.923 0 1.6.206 1.333 1.282s-1.025 1.333-2 1.333h-.206l.617-2.615zm.87 3.642c1.282-.206 2.154-1.282 2.4-2.4.46-1.845-.615-2.615-2.36-2.615h-2.358L63.3 73.97h1.744l.872-3.485h.052l1.333 3.538h2.103L67.7 70.33zm-7.23.4H58.34l1.743-3.182.4 3.182zm.154 1.385l.256 1.845H62.8l-1.282-8.923h-1.384l-5.692 8.923h1.846l1.18-1.845h3.18zm-4.564-6.617a3.74 3.74 0 0 0-1.897-.513c-2.667 0-4.974 2.154-5.6 4.615-.563 2.4.77 4.512 3.333 4.512.718 0 1.436-.204 2.154-.512l.513-2c-.616.563-1.487.923-2.205.923-1.64 0-2.308-1.486-1.948-2.923.36-1.487 1.692-2.976 3.384-2.976.77 0 1.436.36 1.744.923l.512-2.05z"/></svg>