<svg xmlns="http://www.w3.org/2000/svg" width="199" height="67" viewBox="25.194 8.419 198.425 66.308"><path fill="#0c74b3" d="M23.194 43.07v34.656h203.554V8.42H23.194V43.07M84.162 13.72c.292.23-1.6 3.8-2.12 3.8-.01 0-.38.584-.43.63-.32.285-.662.404-1.06.536-.727.24-1.306.57-1.682 1.256-.863 1.603-1.553 3.156-1.963 4.948l-1.51 5.766-.62 2.504c-.232 1.112-.654 2.11-.987 3.196-.518 1.484-.766 3.236-1.583 4.574-.875 1.434-1.765 2.68-2.955 3.878-1.386 1.394-2.998 2.28-4.717 3.152-3.744 1.896-8.066 2.038-12.182 1.627-.94-.094-1.875-.075-2.755-.48-.378-.17-.75-.184-1.113-.415-.453-.29-.843-.674-1.268-1.005-.775-.603-1.08-.922-1.516-1.813-.193-.397-.44-.77-.587-1.188-.16-.45-.165-.994-.386-1.417-.325-.6-.09-1.698-.022-2.343.114-1.064.283-2.146.595-3.173.557-1.828.818-3.734 1.458-5.537.584-1.646.935-3.29 1.392-4.965.265-.97.595-1.913.915-2.864.312-.924.858-2.08.726-3.065-.15-1.206-.528-1.934-1.188-2.264-.953-.474-.99-1.2-.108-2.208.932-1.042 1.566-2.287 2.593-3.25h7.87c2.112 0 4.24-.07 6.35.043.368.02.797-.024.924.373.217.69-1.02 1.874-1.342 2.38-.48.756-.782 1.914-1.73 2.182-.786.23-1.688.302-2.375.756-.68.45-1.95 1.438-1.966 2.356-.014.592-.433 1.12-.576 1.67-.204.788-.492 1.875-.884 2.594-.408.75-.52 1.675-.807 2.47-.322.894-.288 2.015-.71 2.86-.65 1.084-.8 2.783-1.145 4-.407 1.436-.886 3.212-.545 4.715.348 1.487 1.043 2.26 2.747 3.046.752.35 2.085.1 2.87.094l2.434-.018c1.25-.613 3.99-1.762 4.36-3.343.146-.604.676-1.148.944-1.71.275-.574.496-1.204.713-1.802.416-1.066.533-2.16.895-3.234.388-1.063.728-2.154 1.047-3.24s.474-2.16.763-3.253c.28-1.055.606-2.142.726-3.234.055-.503.1-1.098-.046-1.59-.188-.587-.483-.992-.714-1.536-.428-1.026-3.706-1.33-3.56-2.06.168-.875 1.1-1.423 1.452-2.192.44-.96.992-1.64 1.87-2.276l6.337-.045 5.685-.014c.348.005 1.184-.118 1.49.127m36.653.02c.117.068.375.122.568.122.605.01.84.442.623 1.147-.348 1.116-1.105 2.475-1.105 3.66 0 1.086-.574 2.663-1.586 3.194-1.047.523-2.13.84-3.18 1.34-.71.338-2.273 1.608-3.082 1.004-.33-.24.102-1.235.176-1.496.227-.816.326-1.28-.063-2.042-.684-1.314-1.293-1.622-3.354-1.68-1.807-.05-2.85.267-3.334 1.008-.463.74-1.03.92-1.22 1.834-.123.596-.13.822-.06 1.09.084.325.152.443.6 1.075.56.785 1.686 1.382 2.46 1.958.932.692 1.986 1.167 2.973 1.79 2.283 1.445 4.73 2.623 5.902 5.2.596 1.29.576 3.1.234 4.44-.264 1.05-.438 2.54-1.127 3.395-.95 1.174-1.666 2.392-2.738 3.47-.53.533-1.068 1.087-1.666 1.546-.6.45-1.36 1.18-2.066 1.435-1.285.463-2.453 1.098-3.793 1.45-1.38.363-2.818.507-4.244.535-4.018.08-8.055-.012-12.068-.21-1.563-.072-1.74-.4-1.08-2.073.963-2.444 1.146-5.14 2.267-7.538.516-1.104 1.084-1.415 2.18-1.89 1.165-.52 2.913-.696 3.912-1.496.588-.446 1.06.01.858.827-.24 1.035-.944 3.092-.492 4.074l.38.837c.46 1.02.955 1.328 2.345 1.464 2.264.217 3.918.05 4.707-.475 1.887-1.245 2.314-3.1 1.62-5.18-.6-1.784-3.223-2.532-4.617-3.54-1.297-.937-3.146-1.37-4.15-2.696-.43-.583-1.073-.972-1.513-1.612-.532-.773-.904-1.573-1.293-2.417-.41-.922-.348-3.37.108-4.423.845-1.948 1.66-3.75 3.215-5.228.707-.672 1.57-1.16 2.385-1.687s1.537-1.086 2.494-1.297c1.287-.283 2.857-.448 4.04-1.055h6.635l5.387.02c.46.006 1.33-.135 1.762.103m47.5.3c.117.185.096.293-.1.47-.863.77-1.688 2.345-2.223 3.357-.488.944-1.47 1.355-2.498 1.355-1.06 0-1.8.46-2.426 1.296-.48.652-.23 2.386-.236 3.13-.014 1.766.03 3.536.133 5.3.08 1.33.174 2.746.447 4.05.205.977.264 1.967.434 2.95.094.545.21 1.087.26 1.64.03.34.15 1.196.514.454.5-1.022 1.432-1.726 1.9-2.776.176-.396 1-1.15 1-1.547 0-.312.73-.876.912-1.14.262-.378.43-.813.682-1.202.736-1.133 1.56-2.21 2.336-3.312 1.04-1.47 1.773-3.187 2.662-4.762.96-1.667-.365-3.832-2.463-4.008-1.518-.126-1.38-1.007.467-2.918.62-.64.807-1.918 1.617-2.358.283-.154 40.52-.126 40.62.027.266.423-.36 1.487-.506 1.896-.193.546-.426 1.072-.604 1.627-.43 1.364-.73 2.856-1.33 4.16-.48 1.027-2.14 1.038-3.072 1.15-.96.114-1.863.47-2.814.572-.787.064-.8.037-.684-1.242.05-.56.068-1.085.037-1.17-.248-.695-.844-1.143-1.252-1.716-.67-.973-2.643-.604-3.61-.593-.54.006-4.412-.32-4.412.77 0 .477-1.064 1.47-1.283 1.945-.344.744-.71 1.542-.93 2.333-.22.778-.373 1.562-.63 2.338-.225.682-.85 1.69-.502 2.41.182.384.227.39 2.012.393.822 0 2.16.088 2.85-.484.2-.167.197-.468.316-.7.178-.33.527-.48.822-.696.78-.57 1.64-.75 2.553-1.016.438-.123 2.55-.755 2.756-.217.385.985-.393 2.433-.703 3.35-.303.898-.56 1.81-.828 2.72-.13.442-.234.892-.33 1.342-.07.316-.227 1.365-.488 1.595-.553.554-.234 1.745-.94 2.228-.64.46-1.605.55-2.348.752-.793.214-1.602.644-2.436.644-.887.008-.56-.777-.475-1.372.125-.902-.18-1.706-.994-2.16-.867-.488-.84-.483-1.844-.452-1.04.037-1.752.365-1.865.862-.215.93-.646 1.825-.918 2.737-.35 1.174-.447 2.438-.773 3.63-.076.27-.05.357.146.683.4.646.523.735 1.22.886a16.42 16.42 0 0 0 3.568.385c1.287.005 2.385-.232 3.63-.458.713-.138 1.365-.785 1.824-1.306.572-.646.568-1.34.998-2.008.545-.844 1.39-.838 2.3-1.044.934-.213 2.037-.385 2.916-.766 1.328-.574 2.14-.43 1.834.325-.686 1.74-.98 3.598-1.52 5.373l-.916 2.9c-.184.6-.502 2.09-1.068 2.38-.324.172-29.248.208-29.45.036-.162-.136-.162-.542-.01-.84.54-.97.852-2.175 1.678-2.954a4.64 4.64 0 0 1 1.338-.868c.39-.166.734-.128 1.043-.434.785-.776 1.205-1.76 1.584-2.788.762-2.052 1.008-4.255 1.814-6.28.367-.92.684-1.807.92-2.773.242-.98.164-2.217.61-3.13.477-.953.605-2.21.893-3.232.152-.55.375-1.075.512-1.633.143-.577.123-1.297.39-1.83.494-.943-.426-3.914-1.852-3.164-1.453.766-2.143 2.52-3.086 3.778-1.85 2.452-3.387 5.122-5.14 7.625-2.152 3.07-4.338 6.185-6.29 9.38-.678 1.112-1.414 2.187-2.074 3.322-.783 1.35-1.71 2.678-2.354 4.09-.523 1.192-1.604 1.897-2.9 1.902-1.74 0-3.633.308-5.322.718-1.598.398-1.48.573-1.73-2.566L151.38 33.87c-.25-3.014-.54-6.058-.996-9.047-.21-1.387-.174-2.798-.7-4.124-.19-.475-.45-.934-.84-1.274-.44-.386-.852-.372-.807-1.058.04-.643.877-1.452 1.277-1.893.693-.76 1.02-1.862 1.908-2.44.283-.19 16.977-.186 17.1.004m-23.03.425c.506.57.205 2.375.225 3.034l.117 3.804.2 5.568c.16 4.376.586 8.78 1.035 13.138.143 1.37.23 2.75.355 4.124.107 1.155.15 2.318.25 3.476.098 1.103.46 2.137.623 3.225.068.397 1 1.25 1.438 1.328.814.122 1.727.018 2.55.02l6.596.02 16.855.013h25.236l.225.177c.56.443-.516 3.884-.984 4.306-.2.18-61.586.284-62.26.104-.533-.144-.555-.842-.6-1.295-.197-2.054-.107-4.14-.146-6.198-.043-2.496-.158-5.008-.27-7.503-.03-.74.14-3.016-.77-3.427-.396-.182-1.082-.08-1.5-.088l-3.1-.03-3.885-.017c-1.25 1.385-2.025 3.015-3.184 4.45-.71.882-1.23 1.843-1.902 2.742-.582.76-1.285 1.714-1.73 2.563-.89 1.704-2.24 3.22-3.29 4.847-.9 1.41-1.66 2.873-2.945 4.01l-73.777.036c-2.647.01-2.864-.234-1.902-2.15.293-.567.343-1.987.858-2.326.18-.118.547-.073.745-.08 1.127-.04 2.255-.04 3.382-.05l66.74-.107c.516-.624 1.34-.94 1.787-1.61.527-.8 1.023-1.522 1.64-2.27.268-.32.555-.64.754-1 .188-.336.887-.956.887-1.337 0-.34.814-.953.992-1.25.293-.492.496-.928.902-1.358.66-.7 1-1.805 1.746-2.43.5-.43.88-1.09 1.273-1.613.725-.964 1.434-2 2.123-3.004.23-.33.344-.722.594-1.045.34-.44.77-.818 1.03-1.317.537-1.035 1.4-2.132 2.148-3.03.598-.72 1-1.543 1.615-2.247.6-.673 1.05-1.524 1.557-2.27.63-.928 1.28-1.885 1.797-2.87.38-.728 1.08-1.314 1.398-2.054.293-.676.738-1.438 1.154-2.044.36-.524.85-.943 1.152-1.5.152-.284.213-.546.314-.84.188-.537.748-.973 1.115-1.388.805-.926 2.287-.893 3.434-1.003 1.65-.16 3.31-.296 4.965-.38.172-.005.322.054.426.167m-9.527 10.764c-.162.07-.348.74-.434.888-.21.368-.453.684-.72 1.01-.516.628-1 1.398-1.373 2.112-.256.478-3.03 4.222-2.736 4.408.566.335 2.002.1 2.635.09.953-.002 2.55.23 3.37-.166 0-1.433-.053-2.856-.13-4.287l-.14-3.496c-.025-.397-.02-.74-.47-.557m-43.677 6.913c.267.01.244.438-.054.88-.877 1.352-1.82 2.646-2.72 3.99-.51.76-1.34 2.174-2.214 2.544-.7.27-1.81.096-2.538.108l-5.844.05c-.587-.003-1.757.17-2.275-.22-.282-.215.158-.735.274-.928.73-1.2 1.55-2.37 2.376-3.515.566-.783 1.483-2.6 2.548-2.86.326-.073 8.4-.113 10.45-.05M81 61.4c1.65.384 1.324 3.465-.443 4.197l-.818.334c-.56.23-.745.65-.434.99.452.542.346 1.533.81 2.12.5.597 1.324-.764.936-1.56-.482-1.008.677-.78 1.415-.754 1.047.04 1.23.4.352 1.033-.37.268-.845.85-1.568 1.925-.348.51-.352.448.082 1.08.51.75.687.858 1.387.877l.583.01-.014.244c-.077 1.08-3.15 1.63-3.664.654-.244-.456-.877-.618-1.36-.356-.325.18-.75.39-1.396.683-.522.24-1.225.188-1.78.14-.292-.027-.587-.065-.868-.152-.15-.046-.37-.32-.474-.326-.764-.024-1.015-1.36-1.024-1.915-.014-.807.35-1.663.84-2.294.61-.784 2.053-1.247 2.905-1.693.416-.218.23-1.44.243-1.787.026-.8.145-1.58.562-2.27.625-1.03 2.66-1.426 3.735-1.18m103.547.202c.186.294-.12 2.485-.38 2.715-.684.6-.62-.74-.72-1.058-.207-.67-1.006-.746-1.6-.75-1.506 0-.637 2.508-1.387 3.258-.2.2-.098.75-.213 1.012-.145.345-.23.72-.316 1.08-.217.915-.4 1.863-.455 2.804-.02.4-.082 1.033.398 1.193.262.086 1.422.312.902.84-.236.23-1.277.093-1.572.1a55.27 55.27 0 0 1-2.85-.014c-.42-.015-1.865-.248-.64-.783.344-.15.82-.076 1.113-.34.355-.32.346-1.072.406-1.498.277-1.956.684-3.9 1.133-5.813.416-1.78.38-1.885-.64-1.816-.842.053-.918.1-1.78 1.02-1.05 1.11-1.223.858-.8-1.16.162-.78.307-.936.81-.858 1.412.22 2.94.104 4.363.102l2.57-.035c.326-.012 1.494-.257 1.65.001m-137.275.033c.913.096.903.077.835 1.545-.018.4.06 1.25-.266 1.563-.42.4-.802-.94-.9-1.133-.696-1.392-2.22-1.775-3.506-.89-.53.368-.958.538-1.375 1.068-.446.57-.563 1.21-.942 1.8-.99 1.58-.632 4.952.637 6 .875.723 2.167.602 3.096.056.514-.304 1.848-2.488 2.434-1.895.552.54-.86 2.014-1.08 2.44-.33.65-.922.813-2.978.805-1.75-.005-2.322-.162-3.46-.944-.82-.568-1.215-1.274-1.694-2.123-.28-.48-.262-3.25.022-3.764.404-.73.72-1.6 1.276-2.23.66-.743 1.46-1.2 2.248-1.774 1.39-1.01 4.067-.68 5.652-.524m7.758.353c.527 1.825.687 3.824.985 5.7.175 1.098.115 2.31.45 3.367.11.343.3.683.656.8.317.116 1.018.34.56.798-.315.327-1.47.13-1.843.127-.39-.003-2.453.307-2.656-.213-.196-.53.562-.54.784-.77.278-.3.168-.93.15-1.28-.072-1.363.06-1.26-1.536-1.25-1.703.014-2 .154-2.417 1.147-.16.39-.352.89-.075 1.276.1.142 1.086.9.414 1.05-.533.11-3.375.1-3.542-.013-.608-.43.48-.765.693-.884.473-.26.923-.76 1.172-1.235.238-.453 1.02-1.022 1.02-1.554.01-.722 1.017-1.264 1.017-1.84 0-.47.764-.9.764-1.355 0-.232.526-1.17.677-1.43.478-.824 1.104-2.202 1.93-2.753.366-.248.65-.136.78.303m38.8-.39c2.05 0 3.872-.03 4.04-.067.45-.1.664.226.502.75-.06.194-.137.687-.168 1.1-.072.92-.262 1.2-.636.967-.167-.114-.217-.218-.222-.46 0-1.004-1.014-1.428-1.882-1.374-.86.054-.893 1.122-1 1.78-.15.856-.495 1.773-.506 2.634 0 .9-.144 2.083-.416 2.937-.174.494-.47 1.32-.072 1.79.203.238 1.532.503.885 1.044-.167.14-4.852.153-5.02.018-.72-.605 1.356-.922 1.45-1.35.275-1.24.613-2.433.795-3.696.203-1.308.244-2.77.714-4.007.334-.895.167-1.147-.754-1.147h-.72c-.36.317-.97.636-1.152 1.08-.578 1.39-1.342 1.065-.912-.394.348-1.206.73-1.762 1.134-1.65.117.032 1.89.06 3.944.055m33.164.003c.494.057 1.016.108 1.42.425-.037.5.014 2.94-.633 2.94-.488 0-.61-1.245-.793-1.568-.338-.602-.648-.724-1.195-1.026-1.945-1.013-4.31 1.793-4.81 3.432-.463 1.504-.746 5.056.984 5.92 1.938.965 3.127-.268 4.475-1.56.193-.187.742-.725.9-.197.266.835-.45 1.35-.688 2.026-.344 1.07-2.564 1.07-3.404 1.05-1.576-.04-2.516-.663-3.9-1.266-1.098-.487-1.713-4.3-.926-5.792.063-.117.193-.496.297-.845.268-.89 1.637-2.52 2.504-2.878 1.81-.75 3.818-.895 5.764-.668m62.21.054c.53 0 .48 2.2.506 2.502.074.847.313 1.636.424 2.472.162 1.2.63 2.567.68 3.768 0 .383.148.79.354 1.11.22.346.723.388.885.757.168.374-.203.464-.486.492-1.22.124-2.5.04-3.717.04l-.14-.212c-.322-.494.32-.553.512-.796.27-.346.475-1.1.217-1.5-.027-.045-.123-.267-.203-.492-.338-.91-1.836-.567-2.635-.565-.557.48-2.258 2.372-.916 2.666.506.113.723.72.303.85-.357.11-3.488.083-3.625-.026-.365-.308-.063-.714.684-.903.37-.095.56-.2.73-.402.52-.63.92-1.557 1.275-2.285.46-.94 1.166-1.695 1.518-2.687.314-.893 1.102-1.736 1.592-2.552.326-.538.84-2.62 1.86-2.275.064.022.154.04.19.04m-122.306.314c1.32.652 1.972 2.01 1.36 3.402-.372.846-1.043 1.428-1.747 1.993-.622.5-.417.896-.115 1.56.43.968.78 2.116 1.553 2.87.22.216.96.413.68.88-.295.493-1.242.476-1.682.247-.13-.072-.284-.13-.34-.13-.677-.027-1.785-1.237-2.09-2.3-.168-.57-.473-1.094-.633-1.662-.097-.41-.51-.976-1.004-.775-.345.14-.33.88-.362 1.16l-.23 2.347.434.316c.46.33.606.736.298.854-.267.104-4.49.058-4.595-.05-.374-.374.326-.745.605-.796.46-.086.754-.408.872-.854a14.78 14.78 0 0 0 .472-2.756c.06-.82.07-2.07.445-2.802.296-.568.42-1.312.522-1.94.155-.944-1.033-.934-.98-1.56.055-.663 5.184-.298 5.975-.29l.55.274m38.466-.12a9.61 9.61 0 0 0 .701.389c.207.1.7.867.93 1.46.354.892-.055 1.936-.607 2.65-.53.687-1.994 1.056-1.457 2.033.393.714.646 1.528 1.02 2.264.262.52 1.572 1.662 1.158 2.168-.398.488-2.508-.045-2.9-.736-.584-.948-1.066-1.702-1.47-2.765-.523-1.373-1.133-1.74-1.346-.8-.23 1.01-.412 2.023-.592 3.04.182.165.416.313.66.36.46.09.66.556.352.813-.152.127-4.3.127-4.55-.005-.497-.264.126-.724.39-.774.487-.094.752-.6.913-1.013.488-1.297.752-2.9.94-4.28.13-.94.484-1.76.447-2.72-.016-.405-.02-.963-.254-1.316-.08-.12-1.16-.572-.46-.86.38-.153 5.836-.063 6.13.11m7.25-.023c.244.4-.37.58-.615.743-.396.26-.586.578-.695 1.033-.412 1.58-.834 3.163-.936 4.803-.053.86-.18 2.98 1.002 3.252 1.043.244 2.422-.018 2.896-.547 1.035-1.143 1.252-2.538 1.568-3.966.22-1 .996-2.845.72-3.8-.152-.5-1.96-1.236-1.303-1.57.38-.194 3.492-.145 3.742.06.457.377-.795.956-1 1.245-.543.737-.63 1.726-.89 2.58-.297.89-.174 1.942-.357 2.864-.154.766-.512 1.34-.854 2.03-.668 1.346-1.924 2.322-3.08 2.4-1.06.06-1.904.024-2.947-.177-1.28-.267-2-2.028-1.734-4.215l.352-2.938c.078-.706.3-1.407.3-2.12 0-.2.008-.98-.346-.98-.305 0-.54-.59-.242-.754.262-.148 4.336-.08 4.432.072m21.238-.057c.383.28-.8 1.003-.975 1.33-.432.803-.334 1.75-.68 2.577-.293.718.24 1.057.777.496.512-.545 1.176-.947 1.71-1.475.426-.422.764-1.06 1.227-1.42 1.04-.825-.652-.91-.047-1.518.168-.172 3.578-.146 3.75.03.258.258.006.582-.52.682-.34.062-.705.543-1.002.543-.365 0-.6.768-.98.768-.8 0-1.9 1.735-2.504 2.178-.39.294-.342.723.158 1.45.582.84.8 1.85 1.48 2.646.303.354.45.672.686 1.075.236.41 1.625.887 1.252 1.455-.145.227-2.633.33-3.014.127-.973-.543-1.668-2.612-2.04-3.573-.867-2.223-1.523-1.776-1.768 1.206-.027.328-.238 1.24.133 1.48.236.15 1.26.34.727.826-.203.185-4.428.234-4.645.058-.66-.55 1.08-.866 1.3-1.276.58-1.07.19-2.443.5-3.575.17-.604.283-1.084.373-1.732s.443-1.206.527-1.862c.063-.48.117-1.246-.244-1.64-.162-.178-1.156-.434-.668-.9.117-.117 4.31-.067 4.47.055m16.446.007c.148.068.506.36.795.66 1.248 1.288 1.197 2.83-.02 4.116-.516.545-1.607.926-1.313 1.817.178.536.52 1.094.72 1.665.5 1.495 1.14 2.046 2.254 1.95 1.266-.104 1.215-.036 1.563-2.164.17-1.043.293-2.172.525-3.194.24-1.054.633-2.063.75-3.153.092-.913-.47-.74-.998-1.136-.13-.1-.348-.344-.158-.5.443-.365 1.648-.173 2.156-.176l5.576.01.123.186c.266.416-.04 1.3-.096 1.757-.232 2.194-1.326-.724-1.748-.95-.56-.3-2.217-.375-2.365.44-.182.995-.48 2.018-.738 3.002l.186.154c.29.24 1.947.23 2.16-.01.695-.805.78-.854 1.04-.597.324.333-.045 3.36-.842 3.108-.154-.05-.242-.2-.438-.7-.162-.438-.36-.527-1.184-.527-1.05.004-1.18.22-1.395 1.134-.184.78-.646 1.844-.385 2.655.393 1.198 3.83.615 4.092-.7.07-.34.818-1.15 1.08-.54.22.512-.36 1.422-.564 1.847-.732 1.498-3.133.892-4.535.91-1.914.026-3.826-.012-5.725.244-1.076-.514-2.34-1.01-2.625-2.304-.12-.558-.367-1.055-.53-1.6-.473-1.576-1.418-1.554-1.662.05-.107.712-.363 1.798.002 2.48.137.257 1.27.56.6 1.034-.135.096-4.36.078-4.535-.018-.834-.443.582-.765.77-.852.68-.313.826-1.264.873-1.917.135-1.922.71-3.747 1.04-5.633.078-.456.275-1.257-.035-1.676-.117-.156-1.318-.492-.64-.892.254-.145 5.9-.117 6.234.03m16.374.104c.31.29.428.824.662 1.186.39.6.836 1.16 1.16 1.802.598 1.183 1.352 2.287 1.977 3.464.336.63.63-.138.73-.483.3-1.053.285-2.17.584-3.22.156-.54.393-1.543-.107-1.99-.12-.106-1.453-.493-.713-.887.342-.185 3.545-.113 3.74.08.244.248.213.32-.236.52-1.002.442-.975.42-1.14.967-.508 1.71-.816 3.55-1.164 5.296-.217 1.08-.63 2.18-.756 3.267-.05.396-.03.787-.422 1.02-.383.227-.81.03-.914-.396-.123-.487-1.05-1.013-1.05-1.522-.027-.487-.5-1.124-.732-1.54-.287-.536-.572-1.09-.93-1.582-.57-.783-.72-1.823-1.385-2.526-.646-.684-.494.244-.707.605-.326.625-.445 1.56-.52 2.263-.123 1.12-.12 2.26-.156 3.385a2.05 2.05 0 0 0 .713.37c.326.086.457.304.39.646-.04.22-3.768.244-3.908.022-.303-.493.713-.782.943-1.05.564-.656.803-1.613.957-2.442.285-1.52.656-3.014.97-4.522.127-.593.217-1.48-.27-1.95-.12-.117-1.6-.764-.604-.95.807-.148 2.664-.05 2.89.158m32.663-.14c.666.252-.29.717-.506.8-.416.182-.615.54-.734.962-.277.994-.455 2.07-.662 3.086l-.697 3.58c-.236 1.148.203 1.862 1.447 1.727.674-.07 1.422-.168 1.8-.8.217-.36.883-1.718 1.502-1.092.117.118.135.46.03.524-.572.382-.496 2.774-1.682 2.313-.756-.303-7.236.394-7.236-.334.004-.33.262-.542.715-.587.53-.057.754-.51.883-.978.27-.973.4-2.042.57-3.04.207-1.24.654-2.454.863-3.7.06-.362.305-1.457-.182-1.676-.164-.074-1.252-.585-.47-.8.33-.09 4.115-.086 4.36.004m-120.2.502c-.217.384-.33 1.563-.22 2.27.19 1.175 1.178-.368 1.292-.777.13-.466.145-1.015-.125-1.438-.24-.38-.697-.492-.946-.054m23.457.5c-.48.438-.55 1.572-.605 2.187-.02.204-.402 2.046-.145 2.215.547.334 2-.29 2.348-1.003.38-.805.408-.895.408-1.5-.006-1.6-1.14-2.65-2.002-1.89m44.992.14c-.258.28-.72 1.27-.615 1.626.176.753-1.02 1.87-.383 2.6.34.375 1.682-.045 2.22-.69 1.102-1.333 1.094-2.814-.033-3.588-.6-.406-.75-.4-1.182.055m-83.68-.015c-.42.437-.422 1.42-.592 2.007-.655 1.97-.488 2.724.51 2.268.294-.135 1.518-.5 1.518-.93 0-.39.48-.92.57-1.337.064-.303-.14-.966-.024-1.193.077-.127-.6-.886-.9-.99-.53-.186-.787-.145-1.098.176m-11.07 2.696c-.622.548-.82 1.23-1.093 1.98-.278.76.626.56 1.157.556.81-.01.88-.23.764-.993-.06-.412-.136-.985-.163-1.274-.07-.66-.173-.705-.665-.268m134.4-.072c-.477.52-.658 1.25-1.035 1.834-.342.53-.467.764.262.772.504.005 1.61.185 1.5-.6-.348-2.353-.362-2.39-.727-1.996M76.278 67.72c-.944.438-1.48 1.794-1.02 2.58.306.522.29.898.922 1.173.538.234 1.443.412 1.925-.04.275-.258.267-.42-.037-.917-.297-.475-.52-.997-.75-1.507-.247-.55-.154-1.716-1.04-1.3m128.495.284c0 .082-.148.303-.33.493-.764.8-.686 3.104.11 3.112.176 0 .176-.018.13-1.21-.063-1.68.018-1.82 1.043-1.748.656.055 1.162.55.86.858-.063.063-.04 1.378.027 1.555.027.07-.01.12-.096.12-.08-.01-.158-.06-.19-.14-.56-1.448-1.504.46-1.03.962.572.608 1.115-.297 1.652-.394.867-.14.912-1.277.744-1.94-.12-.468-.36-.912-.71-1.25-.29-.28-.504-.66.092-.537 1.45.297 1.607 3.13.57 3.912-1.293.972-2.613 1.107-3.322.335-.156-.163-.324-.316-.506-.457-.73-.56-.582-1.548-.578-2.367.268-.392.605-1.127 1.012-1.354.23-.136.52-.104.52.058m.746 1.347c-.158.35.176.646.5.448.62-.37-.283-.923-.496-.448"/></svg>