<svg xmlns="http://www.w3.org/2000/svg" width="199" height="67" viewBox="25.194 8.419 198.425 66.308" fill-rule="evenodd"><path d="M211.8 74.847H37.762c.058-.106.033-.23-.072-.24-.595-.076-1.113-.36-1.657-.575-1.74-.692-3.18-1.795-4.4-3.207-.9-1.044-1.56-2.234-1.997-3.522-.296-.872-.608-1.762-.608-2.715V21.203c0-1.6-.07-3.22.548-4.763.4-.968.792-1.92 1.374-2.794.976-1.467 2.264-2.602 3.774-3.467.86-.494 1.753-.945 2.77-1.126.363-.064.895-.02 1.107-.514h172.352c-.055.236.1.238.272.286.487.144 1 .194 1.474.37 1.212.46 2.36 1.05 3.42 1.832 1.1.82 1.954 1.858 2.72 2.97.627.9 1.034 1.944 1.34 2.997.176.605.366 1.208.365 1.883l-.027 45.346c0 .635-.006 1.25-.215 1.906-.34 1.07-.676 2.146-1.257 3.1-1.657 2.687-3.98 4.55-7.082 5.354-.142.035-.3.074-.173.273zm-87.196-2.48l83.774.01a7.4 7.4 0 0 0 2.826-.536c1.012-.404 1.912-.978 2.767-1.606 1.15-.848 1.887-2.113 2.878-3.128.052-.053.076-.137.103-.2.28-.753.496-1.538.86-2.247.225-.44.247-.857.247-1.307l-.003-43.324a3.4 3.4 0 0 0-.199-1.195c-.178-.493-.485-.944-.6-1.433-.203-.97-.8-1.674-1.4-2.364-.62-.7-1.318-1.33-1.972-1.998-.36-.367-.813-.654-1.238-.858-.7-.335-1.354-.775-2.16-.95-.82-.178-1.6-.5-2.466-.5l-165.994.017c-.748 0-1.484-.07-2.262.213-.625.226-1.334.32-1.955.6-1.056.494-2.1 1.04-2.883 1.93-.65.732-1.432 1.33-1.968 2.192-.356.572-.803 1.043-.98 1.75-.08.313-.054.77-.37 1-.395.3-.4.7-.4 1.118l-.023 43.623c-.002.966.456 1.712.724 2.545.274.853.603 1.734 1.417 2.28.03.02.046.063.063.1.46.962 1.3 1.627 2.082 2.237.72.554 1.498 1.117 2.414 1.398.656.2 1.255.608 1.966.608l84.73.005zm-82.372-7.93l-.176-.036c-1.2-.085-1.048-.106-1.226-1.26-.204-1.32-.036-2.665-.3-3.933-.204-.976-.013-1.947-.248-2.862-.272-1.06-.03-2.158-.293-3.156-.278-1.056.004-2.114-.258-3.103-.288-1.085-.02-2.2-.295-3.217-.27-.997-.008-1.996-.257-2.927-.284-1.063-.016-2.162-.3-3.157-.287-1.036.026-2.1-.27-3.04-.362-1.17.006-2.38-.416-3.5a.84.84 0 0 1-.067-.351c.13-1.5-.204-2.976-.346-4.452s-.1-2.982-.427-4.444c-.022-.097-.06-.198-.05-.294.12-1.502-.375-2.96-.3-4.46.038-.873-.358-1.704-.3-2.602.037-.477.162-.598.626-.6l6.4-.047c1.918.08 3.822-.01 5.73-.1.326-.015.466.102.587.367.216.474.108.986.206 1.472-.08.416-.125.855.003 1.246.418 1.268.23 2.596.4 3.9.195 1.42.555 2.858.385 4.322a.34.34 0 0 0 .016.118c.362 1.37.283 2.8.478 4.18l.42 3.662c.22 1.34.128 2.687.36 4.028.165.953.307 1.955.324 2.948.002.14.014.293.184.338.165.043.278-.063.327-.196.2-.542.576-1.002.716-1.57l1.528-2.987 2.302-4.6L61.26 26.9c.577-1.292 1.292-2.52 1.934-3.785l2.922-5.75c.16-.282.32-.356.6-.356l18.304-.038 3.875-.062 8.125.124 9.1-.002 8.192-.01 5.313-.156c.454-.015.636.287.4.817-.146.342-.268.663-.153 1.032-.212.62-.306 1.26-.415 1.904l-.483 2.343-.773 4.205c-.075.787-.113.883-.922.883-7.192 0-14.386-.006-21.58 0l-13.566.034-1.252-.024c-.276.003-.415-.102-.396-.384.025-.37-.047-.73.18-1.095.237-.382.096-.854.08-1.3.104-.192.228-.372.26-.6.222-1.597.427-3.196.814-4.767.067-.273.204-.733-.158-.85-.354-.116-.304.38-.472.577-.013.015-.02.034-.03.052L75.533 30.15l-3.688 6.898-5.213 9.648c-1.606 3.1-3.33 6.14-4.995 9.207l-4.2 7.8c-.274.523-.584.715-1.154.712l-9.036-.01-5.024.027zM179.73 52c.54.837 1.337 1.32 2.253 1.653.937.34 1.903.564 2.892.488.83-.064 1.65-.218 2.47-.42 1.217-.3 2.1-1.057 3-1.813.542-.46.945-1.088 1.36-1.692.744-1.08 1.425-2.196 1.962-3.384.333-.736.772-.93 1.55-.908l6.515.046h6.27c.43.007.653.097.477.6-.146.416-.08.866-.076 1.304-.07.093-.188.178-.206.28-.173.952-.47 1.86-.865 2.744-.813 1.816-1.84 3.503-3.204 4.95-1.292 1.37-2.626 2.688-4.234 3.728L196 61.924c-1.682.876-3.46 1.508-5.255 2.092-.784.256-1.583.507-2.395.627l-1.97.357c-1.315.263-2.65.306-3.97.452-1.235.138-2.504-.016-3.773-.2l-4.548-.823c-1.2-.295-2.3-.83-3.383-1.348-.97-.46-1.883-1.05-2.703-1.792-.434-.392-.945-.7-1.306-1.184-.084-.112-.232-.15-.382-.115l.007.008c.02-.153-.076-.22-.2-.267-.378-.77-1.013-1.355-1.458-2.08-.325-.53-.55-1.103-.83-1.648-.34-.656-.554-1.36-.87-2.017-.272-.565-.173-1.2-.465-1.747-.43-.82-.095-1.828-.552-2.667-.06-.1-.017-.274-.017-.414l-.006-3.708c-.026-1.364.28-2.677.5-4.008.387-2.253 1.18-4.37 2-6.48.677-1.744 1.592-3.37 2.563-4.97.675-1.1 1.375-2.217 2.192-3.206l2.797-3.174c.976-.972 2.033-1.846 3.086-2.713 1.467-1.208 3.112-2.174 4.807-3.06l2.5-1.198c.697-.265 1.43-.435 2.135-.678.55-.2 1.12-.322 1.675-.452.58-.136 1.164-.363 1.766-.37l5.07-.036c1.445.073 2.803.45 4.192.8 1.38.34 2.676.846 3.937 1.453 1.935.932 3.73 2.085 5.118 3.764a12.91 12.91 0 0 1 1.375 2c-.016.167.062.253.228.262l-.016-.016c.107.74.6 1.317.84 2 .356 1.077.73 2.137.9 3.28.162 1.163.52 2.298.515 3.5l.037 2.387c.04.575-.185.716-.72.7l-6.987-.008-4.178.027-.176-.033c-1.18-.097-1.192-.097-1.18-1.318.01-.953-.06-1.883-.544-2.734-.217-.77-.653-1.403-1.275-1.9-1.1-.862-2.332-1.46-3.68-1.863-1.368-.4-2.76-.463-4.104-.14-1.76.424-3.235 1.47-4.54 2.698-1.202 1.13-2.12 2.5-2.863 3.973-.566 1.122-1.162 2.23-1.52 3.45l-.83 3.3a40.54 40.54 0 0 0-.454 3.637c-.054.63.2 1.223.215 1.823.015 1.32.4 2.534.9 3.7.308.723.57 1.534 1.385 1.915-.022.1.042.2.152.237zm-35.714 12.406l-1.134-.016c-.44.03-.54-.16-.52-.566.028-.543.208-1.068.38-1.543.23-.645.147-1.32.414-1.962.184-.44.207-.997.277-1.497.282-2.007.514-4.024.353-6.062a16.46 16.46 0 0 1-.04-1.314c0-.275-.08-.502-.3-.675.033-.185-.018-.34-.108-.5-.854-1.57-2.27-2.288-3.954-2.347-3.823-.134-7.65.06-11.476-.243-2.82-.223-5.658-.096-8.488-.097-.236 0-.474.036-.7.056-.397-.012-.796-.043-1.2-.027-.343.014-.43-.128-.458-.453-.063-.708.26-1.337.384-2.002s.25-1.34.472-1.973c.232-.66.204-1.36.45-2.023.182-.5.25-1.063.32-1.593.077-.6.407-1.133.35-1.775-.04-.447.434-.365.737-.366h9.018c1.275 0 2.554.06 3.824-.02 1.17-.073 2.28.32 3.442.274 1.8-.07 3.578-.102 5.373-.012.9.046 1.814-.242 2.715-.464 1.084-.268 1.927-.834 2.673-1.612.45-.47.652-1.046.8-1.67.1-.474.376-.916.248-1.427a23.54 23.54 0 0 0-.315-1.14c-.043-.138-.103-.253-.28-.2.1-.253-.025-.45-.172-.653-1-1.4-2.38-2.04-4.1-2.144-1.373-.083-2.737-.04-4.104.01-.82.03-1.6-.238-2.424-.24-2.48-.008-4.96.053-7.44.01-1.97-.034-3.943-.085-5.915.03-.312-.096-.633-.06-.95-.058-.745.002-.93-.276-.652-.972.25-.63.344-1.305.53-1.947.15-.516.188-1.06.4-1.564.22-.496.188-1.063.35-1.596.202-.675.4-1.376.514-2.064.1-.556.404-1.073.346-1.655-.04-.42.297-.72.338-1.123.02-.188.3-.143.468-.154 4.1-.275 8.234-.142 12.348-.3 3.642-.147 7.283-.278 10.92-.145 1.006.037 2.075.106 3.1.422.592.184 1.242.178 1.866.314.815.178 1.624.396 2.404.657.803.268 1.604.58 2.353 1.017 1.446.846 2.642 1.917 3.426 3.415l.144.177.084.095c.017.296.002.585.1.883.177.6.35 1.2.42 1.83.085.77.107 1.55.073 2.324-.055 1.257.028 2.512-.268 3.773-.15.65-.204 1.377-.393 2.013-.32 1.084-.788 2.135-1.333 3.143-.98 1.812-2.3 3.285-4.16 4.2-.774.38-1.603.654-2.5.885.916.42 1.836.797 2.526 1.534.514.545.82 1.218 1.167 1.867.53 1.932.87 3.9.715 5.9-.126 1.608-.236 3.2-.234 4.822 0 .06-.01.12-.022.178-.4 1.658-.133 3.317.077 4.96.05.404.2.86.415 1.27.313.598.564 1.218 1.117 1.647.093.072.18.177.103.3-.057.097-.168.112-.265.086-.855-.23-1.7.04-2.553.04l-11.545.02c-.177.003-.353.04-.53.06zm-70.7.03l-1.132-.042c-.5-.013-.634-.264-.464-.734.263-.732.415-1.488.52-2.265s.2-1.572.48-2.326c.18-.467.186-1.005.257-1.484l.396-2.012c.107-.705.133-1.454.434-2.138a.52.52 0 0 1 .573-.377l19.072.065 16.02-.016 2.2-.026c.317-.002.54.055.277.443s-.006.866-.173 1.28c-.132.08-.204.2-.188.352.1.788-.35 1.48-.387 2.27-.023.487-.08 1.066-.276 1.544-.268.647-.317 1.346-.44 2l-.385 2.2c-.098.878-.324 1.125-.853 1.084-2.482-.2-4.966.04-7.45-.05-2.1-.076-4.2.034-6.297.123-1.486.063-2.963-.217-4.46-.027-.953.12-1.933-.016-2.907.006L75.1 64.4l-1.794.028zm4.395-18.443l-1.193-.028c-.397.017-.52-.175-.42-.5.242-.825.307-1.702.573-2.5.292-.878.47-1.787.7-2.67l.655-2.836c.095-.516.15-1.084.427-1.568.04-.067.063-.147.078-.224.198-.985.198-.98 1.2-.98l21.28.004 5.906.05 4.84-.055c.768-.01.757-.005.646.744-.055.372-.06.752-.086 1.13-.267.144-.203.4-.226.634-.06.644-.144 1.324-.34 1.9-.384 1.128-.424 2.307-.7 3.445-.227.902-.36 1.843-.54 2.767-.1.567-.357.626-.83.626-10.42-.007-20.84-.003-31.26.002-.235 0-.48-.05-.705.07z" fill="#ca0202"/><path d="M42.222 64.436l5.024-.027 9.036.01c.57.003.88-.188 1.154-.712l4.2-7.8L66.63 46.7c1.683-3.247 3.454-6.443 5.213-9.648l3.688-6.898 5.626-10.448c.01-.018.017-.037.03-.052.168-.195.118-.692.472-.577.362.118.226.578.158.85-.387 1.57-.592 3.17-.814 4.767-.03.227-.156.407-.26.6-.473.454-.744 1.053-1.045 1.607l-2.368 4.507c-.8 1.476-1.674 2.903-2.365 4.435-.408.903-.957 1.742-1.433 2.615L70.848 43.4c-.882 1.6-1.836 3.183-2.65 4.826-.714 1.443-1.477 2.858-2.24 4.274l-3.58 6.63-3.402 6.4c-.283.54-.6.806-1.288.8l-14.84-.008c-.504.002-.68-.14-.633-.64.04-.415.007-.837.006-1.256zM166.304 60c.15-.035.298.003.382.115.36.483.872.792 1.306 1.184.82.74 1.732 1.333 2.703 1.792 1.092.517 2.182 1.053 3.383 1.348 1.505.37 3.013.613 4.548.823 1.27.174 2.538.327 3.773.2l3.97-.452 1.97-.357c.812-.12 1.6-.37 2.395-.627 1.795-.584 3.573-1.216 5.255-2.092 1.35-.702 2.63-1.5 3.908-2.336 1.608-1.04 2.942-2.358 4.234-3.728 1.364-1.446 2.392-3.133 3.204-4.95.395-.883.692-1.792.865-2.744.02-.103.135-.188.206-.28l1.194-.007c.482-.02.598.28.405.605-.323.55-.2 1.178-.448 1.75-.333.77-.417 1.626-.755 2.43-.36.854-.786 1.657-1.235 2.453-.206.366-.467.714-.714 1.06-1.062 1.5-2.376 2.757-3.718 3.98-1 .9-2.168 1.618-3.313 2.355-1.084.698-2.26 1.195-3.367 1.835-.9.515-1.882.846-2.873 1.153l-2 .646c-.602.153-1.18.392-1.808.447-.527.047-1.086.167-1.542.332-.78.282-1.578.225-2.342.303-.583.06-1.165.237-1.774.205-1.014-.055-2.036.045-3.047-.032l-2.923-.328-2.693-.678c-1.114-.282-2.14-.722-3.155-1.185-1.03-.47-2.02-1.055-2.816-1.906-.333-.356-.8-.515-1.17-.868-.76-.746-1.363-1.6-2.017-2.437zm-92.987 4.437l1.792-.028 13.033-.103c.974-.02 1.955.114 2.907-.006 1.498-.2 2.975.1 4.46.027l6.297-.123 7.45.05c.528.04.755-.206.853-1.084.084-.744.25-1.48.385-2.2.123-.654.173-1.353.44-2 .197-.478.253-1.057.276-1.544.037-.787.478-1.48.387-2.27a.36.36 0 0 1 .188-.352l1.13.05c.5.042.64.307.415.733-.045.086-.104.182-.102.27.038 1.216-.37 2.37-.608 3.53l-.697 3.333c-.186.728-.354 1.53-.354 2.323-.001.825-.458 1.24-1.28 1.268-1.57.053-3.127-.355-4.692-.2-3.43.34-6.867.167-10.3.188l-21.58.02c-.66.001-.92-.342-.6-.92.183-.327.186-.632.197-.964zm8.8-36.343l13.566-.034h21.58c.8 0 .847-.097.922-.883.07-.733.283-1.452.4-2.18l.373-2.025.483-2.343c.1-.645.203-1.284.415-1.904l.778.001c.803-.004 1.114.44.742 1.18-.165.33-.1.66-.212.962-.23.68-.155 1.413-.464 2.08-.202.435-.184.958-.27 1.424l-.356 2.028c-.117.747-.198 1.506-.48 2.217-.093.235-.083.475-.06.707.055.522-.143.692-.674.687l-8.437-.01c-9.214 0-18.428.001-27.642-.007-.302 0-.747.188-.883-.133-.17-.404-.154-.9.024-1.335.06-.14.16-.27.185-.43zm-4.405 17.9c.225-.12.47-.07.705-.07l31.26-.002c.474 0 .72-.06.83-.626l.54-2.767c.286-1.14.326-2.317.7-3.445.196-.577.28-1.258.34-1.9.022-.233-.04-.5.226-.634l1.252.045s.538.2.406.57c-.263.76-.28 1.577-.512 2.33-.196.632-.1 1.33-.48 1.9a.25.25 0 0 0-.04.17c.175.8-.172 1.534-.328 2.258-.262 1.2-.34 2.46-.733 3.65-.137.412-.332.406-.64.406l-14.357-.002H78.108c-.65 0-.9-.347-.592-.93.18-.326.2-.628.196-.963zm101.864 5.78c-.814-.38-1.077-1.192-1.385-1.915-.502-1.177-.887-2.392-.9-3.7-.006-.6-.27-1.193-.215-1.823l.454-3.637c.198-1.124.5-2.203.83-3.3.36-1.22.955-2.327 1.52-3.45.743-1.473 1.66-2.842 2.863-3.973 1.305-1.227 2.78-2.274 4.54-2.698 1.345-.324 2.736-.272 4.104.14 1.347.404 2.578 1 3.68 1.863a3.59 3.59 0 0 1 1.275 1.89c-.935-.768-2.03-1.247-3.145-1.657-1-.372-2.088-.348-3.16-.376-1.444-.037-2.667.536-3.857 1.233-1.406.824-2.556 1.953-3.5 3.253-.894 1.22-1.685 2.534-2.24 3.934a31.12 31.12 0 0 0-1.23 3.806c-.467 1.848-.585 3.696-.57 5.566a12.61 12.61 0 0 0 .537 3.505c.132.444.37.864.406 1.34zm-35.56 12.642c.177-.02.353-.058.528-.058l11.545-.02c.852 0 1.697-.27 2.553-.04.097.026.208.01.265-.086.076-.132-.01-.236-.103-.3-.553-.43-.805-1.05-1.117-1.647a3.8 3.8 0 0 1-.415-1.27c-.2-1.644-.477-3.303-.077-4.96a.79.79 0 0 0 .022-.178c-.002-1.612.108-3.214.234-4.822.156-2-.185-3.97-.715-5.9.985.66 1.337 1.67 1.628 2.76.53 1.995.752 4.045.465 6.05-.278 1.945-.073 3.887-.307 5.822a9.24 9.24 0 0 0 .142 3.026c.25 1.152.65 2.306 1.614 3.128.094.08.263.163.172.335-.068.128-.2.08-.324.08-5.34 0-10.678 0-16.018-.003-.404 0-.723.002-.443-.6.176-.386.244-.857.35-1.293zM118.7 47.642l.7-.056 8.488.097c3.825.303 7.652.1 11.476.243 1.683.06 3.1.776 3.954 2.347.1.168.142.324.108.5-1.484-.84-3.105-1-4.77-.975-2.4.02-4.818.044-7.227-.012-1.1-.025-2.238.082-3.327-.07-.868-.123-1.725-.184-2.592-.186a1117.98 1117.98 0 0 0-6.603.003c-.378.001-.614.023-.523-.54.077-.465.144-.92.307-1.36zm4.427-19.482c1.972-.116 3.945-.064 5.915-.03l7.44-.01c.824.002 1.603.27 2.424.24l4.104-.01c1.718.104 3.088.745 4.1 2.144.146.203.262.4.183.658-.604-.173-1.077-.638-1.717-.75-.187-.032-.37-.12-.57-.125-.712-.02-1.424.048-2.134-.135-.6-.157-1.2.153-1.83.14-2.188-.045-4.383.006-6.563-.146-.857-.06-1.653.202-2.504.134-.748-.06-1.468-.454-2.22-.26-.968.25-1.938.12-2.902.086-.6-.02-1.26-.232-1.83-.058-.56.17-1.1.126-1.633.15-.64.03-.6-.05-.583-.664.023-.495.4-.875.32-1.367zm32.443 15.095c-.7-.737-1.6-1.115-2.526-1.534.897-.23 1.726-.504 2.5-.885 1.862-.916 3.183-2.4 4.16-4.2.545-1.008 1.012-2.06 1.333-3.143.188-.636.24-1.364.393-2.013.296-1.26.213-2.516.268-3.773.034-.773.012-1.555-.073-2.324-.068-.618-.242-1.23-.42-1.83-.088-.298-.073-.587-.1-.883.7.68 1.104 1.5 1.392 2.428.357 1.163.508 2.32.552 3.526.02.542.194 1.1.102 1.648-.18 1.04-.055 2.098-.343 3.146-.162.6-.324 1.24-.34 1.882-.01.407-.2.772-.354 1.104-.846 1.95-1.77 3.866-3.474 5.26-.917.75-1.902 1.36-3.082 1.593zm42.673-8l4.178-.027 6.987.008c.534.005.76-.136.72-.7-.056-.793-.04-1.6-.037-2.387.006-1.192-.353-2.327-.515-3.5-.16-1.143-.533-2.203-.9-3.28-.23-.7-.73-1.268-.84-2 .556.545.95 1.216 1.312 1.883.648 1.196 1.173 2.445 1.502 3.784l.565 2.697c.204.875.08 1.747.256 2.584.147.713-.07 1.42.155 2.12.197.613-.17.74-.7.736l-6.04-.008c-2.033 0-4.066-.01-6.1.008-.405.004-.6-.095-.556-.533.035-.455.01-.916.013-1.374zM53.878 41.692c-.14.568-.518 1.028-.716 1.57-.05.133-.162.24-.327.196s-.18-.198-.184-.338c-.017-.993-.16-1.995-.324-2.948-.23-1.342-.14-2.7-.36-4.028l-.42-3.662c-.194-1.4-.115-2.8-.478-4.18a.32.32 0 0 1-.016-.118c.17-1.464-.2-2.9-.385-4.322-.178-1.294.008-2.623-.4-3.9-.13-.4-.083-.83-.003-1.246l.597-.003c.45-.03.75.244.712.615-.14 1.422.232 2.8.354 4.193.1 1.26.024 2.568.45 3.8a.42.42 0 0 1 .03.176c-.155 1.458.298 2.873.316 4.324.012.935.236 1.87.406 2.798.07.377.072.75.087 1.126.06 1.545.422 3.065.33 4.627-.025.43.22.875.34 1.313z" fill="#3a3535"/></svg>