<?xml version="1.0" encoding="utf-8"?>
<!-- Generator: Adobe Illustrator 16.0.3, SVG Export Plug-In . SVG Version: 6.00 Build 0)  -->
<!DOCTYPE svg PUBLIC "-//W3C//DTD SVG 1.1//EN" "http://www.w3.org/Graphics/SVG/1.1/DTD/svg11.dtd">
<svg version="1.1" id="Layer_1" xmlns="http://www.w3.org/2000/svg" xmlns:xlink="http://www.w3.org/1999/xlink" x="0px" y="0px"
	 width="181px" height="149px" viewBox="0 0 181 149" enable-background="new 0 0 181 149" xml:space="preserve">
<text transform="matrix(1 0 0 1 10 141)" fill="#00AE74" font-family="'ArialMT'" font-size="32">Box Trucks</text>
<g transform="translate(0,-952.36218)">
	<path fill="#04AE74" d="M3.729,952.362c-2.022,0.193-3.738,2.114-3.729,4.176v83.496c0,2.187,1.961,4.176,4.115,4.176h10.353
		c1.013,9.375,8.955,16.699,18.453,16.699c9.499,0,17.441-7.324,18.454-16.699h51.503c2.156,0,4.115-1.989,4.115-4.176v-83.496
		c0-2.187-1.959-4.175-4.115-4.176C69.837,952.362,36.742,952.362,3.729,952.362L3.729,952.362z M8.23,960.712h90.533v45.924
		c-14.521,0-29.103,0-43.595,0c-2.155,0.103-4.025,2.185-3.924,4.371c0.102,2.186,2.154,4.082,4.31,3.979h43.209v6.263
		c-5.599,0-11.277,0-16.846,0c-2.155,0.103-4.024,2.184-3.923,4.37s2.154,4.082,4.309,3.979h16.461v6.263H8.23V960.712z
		 M117.088,969.062c-2.069,0.099-3.893,2.009-3.923,4.109c0,19.186,0,38.452,0,57.665c0,1.834,1.336,3.584,3.086,4.042
		c1.752,0.459,3.754-0.415,4.63-2.02c3.545-6.475,11.283-11.611,19.032-11.611c10.608,0,19.271,8.751,20.575,19.309
		c0.25,2.007,2.123,3.669,4.116,3.653h12.346c2.154,0,4.114-1.989,4.114-4.175v-31.312c0.008-0.284-0.016-0.568-0.063-0.849
		c-0.722-3.789-4.023-6.724-7.266-7.437c-0.275-0.05-0.557-0.072-0.838-0.064h-8.808l-3.665-27.724
		c-0.275-1.962-2.097-3.577-4.051-3.588C143.296,969.062,130.13,969.062,117.088,969.062L117.088,969.062z M121.395,977.412h6.173
		l-0.063,22.896c-0.033,2.207,1.938,4.24,4.116,4.24h24.754l0.065,0.521c0.246,1.985,2.077,3.637,4.049,3.653h11.64
		c0.531,0.063,0.595,0.021,0.706,0.717v26.42h-5.207c-3.227-12.786-14.035-22.962-27.714-22.962c-6.982,0-13.37,2.816-18.519,7.045
		V977.412z M135.799,977.412h16.975l2.507,18.786h-19.546L135.799,977.412z M63.398,1021.248c-2.155,0.103-4.023,2.184-3.922,4.37
		c0.1,2.187,2.153,4.082,4.309,3.979H67.9c2.173,0.031,4.174-1.97,4.174-4.175c0-2.206-2-4.206-4.174-4.175
		C66.418,1021.248,64.848,1021.248,63.398,1021.248L63.398,1021.248z M139.914,1027.51c-9.042,0-16.46,7.526-16.46,16.7
		c0,9.173,7.418,16.699,16.46,16.699c9.043,0,16.461-7.526,16.461-16.699C156.375,1035.036,148.957,1027.51,139.914,1027.51z
		 M139.914,1035.86c4.594,0,8.23,3.688,8.23,8.35c0,4.66-3.637,8.349-8.23,8.349c-4.593,0-8.229-3.688-8.229-8.349
		C131.684,1039.549,135.321,1035.86,139.914,1035.86z M22.826,1044.21h20.189c-0.926,4.811-5.059,8.349-10.095,8.349
		C27.884,1052.558,23.753,1049.02,22.826,1044.21z"/>
</g>
</svg>
