<?xml version="1.0" encoding="utf-8"?>
<!-- Generator: Adobe Illustrator 16.0.3, SVG Export Plug-In . SVG Version: 6.00 Build 0)  -->
<!DOCTYPE svg PUBLIC "-//W3C//DTD SVG 1.1//EN" "http://www.w3.org/Graphics/SVG/1.1/DTD/svg11.dtd">
<svg version="1.1" id="Layer_1" xmlns="http://www.w3.org/2000/svg" xmlns:xlink="http://www.w3.org/1999/xlink" x="0px" y="0px"
	 width="181px" height="149px" viewBox="0 0 181 149" enable-background="new 0 0 181 149" xml:space="preserve">
<text transform="matrix(1 0 0 1 23 141)" fill="#00AE74" font-family="Arial" font-size="32">Campers</text>
<g>
	<path fill="#02AE74" d="M50.317,49.605H75.12c1.369,0,2.479-1.107,2.48-2.477c0-0.001,0-0.001,0-0.002V32.246
		c0.001-1.37-1.108-2.48-2.477-2.481c-0.002,0-0.002,0-0.003,0H55.279c-1.067,0.001-2.014,0.685-2.354,1.697l-4.96,14.881
		c-0.434,1.302,0.273,2.708,1.576,3.139C49.791,49.563,50.053,49.605,50.317,49.605z M57.065,34.725h15.575v9.921H53.758
		L57.065,34.725z"/>
	<path fill="#02AE74" d="M154.491,24.803h-29.766c-1.367,0-2.479,1.109-2.479,2.478c0,0.001,0,0.001,0,0.002v19.843
		c-0.002,1.369,1.107,2.479,2.479,2.479l0,0h29.766c1.369,0,2.479-1.107,2.479-2.477c0-0.001,0-0.001,0-0.002V27.284
		c0.002-1.369-1.107-2.479-2.477-2.48C154.493,24.803,154.491,24.803,154.491,24.803z M127.206,44.646V29.764h9.922v14.882H127.206z
		 M152.008,44.646h-9.92V29.764h9.92V44.646z"/>
	<path fill="#02AE74" d="M152.004,0H32.933c-1.139,0-2.132,0.774-2.407,1.88l-3.425,13.706c-0.996,3.973,1.418,7.999,5.389,8.995
		c0.59,0.147,1.196,0.222,1.805,0.222h9.858l-8.091,20.225L21.931,48.56c-3.772,0.959-6.188,4.644-5.567,8.488l1.223,7.33
		c-1.158,0.205-2.006,1.209-2.016,2.385v5.166c0,1.369,1.108,2.48,2.478,2.482c0.001,0,0.001,0,0.002,0h1.208l1.307,7.847
		c0.199,1.195,1.234,2.072,2.447,2.072h4.96v-0.104l0.246,0.063c0.672,4.068,3.004,7.68,6.438,9.963h-6.686
		c-1.369,0-2.48,1.111-2.48,2.479c0,1.369,1.112,2.48,2.481,2.48h114.093c1.371,0,2.48-1.111,2.48-2.48
		c0-1.367-1.111-2.479-2.48-2.479H130.42c3.424-2.275,5.754-5.867,6.436-9.922h25.051c1.369,0,2.48-1.107,2.48-2.477
		c0,0,0,0,0-0.002V12.384C164.381,5.547,158.84,0.007,152.004,0z M70.137,4.96v4.961H55.256V4.96H70.137z M23.133,53.373
		l15.36-3.841c0.773-0.19,1.407-0.744,1.702-1.485l9.296-23.243h30.567v34.723H63.724L64.45,58.8c0.97-0.97,0.97-2.54,0-3.508
		c-0.464-0.465-1.095-0.727-1.753-0.728H21.584C21.916,53.975,22.475,53.543,23.133,53.373z M85.02,24.803h24.803v34.724H85.02
		V24.803z M127.184,81.85c0,2.74-2.221,4.961-4.959,4.961c-2.74,0-4.963-2.221-4.963-4.961v-2.48h9.922V81.85z M23.521,64.385
		c-0.166-0.053-0.337-0.088-0.509-0.104h-0.413l-0.792-4.754h3.685v2.48C25.479,63.167,24.658,64.159,23.521,64.385z M24.227,74.045
		c0.771-0.426,1.256-1.234,1.265-2.117v-2.938c2.964-1.043,4.951-3.842,4.961-6.984v-2.48h26.257l-0.727,0.729
		c-0.97,0.968-0.968,2.539,0,3.507c0.466,0.463,1.096,0.725,1.753,0.725h22.323v9.922H56.245c-1.82-2.645-4.326-4.744-7.246-6.076
		c-0.154-0.07-0.295-0.158-0.448-0.223c-0.6-0.229-1.211-0.418-1.834-0.57c-0.323-0.088-0.633-0.213-0.965-0.279
		c-1.912-0.391-3.885-0.391-5.795,0c-0.329,0.064-0.634,0.189-0.953,0.273c-0.628,0.152-1.245,0.346-1.85,0.576
		c-0.147,0.063-0.28,0.145-0.429,0.213c-2.929,1.33-5.44,3.436-7.266,6.084h-5.173L24.227,74.045z M42.854,76.889
		c2.74,0,4.961,2.221,4.961,4.961s-2.221,4.961-4.961,4.961s-4.961-2.221-4.961-4.961C37.896,79.109,40.115,76.891,42.854,76.889z
		 M109.823,71.928v2.482H85.02v-9.922h24.803V71.928z M51.05,94.252c3.425-2.275,5.753-5.867,6.435-9.922h50.108
		c0.682,4.055,3.012,7.646,6.436,9.922H51.05z M139.586,74.411h-1.453l-4.234-4.234c-0.465-0.467-1.096-0.727-1.754-0.727h-17.361
		v-4.961h44.646v9.92h-19.844V74.411z M159.428,24.803v29.764h-4.961c-1.369,0-2.479,1.108-2.479,2.479c0,0.001,0,0.002,0,0.003
		v2.479h-37.205V22.323c0-1.37-1.109-2.479-2.479-2.48h-0.002h-78.01c-1.355-0.001-2.453-1.101-2.452-2.458
		c0-0.2,0.023-0.399,0.074-0.594L34.869,4.96h15.427v7.44c-0.001,1.369,1.108,2.479,2.478,2.48c0.001,0,0.001,0,0.003,0h19.843
		c1.368,0.001,2.479-1.109,2.479-2.478c0,0,0-0.001,0-0.002V4.96h76.906c4.098,0.005,7.42,3.326,7.426,7.425v2.498h-4.961
		c-1.369,0-2.479,1.111-2.479,2.479c0,1.371,1.109,2.481,2.479,2.481h4.961L159.428,24.803L159.428,24.803z"/>
	<path fill="#02AE74" d="M104.883,29.764h-9.922c-1.369,0-2.479,1.109-2.479,2.479c0,0,0,0.001,0,0.002v14.882
		c0,1.369,1.107,2.479,2.477,2.479c0.002,0,0.002,0,0.002,0h9.922c1.369,0,2.479-1.107,2.479-2.477c0-0.001,0-0.001,0-0.002v-14.88
		c0-1.37-1.107-2.48-2.475-2.481C104.885,29.764,104.885,29.764,104.883,29.764z M102.403,44.646h-4.961v-9.921h4.961V44.646z"/>
</g>
</svg>
