<?xml version="1.0" encoding="utf-8"?>
<!-- Generator: Adobe Illustrator 16.0.3, SVG Export Plug-In . SVG Version: 6.00 Build 0)  -->
<!DOCTYPE svg PUBLIC "-//W3C//DTD SVG 1.1//EN" "http://www.w3.org/Graphics/SVG/1.1/DTD/svg11.dtd">
<svg version="1.1" id="Layer_1" xmlns="http://www.w3.org/2000/svg" xmlns:xlink="http://www.w3.org/1999/xlink" x="0px" y="0px"
	 width="181px" height="149px" viewBox="0 0 181 149" enable-background="new 0 0 181 149" xml:space="preserve">
<text transform="matrix(1 0 0 1 6 141)" fill="#00AE74" font-family="Arial" font-size="32">Dealerships</text>
<g>
	<g>
		<path fill-rule="evenodd" clip-rule="evenodd" fill="#08AF77" d="M32.931,20.126c48.725,0,97.45,0,146.174,0
			c1.433,0.626,1.938,1.684,1.934,3.272c-0.047,16.008-0.029,32.017-0.027,48.025c0,0.512,0.024,1.024,0.037,1.536
			c-0.405,3.139-2.934,2.246-5.008,2.472c1.686,2.8,2.546,5.663,2.375,8.84c-0.251,4.65-3.64,9.692-8.119,11.155
			c-3.97,1.297-7.776,0.869-11.093-1.676c-2.873-2.205-4.53-5.261-4.971-8.909c-0.041-0.334,0.103-0.744-0.445-0.881
			c-0.109,3.838-1.795,6.986-4.583,9.459c-2.395,2.124-5.375,2.958-8.571,2.623c-5.567-0.583-8.887-3.893-10.554-9.047
			c-0.253-0.781-0.534-1.106-1.425-1.104c-10.854,0.037-21.709,0.032-32.563,0.007c-0.809-0.002-1.169,0.196-1.357,1.03
			c-0.641,2.832-2.334,5.058-4.531,6.822c-4.281,3.438-11.59,3.073-15.471-1.181c-3.095-3.393-4.138-7.209-3.555-11.639
			c0.261-1.979,1.282-3.656,2.086-5.452c-1.688,0-3.298,0-4.978,0c0.376,0.739,0.713,1.36,1.014,1.998
			c2.733,5.791,1.269,12.163-3.51,16.097c-3.401,2.8-7.435,3.282-11.584,1.709c-3.93-1.49-6.208-4.511-7.363-8.446
			c-0.195-0.666-0.438-0.948-1.182-0.939c-3.591,0.041-7.184,0.032-10.775,0.005c-0.656-0.005-0.949,0.164-1.108,0.852
			c-0.644,2.779-2.209,5.06-4.362,6.831c-4.523,3.723-11.831,3.149-15.571-0.894c-2.595-2.805-3.906-5.943-3.864-9.681
			c0.01-0.939-0.282-1.104-1.122-1.074c-1.774,0.062-3.552,0.021-5.328,0.018c-2.033-0.004-2.715-0.576-3.108-2.599
			C0.416,70.747,0.41,62.138,0.405,53.53c0.17-2.627,1.018-5.069,2.284-7.33c1.837-3.281,4.561-5.796,7.697-7.771
			c3.234-2.036,6.951-3.031,10.606-3.982c3.041-0.791,6.213-1.048,9.375-1.046c0.746,0,0.923-0.259,0.915-0.96
			c-0.034-2.879,0.064-5.763-0.045-8.638C31.176,22.214,31.543,20.975,32.931,20.126z M36.12,45.853
			c-0.017,0.302-0.037,0.494-0.037,0.686c-0.001,7.542,0.019,15.083-0.026,22.624c-0.006,1.012,0.3,1.217,1.257,1.217
			c45.918-0.023,91.837-0.024,137.755,0.004c1.017,0,1.208-0.294,1.206-1.25c-0.031-14.095-0.018-28.19-0.026-42.286
			c-0.001-1.773,0.323-1.645-1.626-1.645c-37.39-0.003-74.78-0.002-112.17-0.002c-8.41,0-16.819,0.01-25.229-0.016
			c-0.875-0.003-1.234,0.153-1.22,1.153c0.072,5.092,0.073,10.185,0.064,15.277c-0.001,0.702,0.174,1.003,0.917,0.966
			c0.985-0.049,1.976-0.052,2.96,0.001c0.753,0.041,1.091-0.294,1.397-0.953c1.03-2.213,1.724-4.573,2.959-6.697
			c1.182-2.032,2.84-3.152,5.272-3.138c6.712,0.038,13.424,0.055,20.136-0.006c2.459-0.022,4.11,1.125,5.293,3.117
			c1.272,2.141,1.971,4.544,3.002,6.797c0.284,0.622,0.622,0.891,1.322,0.879c2.207-0.038,4.416-0.033,6.623-0.001
			c0.69,0.01,1.032-0.257,1.322-0.882c1.043-2.25,1.747-4.651,3.005-6.803c1.157-1.978,2.794-3.112,5.182-3.101
			c6.751,0.031,13.503,0.049,20.254-0.007c2.409-0.02,4.05,1.109,5.215,3.051c1.302,2.168,2.006,4.615,3.055,6.903
			c0.261,0.568,0.56,0.848,1.229,0.837c2.326-0.037,4.653-0.038,6.979,0.005c0.729,0.014,1.016-0.332,1.293-0.927
			c1.047-2.248,1.742-4.655,3.007-6.8c1.159-1.965,2.817-3.08,5.21-3.065c6.711,0.042,13.424,0.05,20.136-0.004
			c1.795-0.015,3.224,0.574,4.411,1.86c1.373,1.486,2.063,3.352,2.683,5.205c1.232,3.68,1.205,3.72,5.01,3.717
			c0.119,0,0.237,0,0.355,0c1.465-0.001,2.14,1.222,1.438,2.551c-0.503,0.952-1.4,1.311-2.332,1.404
			c-1.075,0.107-0.994,0.489-0.65,1.281c0.481,1.114,1.255,2.186,1.27,3.41c0.06,5.131,0.047,10.263-0.01,15.394
			c-0.019,1.692-0.777,2.309-2.454,2.31c-1.777,0-3.554,0.002-5.331,0c-1.559-0.002-2.233-0.637-2.271-2.199
			c-0.028-1.144-0.022-2.291,0.013-3.435c0.021-0.647-0.171-0.896-0.873-0.895c-7.502,0.023-15.004,0.021-22.506,0
			c-0.634-0.002-0.841,0.216-0.827,0.817c0.023,1.105,0.036,2.212,0.001,3.316c-0.058,1.771-0.727,2.395-2.486,2.395
			c-1.54-0.001-3.084-0.076-4.618,0.018c-1.952,0.12-2.957-0.037-2.979-3.083c-0.027-3.435,0.027-6.871-0.063-10.303
			c-0.072-2.783-0.068-5.519,1.429-8.007c0.02-0.034,0.039-0.068,0.056-0.104c0.236-0.514,0.133-0.754-0.487-0.873
			c-1.15-0.218-2.22-0.407-3.44-0.074c-1.042,0.284-0.931,0.573-0.61,1.327c0.474,1.118,1.248,2.186,1.262,3.413
			c0.059,5.091,0.038,10.184-0.005,15.276c-0.015,1.763-0.752,2.41-2.478,2.411c-1.776,0-3.554,0.002-5.33,0
			c-1.545-0.002-2.22-0.65-2.255-2.216c-0.024-1.144-0.025-2.291,0.014-3.434c0.023-0.669-0.209-0.878-0.892-0.876
			c-7.462,0.023-14.924,0.027-22.386-0.002c-0.766-0.003-0.959,0.261-0.933,0.955c0.039,1.025,0.03,2.053,0.007,3.079
			c-0.042,1.855-0.698,2.496-2.507,2.496c-1.579-0.001-3.163-0.079-4.736,0.02c-1.789,0.113-2.795-0.084-2.836-2.866
			c-0.057-3.829,0.041-7.662-0.087-11.487c-0.081-2.418,0.164-4.706,1.361-6.839c0.388-0.691,0.409-1.052-0.595-1.227
			c-1.026-0.179-1.953-0.231-2.991-0.006c-0.972,0.21-0.922,0.491-0.6,1.237c0.482,1.116,1.264,2.198,1.282,3.408
			c0.074,5.17,0.056,10.342-0.01,15.512c-0.021,1.639-0.788,2.247-2.392,2.249c-1.777,0.001-3.553,0.001-5.33,0
			c-1.679-0.001-2.315-0.648-2.326-2.378c-0.007-1.066-0.032-2.133,0.012-3.198c0.029-0.707-0.184-0.954-0.937-0.951
			c-7.462,0.027-14.925,0.025-22.387-0.001c-0.694-0.002-0.907,0.223-0.887,0.879c0.032,1.104,0.045,2.212,0.001,3.316
			c-0.069,1.709-0.744,2.333-2.427,2.333c-1.58,0-3.164-0.076-4.737,0.02c-1.861,0.112-2.869-0.035-2.912-2.909
			c-0.054-3.592,0.034-7.187-0.076-10.776c-0.082-2.676,0.015-5.274,1.412-7.656c0.04-0.068,0.08-0.137,0.108-0.21
			c0.178-0.457,0.122-0.778-0.461-0.795C37.701,46.57,36.999,46.194,36.12,45.853z M31.143,74.567
			c0.074-0.217,0.119-0.286,0.119-0.355c0-11.68-0.009-23.359,0.01-35.039c0.001-0.732-0.29-0.84-0.909-0.81
			c-1.834,0.088-3.632,0.38-5.443,0.685c-4.011,0.676-7.953,1.521-11.575,3.459c-0.303,0.162-0.905,0.199-0.76,0.715
			c0.115,0.407,0.617,0.213,0.942,0.215c2.683,0.015,5.366-0.006,8.049,0.014c2.004,0.015,2.866,0.891,2.87,2.896
			c0.009,5.051-0.033,10.102,0.021,15.152c0.022,2.047-1.011,3.367-3.25,3.307c-4.968-0.133-9.942-0.039-14.914-0.044
			c-0.619-0.001-1.126-0.07-1.11,0.879c0.057,3.472,0.039,6.944,0.008,10.417c-0.006,0.687,0.228,0.884,0.884,0.868
			c1.538-0.037,3.078-0.034,4.616,0c0.586,0.013,0.862-0.193,1.165-0.72c1.075-1.873,2.696-3.306,4.495-4.379
			c2.697-1.608,5.682-1.834,8.76-1.112C27.562,71.288,29.311,72.877,31.143,74.567z M59.657,44.917
			c5.054,0,10.107-0.021,15.161,0.019c0.966,0.007,1.052-0.224,0.673-1.053c-0.817-1.787-1.557-3.609-2.306-5.427
			c-1.023-2.481-2.059-3.183-4.763-3.182c-5.962,0-11.924,0.064-17.884-0.036c-1.995-0.033-3.247,0.792-4.02,2.477
			c-0.936,2.038-1.743,4.134-2.682,6.169c-0.386,0.836-0.314,1.059,0.661,1.052C49.55,44.896,54.603,44.917,59.657,44.917z
			 M105.56,44.917c5.054,0,10.107-0.027,15.16,0.022c1.055,0.01,1.091-0.265,0.706-1.112c-0.798-1.752-1.533-3.534-2.255-5.319
			c-1.005-2.482-2.081-3.235-4.731-3.234c-5.962,0.001-11.924,0.068-17.884-0.037c-2.042-0.036-3.317,0.794-4.106,2.532
			c-0.911,2.006-1.712,4.062-2.636,6.061c-0.405,0.875-0.321,1.117,0.704,1.108C95.532,44.893,100.546,44.917,105.56,44.917z
			 M151.728,44.917c5.093,0,10.187-0.016,15.279,0.016c0.841,0.005,1.057-0.13,0.675-0.969c-0.83-1.824-1.582-3.685-2.353-5.536
			c-1.033-2.481-2.047-3.155-4.78-3.154c-5.922,0-11.846,0.073-17.766-0.039c-2.1-0.04-3.378,0.83-4.176,2.612
			c-0.901,2.011-1.689,4.072-2.627,6.064c-0.443,0.94-0.154,1.024,0.705,1.019C141.7,44.902,146.714,44.917,151.728,44.917z
			 M131.849,75.458c-13.051,0-25.958,0-38.94,0c0.681,1.479,1.566,2.769,1.854,4.281c0.178,0.935,0.631,1.1,1.512,1.097
			c10.768-0.034,21.535-0.021,32.303-0.022c0.276,0,0.553,0.001,0.828-0.01c0.202-0.009,0.373-0.057,0.413-0.312
			C130.102,78.688,131.078,77.151,131.849,75.458z M83.121,75.506c-3.802-0.318-7.378,3.798-7.352,7.743
			c0.025,3.851,3.053,7.839,7.329,7.798c4.232-0.042,7.274-3.535,7.354-7.777C90.53,79.132,86.928,75.257,83.121,75.506z
			 M166.28,91.011c4.169,0.146,7.293-3.567,7.365-7.727c0.072-4.141-3.579-7.807-7.315-7.839c-3.778-0.032-7.39,3.73-7.376,7.781
			C158.967,87.102,162.008,91.188,166.28,91.011z M58.584,75.509c-3.799-0.354-7.378,3.644-7.434,7.542
			c-0.057,4.063,3.043,7.973,7.244,7.994c4.229,0.022,7.405-3.628,7.444-7.813C65.876,79.152,62.303,75.284,58.584,75.509z
			 M141.715,75.51c-3.794-0.321-7.398,3.615-7.383,7.701c0.016,4.071,3.133,7.824,7.304,7.832c4.199,0.007,7.316-3.696,7.385-7.747
			C149.09,79.186,145.448,75.253,141.715,75.51z M22.043,91.006c4.21,0.221,7.151-3.773,7.371-7.322
			c0.258-4.164-3.54-8.224-7.274-8.222c-3.684,0.002-7.42,3.589-7.394,7.762C14.771,87.301,17.774,91.128,22.043,91.006z
			 M12.451,59.478c2.052,0,4.104-0.032,6.155,0.017c0.774,0.019,1.102-0.117,1.085-1.003c-0.058-2.998-0.046-5.998-0.005-8.996
			c0.011-0.76-0.186-1.004-0.975-0.994c-3.432,0.042-6.866,0.067-10.297-0.01c-1.088-0.024-1.582,0.387-2.038,1.315
			c-1.442,2.936-1.106,6.06-1.146,9.151c-0.008,0.646,0.463,0.514,0.829,0.516C8.189,59.482,10.32,59.478,12.451,59.478z
			 M48.685,75.376c-4.046,0-7.913,0.011-11.78-0.012c-0.659-0.004-0.879,0.2-0.895,0.877c-0.033,1.37,0.227,2.756-0.187,4.112
			c-0.166,0.546,0.288,0.453,0.568,0.454c3.197,0.009,6.395,0.008,9.592,0c0.25-0.001,0.598,0.093,0.655-0.31
			C46.899,78.683,47.924,77.166,48.685,75.376z M59.754,54.105c0-0.002,0-0.005,0-0.007c-2.009,0-4.018-0.007-6.027,0.002
			c-1.367,0.006-2.009,0.539-1.984,1.608c0.023,1.001,0.7,1.56,1.945,1.563c4.018,0.007,8.036,0.008,12.055,0
			c1.221-0.003,1.807-0.505,1.835-1.509c0.03-1.108-0.514-1.636-1.797-1.651C63.773,54.088,61.764,54.105,59.754,54.105z
			 M105.6,54.105c0-0.002,0-0.004,0-0.006c-2.009,0-4.018-0.01-6.026,0.004c-1.263,0.008-1.892,0.565-1.869,1.603
			c0.021,1.001,0.698,1.563,1.942,1.566c4.018,0.007,8.036,0.008,12.054,0c1.222-0.003,1.81-0.503,1.839-1.506
			c0.032-1.109-0.512-1.64-1.794-1.654C109.698,54.088,107.649,54.105,105.6,54.105z M151.856,54.106c0-0.003,0-0.005,0-0.008
			c-2.009,0-4.019-0.009-6.027,0.002c-1.291,0.007-1.913,0.521-1.927,1.547c-0.013,1.012,0.667,1.619,1.885,1.622
			c4.058,0.01,8.115,0.011,12.173,0c1.188-0.003,1.774-0.547,1.777-1.566c0.002-1.068-0.516-1.576-1.735-1.591
			C155.953,54.088,153.904,54.106,151.856,54.106z M71.834,54.507c0.026,1.86,1.403,3.299,3.142,3.285
			c1.742-0.014,3.104-1.488,3.083-3.337c-0.017-1.48-1.749-3.313-3.138-3.319C73.535,51.129,71.813,53.008,71.834,54.507z
			 M117.795,54.513c0.031,1.859,1.411,3.297,3.148,3.278c1.742-0.019,3.103-1.496,3.077-3.344c-0.02-1.481-1.759-3.313-3.144-3.312
			C119.484,51.137,117.771,53.014,117.795,54.513z M170.219,54.483c0-1.473-1.699-3.305-3.108-3.35
			c-1.364-0.044-3.121,1.842-3.118,3.345c0.005,1.854,1.368,3.305,3.113,3.313C168.848,57.798,170.218,56.342,170.219,54.483z
			 M47.434,54.591c0.041-1.57-1.677-3.483-3.1-3.45c-1.351,0.03-2.984,1.734-3.04,3.17c-0.076,1.976,1.225,3.459,3.055,3.485
			C46.05,57.819,47.386,56.432,47.434,54.591z M93.395,54.563c0.03-1.532-1.558-3.337-3.011-3.424
			c-1.31-0.078-3.084,1.736-3.13,3.201c-0.062,1.972,1.262,3.455,3.085,3.457C92.044,57.798,93.359,56.407,93.395,54.563z
			 M139.592,54.581c0.037-1.541-1.515-3.324-2.992-3.439c-1.293-0.1-3.095,1.72-3.146,3.179c-0.071,1.977,1.235,3.458,3.064,3.476
			C138.219,57.812,139.549,56.422,139.592,54.581z M153.916,82.71c0.38-2.583,1.293-4.979,2.586-7.249c-1.753,0-3.337,0-5.027,0
			C152.709,77.794,153.822,80.047,153.916,82.71z"/>
	</g>
</g>
</svg>
