<?xml version="1.0" encoding="utf-8"?>
<!-- Generator: Adobe Illustrator 16.0.3, SVG Export Plug-In . SVG Version: 6.00 Build 0)  -->
<!DOCTYPE svg PUBLIC "-//W3C//DTD SVG 1.1//EN" "http://www.w3.org/Graphics/SVG/1.1/DTD/svg11.dtd">
<svg version="1.1" id="Layer_1" xmlns="http://www.w3.org/2000/svg" xmlns:xlink="http://www.w3.org/1999/xlink" x="0px" y="0px"
	 width="181px" height="149px" viewBox="0 0 181 149" enable-background="new 0 0 181 149" xml:space="preserve">
<text transform="matrix(1 0 0 1 48 141)" fill="#00AE74" font-family="Arial" font-size="32">Livery</text>
<path fill="#04AE74" d="M101.083,33.172v11.675L90.46,45.01c1.043,0.217,2.133,0.337,3.288,0.366
	c3.386,0.077,6.08,2.759,5.998,5.979c-0.002,0.113-0.016,0.222-0.026,0.333h0.262v-2.711h2.856v2.711h2.857v-2.711h2.855v2.711
	h2.855v-2.711h2.857v2.711h2.857v-2.711h2.856v2.711h2.856v-2.711h2.857v2.711h2.856v-2.711h2.854v2.711h2.857v-2.711h2.856v2.711
	h2.857v-2.711h2.856v2.711h2.854v-2.711h2.859v2.711h2.854v-2.711h2.856v2.711h2.857v-2.711h2.857v2.711h-2.857v2.71h-2.857v-2.71
	h-2.856v2.71h-2.854v-2.71h-2.859v2.71h-2.854v-2.71h-2.856v2.71h-2.857v-2.71h-2.856v2.71h-2.857v-2.71h-2.854v2.71h-2.856v-2.71
	h-2.857v2.71h-2.856v-2.71h-2.856v2.71h-2.857v-2.71h-2.857v2.71h-2.855v-2.71h-2.855v2.71h-2.857v-2.71h-2.856v2.71h-1.247
	c-1.105,1.595-3.007,2.659-5.139,2.659h-0.028h-0.069h-0.001l-0.047-0.002c-4.116-0.083-8.089-0.99-11.734-2.65h-1.729V53.55
	c-0.981-0.528-1.934-1.111-2.855-1.753v2.609h-2.857v-2.711h-2.856v2.711h-0.441v11.727h69.455c0.167-4.973,4.465-8.958,9.746-8.958
	s9.577,3.985,9.742,8.958h15.705c2.104,0,3.808-1.617,3.808-3.613c0-1.994-1.704-3.613-3.808-3.613h-0.401l1.604-3.506
	c0,0,1.247-4.285-0.467-4.907c-12.934-4.697-28.127-5.954-32.415-6.227c-6.904-7.571-13.012-14.222-16.613-15.387
	c-0.64-0.207-3.308-0.303-7.333-0.312l-0.818-4.564h-3.693l-0.823,4.592c-11.007,0.122-27.357,0.62-41.942,1.233
	c1.275,1.249,2.363,2.595,3.49,4.014C83.883,33.542,92.328,33.301,101.083,33.172z M137.903,41.517h-3.605
	c-1.605,0-2.906,1.234-2.906,2.758c0,0.035,0.005,0.068,0.007,0.104l-27.912,0.429V33.139c3.713-0.046,7.476-0.071,11.246-0.071
	c10.047,0,11.909,0.184,12.247,0.263C129.38,34.107,133.211,36.997,137.903,41.517z"/>
<path fill="#04AE74" d="M73.608,48.984c-0.954-0.862-1.829-1.742-2.632-2.61v5.321h0.442v-2.711H73.608z"/>
<path fill="#04AE74" d="M76.453,51.318c-0.768-0.564-1.492-1.147-2.18-1.742v2.12h2.713C76.808,51.57,76.629,51.447,76.453,51.318z"
	/>
<path fill="#04AE74" d="M30.223,57.175c0.544,0,1.077,0.044,1.597,0.126c0.01-4.19,0.252-7.917,0.731-11.229
	c-0.492,0.041-1.038,0.087-1.63,0.139c0.631-0.961,1.349-1.995,2.124-3.021c0.504-2.479,1.163-4.694,1.983-6.662
	c0.142-0.343,0.288-0.673,0.437-0.994c-3.298,3.625-6.146,8.859-7.205,10.915c-7.079,0.661-17.297,1.818-19.477,3.145
	c-2.092,1.275-3.428,6.146-4.147,9.716c-1.225,0.601-2.064,1.811-2.064,3.209c0,1.996,1.705,3.613,3.808,3.613H20.48
	C20.646,61.16,24.943,57.175,30.223,57.175z"/>
<path fill="#04AE74" d="M36.527,70.91c-1.515-0.416-2.797-1.368-3.59-2.636c-0.607,0.802-1.595,1.325-2.714,1.325
	c-1.843,0-3.339-1.418-3.339-3.168c0-1.751,1.496-3.17,3.339-3.17c0.646,0,1.246,0.177,1.757,0.478
	c-0.079-1.588-0.127-3.136-0.148-4.632c-0.52-0.101-1.057-0.156-1.608-0.156c-4.353,0-7.881,3.348-7.881,7.479
	s3.527,7.481,7.881,7.481C32.804,73.911,35.088,72.729,36.527,70.91z"/>
<path fill="#04AE74" d="M150.175,58.95c-4.353,0-7.881,3.348-7.881,7.48c0,4.132,3.528,7.48,7.881,7.48
	c4.354,0,7.883-3.348,7.883-7.48C158.058,62.298,154.53,58.95,150.175,58.95z M153.516,66.43c0,1.751-1.496,3.169-3.341,3.169
	c-1.844,0-3.339-1.418-3.339-3.169c0-1.75,1.495-3.169,3.339-3.169C152.02,63.261,153.516,64.68,153.516,66.43z"/>
<polygon fill="#04AE74" points="41.917,75.262 33.144,75.262 27.304,75.262 1.486,75.262 1.486,77.141 41.917,77.141 "/>
<polygon fill="#04AE74" points="70.976,75.262 70.976,77.141 179.432,77.141 179.432,75.262 151.329,75.262 145.613,75.262 "/>
<path fill="#04AE74" d="M34.719,65.493c0.11,1.774,1.66,3.142,3.509,3.142c0.069,0,0.139-0.002,0.209-0.005
	c1.938-0.109,3.418-1.688,3.305-3.529c-0.172-2.774-0.25-5.302-0.25-7.603c-0.014-10.108,1.539-15.783,3.063-18.746v62.594
	c0,2.851,2.434,5.159,5.436,5.159c3.002,0,5.437-2.309,5.437-5.159V63.678h2.038v37.668c0,2.851,2.434,5.159,5.435,5.159
	c3.002,0,5.437-2.309,5.437-5.159V39.178c0.275,0.345,0.559,0.701,0.853,1.074c2.21,2.776,4.981,6.227,8.882,9.088
	c3.883,2.865,9.025,5.083,15.435,5.213c0.029,0.001,0.057,0.001,0.087,0.001c1.902,0,3.468-1.442,3.515-3.258
	c0.046-1.843-1.49-3.373-3.433-3.417c-3.927-0.099-6.934-1.13-9.557-2.668c-3.922-2.305-6.894-5.91-9.505-9.221
	c-1.318-1.655-2.531-3.227-3.939-4.574c-0.712-0.674-1.482-1.302-2.435-1.817c-0.747-0.404-1.645-0.729-2.629-0.846
	c-0.217-0.041-0.442-0.063-0.672-0.063h-3.887c0.473,2.398,2.382,13.133-0.903,15.146c-0.511,0.313-0.945,0.579-1.336,0.806
	l-1.047-9.935c-0.431,0.11-0.873,0.169-1.316,0.169h-0.002h-0.002c-0.444,0-0.887-0.06-1.318-0.169l-1.047,9.935
	c-0.39-0.227-0.826-0.492-1.336-0.806c-3.285-2.013-1.376-12.748-0.903-15.146h-3.888c-0.057,0-0.113,0.006-0.168,0.008
	c-0.795,0.01-2.11,0.174-3.604,0.89c-2.366,1.114-4.915,3.548-6.699,7.861c-1.805,4.332-3.018,10.595-3.023,20.049
	C34.457,59.941,34.54,62.6,34.719,65.493z"/>
<path fill="#04AE74" d="M46.784,12.185c0.036,0.252,0.177,0.498,0.413,0.73c-0.415,1.036-0.644,2.158-0.644,3.333
	c0,5.187,4.43,9.389,9.893,9.389s9.893-4.202,9.893-9.389c0-1.174-0.229-2.297-0.644-3.333c0.236-0.233,0.377-0.478,0.414-0.73
	c1.15,0.038,2.035-0.137,2.427-0.723c1.312-1.963-2.051-10.154-12.09-10.154s-13.4,8.191-12.089,10.154
	C44.747,12.047,45.632,12.223,46.784,12.185z M56.446,7.746c5.342,0,9.673,1.308,9.673,2.92c0,0.24-0.098,0.473-0.278,0.696
	c-1.034-1.278-4.847-2.225-9.395-2.225s-8.361,0.947-9.394,2.225c-0.181-0.224-0.279-0.457-0.279-0.696
	C46.773,9.054,51.104,7.746,56.446,7.746z"/>
<path fill="#04AE74" d="M56.446,29.485h-1.23l-0.615,3.129l0.348,0.708c0.476,0.198,0.984,0.302,1.498,0.302
	c0.512,0,1.023-0.104,1.5-0.304l0.348-0.705l-0.616-3.129H56.446z"/>
</svg>
