<?xml version="1.0" encoding="utf-8"?>
<!-- Generator: Adobe Illustrator 16.0.3, SVG Export Plug-In . SVG Version: 6.00 Build 0)  -->
<!DOCTYPE svg PUBLIC "-//W3C//DTD SVG 1.1//EN" "http://www.w3.org/Graphics/SVG/1.1/DTD/svg11.dtd">
<svg version="1.1" id="Layer_1" xmlns="http://www.w3.org/2000/svg" xmlns:xlink="http://www.w3.org/1999/xlink" x="0px" y="0px"
	 width="181px" height="149px" viewBox="0 0 181 149" enable-background="new 0 0 181 149" xml:space="preserve">
<text transform="matrix(1 0 0 1 24 141)" fill="#00AE74" font-family="Arial" font-size="32">Municipal</text>
<path fill="#04AE74" d="M143.593,29.029c-0.229,0.003-0.455,0.045-0.67,0.125V15.61c0.004-0.646-0.069-1.291-0.216-1.92
	c0.012-0.136,0.012-0.273,0-0.409C142.742,5.953,119.962,0,91.853,0C63.744,0,40.964,5.953,40.964,13.281
	c-0.011,0.136-0.011,0.273,0,0.409c-0.147,0.629-0.22,1.274-0.215,1.92v13.453c-0.118-0.011-0.235-0.011-0.352,0
	c-2.886,0-5.227,6.93-5.227,15.497s2.375,15.463,5.261,15.463c0.118,0.012,0.235,0.012,0.352,0v31.154
	c0.012,4.852,3.942,8.782,8.794,8.794h1.534c0,0.068,0,0.137,0,0.205v5.18c0.006,3.149,2.534,5.712,5.681,5.761h5.477
	c3.173-0.012,5.742-2.586,5.75-5.761v-5.18c0-0.068,0-0.137,0-0.205h47.718c0,0.068,0,0.137,0,0.205v5.18
	c0,3.177,2.572,5.755,5.75,5.761h5.407c3.178-0.006,5.749-2.584,5.749-5.761v-5.18c0.006-0.068,0.006-0.137,0-0.205h1.511
	c4.848-0.02,8.771-3.947,8.783-8.794V59.898c0.214,0.079,0.441,0.121,0.671,0.125c2.886,0,5.226-6.942,5.226-15.497
	C148.832,35.971,146.479,29.029,143.593,29.029z M72.413,6.816h38.914c1.786-0.106,3.318,1.256,3.425,3.041
	c0.105,1.785-1.256,3.319-3.041,3.424c-0.128,0.008-0.256,0.008-0.384,0H72.413c-1.785-0.105-3.146-1.639-3.04-3.424
	C69.469,8.22,70.776,6.914,72.413,6.816z M59.484,91.029c-3.445,0-6.238-2.793-6.238-6.237c0-3.445,2.792-6.238,6.238-6.238
	c3.444,0,6.237,2.793,6.237,6.238l0,0C65.721,88.236,62.928,91.029,59.484,91.029z M89.274,19.201v51.57H56.723
	c-3.657-0.006-6.623-2.966-6.635-6.624V25.325c0.012-3.659,2.976-6.623,6.635-6.635h32.608
	C89.295,18.858,89.277,19.029,89.274,19.201z M124.234,91.029c-3.445,0-6.237-2.793-6.237-6.237c0-3.445,2.792-6.238,6.237-6.238
	c3.444,0,6.237,2.793,6.237,6.238l0,0C130.471,88.236,127.678,91.029,124.234,91.029z M133.619,64.147
	c-0.006,3.656-2.968,6.618-6.624,6.624H94.432v-51.57c-0.002-0.177-0.021-0.351-0.057-0.522h32.619
	c3.658,0.012,6.618,2.977,6.624,6.635V64.147z"/>
</svg>
