<?xml version="1.0" encoding="utf-8"?>
<!-- Generator: Adobe Illustrator 16.0.3, SVG Export Plug-In . SVG Version: 6.00 Build 0)  -->
<!DOCTYPE svg PUBLIC "-//W3C//DTD SVG 1.1//EN" "http://www.w3.org/Graphics/SVG/1.1/DTD/svg11.dtd">
<svg version="1.1" id="Layer_1" xmlns="http://www.w3.org/2000/svg" xmlns:xlink="http://www.w3.org/1999/xlink" x="0px" y="0px"
	 width="181px" height="149px" viewBox="0 0 181 149" enable-background="new 0 0 181 149" xml:space="preserve">
<text transform="matrix(1 0 0 1 36 141)" fill="#00AE74" font-family="Arial" font-size="32">Parking</text>
<path fill="#04AE74" d="M59.91,67.257v5.735l3.625,3.625c1.374,1.375,1.374,3.604,0,4.978l-3.086,3.086l3.097,3.086
	c1.374,1.374,1.374,3.603,0,4.978l-3.636,3.671v2.673l5.735,5.734l5.735-5.734V67.257c-0.001-1.169,0.707-2.222,1.79-2.661
	c1.095-0.447,2.147-0.992,3.143-1.629c0.519-0.496,1.209-0.771,1.927-0.769c1.276-0.005,2.408,0.816,2.798,2.03
	c0.377,1.207-0.091,2.517-1.147,3.212c-0.908,0.613-1.854,1.169-2.833,1.663v30.568c-0.025,1.137-0.5,2.218-1.319,3.006
	l-7.421,7.421c-1.511,1.499-3.948,1.499-5.46,0l-7.41-7.421c-0.801-0.797-1.259-1.876-1.273-3.006v-3.728
	c-0.001-1.217,0.481-2.385,1.342-3.246l2.397-2.397l-1.95-1.961c-1.999-1.997-2-5.236-0.003-7.235c0.001,0,0.002-0.001,0.003-0.003
	l1.962-1.961l-2.397-2.397c-0.865-0.859-1.352-2.027-1.354-3.246v-4.394C41.536,62.809,36.392,47.46,42.687,34.82
	c1.639-3.292,3.969-6.191,6.831-8.5c1.25-0.973,3.052-0.747,4.024,0.503c0.947,1.218,0.761,2.967-0.422,3.958
	c-8.523,6.879-9.855,19.366-2.976,27.889c2.116,2.622,4.865,4.661,7.988,5.926C59.211,65.039,59.914,66.091,59.91,67.257z
	 M125.669,82.765c-1.208-0.001-2.365-0.479-3.223-1.33l-3.029-3.028c-0.907-0.915-1.414-2.152-1.41-3.44v-4.313h-3.612
	c-3.012,0-5.454-2.438-5.461-5.449V61.58h-4.289c-1.289,0.002-2.526-0.504-3.441-1.411l-3.785-3.774
	c-15.134,5.22-31.633-2.817-36.852-17.951c-5.22-15.133,2.817-31.633,17.951-36.852c15.134-5.22,31.633,2.817,36.853,17.951
	c2.111,6.123,2.111,12.777,0,18.901l25.039,25.04c0.848,0.854,1.325,2.008,1.331,3.211v12.066c-0.007,2.213-1.803,4.003-4.016,4.003
	H125.669z M123.743,68.531v6.079l2.42,2.421h9.842v-9.842L110,41.186c-0.826-0.824-1.071-2.067-0.619-3.143
	c4.99-11.819-0.547-25.444-12.364-30.433C85.198,2.621,71.574,8.157,66.584,19.975c-4.989,11.818,0.547,25.443,12.365,30.432
	c5.776,2.439,12.292,2.439,18.068,0c1.075-0.452,2.319-0.208,3.143,0.619l4.817,4.818h6.079c2.002,0,3.625,1.623,3.625,3.625l0,0
	v5.448h5.448C122.123,64.923,123.736,66.537,123.743,68.531z M89.045,17.396c3.496,3.5,3.494,9.171-0.006,12.669
	c-3.5,3.497-9.172,3.494-12.669-0.006c-3.497-3.5-3.495-9.172,0.005-12.669c1.682-1.68,3.961-2.623,6.338-2.621
	C85.088,14.772,87.366,15.717,89.045,17.396z M84.985,21.456c-1.268-1.267-3.321-1.267-4.588,0c-1.267,1.267-1.267,3.321,0,4.588
	c1.28,1.235,3.307,1.235,4.588,0c1.273-1.253,1.289-3.301,0.036-4.574c-0.008-0.008-0.017-0.017-0.024-0.025L84.985,21.456z"/>
</svg>
