<?xml version="1.0" encoding="utf-8"?>
<!-- Generator: Adobe Illustrator 16.0.3, SVG Export Plug-In . SVG Version: 6.00 Build 0)  -->
<!DOCTYPE svg PUBLIC "-//W3C//DTD SVG 1.1//EN" "http://www.w3.org/Graphics/SVG/1.1/DTD/svg11.dtd">
<svg version="1.1" id="Layer_1" xmlns="http://www.w3.org/2000/svg" xmlns:xlink="http://www.w3.org/1999/xlink" x="0px" y="0px"
	 width="181px" height="149px" viewBox="0 0 181 149" enable-background="new 0 0 181 149" xml:space="preserve">
<text transform="matrix(1 0 0 1 38 141)" fill="#00AE74" font-family="Arial" font-size="32">Rental</text>
<g>
	<path fill="#04AE74" d="M60.122,0C53.46,0,49.39,2.406,43.838,10.178l-9.253,20.911H20.521c-2.22,0-6.291,11.473,8.513,11.843
		L24.038,54.96c0.185,15.358,0.185,30.533,0.185,45.708c0,3.146,2.591,5.736,5.737,5.736h19.245c3.146,0,5.551-2.591,5.551-5.736
		V88.084h72.91v12.584c0,3.146,2.593,5.736,5.737,5.736h19.245c3.146,0,5.552-2.591,5.552-5.736c0-15.175,0.186-30.349,0.186-45.708
		l-4.998-12.028c14.989-0.371,10.734-11.843,8.697-11.843h-14.063l-9.253-20.911C133.218,2.406,129.147,0,122.484,0H60.122z
		 M42.358,37.565c2.96-6.477,5.736-13.139,9.438-20.541c2.036-3.517,4.256-6.662,8.327-7.032h62.362
		c4.072,0.37,6.291,3.516,8.327,7.032c3.701,7.402,6.478,14.064,9.438,20.541H42.358z M45.133,56.071
		c4.997,0,9.252,4.071,9.252,9.252c0,4.996-4.256,9.252-9.252,9.252c-5.181,0-9.253-4.257-9.253-9.252
		C35.88,60.142,39.952,56.071,45.133,56.071z M71.596,64.213h39.23c2.406,0,4.256,2.036,4.256,4.441c0,2.22-1.85,4.256-4.256,4.256
		h-39.23c-2.221,0-4.256-2.036-4.256-4.256C67.34,66.249,69.375,64.213,71.596,64.213z"/>
	<path fill="#FFFFFF" d="M137.473,56.071c-4.996,0-9.253,4.071-9.253,9.252c0,4.996,4.257,9.252,9.253,9.252
		c5.182,0,9.252-4.257,9.252-9.252C146.725,60.142,142.655,56.071,137.473,56.071z"/>
</g>
</svg>
