<?xml version="1.0" encoding="utf-8"?>
<!-- Generator: Adobe Illustrator 16.0.3, SVG Export Plug-In . SVG Version: 6.00 Build 0)  -->
<!DOCTYPE svg PUBLIC "-//W3C//DTD SVG 1.1//EN" "http://www.w3.org/Graphics/SVG/1.1/DTD/svg11.dtd">
<svg version="1.1" id="Layer_1" xmlns="http://www.w3.org/2000/svg" xmlns:xlink="http://www.w3.org/1999/xlink" x="0px" y="0px"
	 width="181px" height="149px" viewBox="0 0 181 149" enable-background="new 0 0 181 149" xml:space="preserve">
<text transform="matrix(1 0 0 1 10 141)" fill="#00AE74" font-family="Arial" font-size="32">Ride Share</text>
<g>
	<g>
		<path fill-rule="evenodd" clip-rule="evenodd" fill="#06AE76" d="M35.104,103.314c-0.528-0.239-1.109-0.203-1.663-0.309
			c-6.85-1.295-12.028-6.447-13.343-13.302c-1.492-7.778,3.025-15.818,10.505-18.459c6.543-2.31,12.427-0.998,17.449,3.756
			c2.618,2.479,4.154,5.608,4.676,9.206c1.102,7.601-2.814,14.676-9.849,17.745c-1.587,0.692-3.255,1.104-4.984,1.249
			c-0.089,0.008-0.2-0.021-0.226,0.113C36.814,103.314,35.959,103.314,35.104,103.314z M46.922,86.778
			c0.092-5.753-4.614-10.585-10.479-10.604c-5.979-0.019-10.556,4.761-10.589,10.493c-0.034,5.737,4.5,10.295,9.956,10.582
			C41.949,97.573,46.927,92.664,46.922,86.778z"/>
		<path fill-rule="evenodd" clip-rule="evenodd" fill="#06AE76" d="M143.914,103.314c-0.697-0.11-1.397-0.206-2.091-0.334
			c-3.995-0.734-7.275-2.705-9.831-5.837c-2.464-3.019-3.69-6.519-3.7-10.414c-0.02-7.569,5.155-14.199,12.493-16.058
			c8.221-2.082,16.664,2.396,19.597,10.366c3.164,8.601-1.313,18.139-9.885,21.235c-1.465,0.528-2.964,0.877-4.525,0.94
			c-0.108,0.005-0.237-0.029-0.309,0.102C145.08,103.314,144.497,103.314,143.914,103.314z M134.31,86.677
			c-0.036,5.797,4.578,10.322,10.021,10.576c6.116,0.285,11.031-4.637,11.054-10.483c0.022-5.776-4.635-10.586-10.493-10.596
			C138.93,76.165,134.334,80.913,134.31,86.677z"/>
		<path fill-rule="evenodd" clip-rule="evenodd" fill="#06AE76" d="M104.179,9.899c5.462,0,10.924,0.021,16.386-0.015
			c1.305-0.009,2.754,0.75,3.176,2.508c0.771,3.213,1.591,6.414,2.358,9.628c0.107,0.448,0.358,0.564,0.734,0.669
			c5.763,1.595,11.221,3.88,16.249,7.148c5.194,3.376,9.544,7.625,13.146,12.653c0.848,1.184,1.666,2.387,2.399,3.645
			c0.179,0.306,0.407,0.485,0.739,0.595c5.469,1.807,10.935,3.63,16.406,5.43c1.431,0.471,2.218,1.752,2.212,3.054
			c-0.033,6.784-0.012,13.567-0.025,20.351c-0.001,0.416,0.095,0.59,0.53,0.673c1.584,0.303,2.508,1.461,2.509,3.07
			c0.002,2.955,0.003,5.909,0,8.863c-0.002,1.871-1.516,3.16-3.377,3.101c-2.737-0.088-5.482-0.118-8.218-0.01
			c-2.172,0.087-3.478-1.518-3.484-3.166c-0.02-4.852-1.541-9.224-4.594-13.008c-3.555-4.404-8.156-7.083-13.779-7.767
			c-6.338-0.771-11.98,0.952-16.777,5.232c-3.729,3.328-5.95,7.494-6.77,12.407c-0.182,1.088-0.257,2.195-0.262,3.305
			c-0.009,1.798-1.534,3.15-3.332,2.989c-0.27-0.024-0.543-0.031-0.814-0.031c-19.32-0.001-38.641,0-57.961-0.008
			c-0.501,0-0.998,0.042-1.506,0.007c-1.306-0.092-2.65-1.436-2.657-3.083c-0.02-4.852-1.524-9.227-4.569-13.016
			c-3.559-4.429-8.175-7.121-13.821-7.804c-6.361-0.77-12.017,0.971-16.816,5.282c-3.702,3.324-5.905,7.479-6.719,12.372
			c-0.184,1.107-0.249,2.234-0.264,3.362c-0.023,1.729-1.545,3.006-3.283,2.936c-2.815-0.113-5.635-0.115-8.45,0.001
			c-1.794,0.073-3.308-1.252-3.311-3.051c-0.005-3.013-0.004-6.025,0-9.038c0.002-1.447,0.975-2.668,2.402-2.922
			c0.539-0.096,0.644-0.309,0.64-0.821c-0.027-3.751-0.03-7.503-0.016-11.254c0.011-2.991,1.334-5.409,3.381-7.483
			c2.628-2.664,5.865-4.362,9.284-5.744c4.159-1.681,8.486-2.756,12.899-3.525c4.733-0.824,9.503-1.213,14.298-1.334
			c0.606-0.016,1.012-0.182,1.42-0.664c6.706-7.933,14.995-13.645,24.63-17.447c3.838-1.515,7.775-2.715,11.802-3.605
			c0.576-0.127,0.773-0.389,0.901-0.91c0.913-3.736,1.847-7.468,2.785-11.199c0.384-1.528,1.498-2.375,3.074-2.375
			C93.217,9.899,98.698,9.899,104.179,9.899z M10.764,61.104c1.566,0,2.985-0.021,4.404,0.005c2.283,0.042,3.715,2.093,2.912,4.135
			c-0.465,1.183-1.568,1.895-2.995,1.904c-1.769,0.011-3.538,0.014-5.306-0.006c-0.398-0.004-0.535,0.094-0.528,0.512
			c0.025,1.399,0,2.799,0.012,4.198c0.02,2.39-0.046,4.78,0.041,7.17c0.059,1.607-1.055,2.933-2.65,3.164
			c-0.297,0.044-0.393,0.112-0.385,0.411c0.02,0.758,0.016,1.517,0.002,2.274c-0.005,0.277,0.088,0.372,0.368,0.366
			c0.816-0.015,1.633-0.017,2.449,0.002c0.274,0.006,0.367-0.083,0.402-0.35c0.094-0.709,0.188-1.422,0.338-2.121
			c1.339-6.256,4.448-11.48,9.41-15.501c6.52-5.283,14.001-7.157,22.248-5.652c5.886,1.074,10.849,3.922,14.897,8.346
			c3.803,4.156,6.092,9.018,6.839,14.6c0.066,0.497,0.209,0.688,0.775,0.688c17.513-0.021,35.025-0.017,52.538-0.02
			c0.443,0,0.981,0.172,1.304-0.08c0.274-0.215,0.168-0.76,0.227-1.16c0.014-0.096,0.051-0.188,0.067-0.282
			c1.145-6.708,4.381-12.234,9.637-16.5c5.878-4.771,12.656-6.727,20.199-5.884c5.659,0.633,10.611,2.874,14.867,6.658
			c3.524,3.134,6.076,6.92,7.627,11.373c0.594,1.702,1.038,3.444,1.224,5.242c0.05,0.477,0.214,0.695,0.749,0.65
			c0.694-0.059,1.398-0.029,2.098-0.008c0.321,0.009,0.447-0.076,0.437-0.419c-0.023-0.737-0.017-1.477-0.002-2.215
			c0.006-0.283-0.067-0.372-0.375-0.421c-1.276-0.203-2.147-0.93-2.526-2.181c-0.17-0.562-0.1-1.148-0.098-1.73
			c0.015-4.548,0.003-9.096,0.018-13.645c0.001-0.418-0.128-0.514-0.525-0.509c-1.827,0.02-3.654,0.032-5.481,0.002
			c-2.21-0.036-3.645-2.159-2.808-4.153c0.563-1.344,1.673-1.871,3.069-1.877c1.749-0.009,3.499,0.001,5.248-0.007
			c0.186-0.001,0.471,0.116,0.481-0.24c0.01-0.281,0.092-0.605-0.319-0.703c-0.112-0.027-0.22-0.073-0.33-0.11
			c-4.42-1.474-8.846-2.933-13.257-4.433c-1.081-0.368-2.157-0.53-3.299-0.526c-7.017,0.025-14.033,0.013-21.049,0.013
			c-12.906,0-25.812,0-38.718,0c-16.016,0-32.032-0.002-48.048,0.001c-3.709,0.001-7.413,0.095-11.111,0.469
			c-4.094,0.413-8.137,1.07-12.108,2.139c-3.504,0.943-6.911,2.147-10.024,4.063C12.667,59.397,11.682,60.103,10.764,61.104z
			 M116.873,46.053c5.284,0,10.568-0.004,15.853,0.008c0.389,0.001,0.572-0.055,0.621-0.502c0.091-0.825,0.277-1.639,0.414-2.46
			c0.563-3.397,1.112-6.797,1.698-10.191c0.068-0.392-0.019-0.55-0.35-0.711c-2.369-1.151-4.801-2.145-7.312-2.939
			c-1.62-0.512-3.223-1.125-4.92-1.307c-1.638-0.176-3.291-0.233-4.938-0.308c-4.096-0.186-8.194-0.157-12.293-0.142
			c-0.421,0.001-0.565,0.148-0.658,0.521c-1.443,5.831-2.889,11.661-4.363,17.484c-0.134,0.528,0.016,0.556,0.454,0.555
			C106.343,46.049,111.608,46.053,116.873,46.053z M52.137,46.053c0.276,0,0.389,0,0.501,0c13.72,0,27.44-0.003,41.16,0.013
			c0.433,0,0.55-0.162,0.64-0.526c1.407-5.686,2.824-11.368,4.238-17.052c0.167-0.672,0.164-0.679-0.519-0.614
			c-3.183,0.304-6.363,0.625-9.523,1.135c-4.398,0.708-8.731,1.681-12.974,3.046c-6.94,2.235-13.373,5.437-19.086,10.012
			C55.06,43.28,53.61,44.563,52.137,46.053z M88.198,22.939c0.149,0,0.265,0.016,0.375-0.002c2.851-0.467,5.722-0.779,8.599-1.003
			c4.318-0.336,8.646-0.495,12.978-0.489c3.051,0.004,6.097,0.141,9.144,0.243c0.396,0.013,0.557-0.029,0.431-0.496
			c-0.416-1.548-0.808-3.104-1.165-4.667c-0.106-0.468-0.29-0.604-0.772-0.602c-6.003,0.019-12.005,0.013-18.008,0.013
			c-3.108,0-6.216,0-9.324-0.001c-0.272,0-0.509-0.036-0.602,0.348C89.318,18.494,88.758,20.7,88.198,22.939z M151.317,46.053
			c-0.05-0.115-0.063-0.171-0.093-0.213c-2.729-3.794-5.959-7.091-9.757-9.825c-0.303-0.217-0.409-0.25-0.48,0.195
			c-0.498,3.13-1.019,6.257-1.555,9.381c-0.059,0.345-0.068,0.472,0.344,0.471C143.598,46.047,147.421,46.053,151.317,46.053z"/>
		<path fill-rule="evenodd" clip-rule="evenodd" fill="#06AE76" d="M87.581,67.165c-2.853-0.005-5.706,0-8.558-0.025
			c-0.434-0.004-0.453,0.187-0.452,0.519c0.008,2.639-0.005,5.279,0.014,7.918c0.003,0.441-0.088,0.595-0.566,0.59
			c-2.659-0.025-5.318-0.024-7.977,0c-0.454,0.004-0.537-0.139-0.534-0.558c0.013-2.814,0-5.628-0.005-8.442l-0.011,0.011
			c2.817-0.006,5.635-0.026,8.452-0.008c0.5,0.003,0.666-0.106,0.66-0.637c-0.028-2.624-0.001-5.248-0.023-7.872
			c-0.004-0.457,0.115-0.584,0.577-0.58c2.643,0.022,5.287,0.013,7.93,0.008c0.289,0,0.513-0.025,0.509,0.402
			c-0.023,2.896-0.021,5.791-0.026,8.686C87.57,67.176,87.581,67.165,87.581,67.165z"/>
		<path fill-rule="evenodd" clip-rule="evenodd" fill="#06AE76" d="M105.657,67.166c-2.853-0.005-5.706,0-8.559-0.026
			c-0.434-0.004-0.453,0.186-0.452,0.519c0.009,2.64-0.005,5.279,0.015,7.919c0.003,0.441-0.089,0.594-0.567,0.589
			c-2.658-0.025-5.318-0.024-7.977,0c-0.457,0.004-0.535-0.143-0.533-0.559c0.014-2.814,0.001-5.629-0.003-8.443
			c0,0-0.011,0.011-0.011,0.012c2.817-0.006,5.634-0.025,8.452-0.007c0.505,0.003,0.663-0.115,0.657-0.641
			c-0.027-2.623-0.001-5.247-0.023-7.871c-0.004-0.462,0.123-0.581,0.58-0.578c2.643,0.022,5.286,0.013,7.93,0.008
			c0.288,0,0.511-0.025,0.508,0.403c-0.023,2.895-0.021,5.79-0.027,8.685L105.657,67.166z"/>
		<path fill-rule="evenodd" clip-rule="evenodd" fill="#06AE76" d="M105.646,67.177c2.797-0.006,5.593-0.027,8.39-0.007
			c0.545,0.004,0.728-0.12,0.721-0.696c-0.031-2.603-0.004-5.206-0.024-7.809c-0.003-0.448,0.102-0.59,0.572-0.585
			c2.642,0.023,5.283,0.02,7.926,0.002c0.404-0.003,0.522,0.102,0.52,0.514c-0.018,2.681-0.022,5.362,0.004,8.042
			c0.005,0.477-0.173,0.522-0.57,0.52c-2.643-0.015-5.284,0.004-7.926-0.019c-0.446-0.004-0.544,0.125-0.541,0.553
			c0.02,2.642-0.001,5.284,0.021,7.925c0.004,0.44-0.116,0.551-0.552,0.547c-2.661-0.021-5.322-0.021-7.983,0.001
			c-0.442,0.004-0.545-0.119-0.543-0.55c0.017-2.816,0.003-5.633-0.002-8.45C105.657,67.166,105.646,67.177,105.646,67.177z"/>
		<path fill-rule="evenodd" clip-rule="evenodd" fill="#06AE76" d="M69.503,67.167c-2.796-0.005-5.591-0.023-8.387-0.004
			c-0.476,0.003-0.618-0.106-0.613-0.599c0.025-2.64,0.021-5.281,0.002-7.921c-0.003-0.417,0.078-0.566,0.536-0.562
			c2.66,0.023,5.32,0.014,7.979,0.008c0.299,0,0.503-0.004,0.5,0.413c-0.023,2.892-0.021,5.784-0.028,8.676L69.503,67.167z"/>
	</g>
</g>
</svg>
